<svg id="レイヤー_1" data-name="レイヤー 1" xmlns="http://www.w3.org/2000/svg" viewBox="0 0 1366 768"><defs><style>.cls-1{fill:none;stroke:#000;stroke-miterlimit:10;stroke-width:7px;}</style></defs><ellipse cx="833.09" cy="268.5" rx="14.55" ry="17"/><path d="M833.09,252c7.75,0,14,7.4,14,16.5s-6.3,16.5-14,16.5S819,277.6,819,268.5s6.3-16.5,14.05-16.5m0-1c-8.31,0-15.05,7.84-15.05,17.5s6.74,17.5,15.05,17.5,15-7.84,15-17.5-6.74-17.5-15-17.5Z"/><path class="cls-1" d="M833.09,268.5s-32.68-80-107.51-72"/><path d="M717,211c-6.41,0-11.63-6.5-11.63-14.5S710.57,182,717,182s11.63,6.5,11.63,14.5S723.4,211,717,211Z"/><path d="M717,188c2.67,0,5.63,3.49,5.63,8.5s-3,8.5-5.63,8.5-5.63-3.49-5.63-8.5,3-8.5,5.63-8.5m0-12c-9.74,0-17.63,9.18-17.63,20.5S707.24,217,717,217s17.63-9.18,17.63-20.5S726.72,176,717,176Z"/><path class="cls-1" d="M833.09,455.5c-85.15,46-201.25,51-201.25,51-169.43,19-136.75-184-136.75-184,28.38-144,221.89-126,221.89-126s-158.25,43-213.29,250"/><ellipse cx="833.95" cy="455.5" rx="14.55" ry="17"/><path d="M834,439c7.75,0,14,7.4,14,16.5S841.7,472,834,472s-14.05-7.4-14.05-16.5S826.2,439,834,439m0-1c-8.31,0-15.05,7.84-15.05,17.5S825.64,473,834,473s15-7.84,15-17.5S842.26,438,834,438Z"/><circle cx="625" cy="510" r="19.5"/><path d="M625,491a19,19,0,1,1-19,19,19,19,0,0,1,19-19m0-1a20,20,0,1,0,20,20,20,20,0,0,0-20-20Z"/><circle cx="541" cy="482" r="12.5"/><path d="M541,470a12,12,0,1,1-12,12,12,12,0,0,1,12-12m0-1a13,13,0,1,0,13,13,13,13,0,0,0-13-13Z"/><circle cx="511" cy="447" r="13.5"/><path d="M511,434a13,13,0,1,1-13,13,13,13,0,0,1,13-13m0-1a14,14,0,1,0,14,14,14,14,0,0,0-14-14Z"/><ellipse cx="751.38" cy="454.5" rx="11.97" ry="14"/><path d="M751.38,441c6.33,0,11.47,6.06,11.47,13.5S757.71,468,751.38,468s-11.47-6.06-11.47-13.5,5.15-13.5,11.47-13.5m0-1c-6.88,0-12.47,6.49-12.47,14.5S744.5,469,751.38,469s12.47-6.49,12.47-14.5S758.27,440,751.38,440Z"/><circle cx="583.5" cy="400.5" r="17"/><path d="M583.5,384A16.5,16.5,0,1,1,567,400.5,16.52,16.52,0,0,1,583.5,384m0-1A17.5,17.5,0,1,0,601,400.5,17.51,17.51,0,0,0,583.5,383Z"/><path class="cls-1" d="M781.49,316.5c-166-107-286,55.87-286,55.87s175,83.13,325.53.13"/><path class="cls-1" d="M508,446.5s-13.76,40,0,154c3.47,28.79,25.8-119,25.8-119,45.58-170,264-261.39,264-261.39"/><path class="cls-1" d="M508,604.5c46.44-92,96.32-97,96.32-97s52.47-35,149.65-52"/><circle cx="528.5" cy="384.5" r="17"/><path d="M528.5,368A16.5,16.5,0,1,1,512,384.5,16.52,16.52,0,0,1,528.5,368m0-1A17.5,17.5,0,1,0,546,384.5,17.51,17.51,0,0,0,528.5,367Z"/><circle cx="576" cy="311" r="14.5"/><path d="M576,297a14,14,0,1,1-14,14,14,14,0,0,1,14-14m0-1a15,15,0,1,0,15,15,15,15,0,0,0-15-15Z"/><path d="M687.74,302.5c-8,0-14.55-7.63-14.55-17s6.53-17,14.55-17,14.55,7.63,14.55,17S695.76,302.5,687.74,302.5Z"/><path d="M687.74,269c7.75,0,14,7.4,14,16.5s-6.3,16.5-14,16.5-14-7.4-14-16.5,6.3-16.5,14-16.5m0-1c-8.31,0-15,7.84-15,17.5s6.74,17.5,15,17.5,15-7.84,15-17.5-6.74-17.5-15-17.5Z"/><path class="cls-1" d="M496.5,372.5s-77.08,100.68-75,109c4,16,44,8,44,8l-7,40s33,1,26,10-25,5-19,14,48,66,57,59c0,0,57,3,70-8"/><circle cx="592.5" cy="604.5" r="12"/><path d="M592.5,593A11.5,11.5,0,1,1,581,604.5,11.51,11.51,0,0,1,592.5,593m0-1A12.5,12.5,0,1,0,605,604.5,12.5,12.5,0,0,0,592.5,592Z"/></svg>