<svg id="レイヤー_1" data-name="レイヤー 1" xmlns="http://www.w3.org/2000/svg" xmlns:xlink="http://www.w3.org/1999/xlink" viewBox="0 0 960 540"><defs><style>.cls-1,.cls-5,.cls-7{fill:none;}.cls-2{clip-path:url(#clip-path);}.cls-3{fill:#fff;}.cls-3,.cls-4,.cls-6{fill-rule:evenodd;}.cls-4{fill-opacity:0;}.cls-5,.cls-6{stroke:#595959;}.cls-5{stroke-linejoin:round;}.cls-5,.cls-6,.cls-7{stroke-width:2px;}.cls-6{fill:#595959;}.cls-6,.cls-7{stroke-miterlimit:10;}.cls-7{stroke:#5e52a7;}.cls-8{font-size:27.84px;text-decoration:underline;}.cls-8,.cls-9{font-family:ArialNarrow, Arial;}.cls-9{font-size:24.24px;}.cls-10{font-size:18px;font-family:KozGoPr6N-Regular-90ms-RKSJ-H, Kozuka Gothic Pr6N;}.cls-11{letter-spacing:-0.03em;}.cls-12{letter-spacing:0em;}.cls-13{letter-spacing:-0.01em;}.cls-14{letter-spacing:0em;}</style><clipPath id="clip-path"><rect class="cls-1" width="960" height="540"/></clipPath></defs><g class="cls-2"><path class="cls-3" d="M0,0H960V540H0Z"/><path class="cls-4" d="M86,477.87H874"/><path class="cls-5" d="M86,477.87H862"/><path class="cls-6" d="M862,481.18l9.07-3.31-9.07-3.3Z"/><path class="cls-4" d="M366.61,468.35v19"/><path class="cls-5" d="M366.61,468.35v19"/><path class="cls-4" d="M480,468.35v19"/><path class="cls-5" d="M480,468.35v19"/><path class="cls-4" d="M593.39,468.35v19"/><path class="cls-5" d="M593.39,468.35v19"/><path class="cls-4" d="M706.77,468.35v19"/><path class="cls-5" d="M706.77,468.35v19"/><path class="cls-4" d="M253.23,468.35v19"/><path class="cls-5" d="M253.23,468.35v19"/><path class="cls-4" d="M139.84,468.35v19"/><path class="cls-5" d="M139.84,468.35v19"/><path class="cls-4" d="M497.86,487.4h77.67v25.89H497.86Z"/><path d="M518.23,507.07h-1.64V496.61a8.77,8.77,0,0,1-1.56,1.14,10.84,10.84,0,0,1-1.72.85V497a9.2,9.2,0,0,0,2.4-1.56,6.06,6.06,0,0,0,1.46-1.78h1.06Zm4.44-3.1,1.58-.14a2.74,2.74,0,0,0,.76,1.61,2.14,2.14,0,0,0,1.46.5,2.46,2.46,0,0,0,1.31-.34,2.85,2.85,0,0,0,.94-.92,5.19,5.19,0,0,0,.61-1.57,8.36,8.36,0,0,0,.25-2v-.32a3.84,3.84,0,0,1-1.36,1.26,3.79,3.79,0,0,1-4.64-.72,4.38,4.38,0,0,1-1.15-3.17,4.55,4.55,0,0,1,1.19-3.27,4,4,0,0,1,3-1.23,4.26,4.26,0,0,1,2.39.7,4.4,4.4,0,0,1,1.64,2,9.7,9.7,0,0,1,.57,3.75,11.88,11.88,0,0,1-.57,4.08A4.79,4.79,0,0,1,529,506.5a4.21,4.21,0,0,1-2.58.8,3.75,3.75,0,0,1-2.56-.87A3.79,3.79,0,0,1,522.67,504Zm6.72-5.89a3.18,3.18,0,0,0-.75-2.23,2.37,2.37,0,0,0-1.81-.83,2.52,2.52,0,0,0-1.91.89,3.29,3.29,0,0,0-.81,2.31,2.87,2.87,0,0,0,.76,2.08,2.58,2.58,0,0,0,1.91.8,2.43,2.43,0,0,0,1.87-.8A3.15,3.15,0,0,0,529.39,498.08ZM533,504l1.58-.14a2.74,2.74,0,0,0,.77,1.61,2.11,2.11,0,0,0,1.45.5,2.44,2.44,0,0,0,1.31-.34,2.76,2.76,0,0,0,.94-.92,5.19,5.19,0,0,0,.61-1.57,7.89,7.89,0,0,0,.25-2v-.32a3.76,3.76,0,0,1-1.36,1.26,3.63,3.63,0,0,1-1.83.49,3.74,3.74,0,0,1-2.81-1.21,4.42,4.42,0,0,1-1.14-3.17,4.55,4.55,0,0,1,1.19-3.27,4,4,0,0,1,3-1.23,4.28,4.28,0,0,1,2.39.7,4.46,4.46,0,0,1,1.64,2,9.92,9.92,0,0,1,.56,3.75,12.16,12.16,0,0,1-.56,4.08,4.87,4.87,0,0,1-1.66,2.31,4.21,4.21,0,0,1-2.58.8,3.77,3.77,0,0,1-2.56-.87A3.89,3.89,0,0,1,533,504Zm6.72-5.89a3.18,3.18,0,0,0-.75-2.23,2.36,2.36,0,0,0-1.81-.83,2.54,2.54,0,0,0-1.91.89,3.29,3.29,0,0,0-.81,2.31,2.87,2.87,0,0,0,.77,2.08,2.56,2.56,0,0,0,1.9.8,2.46,2.46,0,0,0,1.88-.8A3.15,3.15,0,0,0,539.76,498.08Zm3.43,2.39a12.22,12.22,0,0,1,.48-3.79,4.69,4.69,0,0,1,1.44-2.24,3.72,3.72,0,0,1,2.42-.78,3.94,3.94,0,0,1,1.89.44,3.46,3.46,0,0,1,1.33,1.25,6.67,6.67,0,0,1,.83,2,13,13,0,0,1,.31,3.14,12.14,12.14,0,0,1-.49,3.82,4.75,4.75,0,0,1-1.45,2.23,4.06,4.06,0,0,1-5.45-.61C543.62,504.8,543.19,503,543.19,500.47Zm1.67,0c0,2.2.25,3.66.76,4.39a2.3,2.3,0,0,0,1.91,1.08,2.26,2.26,0,0,0,1.91-1.09c.51-.73.76-2.19.76-4.38s-.25-3.65-.76-4.37a2.3,2.3,0,0,0-1.93-1.08,2.08,2.08,0,0,0-1.79,1C545.14,496.79,544.86,498.29,544.86,500.47Zm8.5,3.71,1.62-.25a2.35,2.35,0,0,0,.75,1.5,2.7,2.7,0,0,0,1.75.51,2.63,2.63,0,0,0,1.68-.45,1.41,1.41,0,0,0,.54-1.1,1,1,0,0,0-.48-.87,6.66,6.66,0,0,0-1.67-.55,17.68,17.68,0,0,1-2.52-.79,2.41,2.41,0,0,1-1-.91,2.48,2.48,0,0,1-.36-1.31,2.42,2.42,0,0,1,.3-1.19,2.57,2.57,0,0,1,.81-.92,3.09,3.09,0,0,1,1-.47,4.8,4.8,0,0,1,1.43-.2,5.83,5.83,0,0,1,2,.32,2.72,2.72,0,0,1,1.26.89,3.42,3.42,0,0,1,.58,1.5l-1.61.22a1.75,1.75,0,0,0-.64-1.17,2.26,2.26,0,0,0-1.47-.42,2.68,2.68,0,0,0-1.62.37,1.09,1.09,0,0,0-.47.88,1,1,0,0,0,.19.58,1.47,1.47,0,0,0,.64.44c.15.06.63.2,1.43.42a18.41,18.41,0,0,1,2.44.75,2.44,2.44,0,0,1,1.08.86,2.38,2.38,0,0,1,.39,1.4,2.75,2.75,0,0,1-.48,1.55,3.16,3.16,0,0,1-1.38,1.12,5,5,0,0,1-2,.4,4.58,4.58,0,0,1-2.87-.79A3.6,3.6,0,0,1,553.36,504.18Z"/><path class="cls-4" d="M611.24,487.4h77.67v25.89H611.24Z"/><path d="M634.05,505.49v1.58h-8.82a3.1,3.1,0,0,1,.18-1.14,6.29,6.29,0,0,1,1.08-1.79,17.09,17.09,0,0,1,2.16-2,18.42,18.42,0,0,0,2.94-2.83,3.38,3.38,0,0,0,.76-2,2.16,2.16,0,0,0-.7-1.64,2.47,2.47,0,0,0-1.81-.67,2.57,2.57,0,0,0-1.91.72,2.63,2.63,0,0,0-.7,1.95l-1.69-.17a4.15,4.15,0,0,1,1.3-2.88,4.5,4.5,0,0,1,3-1,4.23,4.23,0,0,1,3,1.06,3.49,3.49,0,0,1,1.13,2.64,4,4,0,0,1-.33,1.58,6,6,0,0,1-1.09,1.64,27.49,27.49,0,0,1-2.53,2.35c-1,.82-1.61,1.38-1.9,1.68a5.1,5.1,0,0,0-.68.88Zm1.77-5a12.22,12.22,0,0,1,.48-3.79,4.84,4.84,0,0,1,1.44-2.24,3.76,3.76,0,0,1,2.42-.78,3.94,3.94,0,0,1,1.89.44,3.32,3.32,0,0,1,1.33,1.25,6.42,6.42,0,0,1,.83,2,15.71,15.71,0,0,1-.17,7,4.83,4.83,0,0,1-1.45,2.23,3.73,3.73,0,0,1-2.43.78,3.66,3.66,0,0,1-3-1.39C636.26,504.8,635.82,503,635.82,500.47Zm1.67,0c0,2.2.26,3.66.77,4.39a2.21,2.21,0,0,0,3.81,0c.51-.73.77-2.19.77-4.38s-.26-3.65-.77-4.37a2.28,2.28,0,0,0-1.92-1.08,2.11,2.11,0,0,0-1.8,1C637.78,496.79,637.49,498.29,637.49,500.47Zm8.71,0a12.22,12.22,0,0,1,.48-3.79,4.69,4.69,0,0,1,1.44-2.24,3.72,3.72,0,0,1,2.42-.78,3.94,3.94,0,0,1,1.89.44,3.46,3.46,0,0,1,1.33,1.25,6.67,6.67,0,0,1,.83,2,13,13,0,0,1,.31,3.14,12.14,12.14,0,0,1-.49,3.82,4.75,4.75,0,0,1-1.45,2.23,4.06,4.06,0,0,1-5.45-.61C646.63,504.8,646.2,503,646.2,500.47Zm1.67,0c0,2.2.25,3.66.76,4.39a2.3,2.3,0,0,0,1.91,1.08,2.26,2.26,0,0,0,1.91-1.09c.51-.73.76-2.19.76-4.38s-.25-3.65-.76-4.37a2.3,2.3,0,0,0-1.93-1.08,2.09,2.09,0,0,0-1.79,1C648.15,496.79,647.87,498.29,647.87,500.47Zm8.7,0a11.89,11.89,0,0,1,.49-3.79,4.75,4.75,0,0,1,1.43-2.24,3.77,3.77,0,0,1,2.43-.78,4,4,0,0,1,1.89.44,3.36,3.36,0,0,1,1.32,1.25,6.42,6.42,0,0,1,.83,2,15.71,15.71,0,0,1-.17,7,4.83,4.83,0,0,1-1.45,2.23,3.72,3.72,0,0,1-2.42.78,3.67,3.67,0,0,1-3-1.39C657,504.8,656.57,503,656.57,500.47Zm1.67,0c0,2.2.26,3.66.77,4.39a2.3,2.3,0,0,0,1.91,1.08,2.25,2.25,0,0,0,1.9-1.09c.51-.73.77-2.19.77-4.38s-.26-3.65-.77-4.37A2.28,2.28,0,0,0,660.9,495a2.11,2.11,0,0,0-1.8,1C658.53,496.79,658.24,498.29,658.24,500.47Zm8.5,3.71,1.63-.25a2.26,2.26,0,0,0,.75,1.5,2.7,2.7,0,0,0,1.75.51,2.58,2.58,0,0,0,1.67-.45,1.4,1.4,0,0,0,.55-1.1,1,1,0,0,0-.49-.87,6.51,6.51,0,0,0-1.67-.55,17,17,0,0,1-2.51-.79,2.41,2.41,0,0,1-1-.91A2.48,2.48,0,0,1,667,500a2.42,2.42,0,0,1,.3-1.19,2.48,2.48,0,0,1,.81-.92,3,3,0,0,1,1-.47,4.73,4.73,0,0,1,1.42-.2,5.79,5.79,0,0,1,2,.32,2.71,2.71,0,0,1,1.27.89,3.54,3.54,0,0,1,.58,1.5l-1.61.22a1.79,1.79,0,0,0-.64-1.17,2.3,2.3,0,0,0-1.47-.42,2.74,2.74,0,0,0-1.63.37,1.12,1.12,0,0,0-.47.88,1,1,0,0,0,.19.58,1.6,1.6,0,0,0,.64.44q.24.09,1.44.42a18.41,18.41,0,0,1,2.44.75,2.41,2.41,0,0,1,1.07.86,2.32,2.32,0,0,1,.4,1.4,2.76,2.76,0,0,1-.49,1.55,3.08,3.08,0,0,1-1.37,1.12,5,5,0,0,1-2,.4,4.61,4.61,0,0,1-2.88-.79A3.64,3.64,0,0,1,666.74,504.18Z"/><path class="cls-4" d="M384.47,487.4h77.67v25.89H384.47Z"/><path d="M404.84,507.07H403.2V496.61a8.09,8.09,0,0,1-1.56,1.14,10.43,10.43,0,0,1-1.72.85V497a9.43,9.43,0,0,0,2.41-1.56,6,6,0,0,0,1.45-1.78h1.06Zm4.44-3.1,1.58-.14a2.74,2.74,0,0,0,.77,1.61,2.11,2.11,0,0,0,1.45.5,2.44,2.44,0,0,0,1.31-.34,2.76,2.76,0,0,0,.94-.92,5.19,5.19,0,0,0,.61-1.57,7.89,7.89,0,0,0,.25-2v-.32a3.76,3.76,0,0,1-1.36,1.26,3.63,3.63,0,0,1-1.83.49,3.74,3.74,0,0,1-2.81-1.21,4.42,4.42,0,0,1-1.14-3.17,4.51,4.51,0,0,1,1.19-3.27,4,4,0,0,1,3-1.23,4.28,4.28,0,0,1,2.39.7,4.46,4.46,0,0,1,1.64,2,9.92,9.92,0,0,1,.56,3.75,12.16,12.16,0,0,1-.56,4.08,4.87,4.87,0,0,1-1.66,2.31,4.21,4.21,0,0,1-2.58.8,3.77,3.77,0,0,1-2.56-.87A3.84,3.84,0,0,1,409.28,504Zm6.72-5.89a3.18,3.18,0,0,0-.75-2.23,2.36,2.36,0,0,0-1.81-.83,2.52,2.52,0,0,0-1.91.89,3.29,3.29,0,0,0-.81,2.31,2.87,2.87,0,0,0,.77,2.08,2.56,2.56,0,0,0,1.9.8,2.46,2.46,0,0,0,1.88-.8A3.15,3.15,0,0,0,416,498.08Zm5.94,1.75a3.18,3.18,0,0,1-1.52-1.06,2.9,2.9,0,0,1-.48-1.67,3.22,3.22,0,0,1,1.05-2.44,3.82,3.82,0,0,1,2.78-1,3.9,3.9,0,0,1,2.81,1,3.25,3.25,0,0,1,1.08,2.46,2.72,2.72,0,0,1-.5,1.63,3,3,0,0,1-1.47,1.06,3.57,3.57,0,0,1,1.86,1.28,3.51,3.51,0,0,1,.66,2.14,3.85,3.85,0,0,1-1.22,2.88,4.95,4.95,0,0,1-6.39,0,3.89,3.89,0,0,1-1.21-2.92,3.52,3.52,0,0,1,.66-2.19A3.38,3.38,0,0,1,421.94,499.83Zm-.33-2.78a2.09,2.09,0,0,0,.61,1.55,2.22,2.22,0,0,0,1.59.59,2.14,2.14,0,0,0,1.55-.59,2,2,0,0,0,.61-1.46,2.05,2.05,0,0,0-.62-1.51,2.13,2.13,0,0,0-1.57-.63,2.18,2.18,0,0,0-1.56.61A1.94,1.94,0,0,0,421.61,497.05Zm-.53,6.16a3,3,0,0,0,.33,1.36,2.43,2.43,0,0,0,1,1,2.86,2.86,0,0,0,1.4.36,2.65,2.65,0,0,0,1.94-.75,2.78,2.78,0,0,0,0-3.87,2.65,2.65,0,0,0-2-.78,2.61,2.61,0,0,0-2.69,2.67Zm8.72-2.74a12.22,12.22,0,0,1,.48-3.79,4.84,4.84,0,0,1,1.44-2.24,3.74,3.74,0,0,1,2.42-.78,3.94,3.94,0,0,1,1.89.44,3.32,3.32,0,0,1,1.33,1.25,6.42,6.42,0,0,1,.83,2,15.71,15.71,0,0,1-.17,7,4.83,4.83,0,0,1-1.45,2.23,3.73,3.73,0,0,1-2.43.78,3.66,3.66,0,0,1-3-1.39C430.24,504.8,429.8,503,429.8,500.47Zm1.67,0c0,2.2.26,3.66.77,4.39a2.21,2.21,0,0,0,3.81,0c.51-.73.77-2.19.77-4.38s-.26-3.65-.77-4.37a2.28,2.28,0,0,0-1.92-1.08,2.11,2.11,0,0,0-1.8,1C431.76,496.79,431.47,498.29,431.47,500.47Zm8.5,3.71,1.63-.25a2.26,2.26,0,0,0,.75,1.5,2.68,2.68,0,0,0,1.75.51,2.6,2.6,0,0,0,1.67-.45,1.43,1.43,0,0,0,.55-1.1,1,1,0,0,0-.49-.87,6.51,6.51,0,0,0-1.67-.55,17.68,17.68,0,0,1-2.52-.79,2.44,2.44,0,0,1-1-.91,2.48,2.48,0,0,1-.36-1.31,2.61,2.61,0,0,1,1.11-2.11,3,3,0,0,1,1-.47,4.73,4.73,0,0,1,1.42-.2,5.79,5.79,0,0,1,2,.32,2.76,2.76,0,0,1,1.27.89,3.41,3.41,0,0,1,.57,1.5l-1.6.22a1.76,1.76,0,0,0-.65-1.17,2.25,2.25,0,0,0-1.46-.42,2.72,2.72,0,0,0-1.63.37,1.12,1.12,0,0,0-.47.88,1,1,0,0,0,.19.58,1.53,1.53,0,0,0,.64.44q.24.09,1.44.42a18.92,18.92,0,0,1,2.44.75,2.47,2.47,0,0,1,1.07.86,2.38,2.38,0,0,1,.39,1.4,2.75,2.75,0,0,1-.48,1.55,3.05,3.05,0,0,1-1.38,1.12,4.92,4.92,0,0,1-2,.4,4.61,4.61,0,0,1-2.88-.79A3.64,3.64,0,0,1,440,504.18Z"/><path class="cls-4" d="M271.09,487.4h77.67v25.89H271.09Z"/><path d="M291.46,507.07h-1.64V496.61a8.77,8.77,0,0,1-1.56,1.14,10.84,10.84,0,0,1-1.72.85V497a9.37,9.37,0,0,0,2.4-1.56,6.06,6.06,0,0,0,1.46-1.78h1.06Zm4.44-3.1,1.58-.14a2.74,2.74,0,0,0,.76,1.61,2.13,2.13,0,0,0,1.45.5,2.5,2.5,0,0,0,1.32-.34,2.82,2.82,0,0,0,.93-.92,4.94,4.94,0,0,0,.61-1.57,7.89,7.89,0,0,0,.25-2v-.32a3.68,3.68,0,0,1-1.36,1.26,3.62,3.62,0,0,1-1.82.49,3.74,3.74,0,0,1-2.82-1.21,4.42,4.42,0,0,1-1.14-3.17,4.55,4.55,0,0,1,1.19-3.27,4,4,0,0,1,3-1.23,4.26,4.26,0,0,1,2.39.7,4.4,4.4,0,0,1,1.64,2,9.73,9.73,0,0,1,.56,3.75,11.91,11.91,0,0,1-.56,4.08,4.86,4.86,0,0,1-1.65,2.31,4.21,4.21,0,0,1-2.58.8,3.79,3.79,0,0,1-2.57-.87A3.83,3.83,0,0,1,295.9,504Zm6.72-5.89a3.18,3.18,0,0,0-.75-2.23,2.38,2.38,0,0,0-1.82-.83,2.5,2.5,0,0,0-1.9.89,3.29,3.29,0,0,0-.82,2.31,2.87,2.87,0,0,0,.77,2.08,2.58,2.58,0,0,0,1.91.8,2.43,2.43,0,0,0,1.87-.8A3.15,3.15,0,0,0,302.62,498.08Zm3.53-2.62v-1.58h8.64v1.28a17.79,17.79,0,0,0-2.53,3.61,22,22,0,0,0-1.94,4.62,18.32,18.32,0,0,0-.63,3.68H308a16.76,16.76,0,0,1,.62-3.82,20.25,20.25,0,0,1,1.69-4.29,18.53,18.53,0,0,1,2.36-3.5Zm10.26,5a12.19,12.19,0,0,1,.49-3.79,4.69,4.69,0,0,1,1.44-2.24,3.72,3.72,0,0,1,2.42-.78,3.94,3.94,0,0,1,1.89.44,3.46,3.46,0,0,1,1.33,1.25,6.41,6.41,0,0,1,.82,2,12.4,12.4,0,0,1,.32,3.14,12.14,12.14,0,0,1-.49,3.82,4.75,4.75,0,0,1-1.45,2.23,3.7,3.7,0,0,1-2.42.78,3.66,3.66,0,0,1-3-1.39C316.85,504.8,316.41,503,316.41,500.47Zm1.68,0c0,2.2.25,3.66.76,4.39a2.3,2.3,0,0,0,1.91,1.08,2.25,2.25,0,0,0,1.9-1.09c.51-.73.77-2.19.77-4.38s-.26-3.65-.77-4.37a2.28,2.28,0,0,0-1.92-1.08,2.08,2.08,0,0,0-1.79,1C318.37,496.79,318.09,498.29,318.09,500.47Zm8.5,3.71,1.62-.25a2.35,2.35,0,0,0,.75,1.5,2.7,2.7,0,0,0,1.75.51,2.58,2.58,0,0,0,1.67-.45,1.4,1.4,0,0,0,.55-1.1,1,1,0,0,0-.48-.87,6.64,6.64,0,0,0-1.68-.55,17.87,17.87,0,0,1-2.51-.79,2.41,2.41,0,0,1-1.05-.91,2.48,2.48,0,0,1-.36-1.31,2.42,2.42,0,0,1,.3-1.19,2.57,2.57,0,0,1,.81-.92,3.09,3.09,0,0,1,1-.47,4.73,4.73,0,0,1,1.42-.2,5.75,5.75,0,0,1,2,.32,2.71,2.71,0,0,1,1.27.89,3.54,3.54,0,0,1,.58,1.5l-1.61.22a1.75,1.75,0,0,0-.64-1.17,2.28,2.28,0,0,0-1.47-.42,2.74,2.74,0,0,0-1.63.37,1.11,1.11,0,0,0-.46.88,1,1,0,0,0,.18.58,1.6,1.6,0,0,0,.64.44q.24.09,1.44.42a18.41,18.41,0,0,1,2.44.75,2.44,2.44,0,0,1,1.08.86,2.38,2.38,0,0,1,.39,1.4,2.69,2.69,0,0,1-.49,1.55,3.08,3.08,0,0,1-1.37,1.12,5,5,0,0,1-2.05.4,4.56,4.56,0,0,1-2.87-.79A3.55,3.55,0,0,1,326.59,504.18Z"/><path class="cls-4" d="M157.7,487.4h77.67v25.89H157.7Z"/><path d="M178.07,507.07h-1.64V496.61a8.09,8.09,0,0,1-1.56,1.14,10.84,10.84,0,0,1-1.72.85V497a9.43,9.43,0,0,0,2.41-1.56,6.17,6.17,0,0,0,1.45-1.78h1.06Zm4.44-3.1,1.58-.14a2.68,2.68,0,0,0,.77,1.61,2.09,2.09,0,0,0,1.45.5,2.44,2.44,0,0,0,1.31-.34,2.76,2.76,0,0,0,.94-.92,5.19,5.19,0,0,0,.61-1.57,8.36,8.36,0,0,0,.25-2v-.32a3.84,3.84,0,0,1-1.36,1.26,3.63,3.63,0,0,1-1.83.49,3.74,3.74,0,0,1-2.81-1.21,4.42,4.42,0,0,1-1.14-3.17,4.54,4.54,0,0,1,1.18-3.27,4.05,4.05,0,0,1,3-1.23,4.29,4.29,0,0,1,2.4.7,4.53,4.53,0,0,1,1.64,2,9.92,9.92,0,0,1,.56,3.75,12.16,12.16,0,0,1-.56,4.08,4.87,4.87,0,0,1-1.66,2.31,4.21,4.21,0,0,1-2.58.8,3.77,3.77,0,0,1-2.56-.87A3.84,3.84,0,0,1,182.51,504Zm6.72-5.89a3.18,3.18,0,0,0-.75-2.23,2.36,2.36,0,0,0-1.81-.83,2.52,2.52,0,0,0-1.91.89,3.29,3.29,0,0,0-.81,2.31,2.87,2.87,0,0,0,.76,2.08,2.6,2.6,0,0,0,1.91.8,2.46,2.46,0,0,0,1.88-.8A3.15,3.15,0,0,0,189.23,498.08ZM201.15,497l-1.62.12a3.1,3.1,0,0,0-.63-1.4,2.13,2.13,0,0,0-1.64-.71,2.24,2.24,0,0,0-1.37.44,3.82,3.82,0,0,0-1.22,1.66,8.42,8.42,0,0,0-.47,3.08,3.82,3.82,0,0,1,1.45-1.33,4,4,0,0,1,1.8-.44,3.69,3.69,0,0,1,2.78,1.2,4.32,4.32,0,0,1,1.16,3.11,5.18,5.18,0,0,1-.55,2.35,3.84,3.84,0,0,1-1.48,1.65,4,4,0,0,1-2.14.58,4.22,4.22,0,0,1-3.36-1.5q-1.29-1.51-1.29-5c0-2.59.48-4.46,1.43-5.63a4.11,4.11,0,0,1,3.37-1.53,3.61,3.61,0,0,1,3.78,3.33Zm-6.68,5.75a3.81,3.81,0,0,0,.35,1.62,2.84,2.84,0,0,0,1,1.18,2.5,2.5,0,0,0,1.36.4,2.32,2.32,0,0,0,1.79-.83,3.3,3.3,0,0,0,.75-2.28,3.14,3.14,0,0,0-.74-2.19,2.42,2.42,0,0,0-1.86-.79,2.55,2.55,0,0,0-1.89.79A2.91,2.91,0,0,0,194.47,502.74Zm8.56-2.27a12.22,12.22,0,0,1,.48-3.79,4.77,4.77,0,0,1,1.44-2.24,3.74,3.74,0,0,1,2.42-.78,3.94,3.94,0,0,1,1.89.44,3.39,3.39,0,0,1,1.33,1.25,6.42,6.42,0,0,1,.83,2,15.71,15.71,0,0,1-.17,7,4.84,4.84,0,0,1-1.46,2.23,4.06,4.06,0,0,1-5.45-.61C203.47,504.8,203,503,203,500.47Zm1.67,0c0,2.2.26,3.66.77,4.39a2.21,2.21,0,0,0,3.81,0c.51-.73.76-2.19.76-4.38s-.25-3.65-.76-4.37a2.28,2.28,0,0,0-1.92-1.08,2.11,2.11,0,0,0-1.8,1C205,496.79,204.7,498.29,204.7,500.47Zm8.5,3.71,1.63-.25a2.26,2.26,0,0,0,.75,1.5,2.68,2.68,0,0,0,1.75.51,2.6,2.6,0,0,0,1.67-.45,1.41,1.41,0,0,0,.54-1.1,1,1,0,0,0-.48-.87,6.66,6.66,0,0,0-1.67-.55,17.68,17.68,0,0,1-2.52-.79,2.38,2.38,0,0,1-1-.91,2.48,2.48,0,0,1-.36-1.31,2.54,2.54,0,0,1,1.11-2.11,3,3,0,0,1,1-.47,4.73,4.73,0,0,1,1.42-.2,5.79,5.79,0,0,1,2,.32,2.72,2.72,0,0,1,1.26.89,3.3,3.3,0,0,1,.58,1.5l-1.61.22a1.71,1.71,0,0,0-.64-1.17,2.26,2.26,0,0,0-1.47-.42,2.68,2.68,0,0,0-1.62.37,1.12,1.12,0,0,0-.47.88,1,1,0,0,0,.19.58,1.53,1.53,0,0,0,.64.44q.23.09,1.44.42a18.14,18.14,0,0,1,2.43.75,2.44,2.44,0,0,1,1.08.86,2.38,2.38,0,0,1,.39,1.4,2.75,2.75,0,0,1-.48,1.55,3.05,3.05,0,0,1-1.38,1.12,4.92,4.92,0,0,1-2,.4,4.61,4.61,0,0,1-2.88-.79A3.6,3.6,0,0,1,213.2,504.18Z"/><path class="cls-4" d="M724.63,487.4H802.3v25.89H724.63Z"/><path d="M747.44,505.49v1.58h-8.83a2.91,2.91,0,0,1,.19-1.14,6.29,6.29,0,0,1,1.08-1.79,17.62,17.62,0,0,1,2.15-2A18,18,0,0,0,745,499.3a3.4,3.4,0,0,0,.77-2,2.16,2.16,0,0,0-.71-1.64,2.45,2.45,0,0,0-1.81-.67,2.59,2.59,0,0,0-1.91.72,2.67,2.67,0,0,0-.7,1.95l-1.69-.17a4.19,4.19,0,0,1,1.3-2.88,4.5,4.5,0,0,1,3-1,4.26,4.26,0,0,1,3,1.06,3.48,3.48,0,0,1,1.12,2.64,4.21,4.21,0,0,1-.32,1.58,6.11,6.11,0,0,1-1.1,1.64,26.2,26.2,0,0,1-2.53,2.35q-1.47,1.23-1.89,1.68a5.75,5.75,0,0,0-.69.88Zm1.77-5a12.22,12.22,0,0,1,.48-3.79,4.69,4.69,0,0,1,1.44-2.24,3.72,3.72,0,0,1,2.42-.78,3.94,3.94,0,0,1,1.89.44,3.46,3.46,0,0,1,1.33,1.25,6.67,6.67,0,0,1,.83,2,13,13,0,0,1,.31,3.14,12.14,12.14,0,0,1-.49,3.82,4.75,4.75,0,0,1-1.45,2.23,4.06,4.06,0,0,1-5.45-.61C749.64,504.8,749.21,503,749.21,500.47Zm1.67,0c0,2.2.25,3.66.76,4.39a2.3,2.3,0,0,0,1.91,1.08,2.26,2.26,0,0,0,1.91-1.09c.51-.73.76-2.19.76-4.38s-.25-3.65-.76-4.37a2.3,2.3,0,0,0-1.93-1.08,2.09,2.09,0,0,0-1.79,1C751.16,496.79,750.88,498.29,750.88,500.47Zm14.87,6.6h-1.64V496.61a8.09,8.09,0,0,1-1.56,1.14,10.43,10.43,0,0,1-1.72.85V497a9.43,9.43,0,0,0,2.41-1.56,6,6,0,0,0,1.45-1.78h1.06Zm4.21-6.6a12.22,12.22,0,0,1,.48-3.79,4.69,4.69,0,0,1,1.44-2.24,3.74,3.74,0,0,1,2.42-.78,3.94,3.94,0,0,1,1.89.44,3.39,3.39,0,0,1,1.33,1.25,6.67,6.67,0,0,1,.83,2,15.71,15.71,0,0,1-.17,7,4.84,4.84,0,0,1-1.46,2.23,4.06,4.06,0,0,1-5.45-.61C770.39,504.8,770,503,770,500.47Zm1.67,0c0,2.2.25,3.66.76,4.39a2.32,2.32,0,0,0,1.91,1.08,2.26,2.26,0,0,0,1.91-1.09c.51-.73.76-2.19.76-4.38s-.25-3.65-.76-4.37a2.28,2.28,0,0,0-1.92-1.08,2.11,2.11,0,0,0-1.8,1C771.92,496.79,771.63,498.29,771.63,500.47Zm8.5,3.71,1.63-.25a2.26,2.26,0,0,0,.75,1.5,2.68,2.68,0,0,0,1.75.51,2.6,2.6,0,0,0,1.67-.45,1.41,1.41,0,0,0,.54-1.1,1,1,0,0,0-.48-.87,6.66,6.66,0,0,0-1.67-.55,17.68,17.68,0,0,1-2.52-.79,2.33,2.33,0,0,1-1-.91,2.48,2.48,0,0,1-.36-1.31,2.41,2.41,0,0,1,.29-1.19,2.51,2.51,0,0,1,.82-.92,3,3,0,0,1,1-.47,4.69,4.69,0,0,1,1.42-.2,5.79,5.79,0,0,1,2,.32,2.72,2.72,0,0,1,1.26.89,3.3,3.3,0,0,1,.58,1.5l-1.61.22a1.71,1.71,0,0,0-.64-1.17,2.26,2.26,0,0,0-1.47-.42,2.68,2.68,0,0,0-1.62.37,1.12,1.12,0,0,0-.47.88,1,1,0,0,0,.19.58,1.53,1.53,0,0,0,.64.44q.23.09,1.44.42a18.64,18.64,0,0,1,2.43.75,2.44,2.44,0,0,1,1.08.86,2.38,2.38,0,0,1,.39,1.4,2.75,2.75,0,0,1-.48,1.55,3.11,3.11,0,0,1-1.38,1.12,4.92,4.92,0,0,1-2,.4,4.61,4.61,0,0,1-2.88-.79A3.6,3.6,0,0,1,780.13,504.18Z"/></g><path class="cls-7" d="M619.9,447.34s42.36-3.65,103.77-169.47S781.55,82.4,855,82.4"/><path class="cls-7" d="M137.55,447.34s24.11,4.14,50.84-73c12.21-32.13,24.93-40.95,40-47.69,15.51-6.92,34.34-7.28,49.68,0,2.51,1.19,23.4,11.58,34.71,37.51,35.53,81.4,133.45,83.22,154.26,83.22"/><path class="cls-7" d="M299.06,447.33s40.87,3.39,78-148.22c17-63.13,34.6-80.43,55.55-93.67,21.52-13.6,47.44-13.6,69,0,20.95,13.24,38,41.9,55.55,93.67,33.15,98,145.38,148.23,145.38,148.23"/><text class="cls-8" transform="translate(208.16 156.8)">Boom 1</text><text class="cls-8" transform="translate(428.69 156.8)">Boom 2</text><text class="cls-8" transform="translate(641.16 156.8)">Boom 3</text><text class="cls-9" transform="translate(294.82 299.11)">Winter 1</text><text class="cls-9" transform="translate(595.75 299.11)">Winter 2</text><text class="cls-10" transform="translate(215.35 177.59)">“GO<tspan class="cls-11" x="32.36" y="0">F</tspan><tspan class="cls-12" x="41.17" y="0">AI”</tspan></text><text class="cls-10" transform="translate(400.33 177.59)">“Expert Systems”</text><text class="cls-10" transform="translate(601.55 177.59)">“Machine Learnin<tspan class="cls-13" x="140.5" y="0">g</tspan><tspan class="cls-14" x="151.16" y="0">”</tspan></text></svg>