<svg version="1.1" viewBox="0.0 0.0 960.0 540.0" fill="none" stroke="none" stroke-linecap="square" stroke-miterlimit="10" xmlns:xlink="http://www.w3.org/1999/xlink" xmlns="http://www.w3.org/2000/svg"><clipPath id="g2908d04666e_0_117.0"><path d="m0 0l960.0 0l0 540.0l-960.0 0l0 -540.0z" clip-rule="nonzero"/></clipPath><g clip-path="url(#g2908d04666e_0_117.0)"><path fill="#ffffff" d="m0 0l960.0 0l0 540.0l-960.0 0z" fill-rule="evenodd"/><path fill="#000000" fill-opacity="0.0" d="m376.063 57.133858l0 0c0 -4.8009644 0.3243103 -8.692913 0.72439575 -8.692913l206.42526 0c0.4000244 0 0.72436523 3.8919487 0.72436523 8.692913z" fill-rule="evenodd"/><path fill="#000000" fill-opacity="0.0" d="m376.063 57.133858l0 0c0 -4.8009644 0.3243103 -8.692913 0.72439575 -8.692913l206.42526 0c0.4000244 0 0.72436523 3.8919487 0.72436523 8.692913" fill-rule="evenodd"/><path stroke="#605c72" stroke-width="1.0" stroke-linejoin="round" stroke-linecap="butt" d="m376.063 57.133858l0 0c0 -4.8009644 0.3243103 -8.692913 0.72439575 -8.692913l206.42526 0c0.4000244 0 0.72436523 3.8919487 0.72436523 8.692913" fill-rule="evenodd"/><path fill="#5e52a7" d="m187.08661 294.67715l0 0c0 -15.655304 12.691147 -28.346436 28.346466 -28.346436l0 0c7.5179443 0 14.727982 2.9864807 20.04396 8.30246c5.3159943 5.3160095 8.30249 12.5260315 8.30249 20.043976l0 0c0 15.655334 -12.691132 28.346466 -28.34645 28.346466l0 0c-15.655319 0 -28.346466 -12.691132 -28.346466 -28.346466z" fill-rule="evenodd"/><path fill="#5e52a7" d="m187.08661 389.16534l0 0c0 -15.655304 12.691147 -28.346436 28.346466 -28.346436l0 0c7.5179443 0 14.727982 2.9864807 20.04396 8.30246c5.3159943 5.3160095 8.30249 12.5260315 8.30249 20.043976l0 0c0 15.655334 -12.691132 28.346466 -28.34645 28.346466l0 0c-15.655319 0 -28.346466 -12.691132 -28.346466 -28.346466z" fill-rule="evenodd"/><path fill="#5e52a7" d="m187.08661 200.18898l0 0c0 -15.655319 12.691147 -28.346466 28.346466 -28.346466l0 0c7.5179443 0 14.727982 2.986496 20.04396 8.30249c5.3159943 5.3159943 8.30249 12.5260315 8.30249 20.043976l0 0c0 15.655319 -12.691132 28.34645 -28.34645 28.34645l0 0c-15.655319 0 -28.346466 -12.691132 -28.346466 -28.34645z" fill-rule="evenodd"/><path fill="#5e52a7" d="m716.22046 294.67715l0 0c0 -15.655304 12.691162 -28.346436 28.346497 -28.346436l0 0c7.5179443 0 14.727966 2.9864807 20.043945 8.30246c5.315979 5.3160095 8.30249 12.5260315 8.30249 20.043976l0 0c0 15.655334 -12.691162 28.346466 -28.346436 28.346466l0 0c-15.655334 0 -28.346497 -12.691132 -28.346497 -28.346466z" fill-rule="evenodd"/><path fill="#5e52a7" d="m376.063 294.67715l0 0c0 -15.655304 12.691132 -28.346436 28.346466 -28.346436l0 0c7.5179443 0 14.727966 2.9864807 20.043976 8.30246c5.315979 5.3160095 8.30249 12.5260315 8.30249 20.043976l0 0c0 15.655334 -12.691162 28.346466 -28.346466 28.346466l0 0c-15.655334 0 -28.346466 -12.691132 -28.346466 -28.346466z" fill-rule="evenodd"/><path fill="#5e52a7" d="m376.063 389.16534l0 0c0 -15.655304 12.691132 -28.346436 28.346466 -28.346436l0 0c7.5179443 0 14.727966 2.9864807 20.043976 8.30246c5.315979 5.3160095 8.30249 12.5260315 8.30249 20.043976l0 0c0 15.655334 -12.691162 28.346466 -28.346466 28.346466l0 0c-15.655334 0 -28.346466 -12.691132 -28.346466 -28.346466z" fill-rule="evenodd"/><path fill="#5e52a7" d="m376.063 200.18898l0 0c0 -15.655319 12.691132 -28.346466 28.346466 -28.346466l0 0c7.5179443 0 14.727966 2.986496 20.043976 8.30249c5.315979 5.3159943 8.30249 12.5260315 8.30249 20.043976l0 0c0 15.655319 -12.691162 28.34645 -28.346466 28.34645l0 0c-15.655334 0 -28.346466 -12.691132 -28.346466 -28.34645z" fill-rule="evenodd"/><path fill="#5e52a7" d="m376.063 483.65353l0 0c0 -15.655304 12.691132 -28.346436 28.346466 -28.346436l0 0c7.5179443 0 14.727966 2.9864807 20.043976 8.30246c5.315979 5.3160095 8.30249 12.5260315 8.30249 20.043976l0 0c0 15.655334 -12.691162 28.346466 -28.346466 28.346466l0 0c-15.655334 0 -28.346466 -12.691132 -28.346466 -28.346466z" fill-rule="evenodd"/><path fill="#5e52a7" d="m376.063 105.70079l0 0c0 -15.655319 12.691132 -28.346458 28.346466 -28.346458l0 0c7.5179443 0 14.727966 2.9864883 20.043976 8.302483c5.315979 5.3159943 8.30249 12.526024 8.30249 20.043976l0 0c0 15.655312 -12.691162 28.34645 -28.346466 28.34645l0 0c-15.655334 0 -28.346466 -12.691139 -28.346466 -28.34645z" fill-rule="evenodd"/><path fill="#000000" fill-opacity="0.0" d="m243.77953 200.18898l132.28346 -94.48819" fill-rule="evenodd"/><path stroke="#605c72" stroke-width="1.0" stroke-linejoin="round" stroke-linecap="butt" d="m243.77953 200.18898l132.28346 -94.48819" fill-rule="evenodd"/><path fill="#000000" fill-opacity="0.0" d="m243.77953 200.18898l132.28346 0" fill-rule="evenodd"/><path stroke="#605c72" stroke-width="1.0" stroke-linejoin="round" stroke-linecap="butt" d="m243.77953 200.18898l132.28346 0" fill-rule="evenodd"/><path fill="#000000" fill-opacity="0.0" d="m243.77953 200.18898l132.28346 94.488174" fill-rule="evenodd"/><path stroke="#605c72" stroke-width="1.0" stroke-linejoin="round" stroke-linecap="butt" d="m243.77953 200.18898l132.28346 94.488174" fill-rule="evenodd"/><path fill="#000000" fill-opacity="0.0" d="m243.77953 200.18898l132.28346 188.97636" fill-rule="evenodd"/><path stroke="#605c72" stroke-width="1.0" stroke-linejoin="round" stroke-linecap="butt" d="m243.77953 200.18898l132.28346 188.97636" fill-rule="evenodd"/><path fill="#000000" fill-opacity="0.0" d="m243.77953 200.18898l132.28346 283.46454" fill-rule="evenodd"/><path stroke="#605c72" stroke-width="1.0" stroke-linejoin="round" stroke-linecap="butt" d="m243.77953 200.18898l132.28346 283.46454" fill-rule="evenodd"/><path fill="#000000" fill-opacity="0.0" d="m243.77953 294.67715l132.28346 -188.97636" fill-rule="evenodd"/><path stroke="#605c72" stroke-width="1.0" stroke-linejoin="round" stroke-linecap="butt" d="m243.77953 294.67715l132.28346 -188.97636" fill-rule="evenodd"/><path fill="#000000" fill-opacity="0.0" d="m243.77953 294.67715l132.28346 0" fill-rule="evenodd"/><path stroke="#605c72" stroke-width="1.0" stroke-linejoin="round" stroke-linecap="butt" d="m243.77953 294.67715l132.28346 0" fill-rule="evenodd"/><path fill="#000000" fill-opacity="0.0" d="m243.77953 294.67715l132.28346 -94.488174" fill-rule="evenodd"/><path stroke="#605c72" stroke-width="1.0" stroke-linejoin="round" stroke-linecap="butt" d="m243.77953 294.67715l132.28346 -94.488174" fill-rule="evenodd"/><path fill="#000000" fill-opacity="0.0" d="m243.77953 294.67715l132.28346 94.48819" fill-rule="evenodd"/><path stroke="#605c72" stroke-width="1.0" stroke-linejoin="round" stroke-linecap="butt" d="m243.77953 294.67715l132.28346 94.48819" fill-rule="evenodd"/><path fill="#000000" fill-opacity="0.0" d="m243.77953 294.67715l132.28346 188.97638" fill-rule="evenodd"/><path stroke="#605c72" stroke-width="1.0" stroke-linejoin="round" stroke-linecap="butt" d="m243.77953 294.67715l132.28346 188.97638" fill-rule="evenodd"/><path fill="#000000" fill-opacity="0.0" d="m243.77953 389.16534l132.28346 94.48819" fill-rule="evenodd"/><path stroke="#605c72" stroke-width="1.0" stroke-linejoin="round" stroke-linecap="butt" d="m243.77953 389.16534l132.28346 94.48819" fill-rule="evenodd"/><path fill="#000000" fill-opacity="0.0" d="m243.77953 389.16534l132.28346 0" fill-rule="evenodd"/><path stroke="#605c72" stroke-width="1.0" stroke-linejoin="round" stroke-linecap="butt" d="m243.77953 389.16534l132.28346 0" fill-rule="evenodd"/><path fill="#000000" fill-opacity="0.0" d="m243.77953 389.16534l132.28346 -94.48819" fill-rule="evenodd"/><path stroke="#605c72" stroke-width="1.0" stroke-linejoin="round" stroke-linecap="butt" d="m243.77953 389.16534l132.28346 -94.48819" fill-rule="evenodd"/><path fill="#000000" fill-opacity="0.0" d="m243.77953 389.16534l132.28346 -188.97636" fill-rule="evenodd"/><path stroke="#605c72" stroke-width="1.0" stroke-linejoin="round" stroke-linecap="butt" d="m243.77953 389.16534l132.28346 -188.97636" fill-rule="evenodd"/><path fill="#000000" fill-opacity="0.0" d="m243.77953 389.16534l132.28346 -283.46454" fill-rule="evenodd"/><path stroke="#605c72" stroke-width="1.0" stroke-linejoin="round" stroke-linecap="butt" d="m243.77953 389.16534l132.28346 -283.46454" fill-rule="evenodd"/><path fill="#5e52a7" d="m527.2441 294.67715l0 0c0 -15.655304 12.691162 -28.346436 28.346497 -28.346436l0 0c7.5179443 0 14.727966 2.9864807 20.043945 8.30246c5.315979 5.3160095 8.30249 12.5260315 8.30249 20.043976l0 0c0 15.655334 -12.691162 28.346466 -28.346436 28.346466l0 0c-15.655334 0 -28.346497 -12.691132 -28.346497 -28.346466z" fill-rule="evenodd"/><path fill="#5e52a7" d="m527.2441 389.16534l0 0c0 -15.655304 12.691162 -28.346436 28.346497 -28.346436l0 0c7.5179443 0 14.727966 2.9864807 20.043945 8.30246c5.315979 5.3160095 8.30249 12.5260315 8.30249 20.043976l0 0c0 15.655334 -12.691162 28.346466 -28.346436 28.346466l0 0c-15.655334 0 -28.346497 -12.691132 -28.346497 -28.346466z" fill-rule="evenodd"/><path fill="#5e52a7" d="m527.2441 200.18898l0 0c0 -15.655319 12.691162 -28.346466 28.346497 -28.346466l0 0c7.5179443 0 14.727966 2.986496 20.043945 8.30249c5.315979 5.3159943 8.30249 12.5260315 8.30249 20.043976l0 0c0 15.655319 -12.691162 28.34645 -28.346436 28.34645l0 0c-15.655334 0 -28.346497 -12.691132 -28.346497 -28.34645z" fill-rule="evenodd"/><path fill="#5e52a7" d="m527.2441 483.65353l0 0c0 -15.655304 12.691162 -28.346436 28.346497 -28.346436l0 0c7.5179443 0 14.727966 2.9864807 20.043945 8.30246c5.315979 5.3160095 8.30249 12.5260315 8.30249 20.043976l0 0c0 15.655334 -12.691162 28.346466 -28.346436 28.346466l0 0c-15.655334 0 -28.346497 -12.691132 -28.346497 -28.346466z" fill-rule="evenodd"/><path fill="#5e52a7" d="m527.2441 105.70079l0 0c0 -15.655319 12.691162 -28.346458 28.346497 -28.346458l0 0c7.5179443 0 14.727966 2.9864883 20.043945 8.302483c5.315979 5.3159943 8.30249 12.526024 8.30249 20.043976l0 0c0 15.655312 -12.691162 28.34645 -28.346436 28.34645l0 0c-15.655334 0 -28.346497 -12.691139 -28.346497 -28.34645z" fill-rule="evenodd"/><path fill="#000000" fill-opacity="0.0" d="m583.937 105.70079l132.28345 188.97636" fill-rule="evenodd"/><path stroke="#605c72" stroke-width="1.0" stroke-linejoin="round" stroke-linecap="butt" d="m583.937 105.70079l132.28345 188.97636" fill-rule="evenodd"/><path fill="#000000" fill-opacity="0.0" d="m583.937 200.18898l132.28345 94.488174" fill-rule="evenodd"/><path stroke="#605c72" stroke-width="1.0" stroke-linejoin="round" stroke-linecap="butt" d="m583.937 200.18898l132.28345 94.488174" fill-rule="evenodd"/><path fill="#000000" fill-opacity="0.0" d="m583.937 294.67715l132.28345 0" fill-rule="evenodd"/><path stroke="#605c72" stroke-width="1.0" stroke-linejoin="round" stroke-linecap="butt" d="m583.937 294.67715l132.28345 0" fill-rule="evenodd"/><path fill="#000000" fill-opacity="0.0" d="m583.937 389.16534l132.28345 -94.48819" fill-rule="evenodd"/><path stroke="#605c72" stroke-width="1.0" stroke-linejoin="round" stroke-linecap="butt" d="m583.937 389.16534l132.28345 -94.48819" fill-rule="evenodd"/><path fill="#000000" fill-opacity="0.0" d="m583.937 483.65353l132.28345 -188.97638" fill-rule="evenodd"/><path stroke="#605c72" stroke-width="1.0" stroke-linejoin="round" stroke-linecap="butt" d="m583.937 483.65353l132.28345 -188.97638" fill-rule="evenodd"/><path fill="#000000" fill-opacity="0.0" d="m158.50394 103.59055l113.85828 0l0 42.01574l-113.85828 0z" fill-rule="evenodd"/><path fill="#000000" d="m170.49493 130.51054l0 -13.359367l1.765625 0l0 13.359367l-1.765625 0zm4.683304 0l0 -9.671867l1.46875 0l0 1.375q1.0625 -1.59375 3.078125 -1.59375q0.875 0 1.609375 0.3125q0.734375 0.3125 1.09375 0.828125q0.375 0.5 0.515625 1.203125q0.09375 0.453125 0.09375 1.59375l0 5.9531174l-1.640625 0l0 -5.8906174q0 -1.0 -0.203125 -1.484375q-0.1875 -0.5 -0.671875 -0.796875q-0.484375 -0.296875 -1.140625 -0.296875q-1.046875 0 -1.8125 0.671875q-0.75 0.65625 -0.75 2.515625l0 5.2812424l-1.640625 0zm10.375717 3.703125l0 -13.374992l1.484375 0l0 1.25q0.53125 -0.734375 1.1875 -1.09375q0.671875 -0.375 1.625 -0.375q1.234375 0 2.171875 0.640625q0.953125 0.625 1.4375 1.796875q0.484375 1.15625 0.484375 2.546875q0 1.484375 -0.53125 2.6718674q-0.53125 1.1875 -1.546875 1.828125q-1.015625 0.625 -2.140625 0.625q-0.8125 0 -1.46875 -0.34375q-0.65625 -0.34375 -1.0625 -0.875l0 4.703125l-1.640625 0zm1.484375 -8.484367q0 1.859375 0.75 2.7656174q0.765625 0.890625 1.828125 0.890625q1.09375 0 1.875 -0.921875q0.78125 -0.9374924 0.78125 -2.8749924q0 -1.84375 -0.765625 -2.765625q-0.75 -0.921875 -1.8125 -0.921875q-1.046875 0 -1.859375 0.984375q-0.796875 0.96875 -0.796875 2.84375zm15.219467 4.7812424l0 -1.421875q-1.125 1.640625 -3.0625 1.640625q-0.859375 0 -1.609375 -0.328125q-0.734375 -0.328125 -1.09375 -0.828125q-0.359375 -0.5 -0.5 -1.21875q-0.109375 -0.46874237 -0.109375 -1.5312424l0 -5.984375l1.640625 0l0 5.359375q0 1.28125 0.109375 1.734375q0.15625 0.6406174 0.65625 1.0156174q0.5 0.375 1.234375 0.375q0.734375 0 1.375 -0.375q0.65625 -0.390625 0.921875 -1.0312424q0.265625 -0.65625 0.265625 -1.890625l0 -5.1875l1.640625 0l0 9.671867l-1.46875 0zm7.625717 -1.46875l0.234375 1.453125q-0.6875 0.140625 -1.234375 0.140625q-0.890625 0 -1.390625 -0.28125q-0.484375 -0.28125 -0.6875 -0.734375q-0.203125 -0.46875 -0.203125 -1.9374924l0 -5.578125l-1.203125 0l0 -1.265625l1.203125 0l0 -2.390625l1.625 -0.984375l0 3.375l1.65625 0l0 1.265625l-1.65625 0l0 5.671875q0 0.6874924 0.078125 0.8906174q0.09375 0.203125 0.28125 0.328125q0.203125 0.109375 0.578125 0.109375q0.265625 0 0.71875 -0.0625zm6.9134827 1.46875l0 -13.359367l1.78125 0l0 11.781242l6.5625 0l0 1.578125l-8.34375 0zm16.563217 -1.1875q-0.921875 0.765625 -1.765625 1.09375q-0.828125 0.3125 -1.796875 0.3125q-1.59375 0 -2.453125 -0.78125q-0.859375 -0.78125 -0.859375 -1.9843674q0 -0.71875 0.328125 -1.296875q0.328125 -0.59375 0.84375 -0.9375q0.53125 -0.359375 1.1875 -0.546875q0.46875 -0.125 1.453125 -0.25q1.984375 -0.234375 2.921875 -0.5625q0.015625 -0.34375 0.015625 -0.421875q0 -1.0 -0.46875 -1.421875q-0.625 -0.546875 -1.875 -0.546875q-1.15625 0 -1.703125 0.40625q-0.546875 0.40625 -0.8125 1.421875l-1.609375 -0.21875q0.21875 -1.015625 0.71875 -1.640625q0.5 -0.640625 1.453125 -0.984375q0.953125 -0.34375 2.1875 -0.34375q1.25 0 2.015625 0.296875q0.78125 0.28125 1.140625 0.734375q0.375 0.4375 0.515625 1.109375q0.078125 0.421875 0.078125 1.515625l0 2.1875q0 2.2812424 0.109375 2.8906174q0.109375 0.59375 0.40625 1.15625l-1.703125 0q-0.265625 -0.515625 -0.328125 -1.1875zm-0.140625 -3.6718674q-0.890625 0.375 -2.671875 0.625q-1.015625 0.140625 -1.4375 0.328125q-0.421875 0.1875 -0.65625 0.53125q-0.21875 0.34375 -0.21875 0.78125q0 0.6562424 0.5 1.0937424q0.5 0.4375 1.453125 0.4375q0.9375 0 1.671875 -0.40625q0.75 -0.421875 1.09375 -1.1406174q0.265625 -0.5625 0.265625 -1.640625l0 -0.609375zm4.125717 8.578117l-0.1875 -1.53125q0.546875 0.140625 0.9375 0.140625q0.546875 0 0.875 -0.1875q0.328125 -0.171875 0.546875 -0.5q0.15625 -0.25 0.5 -1.21875q0.046875 -0.140625 0.140625 -0.40625l-3.671875 -9.687492l1.765625 0l2.015625 5.59375q0.390625 1.078125 0.703125 2.2499924q0.28125 -1.1249924 0.671875 -2.2031174l2.078125 -5.640625l1.640625 0l-3.6875 9.828117q-0.59375 1.609375 -0.921875 2.203125q-0.4375 0.8125 -1.0 1.1875q-0.5625 0.375 -1.34375 0.375q-0.484375 0 -1.0625 -0.203125zm16.03125 -6.8281174l1.6875 0.203125q-0.40625 1.4843674 -1.484375 2.3124924q-1.078125 0.8125 -2.765625 0.8125q-2.125 0 -3.375 -1.296875q-1.234375 -1.3125 -1.234375 -3.6718674q0 -2.453125 1.25 -3.796875q1.265625 -1.34375 3.265625 -1.34375q1.9375 0 3.15625 1.328125q1.234375 1.3125 1.234375 3.703125q0 0.15625 0 0.4375l-7.21875 0q0.09375 1.59375 0.90625 2.4531174q0.8125 0.84375 2.015625 0.84375q0.90625 0 1.546875 -0.46875q0.640625 -0.484375 1.015625 -1.5156174zm-5.390625 -2.65625l5.40625 0q-0.109375 -1.21875 -0.625 -1.828125q-0.78125 -0.953125 -2.03125 -0.953125q-1.125 0 -1.90625 0.765625q-0.765625 0.75 -0.84375 2.015625zm9.125732 5.7656174l0 -9.671867l1.46875 0l0 1.46875q0.5625 -1.03125 1.03125 -1.359375q0.484375 -0.328125 1.0625 -0.328125q0.828125 0 1.6875 0.53125l-0.5625 1.515625q-0.609375 -0.359375 -1.203125 -0.359375q-0.546875 0 -0.96875 0.328125q-0.421875 0.328125 -0.609375 0.890625q-0.28125 0.875 -0.28125 1.921875l0 5.0624924l-1.625 0z" fill-rule="nonzero"/><path fill="#000000" fill-opacity="0.0" d="m678.4252 103.59055l132.28351 0l0 42.01574l-132.28351 0z" fill-rule="evenodd"/><path fill="#000000" d="m691.545 124.01055q0 -3.328125 1.78125 -5.203125q1.78125 -1.890625 4.609375 -1.890625q1.84375 0 3.328125 0.890625q1.484375 0.875 2.265625 2.46875q0.78125 1.578125 0.78125 3.578125q0 2.03125 -0.828125 3.640625q-0.8125 1.5937424 -2.3125 2.4218674q-1.5 0.828125 -3.25 0.828125q-1.875 0 -3.359375 -0.90625q-1.484375 -0.921875 -2.25 -2.4999924q-0.765625 -1.578125 -0.765625 -3.328125zm1.8125 0.015625q0 2.421875 1.296875 3.8125q1.296875 1.3906174 3.265625 1.3906174q2.0 0 3.28125 -1.4062424q1.28125 -1.40625 1.28125 -3.984375q0 -1.625 -0.546875 -2.84375q-0.546875 -1.21875 -1.609375 -1.875q-1.0625 -0.671875 -2.375 -0.671875q-1.890625 0 -3.25 1.296875q-1.34375 1.28125 -1.34375 4.28125zm19.355164 6.4843674l0 -1.421875q-1.125 1.640625 -3.0625 1.640625q-0.859375 0 -1.609375 -0.328125q-0.734375 -0.328125 -1.09375 -0.828125q-0.359375 -0.5 -0.5 -1.21875q-0.109375 -0.46874237 -0.109375 -1.5312424l0 -5.984375l1.640625 0l0 5.359375q0 1.28125 0.109375 1.734375q0.15625 0.6406174 0.65625 1.0156174q0.5 0.375 1.234375 0.375q0.734375 0 1.375 -0.375q0.65625 -0.390625 0.921875 -1.0312424q0.265625 -0.65625 0.265625 -1.890625l0 -5.1875l1.640625 0l0 9.671867l-1.46875 0zm7.6257324 -1.46875l0.234375 1.453125q-0.6875 0.140625 -1.234375 0.140625q-0.890625 0 -1.390625 -0.28125q-0.484375 -0.28125 -0.6875 -0.734375q-0.203125 -0.46875 -0.203125 -1.9374924l0 -5.578125l-1.203125 0l0 -1.265625l1.203125 0l0 -2.390625l1.625 -0.984375l0 3.375l1.65625 0l0 1.265625l-1.65625 0l0 5.671875q0 0.6874924 0.078125 0.8906174q0.09375 0.203125 0.28125 0.328125q0.203125 0.109375 0.578125 0.109375q0.265625 0 0.71875 -0.0625zm1.6051636 5.171875l0 -13.374992l1.484375 0l0 1.25q0.53125 -0.734375 1.1875 -1.09375q0.671875 -0.375 1.625 -0.375q1.234375 0 2.171875 0.640625q0.953125 0.625 1.4375 1.796875q0.484375 1.15625 0.484375 2.546875q0 1.484375 -0.53125 2.6718674q-0.53125 1.1875 -1.546875 1.828125q-1.015625 0.625 -2.140625 0.625q-0.8125 0 -1.46875 -0.34375q-0.65625 -0.34375 -1.0625 -0.875l0 4.703125l-1.640625 0zm1.484375 -8.484367q0 1.859375 0.75 2.7656174q0.765625 0.890625 1.828125 0.890625q1.09375 0 1.875 -0.921875q0.78125 -0.9374924 0.78125 -2.8749924q0 -1.84375 -0.765625 -2.765625q-0.75 -0.921875 -1.8125 -0.921875q-1.046875 0 -1.859375 0.984375q-0.796875 0.96875 -0.796875 2.84375zm15.219482 4.7812424l0 -1.421875q-1.125 1.640625 -3.0625 1.640625q-0.859375 0 -1.609375 -0.328125q-0.734375 -0.328125 -1.09375 -0.828125q-0.359375 -0.5 -0.5 -1.21875q-0.109375 -0.46874237 -0.109375 -1.5312424l0 -5.984375l1.640625 0l0 5.359375q0 1.28125 0.109375 1.734375q0.15625 0.6406174 0.65625 1.0156174q0.5 0.375 1.234375 0.375q0.734375 0 1.375 -0.375q0.65625 -0.390625 0.921875 -1.0312424q0.265625 -0.65625 0.265625 -1.890625l0 -5.1875l1.640625 0l0 9.671867l-1.46875 0zm7.6256714 -1.46875l0.234375 1.453125q-0.6875 0.140625 -1.234375 0.140625q-0.890625 0 -1.390625 -0.28125q-0.484375 -0.28125 -0.6875 -0.734375q-0.203125 -0.46875 -0.203125 -1.9374924l0 -5.578125l-1.203125 0l0 -1.265625l1.203125 0l0 -2.390625l1.625 -0.984375l0 3.375l1.65625 0l0 1.265625l-1.65625 0l0 5.671875q0 0.6874924 0.078125 0.8906174q0.09375 0.203125 0.28125 0.328125q0.203125 0.109375 0.578125 0.109375q0.265625 0 0.71875 -0.0625zm6.913513 1.46875l0 -13.359367l1.78125 0l0 11.781242l6.5625 0l0 1.578125l-8.34375 0zm16.563232 -1.1875q-0.921875 0.765625 -1.765625 1.09375q-0.828125 0.3125 -1.796875 0.3125q-1.59375 0 -2.453125 -0.78125q-0.859375 -0.78125 -0.859375 -1.9843674q0 -0.71875 0.328125 -1.296875q0.328125 -0.59375 0.84375 -0.9375q0.53125 -0.359375 1.1875 -0.546875q0.46875 -0.125 1.453125 -0.25q1.984375 -0.234375 2.921875 -0.5625q0.015625 -0.34375 0.015625 -0.421875q0 -1.0 -0.46875 -1.421875q-0.625 -0.546875 -1.875 -0.546875q-1.15625 0 -1.703125 0.40625q-0.546875 0.40625 -0.8125 1.421875l-1.609375 -0.21875q0.21875 -1.015625 0.71875 -1.640625q0.5 -0.640625 1.453125 -0.984375q0.953125 -0.34375 2.1875 -0.34375q1.25 0 2.015625 0.296875q0.78125 0.28125 1.140625 0.734375q0.375 0.4375 0.515625 1.109375q0.078125 0.421875 0.078125 1.515625l0 2.1875q0 2.2812424 0.109375 2.8906174q0.109375 0.59375 0.40625 1.15625l-1.703125 0q-0.265625 -0.515625 -0.328125 -1.1875zm-0.140625 -3.6718674q-0.890625 0.375 -2.671875 0.625q-1.015625 0.140625 -1.4375 0.328125q-0.421875 0.1875 -0.65625 0.53125q-0.21875 0.34375 -0.21875 0.78125q0 0.6562424 0.5 1.0937424q0.5 0.4375 1.453125 0.4375q0.9375 0 1.671875 -0.40625q0.75 -0.421875 1.09375 -1.1406174q0.265625 -0.5625 0.265625 -1.640625l0 -0.609375zm4.1256714 8.578117l-0.1875 -1.53125q0.546875 0.140625 0.9375 0.140625q0.546875 0 0.875 -0.1875q0.328125 -0.171875 0.546875 -0.5q0.15625 -0.25 0.5 -1.21875q0.046875 -0.140625 0.140625 -0.40625l-3.671875 -9.687492l1.765625 0l2.015625 5.59375q0.390625 1.078125 0.703125 2.2499924q0.28125 -1.1249924 0.671875 -2.2031174l2.078125 -5.640625l1.640625 0l-3.6875 9.828117q-0.59375 1.609375 -0.921875 2.203125q-0.4375 0.8125 -1.0 1.1875q-0.5625 0.375 -1.34375 0.375q-0.484375 0 -1.0625 -0.203125zm16.03125 -6.8281174l1.6875 0.203125q-0.40625 1.4843674 -1.484375 2.3124924q-1.078125 0.8125 -2.765625 0.8125q-2.125 0 -3.375 -1.296875q-1.234375 -1.3125 -1.234375 -3.6718674q0 -2.453125 1.25 -3.796875q1.265625 -1.34375 3.265625 -1.34375q1.9375 0 3.15625 1.328125q1.234375 1.3125 1.234375 3.703125q0 0.15625 0 0.4375l-7.21875 0q0.09375 1.59375 0.90625 2.4531174q0.8125 0.84375 2.015625 0.84375q0.90625 0 1.546875 -0.46875q0.640625 -0.484375 1.015625 -1.5156174zm-5.390625 -2.65625l5.40625 0q-0.109375 -1.21875 -0.625 -1.828125q-0.78125 -0.953125 -2.03125 -0.953125q-1.125 0 -1.90625 0.765625q-0.765625 0.75 -0.84375 2.015625zm9.125732 5.7656174l0 -9.671867l1.46875 0l0 1.46875q0.5625 -1.03125 1.03125 -1.359375q0.484375 -0.328125 1.0625 -0.328125q0.828125 0 1.6875 0.53125l-0.5625 1.515625q-0.609375 -0.359375 -1.203125 -0.359375q-0.546875 0 -0.96875 0.328125q-0.421875 0.328125 -0.609375 0.890625q-0.28125 0.875 -0.28125 1.921875l0 5.0624924l-1.625 0z" fill-rule="nonzero"/><path fill="#ffffff" d="m406.86615 30.110237l146.2677 0l0 37.795273l-146.2677 0z" fill-rule="evenodd"/><path fill="#000000" fill-opacity="0.0" d="m406.92914 28.0l146.14172 0l0 42.015747l-146.14172 0z" fill-rule="evenodd"/><path fill="#000000" d="m421.35 54.92l0 -13.359375l1.765625 0l0 5.484375l6.9375 0l0 -5.484375l1.765625 0l0 13.359375l-1.765625 0l0 -6.296875l-6.9375 0l0 6.296875l-1.765625 0zm13.207306 -11.46875l0 -1.890625l1.640625 0l0 1.890625l-1.640625 0zm0 11.46875l0 -9.671875l1.640625 0l0 9.671875l-1.640625 0zm10.410461 0l0 -1.21875q-0.90625 1.4375 -2.703125 1.4375q-1.15625 0 -2.125 -0.640625q-0.96875 -0.640625 -1.5 -1.78125q-0.53125 -1.140625 -0.53125 -2.625q0 -1.453125 0.484375 -2.625q0.484375 -1.1875 1.4375 -1.8125q0.96875 -0.625 2.171875 -0.625q0.875 0 1.546875 0.375q0.6875 0.359375 1.109375 0.953125l0 -4.796875l1.640625 0l0 13.359375l-1.53125 0zm-5.171875 -4.828125q0 1.859375 0.78125 2.78125q0.78125 0.921875 1.84375 0.921875q1.078125 0 1.828125 -0.875q0.75 -0.890625 0.75 -2.6875q0 -1.984375 -0.765625 -2.90625q-0.765625 -0.9375 -1.890625 -0.9375q-1.078125 0 -1.8125 0.890625q-0.734375 0.890625 -0.734375 2.8125zm15.547577 4.828125l0 -1.21875q-0.90625 1.4375 -2.703125 1.4375q-1.15625 0 -2.125 -0.640625q-0.96875 -0.640625 -1.5 -1.78125q-0.53125 -1.140625 -0.53125 -2.625q0 -1.453125 0.484375 -2.625q0.484375 -1.1875 1.4375 -1.8125q0.96875 -0.625 2.171875 -0.625q0.875 0 1.546875 0.375q0.6875 0.359375 1.109375 0.953125l0 -4.796875l1.640625 0l0 13.359375l-1.53125 0zm-5.171875 -4.828125q0 1.859375 0.78125 2.78125q0.78125 0.921875 1.84375 0.921875q1.078125 0 1.828125 -0.875q0.75 -0.890625 0.75 -2.6875q0 -1.984375 -0.765625 -2.90625q-0.765625 -0.9375 -1.890625 -0.9375q-1.078125 0 -1.8125 0.890625q-0.734375 0.890625 -0.734375 2.8125zm15.906982 1.71875l1.6875 0.203125q-0.40625 1.484375 -1.484375 2.3125q-1.078125 0.8125 -2.765625 0.8125q-2.125 0 -3.375 -1.296875q-1.234375 -1.3125 -1.234375 -3.671875q0 -2.453125 1.25 -3.796875q1.265625 -1.34375 3.265625 -1.34375q1.9375 0 3.15625 1.328125q1.234375 1.3125 1.234375 3.703125q0 0.15625 0 0.4375l-7.21875 0q0.09375 1.59375 0.90625 2.453125q0.8125 0.84375 2.015625 0.84375q0.90625 0 1.546875 -0.46875q0.640625 -0.484375 1.015625 -1.515625zm-5.390625 -2.65625l5.40625 0q-0.109375 -1.21875 -0.625 -1.828125q-0.78125 -0.953125 -2.03125 -0.953125q-1.125 0 -1.90625 0.765625q-0.765625 0.75 -0.84375 2.015625zm9.141327 5.765625l0 -9.671875l1.46875 0l0 1.375q1.0625 -1.59375 3.078125 -1.59375q0.875 0 1.609375 0.3125q0.734375 0.3125 1.09375 0.828125q0.375 0.5 0.515625 1.203125q0.09375 0.453125 0.09375 1.59375l0 5.953125l-1.640625 0l0 -5.890625q0 -1.0 -0.203125 -1.484375q-0.1875 -0.5 -0.671875 -0.796875q-0.484375 -0.296875 -1.140625 -0.296875q-1.046875 0 -1.8125 0.671875q-0.75 0.65625 -0.75 2.515625l0 5.28125l-1.640625 0zm15.684021 0l0 -13.359375l1.78125 0l0 11.78125l6.5625 0l0 1.578125l-8.34375 0zm16.563232 -1.1875q-0.921875 0.765625 -1.765625 1.09375q-0.828125 0.3125 -1.796875 0.3125q-1.59375 0 -2.453125 -0.78125q-0.859375 -0.78125 -0.859375 -1.984375q0 -0.71875 0.328125 -1.296875q0.328125 -0.59375 0.84375 -0.9375q0.53125 -0.359375 1.1875 -0.546875q0.46875 -0.125 1.453125 -0.25q1.984375 -0.234375 2.921875 -0.5625q0.015625 -0.34375 0.015625 -0.421875q0 -1.0 -0.46875 -1.421875q-0.625 -0.546875 -1.875 -0.546875q-1.15625 0 -1.703125 0.40625q-0.546875 0.40625 -0.8125 1.421875l-1.609375 -0.21875q0.21875 -1.015625 0.71875 -1.640625q0.5 -0.640625 1.453125 -0.984375q0.953125 -0.34375 2.1875 -0.34375q1.25 0 2.015625 0.296875q0.78125 0.28125 1.140625 0.734375q0.375 0.4375 0.515625 1.109375q0.078125 0.421875 0.078125 1.515625l0 2.1875q0 2.28125 0.109375 2.890625q0.109375 0.59375 0.40625 1.15625l-1.703125 0q-0.265625 -0.515625 -0.328125 -1.1875zm-0.140625 -3.671875q-0.890625 0.375 -2.671875 0.625q-1.015625 0.140625 -1.4375 0.328125q-0.421875 0.1875 -0.65625 0.53125q-0.21875 0.34375 -0.21875 0.78125q0 0.65625 0.5 1.09375q0.5 0.4375 1.453125 0.4375q0.9375 0 1.671875 -0.40625q0.75 -0.421875 1.09375 -1.140625q0.265625 -0.5625 0.265625 -1.640625l0 -0.609375zm4.125702 8.578125l-0.1875 -1.53125q0.546875 0.140625 0.9375 0.140625q0.546875 0 0.875 -0.1875q0.328125 -0.171875 0.546875 -0.5q0.15625 -0.25 0.5 -1.21875q0.046875 -0.140625 0.140625 -0.40625l-3.671875 -9.6875l1.765625 0l2.015625 5.59375q0.390625 1.078125 0.703125 2.25q0.28125 -1.125 0.671875 -2.203125l2.0781555 -5.640625l1.640625 0l-3.6875305 9.828125q-0.59375 1.609375 -0.921875 2.203125q-0.4375 0.8125 -1.0 1.1875q-0.5625 0.375 -1.34375 0.375q-0.484375 0 -1.0625 -0.203125zm16.03128 -6.828125l1.6875 0.203125q-0.40625 1.484375 -1.484375 2.3125q-1.078125 0.8125 -2.765625 0.8125q-2.125 0 -3.375 -1.296875q-1.234375 -1.3125 -1.234375 -3.671875q0 -2.453125 1.25 -3.796875q1.265625 -1.34375 3.265625 -1.34375q1.9375 0 3.15625 1.328125q1.234375 1.3125 1.234375 3.703125q0 0.15625 0 0.4375l-7.21875 0q0.09375 1.59375 0.90625 2.453125q0.8125 0.84375 2.015625 0.84375q0.90625 0 1.546875 -0.46875q0.640625 -0.484375 1.015625 -1.515625zm-5.390625 -2.65625l5.40625 0q-0.109375 -1.21875 -0.625 -1.828125q-0.78125 -0.953125 -2.03125 -0.953125q-1.125 0 -1.90625 0.765625q-0.765625 0.75 -0.84375 2.015625zm9.125671 5.765625l0 -9.671875l1.46875 0l0 1.46875q0.5625 -1.03125 1.03125 -1.359375q0.484375 -0.328125 1.0625 -0.328125q0.828125 0 1.6875 0.53125l-0.5625 1.515625q-0.609375 -0.359375 -1.203125 -0.359375q-0.546875 0 -0.96875 0.328125q-0.421875 0.328125 -0.609375 0.890625q-0.28125 0.875 -0.28125 1.921875l0 5.0625l-1.625 0zm5.5720825 -2.890625l1.625 -0.25q0.125 0.96875 0.75 1.5q0.625 0.515625 1.75 0.515625q1.125 0 1.671875 -0.453125q0.546875 -0.46875 0.546875 -1.09375q0 -0.546875 -0.484375 -0.875q-0.328125 -0.21875 -1.671875 -0.546875q-1.8125 -0.46875 -2.515625 -0.796875q-0.6875 -0.328125 -1.046875 -0.90625q-0.359375 -0.59375 -0.359375 -1.3125q0 -0.640625 0.296875 -1.1875q0.296875 -0.5625 0.8125 -0.921875q0.375 -0.28125 1.03125 -0.46875q0.671875 -0.203125 1.421875 -0.203125q1.140625 0 2.0 0.328125q0.859375 0.328125 1.265625 0.890625q0.421875 0.5625 0.578125 1.5l-1.609375 0.21875q-0.109375 -0.75 -0.640625 -1.171875q-0.515625 -0.421875 -1.46875 -0.421875q-1.140625 0 -1.625 0.375q-0.46875 0.375 -0.46875 0.875q0 0.3125 0.1875 0.578125q0.203125 0.265625 0.640625 0.4375q0.234375 0.09375 1.4375 0.421875q1.75 0.453125 2.4375 0.75q0.6875 0.296875 1.078125 0.859375q0.390625 0.5625 0.390625 1.40625q0 0.828125 -0.484375 1.546875q-0.46875 0.71875 -1.375 1.125q-0.90625 0.390625 -2.046875 0.390625q-1.875 0 -2.875 -0.78125q-0.984375 -0.78125 -1.25 -2.328125z" fill-rule="nonzero"/><path fill="#000000" fill-opacity="0.0" d="m432.75592 105.70079l94.48816 94.48819" fill-rule="evenodd"/><path stroke="#595959" stroke-width="1.0" stroke-linejoin="round" stroke-linecap="butt" d="m432.75592 105.70079l94.48816 94.48819" fill-rule="evenodd"/><path fill="#000000" fill-opacity="0.0" d="m432.75592 105.70079l94.48816 188.97636" fill-rule="evenodd"/><path stroke="#595959" stroke-width="1.0" stroke-linejoin="round" stroke-linecap="butt" d="m432.75592 105.70079l94.48816 188.97636" fill-rule="evenodd"/><path fill="#000000" fill-opacity="0.0" d="m432.75592 105.70079l94.48816 283.46454" fill-rule="evenodd"/><path stroke="#595959" stroke-width="1.0" stroke-linejoin="round" stroke-linecap="butt" d="m432.75592 105.70079l94.48816 283.46454" fill-rule="evenodd"/><path fill="#000000" fill-opacity="0.0" d="m432.75592 105.70079l94.48816 377.95276" fill-rule="evenodd"/><path stroke="#595959" stroke-width="1.0" stroke-linejoin="round" stroke-linecap="butt" d="m432.75592 105.70079l94.48816 377.95276" fill-rule="evenodd"/><path fill="#000000" fill-opacity="0.0" d="m432.75592 200.18898l94.48816 -94.48819" fill-rule="evenodd"/><path stroke="#595959" stroke-width="1.0" stroke-linejoin="round" stroke-linecap="butt" d="m432.75592 200.18898l94.48816 -94.48819" fill-rule="evenodd"/><path fill="#000000" fill-opacity="0.0" d="m432.75592 200.18898l94.48816 94.488174" fill-rule="evenodd"/><path stroke="#595959" stroke-width="1.0" stroke-linejoin="round" stroke-linecap="butt" d="m432.75592 200.18898l94.48816 94.488174" fill-rule="evenodd"/><path fill="#000000" fill-opacity="0.0" d="m432.75592 200.18898l94.48816 188.97636" fill-rule="evenodd"/><path stroke="#595959" stroke-width="1.0" stroke-linejoin="round" stroke-linecap="butt" d="m432.75592 200.18898l94.48816 188.97636" fill-rule="evenodd"/><path fill="#000000" fill-opacity="0.0" d="m432.75592 200.18898l94.48816 283.46454" fill-rule="evenodd"/><path stroke="#595959" stroke-width="1.0" stroke-linejoin="round" stroke-linecap="butt" d="m432.75592 200.18898l94.48816 283.46454" fill-rule="evenodd"/><path fill="#000000" fill-opacity="0.0" d="m432.75592 294.67715l94.48816 -188.97636" fill-rule="evenodd"/><path stroke="#595959" stroke-width="1.0" stroke-linejoin="round" stroke-linecap="butt" d="m432.75592 294.67715l94.48816 -188.97636" fill-rule="evenodd"/><path fill="#000000" fill-opacity="0.0" d="m432.75592 294.67715l94.48816 -94.488174" fill-rule="evenodd"/><path stroke="#595959" stroke-width="1.0" stroke-linejoin="round" stroke-linecap="butt" d="m432.75592 294.67715l94.48816 -94.488174" fill-rule="evenodd"/><path fill="#000000" fill-opacity="0.0" d="m432.75592 294.67715l94.48816 94.48819" fill-rule="evenodd"/><path stroke="#595959" stroke-width="1.0" stroke-linejoin="round" stroke-linecap="butt" d="m432.75592 294.67715l94.48816 94.48819" fill-rule="evenodd"/><path fill="#000000" fill-opacity="0.0" d="m432.75592 294.67715l94.48816 188.97638" fill-rule="evenodd"/><path stroke="#595959" stroke-width="1.0" stroke-linejoin="round" stroke-linecap="butt" d="m432.75592 294.67715l94.48816 188.97638" fill-rule="evenodd"/><path fill="#000000" fill-opacity="0.0" d="m432.75592 389.16534l94.48816 -94.48819" fill-rule="evenodd"/><path stroke="#595959" stroke-width="1.0" stroke-linejoin="round" stroke-linecap="butt" d="m432.75592 389.16534l94.48816 -94.48819" fill-rule="evenodd"/><path fill="#000000" fill-opacity="0.0" d="m432.75592 389.16534l94.48816 94.48819" fill-rule="evenodd"/><path stroke="#595959" stroke-width="1.0" stroke-linejoin="round" stroke-linecap="butt" d="m432.75592 389.16534l94.48816 94.48819" fill-rule="evenodd"/><path fill="#000000" fill-opacity="0.0" d="m432.75592 389.16534l94.48816 -188.97636" fill-rule="evenodd"/><path stroke="#595959" stroke-width="1.0" stroke-linejoin="round" stroke-linecap="butt" d="m432.75592 389.16534l94.48816 -188.97636" fill-rule="evenodd"/><path fill="#000000" fill-opacity="0.0" d="m432.75592 389.16534l94.48816 -283.46454" fill-rule="evenodd"/><path stroke="#595959" stroke-width="1.0" stroke-linejoin="round" stroke-linecap="butt" d="m432.75592 389.16534l94.48816 -283.46454" fill-rule="evenodd"/><path fill="#000000" fill-opacity="0.0" d="m432.75592 483.65353l94.48816 -94.48819" fill-rule="evenodd"/><path stroke="#595959" stroke-width="1.0" stroke-linejoin="round" stroke-linecap="butt" d="m432.75592 483.65353l94.48816 -94.48819" fill-rule="evenodd"/><path fill="#000000" fill-opacity="0.0" d="m432.75592 483.65353l94.48816 -188.97638" fill-rule="evenodd"/><path stroke="#595959" stroke-width="1.0" stroke-linejoin="round" stroke-linecap="butt" d="m432.75592 483.65353l94.48816 -188.97638" fill-rule="evenodd"/><path fill="#000000" fill-opacity="0.0" d="m527.2441 200.18898l-94.48816 283.46454" fill-rule="evenodd"/><path stroke="#595959" stroke-width="1.0" stroke-linejoin="round" stroke-linecap="butt" d="m527.2441 200.18898l-94.48816 283.46454" fill-rule="evenodd"/><path fill="#000000" fill-opacity="0.0" d="m527.2441 105.70079l-94.48816 377.95276" fill-rule="evenodd"/><path stroke="#595959" stroke-width="1.0" stroke-linejoin="round" stroke-linecap="butt" d="m527.2441 105.70079l-94.48816 377.95276" fill-rule="evenodd"/></g></svg>