<?xml version="1.0" encoding="utf-8"?>
<!-- Generator: Adobe Illustrator 24.2.3, SVG Export Plug-In . SVG Version: 6.00 Build 0)  -->
<svg version="1.1" id="レイヤー_1" xmlns="http://www.w3.org/2000/svg" xmlns:xlink="http://www.w3.org/1999/xlink" x="0px"
	 y="0px" viewBox="0 0 1920 1080" style="enable-background:new 0 0 1920 1080;" xml:space="preserve">
<style type="text/css">
	.st0{font-family:'KozGoPr6N-Regular-90ms-RKSJ-H';}
	.st1{font-size:36px;}
	.st2{fill:none;stroke:#000000;stroke-miterlimit:10;}
	.st3{fill-rule:evenodd;clip-rule:evenodd;fill:none;stroke:#000000;stroke-width:2;stroke-miterlimit:10;}
</style>
<g>
	<path d="M1098.7,110c17.9,0,32.5,14.6,32.5,32.5v101.9c0,17.9-14.6,32.5-32.5,32.5H821.3c-17.9,0-32.5-14.6-32.5-32.5V142.5
		c0-17.9,14.6-32.5,32.5-32.5H1098.7 M1098.7,109H821.3c-18.5,0-33.5,15-33.5,33.5v101.9c0,18.5,15,33.5,33.5,33.5h277.4
		c18.5,0,33.5-15,33.5-33.5V142.5C1132.3,124,1117.2,109,1098.7,109L1098.7,109z"/>
</g>
<text transform="matrix(1 0 0 1 822.627 185.4302)"><tspan x="0" y="0" class="st0 st1">Types of Artificial</tspan><tspan x="42.9" y="36" class="st0 st1">Intelligence</tspan></text>
<g>
	<path d="M1595.3,371.6c17.9,0,32.5,14.6,32.5,32.5V506c0,17.9-14.6,32.5-32.5,32.5h-277.4c-17.9,0-32.5-14.6-32.5-32.5V404.1
		c0-17.9,14.6-32.5,32.5-32.5H1595.3 M1595.3,370.6h-277.4c-18.5,0-33.5,15-33.5,33.5V506c0,18.5,15,33.5,33.5,33.5h277.4
		c18.5,0,33.5-15,33.5-33.5V404.1C1628.8,385.6,1613.8,370.6,1595.3,370.6L1595.3,370.6z"/>
</g>
<g>
	<path d="M604.5,371.6c17.9,0,32.5,14.6,32.5,32.5v101.9c0,17.9-14.6,32.5-32.5,32.5H327.1c-17.9,0-32.5-14.6-32.5-32.5V404.2
		c0-17.9,14.6-32.5,32.5-32.5H604.5 M604.5,370.6H327.1c-18.5,0-33.5,15-33.5,33.5v101.9c0,18.5,15,33.5,33.5,33.5h277.4
		c18.5,0,33.5-15,33.5-33.5V404.2C638.1,385.7,623.1,370.6,604.5,370.6L604.5,370.6z"/>
</g>
<polyline class="st2" points="1132.3,193.5 1456.5,193.5 1456.8,368 "/>
<polyline class="st2" points="787.8,193.5 465.5,193.5 465.7,371 "/>
<polyline class="st3" points="454.5,353.4 465.8,369.2 476.9,353.6 "/>
<polyline class="st3" points="1445.6,353.4 1456.9,369.2 1468,353.6 "/>
<text transform="matrix(1 0 0 1 392.3388 446.8805)"><tspan x="0" y="0" class="st0 st1">Based on</tspan><tspan x="-19.9" y="36" class="st0 st1">Capabilities</tspan></text>
<text transform="matrix(1 0 0 1 1383.0938 446.8115)"><tspan x="0" y="0" class="st0 st1">Based on</tspan><tspan x="-44.5" y="36" class="st0 st1">Functionalities</tspan></text>
<g>
	<path d="M564.3,719.9c17.9,0,32.5,14.6,32.5,32.5v62.5c0,17.9-14.6,32.5-32.5,32.5h-197c-17.9,0-32.5-14.6-32.5-32.5v-62.5
		c0-17.9,14.6-32.5,32.5-32.5H564.3 M564.3,718.9h-197c-18.5,0-33.5,15-33.5,33.5v62.5c0,18.5,15,33.5,33.5,33.5h197
		c18.5,0,33.5-15,33.5-33.5v-62.5C597.8,733.9,582.8,718.9,564.3,718.9L564.3,718.9z"/>
</g>
<g>
	<path d="M878.4,666.2c17.9,0,32.5,14.6,32.5,32.5v62.5c0,17.9-14.6,32.5-32.5,32.5h-197c-17.9,0-32.5-14.6-32.5-32.5v-62.5
		c0-17.9,14.6-32.5,32.5-32.5H878.4 M878.4,665.2h-197c-18.5,0-33.5,15-33.5,33.5v62.5c0,18.5,15,33.5,33.5,33.5h197
		c18.5,0,33.5-15,33.5-33.5v-62.5C911.9,680.2,896.9,665.2,878.4,665.2L878.4,665.2z"/>
</g>
<g>
	<path d="M250.5,666.5c17.9,0,32.5,14.6,32.5,32.5v62.5c0,17.9-14.6,32.5-32.5,32.5h-197c-17.9,0-32.5-14.6-32.5-32.5V699
		c0-17.9,14.6-32.5,32.5-32.5H250.5 M250.5,665.5h-197C35,665.5,20,680.5,20,699v62.5c0,18.5,15,33.5,33.5,33.5h197
		c18.5,0,33.5-15,33.5-33.5V699C284,680.5,269,665.5,250.5,665.5L250.5,665.5z"/>
</g>
<path class="st2" d="M466,717.7"/>
<path class="st2" d="M780.2,665.2L466,539.6L152.2,665.2"/>
<line class="st2" x1="465.5" y1="717.5" x2="465.5" y2="539.5"/>
<text transform="matrix(1 0 0 1 71.9375 740.0161)" class="st0 st1">Narrow AI</text>
<text transform="matrix(1 0 0 1 696.7477 739.6792)" class="st0 st1">General AI</text>
<text transform="matrix(1 0 0 1 398.1569 793.4333)" class="st0 st1">Super AI</text>
<g>
	<path d="M1375.7,728.7c17.9,0,32.5,14.6,32.5,32.5v62.5c0,17.9-14.6,32.5-32.5,32.5h-197c-17.9,0-32.5-14.6-32.5-32.5v-62.5
		c0-17.9,14.6-32.5,32.5-32.5H1375.7 M1375.7,727.7h-197c-18.5,0-33.5,15-33.5,33.5v62.5c0,18.5,15,33.5,33.5,33.5h197
		c18.5,0,33.5-15,33.5-33.5v-62.5C1409.3,742.7,1394.3,727.7,1375.7,727.7L1375.7,727.7z"/>
</g>
<g>
	<path d="M1737.3,728.7c17.9,0,32.5,14.6,32.5,32.5v62.5c0,17.9-14.6,32.5-32.5,32.5h-197c-17.9,0-32.5-14.6-32.5-32.5v-62.5
		c0-17.9,14.6-32.5,32.5-32.5H1737.3 M1737.3,727.7h-197c-18.5,0-33.5,15-33.5,33.5v62.5c0,18.5,15,33.5,33.5,33.5h197
		c18.5,0,33.5-15,33.5-33.5v-62.5C1770.8,742.7,1755.8,727.7,1737.3,727.7L1737.3,727.7z"/>
</g>
<g>
	<path d="M1243.4,565c17.9,0,32.5,14.6,32.5,32.5V660c0,17.9-14.6,32.5-32.5,32.5h-197c-17.9,0-32.5-14.6-32.5-32.5v-62.5
		c0-17.9,14.6-32.5,32.5-32.5H1243.4 M1243.4,564h-197c-18.5,0-33.5,15-33.5,33.5V660c0,18.5,15,33.5,33.5,33.5h197
		c18.5,0,33.5-15,33.5-33.5v-62.5C1276.9,579,1261.9,564,1243.4,564L1243.4,564z"/>
</g>
<g>
	<path d="M1868.7,564.4c17.9,0,32.5,14.6,32.5,32.5v62.5c0,17.9-14.6,32.5-32.5,32.5h-197c-17.9,0-32.5-14.6-32.5-32.5v-62.5
		c0-17.9,14.6-32.5,32.5-32.5H1868.7 M1868.7,563.4h-197c-18.5,0-33.5,15-33.5,33.5v62.5c0,18.5,15,33.5,33.5,33.5h197
		c18.5,0,33.5-15,33.5-33.5v-62.5C1902.3,578.4,1887.3,563.4,1868.7,563.4L1868.7,563.4z"/>
</g>
<line class="st2" x1="1284.3" y1="455.1" x2="1144.9" y2="564.2"/>
<line class="st2" x1="1628.8" y1="455.1" x2="1770.9" y2="564.2"/>
<polyline class="st2" points="1276.9,728.2 1456.8,540 1638.9,728.2 "/>
<text transform="matrix(1 0 0 1 1734.8657 619.8689)"><tspan x="0" y="0" class="st0 st1">Self-</tspan><tspan x="-49.3" y="36" class="st0 st1">awareness</tspan></text>
<text transform="matrix(1 0 0 1 1077.0242 620.5161)"><tspan x="0" y="0" class="st0 st1">Reactive</tspan><tspan x="-1.4" y="36" class="st0 st1">Machine</tspan></text>
<text transform="matrix(1 0 0 1 1561.7012 784.1628)"><tspan x="0" y="0" class="st0 st1">Theory of</tspan><tspan x="34.5" y="36" class="st0 st1">Mind</tspan></text>
<text transform="matrix(1 0 0 1 1216.0005 784.2222)"><tspan x="0" y="0" class="st0 st1">Limited</tspan><tspan x="-6.2" y="36" class="st0 st1">Memory</tspan></text>
</svg>
