<?xml version="1.0" encoding="utf-8"?>
<!-- Generator: Adobe Illustrator 24.2.3, SVG Export Plug-In . SVG Version: 6.00 Build 0)  -->
<svg version="1.1" id="レイヤー_1" xmlns="http://www.w3.org/2000/svg" xmlns:xlink="http://www.w3.org/1999/xlink" x="0px"
	 y="0px" viewBox="0 0 1920 1080" style="enable-background:new 0 0 1920 1080;" xml:space="preserve">
<style type="text/css">
	.st0{fill:#E6DEFF;stroke:#000000;stroke-miterlimit:10;}
	.st1{font-family:'KozGoPr6N-Regular-90ms-RKSJ-H';}
	.st2{font-size:80px;}
	.st3{letter-spacing:20;}
	.st4{font-size:35px;}
	.st5{letter-spacing:-17;}
	.st6{letter-spacing:8;}
	.st7{font-size:27px;}
	.st8{letter-spacing:-13;}
</style>
<polygon class="st0" points="128.5,177.7 1797.5,177.7 1797.5,509.7 128.5,509.7 255.5,343.7 "/>
<polygon class="st0" points="128.5,573.44 1797.5,573.44 1797.5,905.44 128.5,905.44 255.5,739.44 "/>
<text transform="matrix(1 0 0 1 305.8823 365.3387)"><tspan x="0" y="0" class="st1 st2">強</tspan><tspan x="80" y="0" class="st1 st2 st3">い</tspan><tspan x="180" y="0" class="st1 st2">AI</tspan></text>
<text transform="matrix(1 0 0 1 305.8824 761.0813)"><tspan x="0" y="0" class="st1 st2">強</tspan><tspan x="80" y="0" class="st1 st2 st3">い</tspan><tspan x="180" y="0" class="st1 st2">AI</tspan></text>
<line x1="614" y1="237" x2="614" y2="451"/>
<line x1="614" y1="632" x2="614" y2="846"/>
<text transform="matrix(1 0 0 1 673.7646 249.647)" class="st1 st4" style="text-decoration: underline;">特定のタスクのみ処理</text>
<text transform="matrix(1 0 0 1 677.6616 317.353)"><tspan x="0" y="0" class="st1 st4">・アルファ碁（囲碁</tspan><tspan x="315" y="0" class="st1 st4 st5">）</tspan><tspan x="0" y="61.25" class="st1 st4">・Googl</tspan><tspan x="130.13" y="61.25" class="st1 st4 st6">e</tspan><tspan x="157.74" y="61.25" class="st1 st4">レンズ（画像認識</tspan><tspan x="437.74" y="61.25" class="st1 st4 st5">）</tspan><tspan x="0" y="122.5" class="st1 st4">・Siri（自然言語処理など</tspan><tspan x="397.91" y="122.5" class="st1 st4 st5">）</tspan></text>
<text transform="matrix(1 0 0 1 1225.7032 317.041)"><tspan x="0" y="0" class="st1 st4">・無人レジ</tspan><tspan x="0" y="61.25" class="st1 st4">・自動運転</tspan><tspan x="8.75" y="115.46" class="st1 st7">　など、実用段階にある「AI</tspan><tspan x="357.32" y="115.46" class="st1 st7 st8">」</tspan></text>
<text transform="matrix(1 0 0 1 673.7647 644.291)" class="st1 st4" style="text-decoration: underline;">特定のタスクのみ処理</text>
<text transform="matrix(1 0 0 1 677.9385 711.9973)"><tspan x="0" y="0" class="st1 st4 st5">・</tspan><tspan x="17.5" y="0" class="st1 st4">「ターミネーター」シリーズのスカイネット</tspan><tspan x="0" y="61.25" class="st1 st4 st5">・</tspan><tspan x="17.5" y="61.25" class="st1 st4">「アベンジャーズ」シリーズのウルトロン</tspan><tspan x="0" y="122.5" class="st1 st4 st5">・</tspan><tspan x="17.5" y="122.5" class="st1 st4">「ドラゴンボール」シリーズの人造人間</tspan></text>
<text transform="matrix(1 0 0 1 1259 881.8232)"><tspan x="0" y="0" class="st1 st7">など、ファンクションに登場する「AI</tspan><tspan x="456.57" y="0" class="st1 st7 st8">」</tspan></text>
</svg>
