<svg id="レイヤー_1" data-name="レイヤー 1" xmlns="http://www.w3.org/2000/svg" viewBox="0 0 1366 768"><defs><style>.cls-1,.cls-2,.cls-3{stroke:#000;stroke-miterlimit:10;}.cls-1{stroke-width:5px;}.cls-3{fill:#fff;}</style></defs><circle class="cls-1" cx="396.75" cy="200.25" r="146.75"/><path class="cls-2" d="M538.46,656.5h102l2.69-193.19S610.07,427.63,525,427s-143-6.24-169.17-25.58c-15.14-11.18-44.37-6.57-39.38,7.4,9,25.3,55.95,39.27,58.18,37.7,0,0-76.08,2.69-112.78-10.1s-91.3-59.91-115.46-51.83,0,24.23,0,24.23,62.65,69.34,80.55,78.76,65.34,33,162.9,29.62S508,534,508,534s19.69,9.42,20.59,22.89S525,656.5,525,656.5Z"/><circle class="cls-3" cx="396.68" cy="200.18" r="113.32"/><path class="cls-2" d="M819.66,728.5H752.5l-1.77-127.16s21.8-23.49,77.77-23.93,94.11-4.1,111.35-16.84c10-7.35,29.2-4.32,25.92,4.88-5.94,16.65-36.83,25.85-38.29,24.81,0,0,50.07,1.77,74.23-6.65s60.09-39.43,76-34.11,0,16,0,16-41.24,45.64-53,51.84-43,21.71-107.23,19.49-77.77,11.08-77.77,11.08-13,6.2-13.55,15.06,2.36,65.58,2.36,65.58Z"/><polygon class="cls-2" points="1008.7 235.1 933.5 316.69 967.48 339.05 1036 264.72 1008.7 235.1"/><path class="cls-2" d="M967.06,339.33h0L933,317.25l-75.2-81.59-27.3,29.61L899,339.6l-68,73.79L858.3,443,933,362h0l.63-.42L1008.7,443l27.3-29.61-68.52-74.34Zm-67.37-.16.06,0,2.63,1.8Z"/></svg>