<?xml version="1.0" encoding="utf-8"?>
<!-- Generator: Adobe Illustrator 24.2.3, SVG Export Plug-In . SVG Version: 6.00 Build 0)  -->
<svg version="1.1" id="レイヤー_1" xmlns="http://www.w3.org/2000/svg" xmlns:xlink="http://www.w3.org/1999/xlink" x="0px"
	 y="0px" viewBox="0 0 1920 1080" style="enable-background:new 0 0 1920 1080;" xml:space="preserve">
<style type="text/css">
	.st0{fill:none;stroke:#000000;stroke-width:10;stroke-miterlimit:10;}
	.st1{stroke:#000000;stroke-width:10;stroke-miterlimit:10;}
	.st2{fill:#FFFFFF;}
	.st3{font-family:'BaskOldFace';}
	.st4{font-size:58.4365px;}
	.st5{stroke:#000000;stroke-miterlimit:10;}
	.st6{font-family:'ArialMT';}
	.st7{font-size:106.525px;}
</style>
<path class="st0" d="M545.2,78.5H437.7c-10.4,0-20.3,4.1-27.5,11.5l-45.4,46l-92.7-0.9c-10-0.1-19.5,3.8-26.5,10.9l-31,31.4
	c-6.8,6.9-10.7,16.2-10.8,26l-0.8,59h-72.2l-32.4,32.8c-7,7.1-10.9,16.7-10.9,26.6v69.3c0,9.9,3.8,19.4,10.7,26.4l24.2,24.5
	l-79.3,57.6c-9.8,7.1-15.6,18.5-15.6,30.6v107.4c0,13.9,5.5,27.3,15.3,37.2l63.1,63.9l-25.2,25.5c-7,7.1-10.9,16.6-10.9,26.5v54.5
	c0,12.1,4.8,23.7,13.2,32.2l33.7,34.2c7.2,7.3,17,11.4,27.3,11.3l62.8-0.4l72.2,73.1c7.3,7.4,17.2,11.5,27.5,11.4l78.1-0.7
	c9-0.1,17.7-3.4,24.5-9.3l78.1-68.1"/>
<path class="st0" d="M488,78h107.9c10.1,0,19.8,4.1,27,11.3l45.6,46.2l92.1-0.9c10.3-0.1,20.2,4,27.5,11.3l30.3,30.6
	c7,7.1,11,16.6,11.1,26.6l0.8,58.6h55.9c10.4,0,20.4,4.2,27.7,11.6l21,21.2c7,7.1,10.9,16.6,10.9,26.5v69.1c0,10.1-4,19.7-11.1,26.9
	l-24,24.3L990,499c9.9,7.2,15.7,18.7,15.7,30.9V643c0,10.2-4,20-11.2,27.2l-67.2,68l25,25.3c7.1,7.2,11.1,16.9,11.1,27v57
	c0,10.3-4,20.1-11.3,27.4l-35.9,36.4c-7.1,7.2-16.8,11.2-26.9,11.2l-63-0.4l-82.9,74.7c-6.7,6.1-15.5,9.4-24.6,9.4H608.8
	c-7.8,0-15.4-2.4-21.7-6.8l-98.5-69.4"/>
<path d="M485.2,924.1l-0.4-0.4c-0.2-0.2-0.5-0.4-0.8-0.5c-0.3-0.2-0.6-0.2-1-0.2c-0.3,0-0.7,0.1-1,0.2c-0.3,0.1-0.6,0.3-0.8,0.5
	l-0.4,0.5c-0.2,0.4-0.3,0.8-0.3,1.3l0.1,0.7c0.1,0.4,0.3,0.8,0.7,1.1l0.4,0.4c0.2,0.2,0.5,0.4,0.8,0.5c0.3,0.1,0.6,0.2,1,0.2
	c0.3,0,0.7-0.1,1-0.2c0.3-0.1,0.6-0.3,0.8-0.5l0.4-0.5c0.2-0.4,0.3-0.8,0.3-1.3v-0.7C485.8,924.8,485.6,924.4,485.2,924.1
	L485.2,924.1z"/>
<path d="M484.6,926.1c0.7-1.1,0.8-2.5,0.4-3.7l-1.7,3.1c0.2,0,0.4-0.1,0.5-0.2c-0.5,0-0.5,0-0.3,0h0.3c0.3,0,0.2,0-0.3,0h0.3h0.3
	c0.3,0,0.2,0-0.2-0.1c0.1,0.1,0.3,0.2,0.5,0.3c-0.3-0.3-0.4-0.3-0.2-0.1l0.2,0.2c0.1,0.1,0.2,0.1,0.2,0.2c-0.2-0.3-0.3-0.4-0.1-0.2
	l0.3,0.4c0.1,0.2,0.2,0.4,0.3,0.5c-0.2-0.4-0.2-0.4,0-0.2l0.1,0.3c0.1,0.4,0.2,0.8,0.3,1.2c0.1,1,0.4,1.9,1,2.7
	c1.3,1.2,3.2,1.2,4.5,0c0.7-0.8,1.2-1.8,1.2-2.9c0-0.3,0-0.6,0-0.9c0-0.6-0.2,0.5,0,0s-0.3,0.4,0,0c0.3-0.4-0.3,0.3,0,0l0.2-0.2
	l-0.2,0.2l0.2-0.1c0.2-0.1,0.2,0-0.2,0.1h0.3c0.3,0,0.2,0-0.3,0c1.4,0,2.5-1.2,2.6-2.6c0-1.4-0.8-2.7-2.1-3.3
	c-0.5-0.2-1-0.4-1.5-0.5l-0.3-0.1c0.4,0.2,0.5,0.2,0.2,0.1c0.3,0.3,0.4,0.3,0.2,0.1c0.3,0.3,0.3,0.4,0.2,0.2
	c-0.5-0.8-1.1-1.6-1.9-2.1c-0.8-0.5-1.8-0.8-2.8-0.9c-2-0.1-4,0.9-5.1,2.6c-1,1.5-1.5,3.3-1.4,5.1c0,1.4,1.2,2.5,2.6,2.6
	c0.8-0.1,1.6-0.3,2.3-0.6c0.6-0.3,1.1-0.6,1.5-1c0.4-0.3,0.7-0.6,1.1-1l0.5-0.5c0.1-0.1,0.2-0.2,0.3-0.3s-0.5,0.4,0,0
	c0.2-0.1,0.4-0.3,0.6-0.4c0.2-0.1,0.3,0-0.1,0l0.3-0.1c0,0,0.6-0.1,0.1,0s0,0,0.1,0c0.1,0-0.6,0-0.2,0s-0.4-0.2-0.2,0
	c0.2,0.2-0.4-0.4-0.2-0.2s0.3,0.4,0,0c-0.3-0.4,0,0,0,0s-0.1-0.3-0.1-0.3c0,0,0,0.3,0,0.3s0-0.7,0-0.2s0-0.3,0-0.3
	c0,0.1-0.1,0.2-0.1,0.4c-0.4,1.3,0.4,2.7,1.7,3.1c1.3,0.3,2.7-0.4,3.1-1.7c0.5-1.6,0.1-3.4-1-4.7c-1.2-1.3-3.1-1.8-4.8-1.3
	c-1.4,0.5-2.7,1.3-3.7,2.4l-0.6,0.6l-0.3,0.2c-0.3,0.3,0,0,0.1,0c0.1,0-0.3,0.2-0.4,0.2c-0.1,0.1-0.3,0.1-0.4,0.2l0.4-0.2l-0.3,0.1
	c-0.2,0-0.7,0,0.1,0l2.6,2.6c0-0.3,0-0.6,0-0.9c0-0.2,0.1-0.6,0,0.1c0-0.1,0-0.3,0-0.4l0.1-0.4c0-0.2,0.3-0.5,0,0.1
	c0.1-0.2,0.2-0.5,0.4-0.7c0.2-0.2-0.2,0.3,0,0l0.3-0.3c0.2-0.2-0.5,0.3-0.2,0.1l0.3-0.2c0.4-0.2-0.6,0.2-0.2,0l0.4-0.1
	c0.4-0.1-0.6,0-0.2,0h0.4c0.4,0-0.6-0.2-0.2,0c0,0,0.3,0,0.4,0.1c0,0.1-0.6-0.4-0.2,0c0,0,0.5,0.3,0.1,0c-0.4-0.3,0,0,0,0.1
	c0,0.1-0.3-0.5-0.1-0.1c0.1,0.2,0.3,0.5,0.5,0.7c0.6,0.9,1.6,1.5,2.6,1.8l0.4,0.1c0.2,0,0.6,0.3,0,0c0.4,0.2-0.3-0.3-0.1-0.1
	c0.2,0.2,0,0-0.2-0.3c-0.2-1-0.2-1.2-0.3-0.8l2.6-2.6c-1.3,0.1-2.5,0.6-3.4,1.4c-0.8,0.7-1.3,1.7-1.5,2.7c-0.1,0.5-0.1,1-0.2,1.5
	c0,0.3-0.2,0.7,0-0.1c0,0.1-0.1,0.3-0.1,0.4c0.2-0.5,0.3-0.6,0.1-0.4c0.3-0.4,0.4-0.5,0.3-0.3c0.6-0.6,1.5-0.7,2.3-0.3
	c0.3,0.1,0.5,0.4,0.6,0.6c0-0.1-0.1-0.1-0.1-0.2c0.2,0.4,0.2,0.5,0.1,0.3v-0.2c-0.1-0.7-0.3-1.5-0.5-2.2c-0.4-1.1-0.9-2.1-1.7-2.9
	c-1.6-1.7-3.9-2.3-6.1-1.5c-0.6,0.2-1.2,0.6-1.5,1.2c-0.4,0.6-0.4,1.3-0.3,2l0.1,0.3c0.2,0.4,0-0.5,0-0.2c0,0.3,0.1-0.5,0-0.2
	c-0.1,0.3,0.3-0.6,0-0.1c-0.7,1.2-0.3,2.8,0.9,3.5c1.2,0.7,2.8,0.3,3.5-0.9L484.6,926.1z"/>
<path class="st0" d="M666.9,203.9L666.9,203.9z"/>
<line class="st0" x1="789.7" y1="299" x2="830.9" y2="261.3"/>
<line class="st0" x1="911.3" y1="441" x2="810.3" y2="441"/>
<polyline class="st0" points="927.8,737.7 848.4,657.3 849.5,608.2 "/>
<polyline class="st0" points="830.9,919.5 778.3,866.2 779.3,821.3 "/>
<line class="st0" x1="488.5" y1="929.9" x2="488.5" y2="850.5"/>
<polyline class="st0" points="208,925.8 262.7,870.4 263.3,777.4 "/>
<polyline class="st0" points="106.7,738.2 164.5,681.9 164.7,622.8 "/>
<line class="st0" x1="123.4" y1="441" x2="222.4" y2="441"/>
<line class="st0" x1="202.8" y1="263.6" x2="229.6" y2="290.7"/>
<polyline class="st0" points="364.7,136 364.7,261.3 330.7,295.8 "/>
<ellipse class="st0" cx="263.7" cy="768.1" rx="14.4" ry="14.6"/>
<ellipse class="st0" cx="488.5" cy="840.3" rx="14.4" ry="14.6"/>
<ellipse class="st0" cx="779" cy="812.8" rx="14.4" ry="14.6"/>
<ellipse class="st0" cx="847.4" cy="601.4" rx="14.4" ry="14.6"/>
<ellipse class="st0" cx="804.1" cy="441" rx="14.4" ry="14.6"/>
<ellipse class="st0" cx="782.8" cy="304.1" rx="14.4" ry="14.6"/>
<ellipse class="st0" cx="665.9" cy="210" rx="14.4" ry="14.6"/>
<ellipse class="st0" cx="326.3" cy="302.4" rx="14.4" ry="14.6"/>
<ellipse class="st0" cx="236.5" cy="295.3" rx="14.4" ry="14.6"/>
<ellipse class="st0" cx="232.7" cy="442.7" rx="14.4" ry="14.6"/>
<ellipse class="st0" cx="164.7" cy="608.2" rx="14.4" ry="14.6"/>
<path class="st1" d="M462.2,451.5h77.9c20,0,36.2,16.2,36.2,36.2v77.9c0,20-16.2,36.2-36.2,36.2h-77.9c-20,0-36.2-16.2-36.2-36.2
	v-77.9C426,467.7,442.2,451.5,462.2,451.5z"/>
<text transform="matrix(1.23 0 0 1 435.6831 547.5713)" class="st2 st3 st4">AGI</text>
<rect x="394.7" y="467.5" class="st5" width="32" height="11.1"/>
<rect x="394.7" y="489.8" class="st5" width="32" height="11.1"/>
<rect x="394.7" y="512.1" class="st5" width="32" height="11.1"/>
<rect x="394.7" y="534.4" class="st5" width="32" height="11.1"/>
<rect x="394.7" y="556.6" class="st5" width="32" height="11.1"/>
<rect x="394.7" y="580.3" class="st5" width="32" height="11.1"/>
<rect x="575.7" y="467.5" class="st5" width="32" height="11.1"/>
<rect x="575.7" y="489.8" class="st5" width="32" height="11.1"/>
<rect x="577.1" y="512.1" class="st5" width="32" height="11.1"/>
<rect x="577.1" y="534.4" class="st5" width="32" height="11.1"/>
<rect x="577.1" y="556.6" class="st5" width="32" height="11.1"/>
<rect x="577.1" y="580.3" class="st5" width="32" height="11.1"/>
<rect x="439.3" y="424.4" class="st5" width="11.1" height="32"/>
<rect x="458.8" y="424.4" class="st5" width="11.1" height="32"/>
<rect x="479.6" y="424.4" class="st5" width="11.1" height="32"/>
<rect x="501.9" y="424.4" class="st5" width="11.1" height="32"/>
<rect x="525.5" y="424.4" class="st5" width="11.1" height="32"/>
<rect x="546.4" y="424.4" class="st5" width="11.1" height="32"/>
<rect x="439.3" y="594.2" class="st5" width="11.1" height="32"/>
<rect x="458.8" y="594.2" class="st5" width="11.1" height="32"/>
<rect x="482.4" y="594.2" class="st5" width="11.1" height="32"/>
<rect x="501.9" y="594.2" class="st5" width="11.1" height="32"/>
<rect x="525.6" y="594.2" class="st5" width="11.1" height="32"/>
<rect x="546.4" y="594.2" class="st5" width="11.1" height="32"/>
<path class="st0" d="M476.5,402.8h61c32,0,62.7,12.7,85.3,35.3l0,0l0.7,175.2l0,0C601.4,635.5,571.4,648,540,648H422l-42.9-42.9
	l0.7-167.7l0,0C407.1,415,441.3,402.8,476.5,402.8z"/>
<line class="st0" x1="452.1" y1="402.8" x2="452.1" y2="193.4"/>
<polyline class="st0" points="516.6,402.8 516.6,193.4 541.5,168.4 "/>
<polyline class="st0" points="569.8,402.8 569.8,310.8 620.9,259.8 "/>
<polyline class="st0" points="588.5,411.3 733.3,321.2 733.3,258.1 "/>
<polyline class="st0" points="622.6,436.8 733.3,382.4 844,382.4 "/>
<line class="st0" x1="620.9" y1="496.4" x2="838.8" y2="496.4"/>
<polyline class="st0" points="623.6,538.7 861,535.6 908.7,559.4 "/>
<line class="st0" x1="623.6" y1="595.9" x2="723.1" y2="595.9"/>
<polyline class="st0" points="620.9,619.4 854.2,738.2 854.2,821.7 "/>
<polyline class="st0" points="563.8,648 563.8,767.2 661.8,852.3 "/>
<polyline class="st0" points="500.8,648 500.8,712.7 427.2,786.3 "/>
<line class="st0" x1="437.4" y1="648" x2="437" y2="700.8"/>
<polyline class="st0" points="421.7,648 360.4,709.3 362.1,891.5 "/>
<polyline class="st0" points="379.1,605.4 193.5,739.9 193.5,806.3 "/>
<line class="st0" x1="378.4" y1="541.6" x2="232.7" y2="540.7"/>
<polyline class="st0" points="379.1,474.3 200.3,474.3 114.3,560.3 "/>
<polyline class="st0" points="379.1,436.8 301.6,359.4 198.6,359.4 "/>
<ellipse class="st0" cx="451.9" cy="185.8" rx="14.4" ry="14.6"/>
<ellipse class="st0" cx="547.3" cy="165.4" rx="14.4" ry="14.6"/>
<ellipse class="st0" cx="627.3" cy="252.3" rx="14.4" ry="14.6"/>
<ellipse class="st0" cx="732.9" cy="250.6" rx="14.4" ry="14.6"/>
<ellipse class="st0" cx="853.8" cy="381.7" rx="14.4" ry="14.6"/>
<ellipse class="st0" cx="845.2" cy="495.7" rx="14.4" ry="14.6"/>
<ellipse class="st0" cx="925.3" cy="569" rx="14.4" ry="14.6"/>
<ellipse class="st0" cx="853.8" cy="827.8" rx="14.4" ry="14.6"/>
<ellipse class="st0" cx="729.5" cy="596.2" rx="14.4" ry="14.6"/>
<ellipse class="st0" cx="673.3" cy="861.8" rx="14.4" ry="14.6"/>
<ellipse class="st0" cx="423" cy="792" rx="14.4" ry="14.6"/>
<ellipse class="st0" cx="436.6" cy="710.3" rx="14.4" ry="14.6"/>
<ellipse class="st0" cx="361.7" cy="906.1" rx="14.4" ry="14.6"/>
<ellipse class="st0" cx="193.1" cy="817.5" rx="14.4" ry="14.6"/>
<ellipse class="st0" cx="225.5" cy="541.7" rx="14.4" ry="14.6"/>
<ellipse class="st0" cx="108" cy="567.3" rx="14.4" ry="14.6"/>
<ellipse class="st0" cx="189.7" cy="359.5" rx="14.4" ry="14.6"/>
<rect x="560.2" y="446.4" transform="matrix(0.7071 -0.7071 0.7071 0.7071 -150.8179 539.8304)" class="st5" width="32" height="11.1"/>
<rect x="410.4" y="596.2" transform="matrix(0.7071 -0.7071 0.7071 0.7071 -300.656 477.7662)" class="st5" width="32" height="11.1"/>
<rect x="420.8" y="436" transform="matrix(0.7071 -0.7071 0.7071 0.7071 -194.7012 433.8883)" class="st5" width="11.1" height="32"/>
<rect x="570.7" y="585.8" transform="matrix(0.7071 -0.7071 0.7071 0.7071 -256.7649 583.725)" class="st5" width="11.1" height="32"/>
<text transform="matrix(1 0 0 1 1102.4502 496.4375)"><tspan x="0" y="0" class="st6 st7">ARTIFICIAL</tspan><tspan x="0" y="106.5" class="st6 st7">GENERAL</tspan><tspan x="0" y="213" class="st6 st7">INTELLIGENCE</tspan></text>
</svg>
