<?xml version="1.0" encoding="utf-8"?>
<!-- Generator: Adobe Illustrator 24.2.3, SVG Export Plug-In . SVG Version: 6.00 Build 0)  -->
<svg version="1.1" xmlns="http://www.w3.org/2000/svg" xmlns:xlink="http://www.w3.org/1999/xlink" x="0px" y="0px"
	 viewBox="0 0 960 540" style="enable-background:new 0 0 960 540;" xml:space="preserve">
<style type="text/css">
	.st0{fill-rule:evenodd;clip-rule:evenodd;fill:none;stroke:#000000;stroke-width:2;stroke-miterlimit:10;}
	.st1{fill-rule:evenodd;clip-rule:evenodd;fill:none;stroke:#231815;stroke-width:2;stroke-miterlimit:10;}
	.st2{clip-path:url(#SVGID_2_);}
	.st3{fill-rule:evenodd;clip-rule:evenodd;fill:#E6DEFF;stroke:#FFFFFF;stroke-width:2;stroke-miterlimit:10;}
	.st4{fill-rule:evenodd;clip-rule:evenodd;fill:#E6DEFF;}
	.st5{fill-rule:evenodd;clip-rule:evenodd;fill:#E6DEFF;stroke:#000000;stroke-miterlimit:10;}
	.st6{fill-rule:evenodd;clip-rule:evenodd;fill:#7258A3;}
	.st7{fill-rule:evenodd;clip-rule:evenodd;fill-opacity:0;stroke:#000000;stroke-miterlimit:10;}
	.st8{fill-rule:evenodd;clip-rule:evenodd;fill-opacity:0;stroke:#FFFFFF;stroke-width:2;stroke-miterlimit:10;}
	.st9{fill:#918DBB;}
	.st10{font-family:'ArialMT';}
	.st11{font-size:30px;}
	.st12{font-family:'KozGoPr6N-Regular-90ms-RKSJ-H';}
	.st13{font-size:13px;}
	.st14{font-size:20px;}
	.st15{fill-rule:evenodd;clip-rule:evenodd;fill:none;stroke:#231815;stroke-width:0.25;stroke-miterlimit:10;}
	.st16{fill-rule:evenodd;clip-rule:evenodd;fill:none;stroke:#FFFFFF;stroke-width:2;stroke-miterlimit:10;}
	.st17{fill-rule:evenodd;clip-rule:evenodd;stroke:#FFFFFF;stroke-width:2;stroke-miterlimit:10;}
</style>
<g id="レイヤー_2">
	<polyline class="st0" points="303.3,254.5 287.5,265.7 303.2,276.9 	"/>
	<line class="st1" x1="352.9" y1="265.7" x2="287.5" y2="265.7"/>
</g>
<g id="レイヤー_1">
	<g>
		<defs>
			<rect id="SVGID_1_" x="0" y="0" width="960" height="540"/>
		</defs>
		<clipPath id="SVGID_2_">
			<use xlink:href="#SVGID_1_"  style="overflow:visible;"/>
		</clipPath>
		<g class="st2">
			<path class="st3" d="M391.9,194.3"/>
			<path class="st3" d="M303.7,345.5"/>
			<path class="st4" d="M656.3,344.9l88.2,151.2H215.4l88.2-151.2H656.3z"/>
			<path class="st5" d="M656.3,345.5"/>
			<path class="st3" d="M568.2,194.4"/>
			<path class="st6" d="M391.8,194.3L480,43.2l88.2,151.2L391.8,194.3z"/>
			<path class="st7" d="M656.2,345.6"/>
			<path class="st8" d="M303.8,345.6"/>
			<polygon class="st9" points="391.8,194.4 303.8,345.6 656.2,345.6 568.2,194.4 			"/>
		</g>
	</g>
	<path class="st1" d="M302.9,276.9"/>
	<path class="st1" d="M283.5,265.7"/>
	<path class="st1" d="M303,254.5"/>
	<path class="st1" d="M283.5,265.7"/>
	<path class="st1" d="M351.6,265.7"/>
	<text transform="matrix(1 0 0 1 572.1176 135.706)" class="st10 st11">ASI</text>
	<text transform="matrix(1 0 0 1 653.9631 277.4722)" class="st10 st11">AGI</text>
	<text transform="matrix(1 0 0 1 735.1763 420.5336)" class="st10 st11">ANI</text>
	<text transform="matrix(1 0 0 1 456.6701 99.5886)" class="st12 st13">Stage-3</text>
	<text transform="matrix(1 0 0 1 459.589 209.3401)" class="st12 st13">Stage-2</text>
	<text transform="matrix(1 0 0 1 459.5886 360.8695)" class="st12 st13">Stage-1</text>
	<text transform="matrix(1 0 0 1 444.092 149.24)"><tspan x="0" y="0" class="st10 st14">Machine</tspan><tspan x="-30" y="24" class="st10 st14">Consciousness</tspan></text>
	<text transform="matrix(1 0 0 1 388.833 270)" class="st10 st14">Machine Intelligence</text>
	<text transform="matrix(1 0 0 1 402.3926 419.1929)" class="st10 st14">Machine Learning</text>
	<text transform="matrix(1 0 0 1 176.3744 246.418)"><tspan x="0" y="0" class="st10 st14">Currently</tspan><tspan x="-11.1" y="24" class="st10 st14">Technology</tspan><tspan x="10.6" y="48" class="st10 st14">is here</tspan></text>
	<path class="st15" d="M351.8,264.8"/>
	<polyline class="st16" points="391.8,194.4 388.4,194.4 571.6,194.4 	"/>
	<polyline class="st17" points="303.8,345.6 296.8,345.6 667,345.6 	"/>
</g>
</svg>
