<?xml version="1.0" encoding="utf-8"?>
<!-- Generator: Adobe Illustrator 24.2.3, SVG Export Plug-In . SVG Version: 6.00 Build 0)  -->
<svg version="1.1" id="レイヤー_1" xmlns="http://www.w3.org/2000/svg" xmlns:xlink="http://www.w3.org/1999/xlink" x="0px"
	 y="0px" viewBox="0 0 960 540" style="enable-background:new 0 0 960 540;" xml:space="preserve">
<style type="text/css">
	.st0{clip-path:url(#SVGID_2_);}
	.st1{fill-rule:evenodd;clip-rule:evenodd;fill:#FFFFFF;}
	.st2{fill-rule:evenodd;clip-rule:evenodd;fill-opacity:0;}
	.st3{fill:none;stroke:#99F4F4;stroke-width:8;stroke-linejoin:round;stroke-miterlimit:10;}
	.st4{fill-rule:evenodd;clip-rule:evenodd;fill:#595959;}
	.st5{fill:none;stroke:#FFFFFF;stroke-width:8;stroke-linejoin:round;stroke-miterlimit:10;}
	.st6{fill:none;stroke:#000000;stroke-width:7;stroke-miterlimit:10;}
</style>
<g>
	<defs>
		<rect id="SVGID_1_" width="960" height="540"/>
	</defs>
	<clipPath id="SVGID_2_">
		<use xlink:href="#SVGID_1_"  style="overflow:visible;"/>
	</clipPath>
	<g class="st0">
		<path class="st1" d="M0,0h960v540H0V0z"/>
		<path class="st2" d="M584.2,407.7l70.4-5.7l42.7-76.8l19.3-80.8l-22.4-78.7L634.3,106l-63.1-42.2l-64.6-6.2l-66.7,4.6l-79.2,28.9
			l-68.3,45.3L243.4,208l1.6,90.1l97,64.9l79.8,0.7l53.7,42.2l59.4,86L584.2,407.7z"/>
		<path class="st2" d="M556.1,383L556.1,383c0-6.8,5.5-12.4,12.4-12.4l0,0c3.3,0,6.4,1.3,8.7,3.6c2.3,2.3,3.6,5.5,3.6,8.7l0,0
			c0,6.8-5.5,12.4-12.4,12.4l0,0C561.6,395.3,556.1,389.8,556.1,383z"/>
		<path class="st3" d="M556.1,383L556.1,383c0-6.8,5.5-12.4,12.4-12.4l0,0c3.3,0,6.4,1.3,8.7,3.6c2.3,2.3,3.6,5.5,3.6,8.7l0,0
			c0,6.8-5.5,12.4-12.4,12.4l0,0C561.6,395.3,556.1,389.8,556.1,383z"/>
		<path class="st2" d="M621.1,377.4L621.1,377.4c0-6.8,5.5-12.4,12.4-12.4l0,0c3.3,0,6.4,1.3,8.7,3.6c2.3,2.3,3.6,5.5,3.6,8.7l0,0
			c0,6.8-5.5,12.4-12.4,12.4l0,0C626.7,389.8,621.1,384.2,621.1,377.4z"/>
		<path class="st3" d="M621.1,377.4L621.1,377.4c0-6.8,5.5-12.4,12.4-12.4l0,0c3.3,0,6.4,1.3,8.7,3.6c2.3,2.3,3.6,5.5,3.6,8.7l0,0
			c0,6.8-5.5,12.4-12.4,12.4l0,0C626.7,389.8,621.1,384.2,621.1,377.4z"/>
		<path class="st2" d="M652.2,318.2L652.2,318.2c0-6.8,5.5-12.4,12.4-12.4l0,0c3.3,0,6.4,1.3,8.7,3.6c2.3,2.3,3.6,5.5,3.6,8.7l0,0
			c0,6.8-5.5,12.4-12.4,12.4l0,0C657.8,330.6,652.2,325,652.2,318.2z"/>
		<path class="st3" d="M652.2,318.2L652.2,318.2c0-6.8,5.5-12.4,12.4-12.4l0,0c3.3,0,6.4,1.3,8.7,3.6c2.3,2.3,3.6,5.5,3.6,8.7l0,0
			c0,6.8-5.5,12.4-12.4,12.4l0,0C657.8,330.6,652.2,325,652.2,318.2z"/>
		<path class="st2" d="M669,249.7L669,249.7c0-6.8,5.5-12.4,12.4-12.4l0,0c3.3,0,6.4,1.3,8.7,3.6c2.3,2.3,3.6,5.5,3.6,8.7l0,0
			c0,6.8-5.5,12.4-12.4,12.4l0,0C674.5,262.1,669,256.5,669,249.7z"/>
		<path class="st3" d="M669,249.7L669,249.7c0-6.8,5.5-12.4,12.4-12.4l0,0c3.3,0,6.4,1.3,8.7,3.6c2.3,2.3,3.6,5.5,3.6,8.7l0,0
			c0,6.8-5.5,12.4-12.4,12.4l0,0C674.5,262.1,669,256.5,669,249.7z"/>
		<path class="st2" d="M477.9,385.2L477.9,385.2c0-6.8,5.5-12.4,12.4-12.4l0,0c3.3,0,6.4,1.3,8.7,3.6c2.3,2.3,3.6,5.5,3.6,8.7l0,0
			c0,6.8-5.5,12.4-12.4,12.4l0,0C483.5,397.6,477.9,392,477.9,385.2z"/>
		<path class="st3" d="M477.9,385.2L477.9,385.2c0-6.8,5.5-12.4,12.4-12.4l0,0c3.3,0,6.4,1.3,8.7,3.6c2.3,2.3,3.6,5.5,3.6,8.7l0,0
			c0,6.8-5.5,12.4-12.4,12.4l0,0C483.5,397.6,477.9,392,477.9,385.2z"/>
		<path class="st2" d="M413.1,339.5L413.1,339.5c0-6.8,5.5-12.4,12.4-12.4l0,0c3.3,0,6.4,1.3,8.7,3.6c2.3,2.3,3.6,5.5,3.6,8.7l0,0
			c0,6.8-5.5,12.4-12.4,12.4l0,0C418.6,351.9,413.1,346.4,413.1,339.5z"/>
		<path class="st3" d="M413.1,339.5L413.1,339.5c0-6.8,5.5-12.4,12.4-12.4l0,0c3.3,0,6.4,1.3,8.7,3.6c2.3,2.3,3.6,5.5,3.6,8.7l0,0
			c0,6.8-5.5,12.4-12.4,12.4l0,0C418.6,351.9,413.1,346.4,413.1,339.5z"/>
		<path class="st2" d="M338.5,335.6L338.5,335.6c0-6.8,5.5-12.4,12.4-12.4l0,0c3.3,0,6.4,1.3,8.7,3.6c2.3,2.3,3.6,5.5,3.6,8.7l0,0
			c0,6.8-5.5,12.4-12.4,12.4l0,0C344.1,348,338.5,342.4,338.5,335.6z"/>
		<path class="st3" d="M338.5,335.6L338.5,335.6c0-6.8,5.5-12.4,12.4-12.4l0,0c3.3,0,6.4,1.3,8.7,3.6c2.3,2.3,3.6,5.5,3.6,8.7l0,0
			c0,6.8-5.5,12.4-12.4,12.4l0,0C344.1,348,338.5,342.4,338.5,335.6z"/>
		<path class="st2" d="M266.3,280.2L266.3,280.2c0-6.8,5.5-12.4,12.4-12.4l0,0c3.3,0,6.4,1.3,8.7,3.6c2.3,2.3,3.6,5.5,3.6,8.7l0,0
			c0,6.8-5.5,12.4-12.4,12.4l0,0C271.8,292.6,266.3,287.1,266.3,280.2z"/>
		<path class="st3" d="M266.3,280.2L266.3,280.2c0-6.8,5.5-12.4,12.4-12.4l0,0c3.3,0,6.4,1.3,8.7,3.6c2.3,2.3,3.6,5.5,3.6,8.7l0,0
			c0,6.8-5.5,12.4-12.4,12.4l0,0C271.8,292.6,266.3,287.1,266.3,280.2z"/>
		<path class="st2" d="M266.3,214.8L266.3,214.8c0-6.8,5.5-12.4,12.4-12.4l0,0c3.3,0,6.4,1.3,8.7,3.6c2.3,2.3,3.6,5.5,3.6,8.7l0,0
			c0,6.8-5.5,12.4-12.4,12.4l0,0C271.8,227.1,266.3,221.6,266.3,214.8z"/>
		<path class="st3" d="M266.3,214.8L266.3,214.8c0-6.8,5.5-12.4,12.4-12.4l0,0c3.3,0,6.4,1.3,8.7,3.6c2.3,2.3,3.6,5.5,3.6,8.7l0,0
			c0,6.8-5.5,12.4-12.4,12.4l0,0C271.8,227.1,266.3,221.6,266.3,214.8z"/>
		<path class="st2" d="M307.9,156.5L307.9,156.5c0-6.8,5.5-12.4,12.4-12.4l0,0c3.3,0,6.4,1.3,8.7,3.6c2.3,2.3,3.6,5.5,3.6,8.7l0,0
			c0,6.8-5.5,12.4-12.4,12.4l0,0C313.4,168.8,307.9,163.3,307.9,156.5z"/>
		<path class="st3" d="M307.9,156.5L307.9,156.5c0-6.8,5.5-12.4,12.4-12.4l0,0c3.3,0,6.4,1.3,8.7,3.6c2.3,2.3,3.6,5.5,3.6,8.7l0,0
			c0,6.8-5.5,12.4-12.4,12.4l0,0C313.4,168.8,307.9,163.3,307.9,156.5z"/>
		<path class="st2" d="M363.2,120.4L363.2,120.4c0-6.8,5.5-12.4,12.4-12.4l0,0c3.3,0,6.4,1.3,8.7,3.6c2.3,2.3,3.6,5.5,3.6,8.7l0,0
			c0,6.8-5.5,12.4-12.4,12.4l0,0C368.8,132.8,363.2,127.2,363.2,120.4z"/>
		<path class="st3" d="M363.2,120.4L363.2,120.4c0-6.8,5.5-12.4,12.4-12.4l0,0c3.3,0,6.4,1.3,8.7,3.6c2.3,2.3,3.6,5.5,3.6,8.7l0,0
			c0,6.8-5.5,12.4-12.4,12.4l0,0C368.8,132.8,363.2,127.2,363.2,120.4z"/>
		<path class="st2" d="M649.1,181.2L649.1,181.2c0-6.8,5.5-12.4,12.4-12.4l0,0c3.3,0,6.4,1.3,8.7,3.6c2.3,2.3,3.6,5.5,3.6,8.7l0,0
			c0,6.8-5.5,12.4-12.4,12.4l0,0C654.6,193.6,649.1,188,649.1,181.2z"/>
		<path class="st3" d="M649.1,181.2L649.1,181.2c0-6.8,5.5-12.4,12.4-12.4l0,0c3.3,0,6.4,1.3,8.7,3.6c2.3,2.3,3.6,5.5,3.6,8.7l0,0
			c0,6.8-5.5,12.4-12.4,12.4l0,0C654.6,193.6,649.1,188,649.1,181.2z"/>
		<path class="st2" d="M598.8,128L598.8,128c0-6.8,5.5-12.4,12.4-12.4l0,0c3.3,0,6.4,1.3,8.7,3.6s3.6,5.5,3.6,8.7l0,0
			c0,6.8-5.5,12.4-12.4,12.4l0,0C604.3,140.4,598.8,134.8,598.8,128z"/>
		<path class="st3" d="M598.8,128L598.8,128c0-6.8,5.5-12.4,12.4-12.4l0,0c3.3,0,6.4,1.3,8.7,3.6s3.6,5.5,3.6,8.7l0,0
			c0,6.8-5.5,12.4-12.4,12.4l0,0C604.3,140.4,598.8,134.8,598.8,128z"/>
		<path class="st2" d="M547.1,93.6L547.1,93.6c0-6.8,5.5-12.4,12.4-12.4l0,0c3.3,0,6.4,1.3,8.7,3.6s3.6,5.5,3.6,8.7l0,0
			c0,6.8-5.5,12.4-12.4,12.4l0,0C552.7,106,547.1,100.4,547.1,93.6z"/>
		<path class="st3" d="M547.1,93.6L547.1,93.6c0-6.8,5.5-12.4,12.4-12.4l0,0c3.3,0,6.4,1.3,8.7,3.6s3.6,5.5,3.6,8.7l0,0
			c0,6.8-5.5,12.4-12.4,12.4l0,0C552.7,106,547.1,100.4,547.1,93.6z"/>
		<path class="st2" d="M432.7,92L432.7,92c0-6.8,5.5-12.4,12.4-12.4l0,0c3.3,0,6.4,1.3,8.7,3.6c2.3,2.3,3.6,5.5,3.6,8.7l0,0
			c0,6.8-5.5,12.4-12.4,12.4l0,0C438.3,104.3,432.7,98.8,432.7,92z"/>
		<path class="st3" d="M432.7,92L432.7,92c0-6.8,5.5-12.4,12.4-12.4l0,0c3.3,0,6.4,1.3,8.7,3.6c2.3,2.3,3.6,5.5,3.6,8.7l0,0
			c0,6.8-5.5,12.4-12.4,12.4l0,0C438.3,104.3,432.7,98.8,432.7,92z"/>
		<path class="st2" d="M521.1,450.4L521.1,450.4c0-6.8,5.5-12.4,12.4-12.4l0,0c3.3,0,6.4,1.3,8.7,3.6c2.3,2.3,3.6,5.5,3.6,8.7l0,0
			c0,6.8-5.5,12.4-12.4,12.4l0,0C526.6,462.7,521.1,457.2,521.1,450.4z"/>
		<path class="st3" d="M521.1,450.4L521.1,450.4c0-6.8,5.5-12.4,12.4-12.4l0,0c3.3,0,6.4,1.3,8.7,3.6c2.3,2.3,3.6,5.5,3.6,8.7l0,0
			c0,6.8-5.5,12.4-12.4,12.4l0,0C526.6,462.7,521.1,457.2,521.1,450.4z"/>
		<path class="st2" d="M491.5,89.6L491.5,89.6c0-6.8,5.5-12.4,12.4-12.4l0,0c3.3,0,6.4,1.3,8.7,3.6c2.3,2.3,3.6,5.5,3.6,8.7l0,0
			c0,6.8-5.5,12.4-12.4,12.4l0,0C497,102,491.5,96.5,491.5,89.6z"/>
		<path class="st3" d="M491.5,89.6L491.5,89.6c0-6.8,5.5-12.4,12.4-12.4l0,0c3.3,0,6.4,1.3,8.7,3.6c2.3,2.3,3.6,5.5,3.6,8.7l0,0
			c0,6.8-5.5,12.4-12.4,12.4l0,0C497,102,491.5,96.5,491.5,89.6z"/>
		<path class="st2" d="M524.7,441.6L499,394"/>
		<path class="st3" d="M524.7,441.6L499,394"/>
		<path class="st2" d="M542.2,441.6l21.4-46.8"/>
		<path class="st3" d="M542.2,441.6l21.4-46.8"/>
		<path class="st2" d="M580.8,383l40.3-5.6"/>
		<path class="st3" d="M580.8,383l40.3-5.6"/>
		<path class="st2" d="M659.8,329.2l-17.6,39.5"/>
		<path class="st3" d="M659.8,329.2l-17.6,39.5"/>
		<path class="st2" d="M668.2,306.5l13.1-44.4"/>
		<path class="st3" d="M668.2,306.5l13.1-44.4"/>
		<path class="st2" d="M681.3,237.3l-15.3-44.2"/>
		<path class="st3" d="M681.3,237.3l-15.3-44.2"/>
		<path class="st2" d="M652.7,172.5l-32.9-35.7"/>
		<path class="st3" d="M652.7,172.5l-32.9-35.7"/>
		<path class="st2" d="M602.4,119.3l-31.5-19.2"/>
		<path class="st3" d="M602.4,119.3l-31.5-19.2"/>
		<path class="st2" d="M516.2,89.6l30.9,4"/>
		<path class="st3" d="M516.2,89.6l30.9,4"/>
		<path class="st2" d="M457.5,92l34-2.4"/>
		<path class="st3" d="M457.5,92l34-2.4"/>
		<path class="st2" d="M433.8,96.5l-47.1,19.6"/>
		<path class="st3" d="M433.8,96.5l-47.1,19.6"/>
		<path class="st2" d="M364.8,126.1L328.7,150"/>
		<path class="st3" d="M364.8,126.1L328.7,150"/>
		<path class="st2" d="M284.2,203.5l27.3-38.3"/>
		<path class="st3" d="M284.2,203.5l27.3-38.3"/>
		<path class="st2" d="M278.7,267.9v-40.8"/>
		<path class="st3" d="M278.7,267.9v-40.8"/>
		<path class="st2" d="M285.8,290.6l54.9,40"/>
		<path class="st3" d="M285.8,290.6l54.9,40"/>
		<path class="st2" d="M363.2,335.6l49.8,3.9"/>
		<path class="st3" d="M363.2,335.6l49.8,3.9"/>
		<path class="st2" d="M437.7,343.7l43.8,32.8"/>
		<path class="st3" d="M437.7,343.7l43.8,32.8"/>
		<path class="st2" d="M375.8,266.2L375.8,266.2c0-6.8,5.5-12.4,12.4-12.4l0,0c3.3,0,6.4,1.3,8.7,3.6c2.3,2.3,3.6,5.5,3.6,8.7l0,0
			c0,6.8-5.5,12.4-12.4,12.4l0,0C381.3,278.6,375.8,273,375.8,266.2z"/>
		<path class="st3" d="M375.8,266.2L375.8,266.2c0-6.8,5.5-12.4,12.4-12.4l0,0c3.3,0,6.4,1.3,8.7,3.6c2.3,2.3,3.6,5.5,3.6,8.7l0,0
			c0,6.8-5.5,12.4-12.4,12.4l0,0C381.3,278.6,375.8,273,375.8,266.2z"/>
		<path class="st2" d="M507.4,318.2L507.4,318.2c0-6.8,5.5-12.4,12.4-12.4l0,0c3.3,0,6.4,1.3,8.7,3.6c2.3,2.3,3.6,5.5,3.6,8.7l0,0
			c0,6.8-5.5,12.4-12.4,12.4l0,0C513,330.6,507.4,325,507.4,318.2z"/>
		<path class="st3" d="M507.4,318.2L507.4,318.2c0-6.8,5.5-12.4,12.4-12.4l0,0c3.3,0,6.4,1.3,8.7,3.6c2.3,2.3,3.6,5.5,3.6,8.7l0,0
			c0,6.8-5.5,12.4-12.4,12.4l0,0C513,330.6,507.4,325,507.4,318.2z"/>
		<path class="st2" d="M580.8,266.2L580.8,266.2c0-6.8,5.5-12.4,12.4-12.4l0,0c3.3,0,6.4,1.3,8.7,3.6c2.3,2.3,3.6,5.5,3.6,8.7l0,0
			c0,6.8-5.5,12.4-12.4,12.4l0,0C586.3,278.6,580.8,273,580.8,266.2z"/>
		<path class="st3" d="M580.8,266.2L580.8,266.2c0-6.8,5.5-12.4,12.4-12.4l0,0c3.3,0,6.4,1.3,8.7,3.6c2.3,2.3,3.6,5.5,3.6,8.7l0,0
			c0,6.8-5.5,12.4-12.4,12.4l0,0C586.3,278.6,580.8,273,580.8,266.2z"/>
		<path class="st2" d="M588.6,331.4L588.6,331.4c0-6.8,5.5-12.4,12.4-12.4l0,0c3.3,0,6.4,1.3,8.7,3.6c2.3,2.3,3.6,5.5,3.6,8.7l0,0
			c0,6.8-5.5,12.4-12.4,12.4l0,0C594.1,343.7,588.6,338.2,588.6,331.4z"/>
		<path class="st3" d="M588.6,331.4L588.6,331.4c0-6.8,5.5-12.4,12.4-12.4l0,0c3.3,0,6.4,1.3,8.7,3.6c2.3,2.3,3.6,5.5,3.6,8.7l0,0
			c0,6.8-5.5,12.4-12.4,12.4l0,0C594.1,343.7,588.6,338.2,588.6,331.4z"/>
		<path class="st2" d="M423.2,156.5L423.2,156.5c0-6.8,5.5-12.4,12.4-12.4l0,0c3.3,0,6.4,1.3,8.7,3.6c2.3,2.3,3.6,5.5,3.6,8.7l0,0
			c0,6.8-5.5,12.4-12.4,12.4l0,0C428.7,168.8,423.2,163.3,423.2,156.5z"/>
		<path class="st3" d="M423.2,156.5L423.2,156.5c0-6.8,5.5-12.4,12.4-12.4l0,0c3.3,0,6.4,1.3,8.7,3.6c2.3,2.3,3.6,5.5,3.6,8.7l0,0
			c0,6.8-5.5,12.4-12.4,12.4l0,0C428.7,168.8,423.2,163.3,423.2,156.5z"/>
		<path class="st2" d="M506.3,162.3L506.3,162.3c0-6.8,5.5-12.4,12.4-12.4l0,0c3.3,0,6.4,1.3,8.7,3.6s3.6,5.5,3.6,8.7l0,0
			c0,6.8-5.5,12.4-12.4,12.4l0,0C511.8,174.7,506.3,169.2,506.3,162.3z"/>
		<path class="st3" d="M506.3,162.3L506.3,162.3c0-6.8,5.5-12.4,12.4-12.4l0,0c3.3,0,6.4,1.3,8.7,3.6s3.6,5.5,3.6,8.7l0,0
			c0,6.8-5.5,12.4-12.4,12.4l0,0C511.8,174.7,506.3,169.2,506.3,162.3z"/>
		<path class="st2" d="M343.1,210.8L343.1,210.8c0-6.8,5.5-12.4,12.4-12.4l0,0c3.3,0,6.4,1.3,8.7,3.6c2.3,2.3,3.6,5.5,3.6,8.7l0,0
			c0,6.8-5.5,12.4-12.4,12.4l0,0C348.6,223.1,343.1,217.6,343.1,210.8z"/>
		<path class="st3" d="M343.1,210.8L343.1,210.8c0-6.8,5.5-12.4,12.4-12.4l0,0c3.3,0,6.4,1.3,8.7,3.6c2.3,2.3,3.6,5.5,3.6,8.7l0,0
			c0,6.8-5.5,12.4-12.4,12.4l0,0C348.6,223.1,343.1,217.6,343.1,210.8z"/>
		<path class="st2" d="M442.4,239.5L442.4,239.5c0-6.8,5.5-12.4,12.4-12.4l0,0c3.3,0,6.4,1.3,8.7,3.6c2.3,2.3,3.6,5.5,3.6,8.7l0,0
			c0,6.8-5.5,12.4-12.4,12.4l0,0C447.9,251.8,442.4,246.3,442.4,239.5z"/>
		<path class="st3" d="M442.4,239.5L442.4,239.5c0-6.8,5.5-12.4,12.4-12.4l0,0c3.3,0,6.4,1.3,8.7,3.6c2.3,2.3,3.6,5.5,3.6,8.7l0,0
			c0,6.8-5.5,12.4-12.4,12.4l0,0C447.9,251.8,442.4,246.3,442.4,239.5z"/>
		<path class="st2" d="M602.4,190.1L602.4,190.1c0-6.8,5.5-12.4,12.4-12.4l0,0c3.3,0,6.4,1.3,8.7,3.6c2.3,2.3,3.6,5.5,3.6,8.7l0,0
			c0,6.8-5.5,12.4-12.4,12.4l0,0C607.9,202.4,602.4,196.9,602.4,190.1z"/>
		<path class="st3" d="M602.4,190.1L602.4,190.1c0-6.8,5.5-12.4,12.4-12.4l0,0c3.3,0,6.4,1.3,8.7,3.6c2.3,2.3,3.6,5.5,3.6,8.7l0,0
			c0,6.8-5.5,12.4-12.4,12.4l0,0C607.9,202.4,602.4,196.9,602.4,190.1z"/>
		<path class="st2" d="M559.7,374.2L528.5,327"/>
		<path class="st3" d="M559.7,374.2L528.5,327"/>
		<path class="st2" d="M494.8,374.2l20.5-45.3"/>
		<path class="st3" d="M494.8,374.2l20.5-45.3"/>
		<path class="st2" d="M350.7,199.7L329,165.2"/>
		<path class="st3" d="M350.7,199.7L329,165.2"/>
		<path class="st2" d="M355.4,223.1l-4.6,100.1"/>
		<path class="st3" d="M355.4,223.1l-4.6,100.1"/>
		<path class="st2" d="M291,214.8l52.1-4"/>
		<path class="st3" d="M291,214.8l52.1-4"/>
		<path class="st2" d="M350.9,323.3l28.5-48.3"/>
		<path class="st3" d="M350.9,323.3l28.5-48.3"/>
		<path class="st2" d="M399.2,261.4l44.6-18.9"/>
		<path class="st3" d="M399.2,261.4l44.6-18.9"/>
		<path class="st2" d="M451.6,227.8l-12.7-59.2"/>
		<path class="st3" d="M451.6,227.8l-12.7-59.2"/>
		<path class="st2" d="M435.6,144.1l9.5-39.8"/>
		<path class="st3" d="M435.6,144.1l9.5-39.8"/>
		<path class="st2" d="M463.5,248.2l50.2,59.2"/>
		<path class="st3" d="M463.5,248.2l50.2,59.2"/>
		<path class="st2" d="M506.9,101.6l11.7,48.4"/>
		<path class="st3" d="M506.9,101.6l11.7,48.4"/>
		<path class="st2" d="M527.4,171.1l57.1,86.4"/>
		<path class="st3" d="M527.4,171.1l57.1,86.4"/>
		<path class="st2" d="M573.8,371.8l18.4-31.7"/>
		<path class="st3" d="M573.8,371.8l18.4-31.7"/>
		<path class="st2" d="M580.8,266.2l-136.5-101"/>
		<path class="st3" d="M580.8,266.2l-136.5-101"/>
		<path class="st2" d="M528.5,309.5l55.9-34.5"/>
		<path class="st3" d="M528.5,309.5l55.9-34.5"/>
		<path class="st2" d="M611.1,140.4l3.6,37.3"/>
		<path class="st3" d="M611.1,140.4l3.6,37.3"/>
		<path class="st2" d="M531,162.3l71.4,27.7"/>
		<path class="st3" d="M531,162.3l71.4,27.7"/>
		<path class="st2" d="M609.7,322.6l62.9-64.2"/>
		<path class="st3" d="M609.7,322.6l62.9-64.2"/>
		<path class="st4" d="M441.2,188l18.1,48.1H423L441.2,188z M427.7,135l-71.6,182.1h35.1l20.8-51.5h58.3l20.8,51.5h89.1v-32.4h-10.9
			V169.4h10.9V137h-55.2v32.4H536v115.3h-10.9v29.4L454.7,135H427.7z"/>
		<path class="st5" d="M441.2,188l18.1,48.1H423L441.2,188z M427.7,135l-71.6,182.1h35.1l20.8-51.5h58.3l20.8,51.5h89.1v-32.4h-10.9
			V169.4h10.9V137h-55.2v32.4H536v115.3h-10.9v29.4L454.7,135H427.7z"/>
	</g>
</g>
<path class="st6" d="M246.1,210.1L246.1,210.1c-9.8,25.1-14.1,52-12.6,78.9l0,0c0.9,16.4,7.8,31.9,19.5,43.5l27.9,27.6
	c7.4,7.3,15.8,13.3,25,18l0,0c21.1,10.7,44.2,16.9,67.8,18.2l18.6,1c14.1,0.8,27.4,6.5,37.7,16.1l0,0c11.3,10.6,25.2,17.9,40.4,21.1
	l4,0.9c12.2,2.6,23.3,8.9,31.9,18l1.9,2c18.3,19.5,10.4,30.6,37.2,30.6h33.5c3.1,0,5.6-2.5,5.6-5.6c0-0.8-0.2-1.7-0.5-2.4l-4.5-9.5
	c-5.4-11.6-2-25.4,8.3-33l2-1.5c16.7-12.4,39.3-13.3,56.8-2.1l0,0c4.5,2.9,10.4,2.6,14.6-0.7c8.3-6.5,25.4-32.4,26-33.7
	c4.9-10.8,7.1-27.7,8-41.9c1.2-18.1,6.2-35.8,14.7-51.8l0,0c9.4-17.6,15.1-36.8,16.8-56.6l0,0c0.6-7.4,0-14.9-2-22.1L695,156
	c-2.3-5.4-7.3-9.2-13.1-10l-2.9-0.4l0,0c4.1-5.7,2.7-13.7-3-17.8c0,0-0.1-0.1-0.1-0.1l-65.7-45.6c-17.6-12.2-37.9-19.9-59.1-22.6
	l-84.9-4.3c-5-0.6-9,0.2-10.5,4.7l-2.9,4.8l0,0c-11.9-2.3-24.3-0.8-35.3,4.3L337.9,106c-12.7,5.9-24.2,13.8-34.3,23.4l-12.5,12
	c-12.5,11.9-22.9,25.8-30.8,41.1L246.1,210.1z"/>
</svg>
