<?xml version="1.0" encoding="utf-8"?>
<!-- Generator: Adobe Illustrator 24.2.3, SVG Export Plug-In . SVG Version: 6.00 Build 0)  -->
<svg version="1.1" id="レイヤー_1" xmlns="http://www.w3.org/2000/svg" xmlns:xlink="http://www.w3.org/1999/xlink" x="0px"
	 y="0px" viewBox="0 0 1366 768" style="enable-background:new 0 0 1366 768;" xml:space="preserve">
<style type="text/css">
	.st0{fill:none;stroke:#000000;stroke-width:10;stroke-miterlimit:10;}
	.st1{stroke:#000000;stroke-width:10;stroke-miterlimit:10;}
	.st2{fill:#FFFFFF;}
	.st3{font-family:'BaskOldFace';}
	.st4{font-size:34.32px;}
	.st5{stroke:#000000;stroke-miterlimit:10;}
	.st6{font-family:'ArialMT';}
	.st7{font-size:62.5626px;}
</style>
<path class="st0" d="M478.8,92.6h-63.2c-6.1,0-11.9,2.4-16.2,6.8l-26.6,27l-54.4-0.5c-5.9-0.1-11.5,2.3-15.6,6.4l-18.2,18.4
	c-4,4.1-6.3,9.5-6.3,15.3l-0.5,34.6h-42.4l-19,19.3c-4.1,4.2-6.4,9.8-6.4,15.6v40.7c0,5.8,2.2,11.4,6.3,15.5l14.2,14.4l-46.6,33.9
	c-5.7,4.2-9.2,10.8-9.1,18v63.1c0,8.2,3.2,16,9,21.8l37.1,37.5l-14.8,15c-4.1,4.1-6.4,9.7-6.4,15.6v32c0,7.1,2.8,13.9,7.8,18.9
	l19.8,20.1c4.2,4.3,10,6.7,16,6.6l36.9-0.3l42.4,42.9c4.3,4.3,10.1,6.7,16.2,6.7l45.9-0.4c5.3-0.1,10.4-2,14.4-5.5l45.9-40"/>
<path class="st0" d="M445.2,92.3h63.4c5.9,0,11.6,2.4,15.8,6.6l26.8,27.1l54.1-0.5c6.1-0.1,11.9,2.3,16.1,6.7l17.8,18
	c4.1,4.2,6.5,9.8,6.5,15.6l0.5,34.4h32.8c6.1,0,12,2.5,16.3,6.8l12.3,12.5c4.1,4.1,6.4,9.7,6.4,15.6v40.6c0,5.9-2.3,11.6-6.5,15.8
	l-14.1,14.3l46.5,33.8c5.8,4.2,9.2,11,9.2,18.1V424c0,6-2.3,11.7-6.5,16l-39.5,40l14.7,14.9c4.2,4.2,6.5,9.9,6.5,15.9v33.5
	c0,6-2.4,11.8-6.6,16.1l-21.1,21.4c-4.2,4.2-9.9,6.6-15.8,6.5l-37-0.3l-48.7,43.8c-4,3.6-9.1,5.5-14.4,5.5h-64.7
	c-4.6,0-9-1.4-12.8-4l-57.9-40.8"/>
<path d="M443.5,589.2l-0.2-0.2c-0.1-0.1-0.3-0.2-0.5-0.3c-0.2-0.1-0.4-0.1-0.6-0.1c-0.2,0-0.4,0-0.6,0.1c-0.2,0.1-0.4,0.2-0.5,0.3
	l-0.2,0.3c-0.1,0.2-0.2,0.5-0.2,0.8l0,0.4c0.1,0.3,0.2,0.5,0.4,0.7l0.2,0.2c0.1,0.1,0.3,0.2,0.5,0.3c0.2,0.1,0.4,0.1,0.6,0.1
	c0.2,0,0.4,0,0.6-0.1c0.2-0.1,0.3-0.2,0.5-0.3l0.2-0.3c0.1-0.2,0.2-0.5,0.2-0.8v-0.4C443.9,589.6,443.8,589.3,443.5,589.2
	L443.5,589.2z"/>
<path d="M443.2,590.3c0.4-0.7,0.5-1.5,0.2-2.2l-1,1.8c0.1,0,0.2-0.1,0.3-0.1c-0.3,0-0.3,0-0.2,0h0.2c0.2,0,0.1,0-0.2,0h0.2h0.2
	c0.2,0,0.1,0-0.1-0.1c0.1,0.1,0.2,0.1,0.3,0.2c-0.2-0.2-0.2-0.2-0.1-0.1l0.1,0.1c0,0,0.1,0.1,0.1,0.1c-0.1-0.2-0.2-0.2-0.1-0.1
	L443.2,590.3c0.1,0.1,0.2,0.2,0.2,0.3c-0.1-0.2-0.1-0.3,0-0.1l0.1,0.2c0.1,0.2,0.1,0.5,0.2,0.7c0,0.6,0.2,1.1,0.6,1.6
	c0.7,0.7,1.9,0.7,2.6,0c0.4-0.5,0.7-1.1,0.7-1.7c0-0.2,0-0.3,0-0.5c0-0.3-0.1,0.3,0,0s-0.2,0.2,0,0s-0.2,0.2,0,0l0.1-0.1l-0.1,0.1
	l0.1-0.1c0.1-0.1,0.1,0-0.1,0h0.2c0.2,0,0.1,0-0.2,0c0.8,0,1.5-0.7,1.5-1.5c0-0.8-0.5-1.6-1.2-1.9c-0.3-0.1-0.6-0.2-0.9-0.3l-0.2,0
	c0.2,0.1,0.3,0.1,0.1,0c0.2,0.2,0.2,0.2,0.1,0.1c0.2,0.2,0.2,0.2,0.1,0.1c-0.3-0.5-0.7-0.9-1.1-1.3c-0.5-0.3-1.1-0.5-1.6-0.5
	c-1.2,0-2.3,0.5-3,1.5c-0.6,0.9-0.9,1.9-0.8,3c0,0.8,0.7,1.5,1.5,1.5c0.5,0,0.9-0.2,1.4-0.4c0.3-0.2,0.6-0.4,0.9-0.6
	c0.2-0.2,0.4-0.4,0.6-0.6l0.3-0.3c0-0.1,0.1-0.1,0.2-0.2s-0.3,0.2,0,0c0.1-0.1,0.2-0.2,0.4-0.2c0.1-0.1,0.2,0-0.1,0l0.2,0
	c0,0,0.3-0.1,0.1,0s0,0,0.1,0s-0.4,0-0.1,0s-0.2-0.1-0.1,0s-0.3-0.3-0.1-0.1s0.2,0.2,0,0s0,0,0,0s-0.1-0.2-0.1-0.2s0,0.2,0,0.2
	s0-0.4,0-0.1s0-0.2,0-0.2c0,0.1,0,0.1-0.1,0.2c-0.2,0.8,0.2,1.6,1,1.8c0.8,0.2,1.6-0.2,1.8-1c0.3-1,0.1-2-0.6-2.8
	c-0.7-0.8-1.8-1.1-2.8-0.8c-0.8,0.3-1.6,0.8-2.2,1.4l-0.4,0.4l-0.2,0.1c-0.2,0.2,0,0,0.1,0s-0.2,0.1-0.2,0.1c-0.1,0-0.2,0.1-0.2,0.1
	l0.2-0.1l-0.2,0c-0.1,0-0.4,0,0.1,0l1.5,1.5c0-0.2,0-0.3,0-0.5c0-0.1,0.1-0.4,0,0.1c0-0.1,0-0.2,0-0.3l0.1-0.2c0-0.1,0.2-0.3,0,0
	c0.1-0.1,0.1-0.3,0.2-0.4s-0.1,0.2,0,0l0.2-0.2c0.1-0.1-0.3,0.2-0.1,0.1l0.2-0.1c0.2-0.1-0.3,0.1-0.1,0l0.2-0.1c0.3-0.1-0.4,0-0.1,0
	h0.2c0.3,0-0.4-0.1-0.1,0c0,0,0.2,0,0.2,0.1s-0.4-0.2-0.1,0c0,0,0.3,0.2,0.1,0s0,0,0,0s-0.2-0.3-0.1-0.1c0.1,0.1,0.2,0.3,0.3,0.4
	c0.4,0.5,0.9,0.9,1.5,1.1l0.3,0.1c0.1,0,0.3,0.2,0,0c0.2,0.1-0.2-0.2-0.1-0.1s0,0-0.1-0.2c-0.1-0.6-0.1-0.7-0.2-0.5l1.5-1.5
	c-0.7,0-1.4,0.3-2,0.8c-0.5,0.4-0.8,1-0.9,1.6c0,0.3-0.1,0.6-0.1,0.9c0,0.2-0.1,0.4,0-0.1c0,0.1,0,0.2-0.1,0.3
	c0.1-0.3,0.2-0.3,0.1-0.2c0.2-0.2,0.2-0.3,0.2-0.2c0.4-0.4,0.9-0.4,1.3-0.2c0.2,0.1,0.3,0.2,0.4,0.4c0,0-0.1-0.1-0.1-0.1
	c0.1,0.3,0.1,0.3,0.1,0.2V591c-0.1-0.4-0.2-0.9-0.3-1.3c-0.2-0.6-0.6-1.2-1-1.7c-0.9-1-2.3-1.3-3.6-0.9c-0.4,0.1-0.7,0.4-0.9,0.7
	c-0.2,0.3-0.3,0.8-0.2,1.2l0.1,0.2c0.1,0.2,0-0.3,0-0.1s0.1-0.3,0-0.1s0.2-0.3,0-0.1c-0.4,0.7-0.2,1.6,0.5,2.1
	c0.7,0.4,1.6,0.2,2.1-0.5L443.2,590.3z"/>
<path class="st0" d="M550.2,166.2L550.2,166.2z"/>
<line class="st0" x1="622.3" y1="222" x2="646.6" y2="199.9"/>
<line class="st0" x1="693.8" y1="305.5" x2="634.4" y2="305.5"/>
<polyline class="st0" points="703.5,479.7 656.9,432.5 657.5,403.6 "/>
<polyline class="st0" points="646.6,586.5 615.7,555.2 616.3,528.8 "/>
<line class="st0" x1="445.5" y1="592.6" x2="445.5" y2="546"/>
<polyline class="st0" points="280.7,590.1 312.8,557.6 313.2,503 "/>
<polyline class="st0" points="221.2,480 255.2,447 255.3,412.2 "/>
<line class="st0" x1="231.1" y1="305.5" x2="289.2" y2="305.5"/>
<line class="st0" x1="277.6" y1="201.2" x2="293.4" y2="217.2"/>
<polyline class="st0" points="372.8,126.3 372.8,199.9 352.8,220.2 "/>
<ellipse class="st0" cx="313.4" cy="497.6" rx="8.5" ry="8.6"/>
<ellipse class="st0" cx="445.5" cy="540" rx="8.5" ry="8.6"/>
<ellipse class="st0" cx="616.1" cy="523.8" rx="8.5" ry="8.6"/>
<ellipse class="st0" cx="656.3" cy="399.6" rx="8.5" ry="8.6"/>
<ellipse class="st0" cx="630.8" cy="305.5" rx="8.5" ry="8.6"/>
<ellipse class="st0" cx="618.3" cy="225" rx="8.5" ry="8.6"/>
<ellipse class="st0" cx="549.6" cy="169.8" rx="8.5" ry="8.6"/>
<ellipse class="st0" cx="350.2" cy="224" rx="8.5" ry="8.6"/>
<ellipse class="st0" cx="297.5" cy="219.9" rx="8.5" ry="8.6"/>
<ellipse class="st0" cx="295.2" cy="306.5" rx="8.5" ry="8.6"/>
<ellipse class="st0" cx="255.3" cy="403.6" rx="8.5" ry="8.6"/>
<path class="st1" d="M430,311.6h45.8c11.7,0,21.3,9.5,21.3,21.3v45.8c0,11.7-9.5,21.3-21.3,21.3H430c-11.7,0-21.3-9.5-21.3-21.3
	v-45.8C408.8,321.1,418.3,311.6,430,311.6z"/>
<text transform="matrix(1.23 0 0 1 414.4452 368.0303)" class="st2 st3 st4">AGI</text>
<rect x="390.4" y="321" class="st5" width="18.8" height="6.5"/>
<rect x="390.4" y="334.1" class="st5" width="18.8" height="6.5"/>
<rect x="390.4" y="347.2" class="st5" width="18.8" height="6.5"/>
<rect x="390.4" y="360.3" class="st5" width="18.8" height="6.5"/>
<rect x="390.4" y="373.4" class="st5" width="18.8" height="6.5"/>
<rect x="390.4" y="387.3" class="st5" width="18.8" height="6.5"/>
<rect x="496.7" y="321" class="st5" width="18.8" height="6.5"/>
<rect x="496.7" y="334.1" class="st5" width="18.8" height="6.5"/>
<rect x="497.5" y="347.2" class="st5" width="18.8" height="6.5"/>
<rect x="497.5" y="360.3" class="st5" width="18.8" height="6.5"/>
<rect x="497.5" y="373.4" class="st5" width="18.8" height="6.5"/>
<rect x="497.5" y="387.3" class="st5" width="18.8" height="6.5"/>
<rect x="416.5" y="295.7" class="st5" width="6.5" height="18.8"/>
<rect x="428" y="295.7" class="st5" width="6.5" height="18.8"/>
<rect x="440.3" y="295.7" class="st5" width="6.5" height="18.8"/>
<rect x="453.3" y="295.7" class="st5" width="6.5" height="18.8"/>
<rect x="467.2" y="295.7" class="st5" width="6.5" height="18.8"/>
<rect x="479.5" y="295.7" class="st5" width="6.5" height="18.8"/>
<rect x="416.5" y="395.4" class="st5" width="6.5" height="18.8"/>
<rect x="428" y="395.4" class="st5" width="6.5" height="18.8"/>
<rect x="441.9" y="395.4" class="st5" width="6.5" height="18.8"/>
<rect x="453.3" y="395.4" class="st5" width="6.5" height="18.8"/>
<rect x="467.2" y="395.4" class="st5" width="6.5" height="18.8"/>
<rect x="479.5" y="395.4" class="st5" width="6.5" height="18.8"/>
<path class="st0" d="M438.4,283h35.8c18.8,0,36.8,7.5,50.1,20.8l0,0l0.4,102.9l0,0c-13,13-30.7,20.3-49.1,20.3h-69.3l-25.2-25.2
	l0.4-98.5l0,0C397.7,290.2,417.7,283,438.4,283z"/>
<line class="st0" x1="424.1" y1="283" x2="424.1" y2="160"/>
<polyline class="st0" points="462,283 462,160 476.6,145.4 "/>
<polyline class="st0" points="493.2,283 493.2,229 523.2,199 "/>
<polyline class="st0" points="504.2,288 589.2,235.1 589.2,198 "/>
<polyline class="st0" points="524.2,303 589.2,271 654.2,271 "/>
<line class="st0" x1="523.2" y1="338" x2="651.2" y2="338"/>
<polyline class="st0" points="524.8,362.8 664.2,361 692.2,375 "/>
<line class="st0" x1="524.8" y1="396.4" x2="583.2" y2="396.4"/>
<polyline class="st0" points="523.2,410.2 660.2,480 660.2,529 "/>
<polyline class="st0" points="489.7,427 489.7,497 547.2,547 "/>
<polyline class="st0" points="452.7,427 452.7,465 409.5,508.2 "/>
<line class="st0" x1="415.4" y1="427" x2="415.2" y2="458"/>
<polyline class="st0" points="406.2,427 370.2,463 371.2,570 "/>
<polyline class="st0" points="381.2,402 272.2,481 272.2,520 "/>
<line class="st0" x1="380.8" y1="364.5" x2="295.2" y2="364"/>
<polyline class="st0" points="381.2,325 276.2,325 225.7,375.5 "/>
<polyline class="st0" points="381.2,303 335.7,257.5 275.2,257.5 "/>
<ellipse class="st0" cx="424" cy="155.6" rx="8.5" ry="8.6"/>
<ellipse class="st0" cx="480" cy="143.6" rx="8.5" ry="8.6"/>
<ellipse class="st0" cx="527" cy="194.6" rx="8.5" ry="8.6"/>
<ellipse class="st0" cx="589" cy="193.6" rx="8.5" ry="8.6"/>
<ellipse class="st0" cx="660" cy="270.6" rx="8.5" ry="8.6"/>
<ellipse class="st0" cx="655" cy="337.6" rx="8.5" ry="8.6"/>
<ellipse class="st0" cx="702" cy="380.6" rx="8.5" ry="8.6"/>
<ellipse class="st0" cx="660" cy="532.6" rx="8.5" ry="8.6"/>
<ellipse class="st0" cx="587" cy="396.6" rx="8.5" ry="8.6"/>
<ellipse class="st0" cx="554" cy="552.6" rx="8.5" ry="8.6"/>
<ellipse class="st0" cx="407" cy="511.6" rx="8.5" ry="8.6"/>
<ellipse class="st0" cx="415" cy="463.6" rx="8.5" ry="8.6"/>
<ellipse class="st0" cx="371" cy="578.6" rx="8.5" ry="8.6"/>
<ellipse class="st0" cx="272" cy="526.6" rx="8.5" ry="8.6"/>
<ellipse class="st0" cx="291" cy="364.6" rx="8.5" ry="8.6"/>
<ellipse class="st0" cx="222" cy="379.6" rx="8.5" ry="8.6"/>
<ellipse class="st0" cx="270" cy="257.6" rx="8.5" ry="8.6"/>
<rect x="487.6" y="308.6" transform="matrix(0.7071 -0.7071 0.7071 0.7071 -74.9708 442.7711)" class="st5" width="18.8" height="6.5"/>
<rect x="399.6" y="396.6" transform="matrix(0.7071 -0.7071 0.7071 0.7071 -162.9713 406.3205)" class="st5" width="18.8" height="6.5"/>
<rect x="405.7" y="302.5" transform="matrix(0.7071 -0.7071 0.7071 0.7071 -100.7436 380.5508)" class="st5" width="6.5" height="18.8"/>
<rect x="493.7" y="390.5" transform="matrix(0.7071 -0.7071 0.7071 0.7071 -137.1939 468.5506)" class="st5" width="6.5" height="18.8"/>
<text transform="matrix(1 0 0 1 806.041 338)"><tspan x="0" y="0" class="st6 st7">ARTIFICIAL</tspan><tspan x="0" y="62.6" class="st6 st7">GENERAL</tspan><tspan x="0" y="125.1" class="st6 st7">INTELLIGENCE</tspan></text>
</svg>
