<svg id="レイヤー_1" data-name="レイヤー 1" xmlns="http://www.w3.org/2000/svg" viewBox="0 0 1366 768"><defs><style>.cls-1,.cls-2,.cls-3,.cls-6,.cls-7{fill:#fff;}.cls-1,.cls-2,.cls-3,.cls-4,.cls-5,.cls-6,.cls-7,.cls-8{stroke:#000;stroke-miterlimit:10;}.cls-1{stroke-width:10px;}.cls-2{stroke-width:4px;}.cls-4{fill:#991010;}.cls-4,.cls-7,.cls-8{stroke-width:2px;}.cls-6{stroke-width:5px;}</style></defs><path class="cls-1" d="M792.25,467.71l-30.47-85.62c-.71-2-2.48-3.36-3.76-12.86A18.41,18.41,0,0,0,760.5,360V175A18.5,18.5,0,0,0,742,156.5H569a18.3,18.3,0,0,0-3.5.34,18.3,18.3,0,0,0-3.5-.34H389A18.5,18.5,0,0,0,370.5,175V360a18.41,18.41,0,0,0,2.48,9.23c-1.28,9.5-3.05,10.88-3.76,12.86l-30.47,85.62a21.56,21.56,0,0,0,20.31,28.79H771.94A21.56,21.56,0,0,0,792.25,467.71Z"/><polygon class="cls-2" points="562.5 187 554.5 187 407.5 187 407.5 342.5 554.5 342.5 562.5 342.5 733.5 342.5 733.5 187 562.5 187"/><polygon class="cls-2" points="729.5 374.5 566.5 374.5 403.5 374.5 378.5 459.5 566.5 459.5 754.5 459.5 729.5 374.5"/><line class="cls-3" x1="370.5" y1="476.5" x2="767.5" y2="476.5"/><line class="cls-3" x1="472" y1="459.5" x2="454" y2="476.5"/><line class="cls-3" x1="691" y1="476.5" x2="675" y2="459.5"/><path class="cls-4" d="M466,294l25-27s-1,4,5,4S466,294,466,294Z"/><path class="cls-3" d="M514,247s-25,11-23,19,6.5,6.5,6.5,6.5c1.41,1.4,8.62-.38,9-8C506.85,257.44,514,247,514,247Z"/><path class="cls-5" d="M506.5,265.5s-4.74-10.44-1.87-12.72,8.87-4.28,8.87-4.28Z"/><path d="M502,256.74a1.5,1.5,0,0,0,0-3,1.5,1.5,0,0,0,0,3Z"/><path d="M503.06,258.15a1.5,1.5,0,0,0,0-3,1.5,1.5,0,0,0,0,3Z"/><path d="M504.82,262.74a1.5,1.5,0,0,0,0-3,1.5,1.5,0,0,0,0,3Z"/><path d="M505.53,266.26a1.5,1.5,0,0,0,0-3,1.5,1.5,0,0,0,0,3Z"/><path d="M505.53,263.44a1.5,1.5,0,0,0,0-3,1.5,1.5,0,0,0,0,3Z"/><path d="M505.53,261.32a1.5,1.5,0,0,0,0-3,1.5,1.5,0,0,0,0,3Z"/><path d="M505.88,263.79a1.5,1.5,0,0,0,0-3,1.5,1.5,0,0,0,0,3Z"/><path d="M502.88,256a1.5,1.5,0,0,0,0-3,1.5,1.5,0,0,0,0,3Z"/><path d="M502.88,255.32a1.5,1.5,0,0,0,0-3,1.5,1.5,0,0,0,0,3Z"/><rect class="cls-6" x="565" y="249" width="61" height="35"/><rect class="cls-7" x="628.5" y="254.5" width="8" height="23"/><rect class="cls-7" x="556.5" y="253.5" width="7" height="24"/><rect class="cls-8" x="582.5" y="236.5" width="26" height="14"/><rect class="cls-7" x="579" y="270" width="33" height="7"/><circle class="cls-8" cx="582.5" cy="262.5" r="4.5"/><circle class="cls-8" cx="608.5" cy="262.5" r="4.5"/></svg>