<?xml version="1.0" encoding="utf-8"?>
<!-- Generator: Adobe Illustrator 24.2.3, SVG Export Plug-In . SVG Version: 6.00 Build 0)  -->
<svg version="1.1" id="レイヤー_1" xmlns="http://www.w3.org/2000/svg" xmlns:xlink="http://www.w3.org/1999/xlink" x="0px"
	 y="0px" viewBox="0 0 1366 768" style="enable-background:new 0 0 1366 768;" xml:space="preserve">
<style type="text/css">
	.st0{fill:none;stroke:#000000;stroke-width:7;stroke-miterlimit:10;}
	.st1{font-family:'BaskOldFace';}
	.st2{font-size:101.13px;}
	.st3{fill:none;stroke:#000000;stroke-miterlimit:10;}
</style>
<g>
	<ellipse cx="833.1" cy="268.5" rx="14.6" ry="17"/>
	<path d="M833.1,252c7.7,0,14.1,7.4,14.1,16.5s-6.3,16.5-14.1,16.5c-7.7,0-14.1-7.4-14.1-16.5S825.3,252,833.1,252 M833.1,251
		c-8.3,0-15.1,7.8-15.1,17.5s6.7,17.5,15.1,17.5c8.3,0,15.1-7.8,15.1-17.5S841.4,251,833.1,251L833.1,251z"/>
</g>
<path class="st0" d="M833.1,268.5c0,0-32.7-80-107.5-72"/>
<g>
	<path d="M717,211c-6.4,0-11.6-6.5-11.6-14.5S710.6,182,717,182c6.4,0,11.6,6.5,11.6,14.5S723.4,211,717,211z"/>
	<path d="M717,188c2.7,0,5.6,3.5,5.6,8.5s-3,8.5-5.6,8.5s-5.6-3.5-5.6-8.5S714.3,188,717,188 M717,176c-9.7,0-17.6,9.2-17.6,20.5
		S707.2,217,717,217c9.7,0,17.6-9.2,17.6-20.5S726.7,176,717,176L717,176z"/>
</g>
<path class="st0" d="M833.1,455.5c-85.1,46-201.3,51-201.3,51c-169.4,19-136.7-184-136.7-184c28.4-144,221.9-126,221.9-126
	s-158.2,43-213.3,250"/>
<g>
	<ellipse cx="833.9" cy="455.5" rx="14.6" ry="17"/>
	<path d="M833.9,439c7.7,0,14.1,7.4,14.1,16.5s-6.3,16.5-14.1,16.5c-7.7,0-14.1-7.4-14.1-16.5S826.2,439,833.9,439 M833.9,438
		c-8.3,0-15.1,7.8-15.1,17.5s6.7,17.5,15.1,17.5c8.3,0,15.1-7.8,15.1-17.5S842.3,438,833.9,438L833.9,438z"/>
</g>
<g>
	<circle cx="625" cy="510" r="19.5"/>
	<path d="M625,491c10.5,0,19,8.5,19,19c0,10.5-8.5,19-19,19s-19-8.5-19-19C606,499.5,614.5,491,625,491 M625,490c-11,0-20,9-20,20
		c0,11,9,20,20,20s20-9,20-20C645,499,636,490,625,490L625,490z"/>
</g>
<g>
	<circle cx="541" cy="482" r="12.5"/>
	<path d="M541,470c6.6,0,12,5.4,12,12s-5.4,12-12,12s-12-5.4-12-12S534.4,470,541,470 M541,469c-7.2,0-13,5.8-13,13s5.8,13,13,13
		s13-5.8,13-13S548.2,469,541,469L541,469z"/>
</g>
<g>
	<circle cx="511" cy="447" r="13.5"/>
	<path d="M511,434c7.2,0,13,5.8,13,13s-5.8,13-13,13s-13-5.8-13-13S503.8,434,511,434 M511,433c-7.7,0-14,6.3-14,14s6.3,14,14,14
		s14-6.3,14-14S518.7,433,511,433L511,433z"/>
</g>
<g>
	<ellipse cx="751.4" cy="454.5" rx="12" ry="14"/>
	<path d="M751.4,441c6.3,0,11.5,6.1,11.5,13.5s-5.1,13.5-11.5,13.5s-11.5-6.1-11.5-13.5S745.1,441,751.4,441 M751.4,440
		c-6.9,0-12.5,6.5-12.5,14.5s5.6,14.5,12.5,14.5c6.9,0,12.5-6.5,12.5-14.5S758.3,440,751.4,440L751.4,440z"/>
</g>
<g>
	<circle cx="583.5" cy="400.5" r="17"/>
	<path d="M583.5,384c9.1,0,16.5,7.4,16.5,16.5s-7.4,16.5-16.5,16.5s-16.5-7.4-16.5-16.5S574.4,384,583.5,384 M583.5,383
		c-9.7,0-17.5,7.8-17.5,17.5s7.8,17.5,17.5,17.5s17.5-7.8,17.5-17.5S593.2,383,583.5,383L583.5,383z"/>
</g>
<path class="st0" d="M781.5,316.5c-166-107-286,55.9-286,55.9s175,83.1,325.5,0.1"/>
<path class="st0" d="M508,446.5c0,0-13.8,40,0,154c3.5,28.8,25.8-119,25.8-119c45.6-170,264-261.4,264-261.4"/>
<path class="st0" d="M508,604.5c46.4-92,96.3-97,96.3-97s52.5-35,149.6-52"/>
<g>
	<circle cx="528.5" cy="384.5" r="17"/>
	<path d="M528.5,368c9.1,0,16.5,7.4,16.5,16.5s-7.4,16.5-16.5,16.5s-16.5-7.4-16.5-16.5S519.4,368,528.5,368 M528.5,367
		c-9.7,0-17.5,7.8-17.5,17.5s7.8,17.5,17.5,17.5s17.5-7.8,17.5-17.5S538.2,367,528.5,367L528.5,367z"/>
</g>
<g>
	<circle cx="576" cy="311" r="14.5"/>
	<path d="M576,297c7.7,0,14,6.3,14,14s-6.3,14-14,14s-14-6.3-14-14S568.3,297,576,297 M576,296c-8.3,0-15,6.7-15,15s6.7,15,15,15
		s15-6.7,15-15S584.3,296,576,296L576,296z"/>
</g>
<g>
	<path d="M687.7,302.5c-8,0-14.6-7.6-14.6-17s6.5-17,14.6-17s14.6,7.6,14.6,17S695.8,302.5,687.7,302.5z"/>
	<path d="M687.7,269c7.7,0,14.1,7.4,14.1,16.5s-6.3,16.5-14.1,16.5c-7.7,0-14.1-7.4-14.1-16.5S680,269,687.7,269 M687.7,268
		c-8.3,0-15.1,7.8-15.1,17.5s6.7,17.5,15.1,17.5c8.3,0,15.1-7.8,15.1-17.5S696.1,268,687.7,268L687.7,268z"/>
</g>
<path class="st0" d="M496.5,372.5c0,0-77.1,100.7-75,109c4,16,44,8,44,8l-7,40c0,0,33,1,26,10s-25,5-19,14s48,66,57,59
	c0,0,57,3,70-8"/>
<g>
	<circle cx="592.5" cy="604.5" r="12"/>
	<path d="M592.5,593c6.3,0,11.5,5.2,11.5,11.5s-5.2,11.5-11.5,11.5s-11.5-5.2-11.5-11.5S586.2,593,592.5,593 M592.5,592
		c-6.9,0-12.5,5.6-12.5,12.5s5.6,12.5,12.5,12.5s12.5-5.6,12.5-12.5S599.4,592,592.5,592L592.5,592z"/>
</g>
<text transform="matrix(1.1953 0 0 1 730.9961 615.4365)" class="st1 st2">AI</text>
<rect x="416.5" y="176.5" class="st3" width="443" height="443"/>
</svg>
