<svg id="レイヤー_1" data-name="レイヤー 1" xmlns="http://www.w3.org/2000/svg" viewBox="0 0 1366 768"><defs><style>.cls-1{fill:#fff;stroke:#000;stroke-miterlimit:10;stroke-width:3px;}</style></defs><path class="cls-1" d="M578.5,334.5s33,113,115,83l9-22,8-6s-20-12-15-11,5-8,15-5,0-24,0-24l14-1s-5-25-14-28l4-15a129.52,129.52,0,0,0-3.43-38c-.33-1.34-.68-2.69-1.07-4-10-35.11-40.55-75.2-131.5-46.93v27l16,12,22-1,9-16"/><polyline class="cls-1" points="714.45 289.9 697.5 289.5 697.5 300.5 682.5 314.5 651.5 314.5 561.5 314.5 536.5 347.5 536.5 370.5"/><path class="cls-1" d="M651.5,289.5v0Z"/><polyline class="cls-1" points="687.5 268.5 687.5 289.5 651.5 289.5"/><line class="cls-1" x1="708.77" y1="259.42" x2="699" y2="259.5"/><circle class="cls-1" cx="686.5" cy="258.5" r="12"/><circle class="cls-1" cx="631.5" cy="228.5" r="12"/><polyline class="cls-1" points="599.24 314.5 600.5 283.5 590.5 276.5 590.5 261.5 608.5 261.5 620.5 272.5"/><circle class="cls-1" cx="629.5" cy="279.5" r="12"/><circle class="cls-1" cx="536.5" cy="382.5" r="12"/><polyline class="cls-1" points="565.5 227.5 565.5 246.5 584.5 261.5 583.5 298.5 555.5 298.5 536.5 319.5 536.5 296.5"/><polyline class="cls-1" points="545.5 259.5 545.5 241.5 508.5 224.5 485.5 224.5 485.5 288.5 505.5 304.5 505.5 321.5"/><circle class="cls-1" cx="503.5" cy="333.5" r="12"/><polyline class="cls-1" points="484.45 247.76 473.47 242.82 472.5 213.5"/><circle class="cls-1" cx="472.5" cy="201.5" r="12"/><line class="cls-1" x1="472.5" y1="324.5" x2="472.5" y2="357.5"/><circle class="cls-1" cx="472.5" cy="312.5" r="12"/><circle class="cls-1" cx="472.5" cy="368.5" r="12"/><circle class="cls-1" cx="536.5" cy="285.5" r="12"/></svg>