<svg id="レイヤー_1" data-name="レイヤー 1" xmlns="http://www.w3.org/2000/svg" viewBox="0 0 1366 768"><defs><style>.cls-1,.cls-2,.cls-4{stroke:#000;stroke-miterlimit:10;stroke-width:4px;}.cls-2,.cls-5{fill:#fff;}.cls-3,.cls-4{fill:none;}</style></defs><path class="cls-1" d="M936.5,566.5s-20,50,0,73c0,0,29,7,40,4s-19,4,11-55Z"/><path class="cls-1" d="M907.5,333.5h-29s-103,108-52,136l28-13Z"/><polygon class="cls-1" points="932.5 333.5 1129.88 333.5 1216.5 333.5 1271.5 454.5 1218.5 536.5 1134.5 577.5 1015.5 577.5 932.5 537.5 878.5 455.5 932.5 333.5"/><polygon class="cls-1" points="895.5 267.5 1256.5 267.5 1198.5 312.5 956.5 312.5 895.5 267.5"/><path class="cls-1" d="M1078.5,106.5s-165-2.87-165,44c0,4-5,105-18,117h361s-22-85-17-118C1239.5,149.5,1236.5,110.5,1078.5,106.5Z"/><path class="cls-1" d="M946.5,253.5l263,2s-7-39-6-63c0,0,5-62-122-64,0,0-112-4-130,56C951.5,184.5,952.5,253.5,946.5,253.5Z"/><path class="cls-1" d="M1031.5,92.5c1,1,0,15.23,0,15.23l89-.23v-15h-26s1-13-9-21l-1-11s-7,9-17,0v12s-10,5-9,20Z"/><circle class="cls-1" cx="1075" cy="48" r="14"/><path class="cls-1" d="M1243.91,333.5h29s103,108,52,136l-28-13Z"/><path class="cls-1" d="M1224.74,566.71s20,50,0,73c0,0-29,7-40,4s19,4-11-55Z"/><path class="cls-2" d="M1155.5,378.5l-26-45h87l55,122-53,81L1137,576.31l-33,1.19s63.5-60,57.5-79c0,0,4-35-6-95,0,0-222-15-223-16S1155.5,378.5,1155.5,378.5Z"/><path class="cls-3" d="M363.26,205.93c0-24.37,55.57-32,94.73-34.34,0,0,.8-11.42,0-12.22h21.68c-.81-12.05,7.22-16.06,7.22-16.06v-9.63c8,7.22,13.65,0,13.65,0l.8,8.83c8,6.42,7.23,16.86,7.23,16.86h20.87v12l-12.86,0c62.89,3.5,89.31,14.66,100.39,23.18V84H340V255h19.45C362.11,231.6,363.26,207.65,363.26,205.93ZM493.71,112.4a11.24,11.24,0,1,1-11.23,11.24A11.24,11.24,0,0,1,493.71,112.4Z"/><path d="M458,171.6h0c-39.16,2.35-94.73,10-94.73,34.34,0,1.72-1.15,25.67-3.81,49.07H393.7c.21-11.62.06-21.77.06-21.77,14.45-48.17,104.37-45,104.37-45,102,1.6,97.94,51.38,97.94,51.38a142.56,142.56,0,0,0,.37,15.35H617V194.62c-11.08-8.52-37.5-19.68-100.39-23.18Z"/><path d="M596.07,239.65s4-49.78-97.94-51.38c0,0-89.92-3.21-104.37,45,0,0,.15,10.15-.06,21.77H596.44A142.56,142.56,0,0,1,596.07,239.65Z"/><path d="M516.58,173.05l12.86,0V161H508.57s.8-10.43-7.23-16.86l-.8-8.83s-5.62,7.23-13.65,0v9.64s-8,4-7.22,16.05H458c.8.8,0,12.21,0,12.23h0Z"/><circle cx="493.71" cy="127.66" r="11.24"/><rect class="cls-4" x="340" y="84" width="276.97" height="171"/><path class="cls-3" d="M367.77,444.71H296.71l-66.64-32.12-43.35-65.84L217.59,277H197.85l-30.4,70.56L145,358c-25.73-14.13-2.65-53.6,18.06-81H92V448H229.44a110.16,110.16,0,0,1,3.85-12.14L261.43,448H369v-3.31Z"/><path d="M229.44,448h32l-28.14-12.14A110.16,110.16,0,0,0,229.44,448Z"/><path d="M145,358l22.48-10.44L197.85,277H163C142.32,304.4,119.24,343.87,145,358Z"/><path d="M230.07,412.59l66.64,32.12h71.06l1.23-1.18V302.27c-52.61-3.6-138.37-9.56-138.93-10.11s86-3.83,138.93-5.77V277H217.59l-30.87,69.75Z"/><polygon points="369 444.71 369 444.66 367.77 444.71 369 444.71"/><path class="cls-5" d="M369,444.66v-1.13l-1.23,1.18Z"/><path class="cls-5" d="M230.07,292.16c.56.55,86.32,6.51,138.93,10.11V286.39C316.05,288.33,229.52,291.6,230.07,292.16Z"/><rect class="cls-4" x="92" y="277" width="277" height="171.02"/><path class="cls-4" d="M469.28,481c8.21,18.22,10,35.28-5.16,43.59l-22.48-10.44L427.36,481H406.9l14.34,31.54-.22.33.22.48-42.55,65-65.47,32h0l-2,1H244V652H353.77c-.39-6.29-3.1-16.13-11-31.71l40.95-17.66S395.42,632,388.81,652H521V481Z"/><polygon class="cls-1" points="311.25 611.29 313.22 610.33 286.77 611.29 311.25 611.29"/><path class="cls-1" d="M332.93,547.87s2.79-24.47-3.36-66.87H244V611.29h42.74S337.74,563.12,332.93,547.87Z"/><polygon class="cls-1" points="421.24 512.54 406.9 481 406.65 481 421.02 512.87 421.24 512.54"/><path class="cls-1" d="M464.12,524.59c15.12-8.31,13.37-25.37,5.16-43.59H427.36l14.28,33.15Z"/><path class="cls-1" d="M383.7,602.63l-40.95,17.66c7.92,15.58,10.63,25.42,11,31.71h35C395.42,632,383.7,602.63,383.7,602.63Z"/><path class="cls-2" d="M332.93,547.87c4.81,15.25-46.16,63.42-46.16,63.42l26.45-1h0l65.47-32,42.55-65-.22-.48L406.66,481H329.57C335.72,523.4,332.93,547.87,332.93,547.87Z"/><rect class="cls-4" x="244.03" y="481" width="276.97" height="171"/><polygon class="cls-1" points="658 305 658 334 582 334 582 345 729 345 658 305"/><polygon class="cls-1" points="582 360 658 360 658 389 729 349 582 349 582 360"/></svg>