<?xml version="1.0" encoding="utf-8"?>
<!-- Generator: Adobe Illustrator 24.2.3, SVG Export Plug-In . SVG Version: 6.00 Build 0)  -->
<svg version="1.1" id="レイヤー_1" xmlns="http://www.w3.org/2000/svg" xmlns:xlink="http://www.w3.org/1999/xlink" x="0px"
	 y="0px" viewBox="0 0 1920 1080" style="enable-background:new 0 0 1920 1080;" xml:space="preserve">
<style type="text/css">
	.st0{fill:#A090BB;}
	.st1{fill:#E6DEFF;}
	.st2{font-family:'ArialMT';}
	.st3{font-size:66px;}
	.st4{font-family:'KozGoPr6N-Regular-90ms-RKSJ-H';}
</style>
<g>
	<rect x="202" y="95" class="st0" width="750" height="445"/>
</g>
<g>
	<polyline class="st1" points="952,995 202,995 202,550 952,550 952,995 	"/>
</g>
<g>
	<polyline class="st0" points="1710,995 960,995 960,550 1710,550 1710,995 	"/>
</g>
<g>
	<polyline class="st1" points="1710,540 960,540 960,95 1710,95 1710,540 	"/>
</g>
<text transform="matrix(1 0 0 1 505.1218 66.3926)" class="st2 st3">4 Types of Artificial Intelligence</text>
<text transform="matrix(1 0 0 1 317.8925 157.9413)" class="st4 st3">Reactive Machine</text>
<text transform="matrix(1 0 0 1 1091.3645 157.9413)" class="st4 st3">Limited Memory</text>
<text transform="matrix(1 0 0 1 353.1324 616.9418)" class="st4 st3">Theory of Mind</text>
<text transform="matrix(1 0 0 1 1114.9595 616.9415)" class="st4 st3">Self-awareness</text>
<text transform="matrix(1 0 0 1 335.8184 351.6963)"><tspan x="0" y="0" class="st4 st3">Has no memory,</tspan><tspan x="-6.1" y="72" class="st4 st3">only responds to</tspan><tspan x="6.4" y="144" class="st4 st3">different stimuli</tspan></text>
<text transform="matrix(1 0 0 1 1337.5524 351.5619)" class="st4 st3"> </text>
<text transform="matrix(1 0 0 1 1095.2028 351.5619)"><tspan x="0" y="0" class="st4 st3">Uses memory to</tspan><tspan x="-29.9" y="72" class="st4 st3">learn and improve</tspan><tspan x="50.2" y="144" class="st4 st3">its responses</tspan></text>
<text transform="matrix(1 0 0 1 331.6065 812.5619)"><tspan x="0" y="0" class="st4 st3">Understands the</tspan><tspan x="30.7" y="72" class="st4 st3">needs of other</tspan><tspan x="-22.6" y="144" class="st4 st3">intelligent entities</tspan></text>
<text transform="matrix(1 0 0 1 1105.4199 812.5623)"><tspan x="0" y="0" class="st4 st3">Has human-like</tspan><tspan x="-8" y="72" class="st4 st3">intelligence and</tspan><tspan x="12.8" y="144" class="st4 st3">self-awareness</tspan></text>
</svg>
