<?xml version="1.0" encoding="utf-8"?>
<!-- Generator: Adobe Illustrator 24.2.3, SVG Export Plug-In . SVG Version: 6.00 Build 0)  -->
<svg version="1.1" id="レイヤー_1" xmlns="http://www.w3.org/2000/svg" xmlns:xlink="http://www.w3.org/1999/xlink" x="0px"
	 y="0px" viewBox="0 0 1920 1080" style="enable-background:new 0 0 1920 1080;" xml:space="preserve">
<style type="text/css">
	.st0{fill:none;stroke:#000000;stroke-miterlimit:10;}
	.st1{stroke:#000000;stroke-miterlimit:10;}
	.st2{font-family:'KozGoPr6N-Regular-90ms-RKSJ-H';}
	.st3{font-size:50px;}
	.st4{font-size:20px;}
	.st5{font-size:125px;}
</style>
<line class="st0" x1="109.5" y1="963.31" x2="1753.5" y2="963.31"/>
<line class="st0" x1="163.5" y1="1013" x2="163.5" y2="52"/>
<path class="st0" d="M163.5,932.53c0,0,883-0.03,1545-110.03"/>
<line class="st0" x1="1322.83" y1="932.19" x2="1322.83" y2="994.44"/>
<line class="st0" x1="1261.67" y1="931.99" x2="1261.67" y2="994.24"/>
<path class="st0" d="M1260.82,963.31c0,0,206.68-20.81,414.68-740.81"/>
<circle class="st1" cx="1387.5" cy="866.5" r="11"/>
<path class="st0" d="M1387.5,866.5c0,0,120-60,288-612"/>
<line class="st0" x1="1624" y1="382.83" x2="1470.16" y2="314.33"/>
<polyline class="st0" points="1581.95,391.82 1624.62,383.08 1602.79,346.12 "/>
<text transform="matrix(1 0 0 1 1153.1172 283.7061)" class="st2 st3">Trans-Humans?</text>
<line class="st0" x1="1398.76" y1="884.99" x2="1562.84" y2="922.88"/>
<polyline class="st0" points="1438.32,868.14 1398.1,884.86 1426.59,916.98 "/>
<text transform="matrix(1 0 0 1 1574.7666 896.9287)"><tspan x="0" y="0" class="st2 st3">Machine</tspan><tspan x="0" y="50.46" class="st2 st3">Intelligence</tspan></text>
<text transform="matrix(1 0 0 1 1239.6224 1016.9414)" class="st2 st4">1950</text>
<text transform="matrix(1 0 0 1 1300.7942 1018.292)" class="st2 st4">2000</text>
<text transform="matrix(1 0 0 1 724.1474 1013.4709)" class="st2 st3">Time</text>
<text transform="matrix(1 0 0 1 600.6498 867.7016)" class="st2 st3">Human Intellect</text>
<text transform="matrix(6.123234e-17 -1 1 6.123234e-17 137.7592 801.8936)" class="st2 st3">Intellectual Level/Power</text>
<line class="st0" x1="1374.49" y1="848.26" x2="998.57" y2="696.38"/>
<polyline class="st0" points="1274.06,873.43 1376,848.82 1320.37,761.71 "/>
<text transform="matrix(1 0 0 1 634.3695 554.0547)"><tspan x="0" y="0" class="st2 st5">THE</tspan><tspan x="-263.62" y="110" class="st2 st5">SINGULARITY</tspan></text>
</svg>
