<?xml version="1.0" encoding="utf-8"?>
<!-- Generator: Adobe Illustrator 24.2.3, SVG Export Plug-In . SVG Version: 6.00 Build 0)  -->
<svg version="1.1" id="レイヤー_1" xmlns="http://www.w3.org/2000/svg" xmlns:xlink="http://www.w3.org/1999/xlink" x="0px"
	 y="0px" viewBox="0 0 1920 1080" style="enable-background:new 0 0 1920 1080;" xml:space="preserve">
<style type="text/css">
	.st0{fill:#E6DEFF;}
	.st1{fill:#918DBB;}
	.st2{fill:#7258A3;}
	.st3{font-family:'ArialMT';}
	.st4{font-size:70.0221px;}
	.st5{stroke:#000000;stroke-miterlimit:10;}
	.st6{fill:none;stroke:#000000;stroke-width:32;stroke-miterlimit:10;}
	.st7{fill:none;stroke:#000000;stroke-width:6;stroke-miterlimit:10;}
	.st8{stroke:#000000;stroke-width:4;stroke-miterlimit:10;}
	.st9{fill:#FFFFFF;stroke:#000000;stroke-width:4;stroke-miterlimit:10;}
	.st10{fill:none;}
	.st11{fill:none;stroke:#000000;stroke-width:4;stroke-miterlimit:10;}
	.st12{fill:#FFFFFF;}
</style>
<g>
	<rect x="16.9" y="33" class="st0" width="1887.1" height="1017.65"/>
</g>
<g>
	<rect x="605.54" y="350.43" class="st1" width="1298.46" height="700.22"/>
</g>
<g>
	<rect x="1249.29" y="395.95" class="st2" width="654.71" height="654.71"/>
</g>
<text transform="matrix(1 0 0 1 43.6074 109.4067)" class="st3 st4">Artificial Intelligence</text>
<text transform="matrix(1 0 0 1 637.0117 428.8999)" class="st3 st4">Machine Learning</text>
<text transform="matrix(1 0 0 1 1283.3164 468.7886)" class="st3 st4">Deep Learning</text>
<path class="st5" d="M891.41,881.18h56.49l1.49-107c0,0-18.32-19.76-65.44-20.11c-47.12-0.35-79.2-3.46-93.7-14.17
	c-8.39-6.19-24.57-3.64-21.81,4.1c4.98,14.01,30.99,21.75,32.22,20.88c0,0-42.14,1.49-62.46-5.59
	c-20.33-7.08-50.57-33.18-63.95-28.71c-13.38,4.48,0,13.42,0,13.42s34.7,38.4,44.61,43.62c9.91,5.22,36.19,18.28,90.22,16.41
	c54.03-1.87,65.44,9.3,65.44,9.3s10.91,5.22,11.4,12.68s-1.99,55.17-1.99,55.17H891.41z"/>
<path class="st5" d="M1047.16,921.06h-37.2l-0.98-70.43c0,0,12.07-13.01,43.07-13.25c31-0.24,52.12-2.27,61.67-9.33
	c5.54-4.07,16.17-2.39,14.36,2.7c-3.29,9.22-20.4,14.32-21.21,13.74c0,0,27.73,0.98,41.11-3.68s33.28-21.84,42.09-18.89
	c8.81,2.95,0,8.86,0,8.86s-22.84,25.28-29.35,28.71c-6.51,3.43-23.82,12.02-59.39,10.79c-35.57-1.23-43.07,6.14-43.07,6.14
	s-7.2,3.43-7.5,8.34c-0.3,4.91,1.31,36.32,1.31,36.32L1047.16,921.06z"/>
<g>
	<polygon class="st5" points="1151.86,648.41 1110.21,693.6 1129.03,705.98 1166.98,664.81 	"/>
	<path class="st5" d="M1128.8,706.14L1128.8,706.14l-18.86-12.23l-41.65-45.19l-15.12,16.4l37.94,41.17l-37.66,40.87l15.12,16.4
		l41.37-44.86l0,0l0.35-0.23l41.58,45.1l15.12-16.4l-37.95-41.17L1128.8,706.14z M1091.49,706.05h0.03l1.46,1L1091.49,706.05z"/>
</g>
<circle class="st6" cx="829.53" cy="635.41" r="71.06"/>
<g>
	<path class="st7" d="M290.21,643.4c0,0,58.95,201.84,205.42,148.26l16.08-39.3l14.29-10.72c0,0-35.72-21.43-26.79-19.65
		c8.93,1.79,8.93-14.29,26.79-8.93c17.86,5.36,0-42.87,0-42.87l25.01-1.79c0,0-8.93-44.66-25.01-50.01l7.14-26.79
		c1.32-22.8-0.74-45.68-6.13-67.88c-0.59-2.39-1.21-4.8-1.91-7.14c-17.86-62.71-72.43-134.32-234.89-83.83v48.23l28.58,21.43
		l39.3-1.79l16.08-28.58"/>
	<polyline class="st7" points="533.05,563.73 502.77,563.02 502.77,582.67 475.98,607.68 420.61,607.68 259.84,607.68 
		215.19,666.62 215.19,707.7 	"/>
	<path class="st7" d="M420.61,563.02"/>
	<polyline class="st7" points="484.91,525.51 484.91,563.02 420.61,563.02 	"/>
	<line class="st7" x1="522.9" y1="509.29" x2="505.45" y2="509.43"/>
	<circle class="st7" cx="483.12" cy="507.65" r="21.43"/>
	<circle class="st7" cx="384.88" cy="454.06" r="21.43"/>
	<polyline class="st7" points="327.26,607.68 329.51,552.3 311.65,539.8 311.65,513.01 343.8,513.01 365.23,532.65 	"/>
	<circle class="st7" cx="381.31" cy="545.16" r="21.43"/>
	<circle class="st7" cx="215.19" cy="729.14" r="21.43"/>
	<polyline class="st7" points="266.99,452.27 266.99,486.21 300.93,513.01 299.14,579.1 249.13,579.1 215.19,616.61 215.19,575.52 	
		"/>
	<polyline class="st7" points="231.27,509.43 231.27,477.28 165.17,446.92 124.09,446.92 124.09,561.23 159.82,589.81 
		159.82,620.18 	"/>
	<circle class="st7" cx="156.24" cy="641.61" r="21.43"/>
	<polyline class="st7" points="122.22,488.46 102.6,479.64 100.87,427.27 	"/>
	<circle class="st7" cx="100.87" cy="405.83" r="21.43"/>
	<line class="st7" x1="100.87" y1="625.54" x2="100.87" y2="684.48"/>
	<circle class="st7" cx="100.87" cy="604.1" r="21.43"/>
	<circle class="st7" cx="100.87" cy="704.13" r="21.43"/>
	<circle class="st7" cx="215.19" cy="555.87" r="21.43"/>
</g>
<path class="st8" d="M1688.12,843.06c0,0-9.58,23.96,0,34.97c0,0,13.89,3.35,19.16,1.92s-9.1,1.92,5.27-26.35L1688.12,843.06z"/>
<path class="st8" d="M1674.22,731.43h-13.89c0,0-49.35,51.74-24.91,65.16l13.41-6.23L1674.22,731.43z"/>
<polygon class="st8" points="1686.2,731.43 1780.77,731.43 1822.27,731.43 1848.62,789.4 1823.23,828.69 1782.98,848.33 
	1725.97,848.33 1686.2,829.17 1660.33,789.88 "/>
<polygon class="st8" points="1668.48,699.81 1841.43,699.81 1813.64,721.37 1697.7,721.37 "/>
<path class="st8" d="M1756.15,622.68c0,0-79.05-1.38-79.05,21.08c0,1.92-2.4,50.31-8.62,56.06h172.96c0,0-10.54-40.72-8.14-56.53
	C1833.29,643.28,1831.85,624.59,1756.15,622.68z"/>
<path class="st8" d="M1692.91,693.1l126,0.96c0,0-3.35-18.69-2.87-30.18c0,0,2.4-29.7-58.45-30.66c0,0-53.66-1.92-62.28,26.83
	C1695.31,660.05,1695.78,693.1,1692.91,693.1z"/>
<path class="st8" d="M1733.63,615.97c0.48,0.48,0,7.3,0,7.3l42.64-0.11v-7.19h-12.46c0,0,0.48-6.23-4.31-10.06l-0.48-5.27
	c0,0-3.35,4.31-8.14,0v5.75c0,0-4.79,2.4-4.31,9.58H1733.63z"/>
<circle class="st8" cx="1754.47" cy="594.65" r="6.71"/>
<path class="st8" d="M1835.4,731.43h13.89c0,0,49.35,51.74,24.91,65.16l-13.41-6.23L1835.4,731.43z"/>
<path class="st8" d="M1826.22,843.16c0,0,9.58,23.96,0,34.97c0,0-13.89,3.35-19.16,1.92s9.1,1.92-5.27-26.35L1826.22,843.16z"/>
<path class="st9" d="M1793.04,752.99l-12.46-21.56h41.68l26.35,58.45l-25.39,38.81l-39.05,19.07l-15.81,0.57
	c0,0,30.42-28.75,27.55-37.85c0,0,1.92-16.77-2.87-45.51c0,0-106.36-7.19-106.84-7.67C1685.72,756.83,1793.04,752.99,1793.04,752.99
	z"/>
<path class="st10" d="M1413.48,670.31c0-11.68,26.62-15.33,45.39-16.45c0,0,0.38-5.47,0-5.85h10.39c-0.39-5.77,3.46-7.69,3.46-7.69
	v-4.61c3.83,3.46,6.54,0,6.54,0l0.38,4.23c3.83,3.08,3.46,8.08,3.46,8.08h10v5.75h-6.16c30.13,1.68,42.79,7.02,48.1,11.11V611.9
	h-132.7v81.93h9.32C1412.93,682.61,1413.48,671.14,1413.48,670.31z M1475.98,625.5c2.97,0,5.39,2.41,5.39,5.38
	c0,2.97-2.41,5.39-5.38,5.39s-5.39-2.41-5.39-5.38c0,0,0,0,0,0C1470.6,627.92,1473,625.51,1475.98,625.5z"/>
<path d="M1458.87,653.87L1458.87,653.87c-18.76,1.13-45.39,4.79-45.39,16.45c0,0.82-0.55,12.3-1.83,23.51h16.4
	c0.1-5.57,0.03-10.43,0.03-10.43c6.92-23.08,50-21.56,50-21.56c48.87,0.77,46.92,24.62,46.92,24.62c-0.07,2.45-0.01,4.91,0.18,7.35
	h9.85v-28.91c-5.31-4.08-17.97-9.43-48.1-11.11L1458.87,653.87z"/>
<path d="M1525.02,686.47c0,0,1.92-23.85-46.92-24.62c0,0-43.08-1.54-50,21.56c0,0,0.07,4.86-0.03,10.43h97.13
	C1525,691.39,1524.94,688.93,1525.02,686.47z"/>
<path d="M1486.93,654.56h6.16v-5.77h-10c0,0,0.38-5-3.46-8.08l-0.38-4.23c0,0-2.69,3.46-6.54,0v4.62c0,0-3.83,1.92-3.46,7.69h-10.38
	c0.38,0.38,0,5.85,0,5.86l0,0L1486.93,654.56z"/>
<circle cx="1475.98" cy="632.81" r="5.39"/>
<rect x="1402.33" y="611.9" class="st11" width="132.7" height="81.93"/>
<path class="st10" d="M1415.64,784.71h-34.05l-31.93-15.39l-20.77-31.54l14.79-33.42h-9.46l-14.56,33.81l-10.76,5
	c-12.33-6.77-1.27-25.68,8.65-38.81h-34.05v81.93h65.85c0.5-1.97,1.12-3.91,1.84-5.82l13.48,5.82h51.54v-1.59L1415.64,784.71z"/>
<path d="M1349.36,786.29h15.33l-13.48-5.82C1350.48,782.38,1349.87,784.32,1349.36,786.29z"/>
<path d="M1308.91,743.17l10.77-5l14.55-33.81h-16.7C1307.62,717.49,1296.57,736.4,1308.91,743.17z"/>
<path d="M1349.67,769.33l31.93,15.39h34.05l0.59-0.57v-67.68c-25.21-1.72-66.29-4.58-66.56-4.84s41.2-1.83,66.56-2.76v-4.5h-72.54
	l-14.79,33.42L1349.67,769.33z"/>
<polygon points="1416.23,784.71 1416.23,784.69 1415.64,784.71 "/>
<path class="st12" d="M1416.23,784.69v-0.54l-0.59,0.57L1416.23,784.69z"/>
<path class="st12" d="M1349.67,711.63c0.27,0.26,41.36,3.12,66.56,4.84v-7.61C1390.86,709.79,1349.4,711.36,1349.67,711.63z"/>
<rect x="1283.52" y="704.36" class="st11" width="132.71" height="81.94"/>
<path class="st11" d="M1464.27,802.1c3.93,8.73,4.79,16.9-2.47,20.88l-10.77-5l-6.84-15.88h-9.8l6.87,15.11l-0.11,0.16l0.11,0.23
	l-20.39,31.14l-31.37,15.33l0,0l-0.96,0.48h-32.21v19.48h52.59c-0.19-3.01-1.49-7.73-5.27-15.19l19.62-8.46
	c0,0,5.61,14.07,2.44,23.65h63.33V802.1H1464.27z"/>
<polygon class="st8" points="1388.56,864.52 1389.5,864.06 1376.83,864.52 "/>
<path class="st8" d="M1398.95,834.14c0,0,1.34-11.72-1.61-32.04h-41v62.42h20.48C1376.82,864.52,1401.25,841.44,1398.95,834.14z"/>
<polygon class="st8" points="1441.26,817.21 1434.39,802.1 1434.27,802.1 1441.15,817.37 "/>
<path class="st8" d="M1461.8,822.98c7.24-3.98,6.41-12.15,2.47-20.88h-20.08l6.84,15.88L1461.8,822.98z"/>
<path class="st8" d="M1423.27,860.37l-19.62,8.46c3.79,7.46,5.09,12.18,5.27,15.19h16.77
	C1428.89,874.45,1423.27,860.37,1423.27,860.37z"/>
<path class="st9" d="M1398.95,834.14c2.3,7.31-22.12,30.38-22.12,30.38l12.67-0.48l0,0l31.37-15.33l20.39-31.14l-0.11-0.23
	l-6.88-15.24h-36.93C1400.28,822.41,1398.95,834.14,1398.95,834.14z"/>
<rect x="1356.35" y="802.1" class="st11" width="132.7" height="81.93"/>
<polygon class="st8" points="1554.69,717.78 1554.69,731.67 1518.28,731.67 1518.28,736.94 1588.7,736.94 "/>
<polygon class="st8" points="1518.28,744.13 1554.69,744.13 1554.69,758.02 1588.7,738.86 1518.28,738.86 "/>
</svg>
