<svg xmlns="http://www.w3.org/2000/svg" xmlns:xlink="http://www.w3.org/1999/xlink" width="4200" zoomAndPan="magnify" viewBox="0 0 3150 1349.999938" height="1800" preserveAspectRatio="xMidYMid meet" version="1.0"><defs><g/><clipPath id="d4d59dc940"><path d="M 551 1194 L 1136 1194 L 1136 1282.265625 L 551 1282.265625 Z M 551 1194 " clip-rule="nonzero"/></clipPath><clipPath id="904e2ff94e"><path d="M 692.75 285.535156 L 717.5 285.535156 L 717.5 310.285156 L 692.75 310.285156 Z M 692.75 285.535156 " clip-rule="nonzero"/></clipPath><clipPath id="33a5217301"><path d="M 865.3125 267.476562 L 890.0625 267.476562 L 890.0625 292.226562 L 865.3125 292.226562 Z M 865.3125 267.476562 " clip-rule="nonzero"/></clipPath></defs><g clip-path="url(#d4d59dc940)"><path fill="#000000" d="M 813.984375 1194.199219 C 669.183594 1194.199219 551.929688 1213.910156 551.929688 1238.292969 C 551.929688 1262.679688 669.183594 1282.390625 813.984375 1282.390625 C 958.535156 1282.390625 1135.554688 1262.679688 1135.554688 1238.292969 C 1135.554688 1213.910156 958.535156 1194.199219 813.984375 1194.199219 Z M 813.984375 1194.199219 " fill-opacity="1" fill-rule="nonzero"/></g><path fill="#000000" d="M 1270.5 1006.4375 L 1265.949219 863.785156 C 1276.691406 853.171875 1281.996094 835.988281 1278.082031 818.171875 C 1275.300781 805.914062 1268.730469 795.300781 1259.632812 788.101562 C 1250.664062 781.152344 1240.300781 778.496094 1230.066406 780.140625 L 1099.164062 679.816406 C 1098.027344 662.378906 1096.765625 650.375 1096.765625 649.871094 C 1096.765625 608.171875 931.746094 597.054688 882.34375 594.652344 C 883.101562 594.023438 883.859375 593.265625 884.492188 592.757812 C 896.117188 582.648438 901.296875 572.289062 900.160156 562.179688 C 899.148438 553.589844 893.589844 547.398438 889.292969 543.859375 C 896.746094 534.003906 900.410156 524.527344 899.78125 515.808594 C 899.527344 511.386719 898.261719 507.597656 896.621094 504.4375 C 949.4375 495.464844 992.144531 458.949219 1011.980469 410.9375 L 1038.390625 408.15625 C 1042.683594 407.652344 1045.085938 398.554688 1046.097656 384.90625 L 1060.121094 383.390625 C 1082.738281 380.992188 1069.597656 255.269531 1047.105469 257.671875 L 1033.964844 258.933594 L 1021.457031 139.40625 C 1020.574219 128.917969 1014.632812 118.933594 1004.90625 111.859375 L 980.644531 94.171875 C 980.898438 92.273438 981.152344 90.253906 980.898438 88.230469 C 979.761719 76.734375 969.527344 68.269531 957.902344 69.40625 C 946.402344 70.667969 938.191406 81.03125 939.328125 92.652344 C 940.589844 104.152344 950.828125 112.617188 962.324219 111.480469 C 967.253906 110.976562 971.546875 108.699219 974.707031 105.414062 L 997.449219 122.09375 C 1004.148438 126.894531 1008.316406 133.71875 1008.949219 140.542969 L 1019.058594 238.085938 L 994.292969 240.613281 C 963.210938 195 909.636719 167.328125 852.269531 173.265625 L 716.695312 187.292969 C 659.328125 193.230469 612.453125 231.390625 591.476562 282.4375 L 564.945312 285.214844 C 560.648438 285.59375 558.246094 294.820312 557.238281 308.464844 L 543.210938 309.980469 C 522.109375 312.128906 532.21875 422.5625 552.054688 434.691406 L 558.121094 493.066406 C 558.375 494.835938 559.257812 496.351562 560.648438 497.488281 L 647.074219 564.582031 C 648.210938 565.464844 649.472656 565.84375 650.863281 565.84375 L 651.621094 565.84375 L 666.152344 564.328125 C 667.289062 566.476562 668.804688 568.5 670.703125 570.140625 C 678.410156 576.332031 689.65625 575.320312 695.847656 567.613281 C 701.910156 559.90625 700.648438 548.789062 693.066406 542.597656 C 685.484375 536.53125 674.238281 537.542969 668.046875 545.125 C 666.40625 547.144531 665.394531 549.417969 664.761719 551.820312 L 652.757812 552.957031 L 570.503906 489.148438 L 564.816406 434.816406 L 570.25 434.3125 C 574.042969 447.453125 578.335938 455.917969 582.632812 455.414062 L 609.167969 452.757812 C 636.207031 492.5625 680.683594 518.464844 729.582031 520.609375 C 729.328125 522.507812 729.203125 524.527344 729.328125 526.675781 C 729.707031 535.519531 734.511719 544.367188 742.847656 553.335938 C 738.679688 557.507812 733.75 564.328125 733.625 573.046875 C 733.5 580.628906 737.035156 587.832031 743.988281 594.652344 C 694.707031 597.054688 528.429688 608.171875 528.429688 649.871094 C 528.429688 650.878906 527.671875 666.042969 527.164062 681.585938 L 381.605469 789.238281 C 380.972656 788.859375 380.46875 788.226562 379.710938 787.847656 C 367.453125 780.011719 353.300781 776.601562 339.78125 778.117188 L 285.957031 659.726562 C 292.148438 645.195312 290.882812 626.117188 281.660156 606.152344 C 277.238281 596.550781 269.277344 586.820312 260.179688 588.714844 C 252.347656 590.230469 249.0625 598.824219 247.671875 606.785156 L 241.226562 601.601562 C 241.226562 601.601562 241.101562 601.601562 241.101562 601.476562 C 218.609375 584.546875 199.40625 590.484375 189.800781 600.84375 C 178.175781 613.101562 174.765625 636.476562 191.824219 656.3125 C 203.574219 669.832031 218.359375 678.929688 233.519531 682.46875 L 301.246094 814.761719 C 298.972656 833.839844 309.207031 854.941406 328.789062 867.574219 C 339.152344 874.144531 350.648438 877.558594 362.019531 877.558594 C 364.296875 877.558594 366.570312 877.429688 368.84375 877.179688 C 382.742188 875.410156 394.242188 868.460938 401.191406 857.59375 C 402.960938 854.8125 404.347656 851.90625 405.359375 849 L 527.796875 751.710938 C 532.34375 841.800781 553.191406 972.449219 629.761719 1056.21875 C 677.902344 1108.910156 741.964844 1135.570312 820.050781 1135.570312 C 1057.34375 1135.570312 1096.386719 888.046875 1100.300781 757.144531 L 1197.46875 820.066406 C 1197.089844 825.121094 1197.339844 830.429688 1198.476562 835.734375 C 1201.132812 847.992188 1207.703125 858.730469 1216.925781 865.933594 C 1219.199219 867.703125 1221.601562 869.09375 1224.128906 870.355469 L 1227.285156 993.421875 C 1215.03125 998.605469 1204.417969 1010.734375 1198.097656 1028.042969 C 1194.8125 1036.761719 1193.929688 1047.753906 1200.878906 1052.429688 C 1206.3125 1056.09375 1212.882812 1053.820312 1218.820312 1050.027344 L 1219.453125 1055.210938 L 1219.453125 1055.335938 C 1222.738281 1078.964844 1237.648438 1087.175781 1249.652344 1087.175781 L 1250.535156 1087.175781 C 1265.191406 1086.671875 1281.617188 1074.542969 1283.261719 1052.050781 C 1284.398438 1034.613281 1279.722656 1018.316406 1270.5 1006.4375 Z M 267.507812 664.402344 C 261.570312 669.582031 253.609375 672.109375 244.261719 671.476562 C 229.351562 670.59375 213.304688 661.746094 200.667969 647.214844 C 189.042969 633.824219 191.191406 617.777344 198.898438 609.4375 C 202.816406 605.394531 207.492188 603.371094 212.925781 603.371094 C 219.242188 603.371094 226.191406 606.152344 233.394531 611.585938 L 248.933594 623.96875 C 250.703125 625.359375 253.230469 625.738281 255.378906 624.726562 C 257.652344 623.714844 259.042969 621.566406 259.167969 619.292969 C 259.800781 605.265625 262.328125 601.601562 262.328125 601.097656 C 263.59375 601.601562 267.257812 604.886719 270.164062 611.332031 C 278.25 628.894531 281.785156 651.890625 267.507812 664.402344 Z M 390.578125 850.769531 C 385.648438 858.476562 377.4375 863.28125 367.328125 864.667969 C 356.714844 865.933594 345.46875 863.152344 335.613281 856.960938 C 315.648438 844.074219 307.6875 820.574219 318.050781 804.398438 C 322.851562 796.816406 331.0625 791.890625 341.171875 790.753906 C 342.941406 790.5 344.710938 790.375 346.351562 790.375 C 355.449219 790.375 364.675781 793.152344 372.886719 798.460938 C 387.039062 807.433594 395.125 821.710938 395.125 834.976562 C 395.125 840.535156 393.609375 845.96875 390.578125 850.769531 Z M 876.152344 583.28125 C 869.960938 588.589844 858.589844 600.464844 857.074219 615.375 C 853.40625 603.75 850.628906 591.875 848.605469 580.125 C 862.125 570.898438 872.992188 562.054688 881.207031 553.460938 C 883.734375 555.609375 887.144531 559.148438 887.648438 563.699219 C 888.40625 570.898438 881.835938 578.226562 876.152344 583.28125 Z M 846.457031 566.222656 C 843.804688 546.890625 842.667969 528.066406 842.542969 510.628906 L 882.59375 506.460938 C 884.871094 508.859375 887.019531 512.273438 887.269531 516.695312 C 887.648438 524.527344 882.46875 540.828125 846.457031 566.222656 Z M 626.226562 301.011719 C 622.433594 277.382812 638.480469 252.363281 661.730469 249.835938 L 918.734375 223.175781 C 942.109375 220.777344 962.957031 242.003906 964.09375 265.882812 C 966.367188 311.75 998.714844 431.40625 889.796875 447.453125 L 736.277344 463.375 C 626.226562 470.070312 633.554688 346.371094 626.226562 301.011719 Z M 741.839844 526.042969 C 741.710938 524.023438 742.089844 522.253906 742.597656 520.484375 C 745.503906 520.359375 748.28125 520.359375 751.1875 520.105469 L 787.199219 516.316406 C 788.460938 533.246094 788.839844 551.566406 787.832031 570.519531 C 749.417969 549.546875 742.34375 533.878906 741.839844 526.042969 Z M 786.820312 584.167969 C 785.683594 596.800781 783.789062 609.4375 781.007812 621.945312 C 778.859375 606.40625 765.71875 595.285156 758.894531 590.484375 C 753.082031 586.441406 746.132812 580.125 746.261719 573.300781 C 746.261719 568.5 749.417969 564.457031 752.074219 561.929688 C 761.042969 569.382812 772.667969 576.710938 786.820312 584.167969 Z M 580.484375 628.644531 C 580.234375 629.148438 579.855469 629.78125 579.855469 630.285156 C 579.855469 646.964844 684.09375 660.734375 812.722656 660.734375 C 940.972656 660.734375 1045.339844 646.964844 1045.339844 630.285156 C 1045.339844 629.78125 1044.960938 629.148438 1044.707031 628.515625 C 1071.242188 635.972656 1084.128906 643.804688 1084.128906 649.871094 C 1084.128906 667.9375 978.371094 694.21875 812.722656 694.21875 C 646.820312 694.21875 541.0625 667.9375 541.0625 649.871094 C 541.0625 643.929688 553.824219 635.972656 580.484375 628.644531 Z M 1013.875 1029.179688 C 973.570312 1084.523438 912.414062 1122.933594 820.050781 1122.933594 C 745.628906 1122.933594 684.851562 1097.664062 639.113281 1047.753906 C 630.648438 1038.53125 623.066406 1028.550781 615.863281 1018.0625 C 635.195312 904.722656 623.191406 776.980469 539.671875 703.570312 C 539.671875 688.785156 540.050781 676.65625 540.429688 667.9375 C 571.640625 689.417969 657.8125 700.789062 739.691406 704.960938 C 739.5625 706.097656 739.5625 707.359375 739.5625 708.496094 C 739.5625 852.035156 792.757812 968.53125 814.871094 968.53125 C 836.855469 968.53125 889.925781 852.035156 889.925781 708.496094 L 889.925781 704.707031 C 971.167969 700.410156 1055.824219 688.914062 1085.519531 667.308594 C 1086.277344 676.023438 1087.160156 688.535156 1087.667969 703.824219 C 1001.746094 779.632812 991.890625 913.316406 1013.875 1029.179688 Z M 1224.632812 855.953125 C 1217.808594 850.519531 1212.882812 842.429688 1210.859375 832.957031 C 1206.691406 814.128906 1215.535156 796.058594 1230.699219 792.648438 C 1237.773438 791.132812 1245.355469 793.027344 1251.800781 798.082031 C 1258.75 803.386719 1263.675781 811.476562 1265.699219 820.953125 C 1269.867188 839.90625 1260.898438 857.972656 1245.734375 861.382812 C 1238.660156 862.902344 1231.203125 861.003906 1224.632812 855.953125 Z M 1250.15625 1074.542969 C 1240.554688 1074.921875 1233.855469 1067.085938 1231.960938 1053.695312 L 1230.066406 1037.140625 C 1229.8125 1034.867188 1228.296875 1032.84375 1226.023438 1031.960938 C 1223.875 1031.203125 1221.347656 1031.582031 1219.578125 1033.222656 C 1213.386719 1038.910156 1209.976562 1040.679688 1208.332031 1041.3125 C 1208.207031 1039.542969 1208.460938 1036.382812 1209.976562 1032.464844 C 1215.410156 1017.683594 1226.90625 1002.269531 1241.945312 1003.152344 C 1248.386719 1003.53125 1254.328125 1006.816406 1259.378906 1012.503906 C 1267.46875 1021.726562 1271.636719 1036.128906 1270.625 1052.050781 C 1269.488281 1066.203125 1259.253906 1074.289062 1250.15625 1074.542969 Z M 1250.15625 1074.542969 " fill-opacity="1" fill-rule="nonzero"/><path fill="#000000" d="M 907.359375 714.308594 C 902.054688 714.308594 897.757812 718.605469 897.757812 723.914062 C 897.757812 729.21875 902.054688 733.515625 907.359375 733.515625 C 912.542969 733.515625 916.964844 729.21875 916.964844 723.914062 C 916.964844 718.605469 912.542969 714.308594 907.359375 714.308594 Z M 907.359375 728.964844 C 904.074219 728.964844 901.421875 726.3125 901.421875 723.027344 C 901.421875 719.742188 904.074219 717.089844 907.359375 717.089844 C 910.519531 717.089844 913.300781 719.742188 913.300781 723.027344 C 913.300781 726.3125 910.519531 728.964844 907.359375 728.964844 Z M 907.359375 728.964844 " fill-opacity="1" fill-rule="nonzero"/><path fill="#000000" d="M 731.984375 723.914062 C 731.984375 718.605469 727.558594 714.308594 722.378906 714.308594 C 717.074219 714.308594 712.777344 718.605469 712.777344 723.914062 C 712.777344 729.21875 717.074219 733.515625 722.378906 733.515625 C 727.558594 733.640625 731.984375 729.347656 731.984375 723.914062 Z M 722.378906 728.964844 C 719.09375 728.964844 716.441406 726.3125 716.441406 723.027344 C 716.441406 719.742188 719.09375 717.089844 722.378906 717.089844 C 725.539062 717.089844 728.320312 719.742188 728.320312 723.027344 C 728.320312 726.3125 725.539062 728.964844 722.378906 728.964844 Z M 722.378906 728.964844 " fill-opacity="1" fill-rule="nonzero"/><path fill="#000000" d="M 561.40625 688.15625 C 556.097656 688.15625 551.804688 692.449219 551.804688 697.757812 C 551.804688 703.0625 556.097656 707.359375 561.40625 707.359375 C 566.585938 707.359375 571.007812 703.0625 571.007812 697.757812 C 571.007812 692.449219 566.714844 688.15625 561.40625 688.15625 Z M 561.40625 702.8125 C 558.121094 702.8125 555.46875 700.160156 555.46875 696.875 C 555.46875 693.589844 558.121094 690.933594 561.40625 690.933594 C 564.566406 690.933594 567.34375 693.589844 567.34375 696.875 C 567.34375 700.160156 564.566406 702.8125 561.40625 702.8125 Z M 561.40625 702.8125 " fill-opacity="1" fill-rule="nonzero"/><path fill="#000000" d="M 738.679688 834.597656 C 733.371094 834.597656 729.078125 838.894531 729.078125 844.199219 C 729.078125 849.507812 733.371094 853.804688 738.679688 853.804688 C 743.859375 853.804688 748.28125 849.507812 748.28125 844.199219 C 748.28125 838.894531 743.984375 834.597656 738.679688 834.597656 Z M 738.679688 849.128906 C 735.394531 849.128906 732.742188 846.476562 732.742188 843.191406 C 732.742188 839.90625 735.394531 837.25 738.679688 837.25 C 741.839844 837.25 744.617188 839.90625 744.617188 843.191406 C 744.617188 846.601562 741.839844 849.128906 738.679688 849.128906 Z M 738.679688 849.128906 " fill-opacity="1" fill-rule="nonzero"/><path fill="#000000" d="M 889.039062 834.597656 C 883.734375 834.597656 879.4375 838.894531 879.4375 844.199219 C 879.4375 849.507812 883.734375 853.804688 889.039062 853.804688 C 894.21875 853.804688 898.640625 849.507812 898.640625 844.199219 C 898.640625 838.894531 894.347656 834.597656 889.039062 834.597656 Z M 889.039062 849.128906 C 885.753906 849.128906 883.101562 846.476562 883.101562 843.191406 C 883.101562 839.90625 885.753906 837.25 889.039062 837.25 C 892.199219 837.25 894.976562 839.90625 894.976562 843.191406 C 894.976562 846.601562 892.199219 849.128906 889.039062 849.128906 Z M 889.039062 849.128906 " fill-opacity="1" fill-rule="nonzero"/><path fill="#000000" d="M 813.859375 980.03125 C 808.554688 980.03125 804.257812 984.324219 804.257812 989.632812 C 804.257812 994.9375 808.554688 999.234375 813.859375 999.234375 C 819.039062 999.234375 823.460938 994.941406 823.460938 989.632812 C 823.460938 984.324219 819.167969 980.03125 813.859375 980.03125 Z M 813.859375 994.558594 C 810.574219 994.558594 807.921875 991.90625 807.921875 988.621094 C 807.921875 985.335938 810.574219 982.683594 813.859375 982.683594 C 817.019531 982.683594 819.796875 985.335938 819.796875 988.621094 C 819.796875 992.035156 817.019531 994.558594 813.859375 994.558594 Z M 813.859375 994.558594 " fill-opacity="1" fill-rule="nonzero"/><path fill="#000000" d="M 1072.25 704.203125 C 1077.433594 704.203125 1081.855469 699.90625 1081.855469 694.597656 C 1081.855469 689.292969 1077.433594 684.996094 1072.25 684.996094 C 1066.945312 684.996094 1062.648438 689.292969 1062.648438 694.597656 C 1062.648438 699.90625 1066.945312 704.203125 1072.25 704.203125 Z M 1072.25 687.648438 C 1075.410156 687.648438 1078.191406 690.304688 1078.191406 693.589844 C 1078.191406 696.875 1075.410156 699.527344 1072.25 699.527344 C 1068.964844 699.527344 1066.3125 696.875 1066.3125 693.589844 C 1066.3125 690.304688 1068.964844 687.648438 1072.25 687.648438 Z M 1072.25 687.648438 " fill-opacity="1" fill-rule="nonzero"/><path fill="#000000" d="M 638.101562 1007.574219 C 632.796875 1007.574219 628.5 1011.871094 628.5 1017.175781 C 628.5 1022.484375 632.796875 1026.78125 638.101562 1026.78125 C 643.28125 1026.78125 647.707031 1022.484375 647.707031 1017.175781 C 647.707031 1011.871094 643.28125 1007.574219 638.101562 1007.574219 Z M 638.101562 1022.105469 C 634.816406 1022.105469 632.164062 1019.453125 632.164062 1016.167969 C 632.164062 1012.882812 634.816406 1010.226562 638.101562 1010.226562 C 641.261719 1010.226562 644.042969 1012.882812 644.042969 1016.167969 C 644.042969 1019.453125 641.261719 1022.105469 638.101562 1022.105469 Z M 638.101562 1022.105469 " fill-opacity="1" fill-rule="nonzero"/><path fill="#000000" d="M 994.164062 1014.144531 C 988.859375 1014.144531 984.5625 1018.441406 984.5625 1023.746094 C 984.5625 1029.054688 988.859375 1033.351562 994.164062 1033.351562 C 999.347656 1033.351562 1003.769531 1029.054688 1003.769531 1023.746094 C 1003.769531 1018.441406 999.347656 1014.144531 994.164062 1014.144531 Z M 994.164062 1028.800781 C 990.878906 1028.800781 988.226562 1026.148438 988.226562 1022.863281 C 988.226562 1019.578125 990.878906 1016.925781 994.164062 1016.925781 C 997.324219 1016.925781 1000.105469 1019.578125 1000.105469 1022.863281 C 1000.105469 1026.148438 997.324219 1028.800781 994.164062 1028.800781 Z M 994.164062 1028.800781 " fill-opacity="1" fill-rule="nonzero"/><path fill="#000000" d="M 813.859375 1089.703125 C 808.554688 1089.703125 804.257812 1094 804.257812 1099.308594 C 804.257812 1104.613281 808.554688 1108.910156 813.859375 1108.910156 C 819.039062 1108.910156 823.460938 1104.613281 823.460938 1099.308594 C 823.460938 1093.875 819.167969 1089.703125 813.859375 1089.703125 Z M 813.859375 1104.234375 C 810.574219 1104.234375 807.921875 1101.582031 807.921875 1098.296875 C 807.921875 1095.011719 810.574219 1092.355469 813.859375 1092.355469 C 817.019531 1092.355469 819.796875 1095.011719 819.796875 1098.296875 C 819.796875 1101.582031 817.019531 1104.234375 813.859375 1104.234375 Z M 813.859375 1104.234375 " fill-opacity="1" fill-rule="nonzero"/><path fill="#000000" d="M 745.503906 305.8125 C 743.480469 286.101562 726.042969 271.695312 706.460938 273.71875 C 686.875 275.738281 672.722656 293.429688 674.746094 313.140625 C 676.765625 332.597656 694.203125 347.128906 713.789062 345.105469 C 733.371094 343.085938 747.523438 325.269531 745.503906 305.8125 Z M 745.503906 305.8125 " fill-opacity="1" fill-rule="nonzero"/><path fill="#000000" d="M 887.523438 327.039062 C 906.980469 325.015625 921.132812 307.203125 919.113281 287.742188 C 917.089844 268.03125 899.652344 253.628906 880.070312 255.648438 C 860.484375 257.671875 846.332031 275.359375 848.355469 295.070312 C 850.503906 314.65625 867.9375 329.1875 887.523438 327.039062 Z M 887.523438 327.039062 " fill-opacity="1" fill-rule="nonzero"/><path fill="#000000" d="M 809.5625 420.917969 C 823.082031 419.527344 832.8125 407.273438 831.421875 393.753906 C 830.03125 380.105469 817.902344 370.125 804.507812 371.515625 C 790.988281 372.90625 781.132812 385.160156 782.648438 398.808594 C 783.914062 412.199219 796.042969 422.308594 809.5625 420.917969 Z M 809.5625 420.917969 " fill-opacity="1" fill-rule="nonzero"/><path fill="#000000" d="M 408.011719 290.523438 C 412.308594 233.664062 372.128906 183.375 318.175781 178.449219 L 311.605469 178.070312 C 257.78125 176.679688 211.785156 222.039062 209.511719 279.023438 C 208.753906 298.988281 213.429688 318.574219 222.78125 335.378906 C 241.984375 370.25 254.621094 402.09375 254.367188 441.765625 C 252.472656 442.398438 250.832031 443.535156 249.441406 445.050781 C 246.785156 447.957031 245.523438 451.75 246.15625 455.664062 L 250.832031 487 C 251.589844 492.183594 255.632812 496.097656 260.558594 497.363281 L 261.316406 502.796875 C 261.695312 505.070312 263.59375 506.839844 265.867188 506.964844 L 322.472656 510.25 C 324.746094 510.375 326.894531 508.859375 327.527344 506.585938 L 328.917969 501.277344 C 333.96875 500.648438 338.519531 497.234375 339.78125 492.183594 L 348.25 461.605469 C 349.257812 457.8125 348.5 454.023438 346.226562 450.738281 C 345.722656 449.980469 344.964844 449.601562 344.332031 449.09375 C 348.375 408.410156 364.800781 377.957031 388.175781 345.105469 C 399.546875 329.566406 406.371094 310.738281 408.011719 290.523438 Z M 277.996094 323.628906 C 286.210938 324.007812 289.113281 315.917969 291.515625 309.980469 C 291.769531 309.347656 292.019531 308.589844 292.398438 307.832031 C 292.652344 308.589844 292.90625 309.347656 293.03125 310.105469 C 294.675781 316.296875 296.949219 324.765625 304.910156 325.144531 C 312.617188 325.648438 316.027344 317.4375 318.429688 311.496094 C 318.683594 310.867188 318.933594 310.105469 319.3125 309.347656 C 319.566406 310.105469 319.820312 310.992188 319.945312 311.625 C 321.585938 317.816406 323.988281 326.28125 331.824219 326.660156 C 332.582031 326.660156 333.339844 326.660156 333.96875 326.535156 L 305.035156 443.410156 L 291.136719 442.652344 L 275.847656 323.121094 C 276.480469 323.5 277.238281 323.628906 277.996094 323.628906 Z M 332.074219 445.179688 L 317.921875 444.292969 L 353.050781 302.652344 C 353.554688 300.882812 353.175781 298.863281 352.039062 297.347656 C 350.902344 295.828125 349.132812 294.945312 347.363281 294.820312 C 342.941406 294.691406 339.910156 297.21875 337.632812 300.632812 L 329.421875 300.125 C 327.652344 296.460938 325 293.554688 320.449219 293.300781 C 315.902344 293.050781 312.871094 295.703125 310.722656 299.113281 L 302.507812 298.609375 C 300.738281 294.945312 298.085938 292.039062 293.539062 291.785156 C 288.734375 291.535156 285.828125 294.1875 283.683594 297.597656 L 275.59375 297.09375 C 273.828125 293.429688 271.171875 290.523438 266.625 290.269531 C 264.730469 290.144531 262.960938 290.902344 261.695312 292.292969 C 260.433594 293.679688 259.800781 295.578125 260.054688 297.34375 L 278.5 442.144531 L 267.128906 441.515625 C 267.382812 399.4375 254.117188 365.957031 234.023438 329.4375 C 225.6875 314.53125 221.644531 297.34375 222.402344 279.65625 C 224.421875 229.621094 264.601562 189.945312 311.351562 190.832031 L 317.417969 191.210938 C 364.296875 195.503906 399.421875 239.730469 395.632812 289.765625 C 394.242188 307.582031 388.175781 324.257812 378.195312 337.90625 C 353.933594 371.515625 336.875 403.101562 332.074219 445.179688 Z M 332.074219 445.179688 " fill-opacity="1" fill-rule="nonzero"/><path fill="#000000" d="M 316.15625 156.839844 C 316.28125 156.839844 316.40625 156.839844 316.535156 156.839844 C 319.820312 156.839844 322.597656 154.1875 322.851562 150.902344 L 325.503906 105.542969 C 325.757812 102.003906 323.105469 99.097656 319.566406 98.84375 C 316.15625 98.71875 313.121094 101.246094 312.871094 104.785156 L 310.214844 150.144531 C 309.964844 153.554688 312.617188 156.589844 316.15625 156.839844 Z M 316.15625 156.839844 " fill-opacity="1" fill-rule="nonzero"/><path fill="#000000" d="M 248.933594 166.191406 C 250.070312 168.339844 252.21875 169.730469 254.621094 169.730469 C 255.632812 169.730469 256.515625 169.476562 257.402344 169.097656 C 260.558594 167.582031 261.824219 163.789062 260.179688 160.632812 L 239.835938 119.820312 C 238.320312 116.660156 234.53125 115.523438 231.371094 117.039062 C 228.214844 118.554688 226.949219 122.347656 228.59375 125.507812 Z M 248.933594 166.191406 " fill-opacity="1" fill-rule="nonzero"/><path fill="#000000" d="M 165.921875 185.648438 L 203.828125 210.667969 C 204.835938 211.425781 206.101562 211.679688 207.238281 211.679688 C 209.261719 211.679688 211.28125 210.667969 212.546875 208.773438 C 214.441406 205.867188 213.683594 201.949219 210.777344 200.054688 L 172.871094 175.035156 C 169.964844 173.140625 166.046875 173.898438 164.152344 176.804688 C 162.128906 179.835938 163.015625 183.753906 165.921875 185.648438 Z M 165.921875 185.648438 " fill-opacity="1" fill-rule="nonzero"/><path fill="#000000" d="M 187.402344 271.695312 C 190.6875 271.695312 193.464844 269.042969 193.71875 265.757812 C 193.972656 262.21875 191.316406 259.3125 187.78125 259.0625 L 142.417969 256.40625 C 139.007812 256.28125 135.976562 258.808594 135.722656 262.347656 C 135.46875 265.882812 138.125 268.789062 141.660156 269.042969 L 187.023438 271.695312 C 187.148438 271.695312 187.273438 271.695312 187.402344 271.695312 Z M 187.402344 271.695312 " fill-opacity="1" fill-rule="nonzero"/><path fill="#000000" d="M 425.199219 279.277344 C 424.945312 282.816406 427.597656 285.722656 431.136719 285.972656 L 476.496094 288.628906 C 476.625 288.628906 476.75 288.628906 476.875 288.628906 C 480.160156 288.628906 482.941406 285.972656 483.195312 282.6875 C 483.445312 279.152344 480.792969 276.246094 477.253906 275.992188 L 431.894531 273.339844 C 428.355469 273.085938 425.324219 275.738281 425.199219 279.277344 Z M 425.199219 279.277344 " fill-opacity="1" fill-rule="nonzero"/><path fill="#000000" d="M 418.628906 223.933594 C 419.636719 223.933594 420.523438 223.683594 421.40625 223.304688 L 461.964844 202.960938 C 465.125 201.445312 466.386719 197.652344 464.746094 194.496094 C 463.230469 191.335938 459.4375 190.070312 456.28125 191.714844 L 415.722656 212.058594 C 412.5625 213.574219 411.296875 217.363281 412.941406 220.523438 C 414.078125 222.671875 416.351562 223.933594 418.628906 223.933594 Z M 418.628906 223.933594 " fill-opacity="1" fill-rule="nonzero"/><path fill="#000000" d="M 373.140625 175.667969 C 374.152344 176.425781 375.414062 176.679688 376.550781 176.679688 C 378.574219 176.679688 380.59375 175.667969 381.859375 173.773438 L 406.875 135.867188 C 408.773438 132.960938 408.011719 129.042969 405.105469 127.148438 C 402.203125 125.253906 398.285156 126.011719 396.390625 128.917969 L 371.371094 166.824219 C 369.347656 169.855469 370.234375 173.773438 373.140625 175.667969 Z M 373.140625 175.667969 " fill-opacity="1" fill-rule="nonzero"/><g clip-path="url(#904e2ff94e)"><path fill="#ffffff" d="M 717.5 297.910156 C 717.5 298.722656 717.421875 299.527344 717.261719 300.324219 C 717.105469 301.121094 716.871094 301.894531 716.558594 302.644531 C 716.246094 303.394531 715.867188 304.109375 715.414062 304.785156 C 714.964844 305.460938 714.449219 306.085938 713.875 306.660156 C 713.300781 307.234375 712.675781 307.746094 712 308.199219 C 711.324219 308.648438 710.613281 309.03125 709.859375 309.34375 C 709.109375 309.652344 708.335938 309.886719 707.539062 310.046875 C 706.742188 310.203125 705.9375 310.285156 705.125 310.285156 C 704.3125 310.285156 703.507812 310.203125 702.710938 310.046875 C 701.914062 309.886719 701.140625 309.652344 700.390625 309.34375 C 699.640625 309.03125 698.925781 308.648438 698.25 308.199219 C 697.574219 307.746094 696.949219 307.234375 696.375 306.660156 C 695.800781 306.085938 695.289062 305.460938 694.835938 304.785156 C 694.382812 304.109375 694.003906 303.394531 693.691406 302.644531 C 693.382812 301.894531 693.148438 301.121094 692.988281 300.324219 C 692.828125 299.527344 692.75 298.722656 692.75 297.910156 C 692.75 297.097656 692.828125 296.292969 692.988281 295.496094 C 693.148438 294.699219 693.382812 293.925781 693.691406 293.171875 C 694.003906 292.421875 694.382812 291.710938 694.835938 291.035156 C 695.289062 290.359375 695.800781 289.734375 696.375 289.160156 C 696.949219 288.585938 697.574219 288.070312 698.25 287.621094 C 698.925781 287.167969 699.640625 286.789062 700.390625 286.476562 C 701.140625 286.164062 701.914062 285.929688 702.710938 285.773438 C 703.507812 285.613281 704.3125 285.535156 705.125 285.535156 C 705.9375 285.535156 706.742188 285.613281 707.539062 285.773438 C 708.335938 285.929688 709.109375 286.164062 709.859375 286.476562 C 710.613281 286.789062 711.324219 287.167969 712 287.621094 C 712.675781 288.070312 713.300781 288.585938 713.875 289.160156 C 714.449219 289.734375 714.964844 290.359375 715.414062 291.035156 C 715.867188 291.710938 716.246094 292.421875 716.558594 293.171875 C 716.871094 293.925781 717.105469 294.699219 717.261719 295.496094 C 717.421875 296.292969 717.5 297.097656 717.5 297.910156 Z M 717.5 297.910156 " fill-opacity="1" fill-rule="nonzero"/></g><g fill="#000000" fill-opacity="1"><g transform="translate(1532.027746, 470.007976)"><g><path d="M 107.261719 0 L 125.089844 0 L 75.605469 -134.242188 L 55.203125 -134.242188 L 5.71875 0 L 23.550781 0 L 34.992188 -32.128906 L 95.722656 -32.128906 Z M 40.425781 -47.195312 L 65.40625 -117.082031 L 90.386719 -47.195312 Z M 40.425781 -47.195312 "/></g></g><g transform="translate(1662.83836, 470.007976)"><g><path d="M 113.648438 0 L 80.183594 -53.964844 C 87.046875 -55.585938 92.578125 -58.351562 97.058594 -62.164062 C 106.210938 -69.21875 110.691406 -80.753906 110.691406 -95.246094 C 110.691406 -109.738281 105.925781 -120.035156 96.296875 -126.234375 C 88.476562 -131.667969 77.417969 -134.242188 62.355469 -134.242188 L 21.070312 -134.242188 L 21.070312 0 L 38.136719 0 L 38.136719 -52.152344 L 63.5 -52.152344 L 93.722656 0 Z M 38.136719 -119.464844 L 60.160156 -119.464844 C 71.886719 -119.464844 80.375 -118.226562 86.09375 -113.554688 C 90.574219 -109.835938 93.246094 -103.734375 93.246094 -94.582031 C 93.246094 -85.046875 90.765625 -78.65625 86.378906 -74.367188 C 80.945312 -68.835938 72.175781 -67.027344 60.160156 -67.027344 L 38.136719 -67.027344 Z M 38.136719 -119.464844 "/></g></g><g transform="translate(1787.070306, 470.007976)"><g><path d="M 91.242188 -134.242188 L 5.339844 -134.242188 L 5.339844 -118.703125 L 39.851562 -118.703125 L 39.851562 0 L 56.824219 0 L 56.824219 -118.703125 L 91.242188 -118.703125 Z M 91.242188 -134.242188 "/></g></g><g transform="translate(1883.652778, 470.007976)"><g><path d="M 21.070312 0 L 38.136719 0 L 38.136719 -134.242188 L 21.070312 -134.242188 Z M 21.070312 0 "/></g></g><g transform="translate(1942.860789, 470.007976)"><g><path d="M 93.625 -118.703125 L 93.625 -134.242188 L 21.070312 -134.242188 L 21.070312 0 L 38.519531 0 L 38.519531 -59.398438 L 86.570312 -59.398438 L 86.570312 -74.84375 L 38.519531 -74.84375 L 38.519531 -118.703125 Z M 93.625 -118.703125 "/></g></g><g transform="translate(2044.210411, 470.007976)"><g><path d="M 21.070312 0 L 38.136719 0 L 38.136719 -134.242188 L 21.070312 -134.242188 Z M 21.070312 0 "/></g></g><g transform="translate(2103.418422, 470.007976)"><g><path d="M 78.5625 1.8125 C 105.066406 1.8125 127.378906 -11.25 137.867188 -33.847656 L 122.132812 -40.234375 C 113.933594 -23.644531 97.726562 -14.492188 78.5625 -14.492188 C 50.722656 -14.492188 28.699219 -33.5625 28.699219 -67.21875 C 28.699219 -100.683594 50.722656 -119.75 78.5625 -119.75 C 97.726562 -119.75 113.933594 -110.503906 122.132812 -93.914062 L 137.867188 -100.394531 C 127.378906 -122.898438 105.066406 -136.054688 78.5625 -136.054688 C 40.710938 -136.054688 11.726562 -110.027344 11.726562 -67.21875 C 11.726562 -24.21875 40.710938 1.8125 78.5625 1.8125 Z M 78.5625 1.8125 "/></g></g><g transform="translate(2249.483918, 470.007976)"><g><path d="M 21.070312 0 L 38.136719 0 L 38.136719 -134.242188 L 21.070312 -134.242188 Z M 21.070312 0 "/></g></g><g transform="translate(2308.691929, 470.007976)"><g><path d="M 107.261719 0 L 125.089844 0 L 75.605469 -134.242188 L 55.203125 -134.242188 L 5.71875 0 L 23.550781 0 L 34.992188 -32.128906 L 95.722656 -32.128906 Z M 40.425781 -47.195312 L 65.40625 -117.082031 L 90.386719 -47.195312 Z M 40.425781 -47.195312 "/></g></g><g transform="translate(2439.502543, 470.007976)"><g><path d="M 38.136719 -15.539062 L 38.136719 -134.242188 L 21.070312 -134.242188 L 21.070312 0 L 84.761719 0 L 84.761719 -15.539062 Z M 38.136719 -15.539062 "/></g></g></g><g fill="#000000" fill-opacity="1"><g transform="translate(1532.027746, 743.007952)"><g><path d="M 78.085938 1.8125 C 101.0625 1.8125 118.035156 -8.007812 126.902344 -25.171875 L 126.902344 0 L 140.917969 0 L 140.917969 -68.457031 L 78.945312 -68.457031 L 78.945312 -53.964844 L 124.230469 -53.964844 C 121.277344 -27.457031 102.96875 -13.730469 79.039062 -13.730469 C 50.246094 -13.730469 28.890625 -33.085938 28.890625 -67.027344 C 28.890625 -101.351562 50.628906 -120.324219 78.5625 -120.324219 C 96.105469 -120.324219 111.742188 -112.789062 120.703125 -96.867188 L 135.578125 -104.78125 C 123.945312 -125.375 102.875 -136.054688 78.5625 -136.054688 C 40.710938 -136.054688 11.726562 -110.121094 11.726562 -66.738281 C 11.726562 -23.644531 40.617188 1.8125 78.085938 1.8125 Z M 78.085938 1.8125 "/></g></g><g transform="translate(1687.436857, 743.007952)"><g><path d="M 93.054688 -118.703125 L 93.054688 -134.242188 L 21.070312 -134.242188 L 21.070312 0 L 93.054688 0 L 93.054688 -15.539062 L 38.519531 -15.539062 L 38.519531 -59.398438 L 86.570312 -59.398438 L 86.570312 -74.75 L 38.519531 -74.75 L 38.519531 -118.703125 Z M 93.054688 -118.703125 "/></g></g><g transform="translate(1792.123485, 743.007952)"><g><path d="M 111.265625 -134.242188 L 111.265625 -26.125 L 38.898438 -134.242188 L 21.070312 -134.242188 L 21.070312 0 L 37.851562 0 L 37.851562 -108.59375 L 110.214844 0 L 128.238281 0 L 128.238281 -134.242188 Z M 111.265625 -134.242188 "/></g></g><g transform="translate(1941.430643, 743.007952)"><g><path d="M 93.054688 -118.703125 L 93.054688 -134.242188 L 21.070312 -134.242188 L 21.070312 0 L 93.054688 0 L 93.054688 -15.539062 L 38.519531 -15.539062 L 38.519531 -59.398438 L 86.570312 -59.398438 L 86.570312 -74.75 L 38.519531 -74.75 L 38.519531 -118.703125 Z M 93.054688 -118.703125 "/></g></g><g transform="translate(2046.117272, 743.007952)"><g><path d="M 113.648438 0 L 80.183594 -53.964844 C 87.046875 -55.585938 92.578125 -58.351562 97.058594 -62.164062 C 106.210938 -69.21875 110.691406 -80.753906 110.691406 -95.246094 C 110.691406 -109.738281 105.925781 -120.035156 96.296875 -126.234375 C 88.476562 -131.667969 77.417969 -134.242188 62.355469 -134.242188 L 21.070312 -134.242188 L 21.070312 0 L 38.136719 0 L 38.136719 -52.152344 L 63.5 -52.152344 L 93.722656 0 Z M 38.136719 -119.464844 L 60.160156 -119.464844 C 71.886719 -119.464844 80.375 -118.226562 86.09375 -113.554688 C 90.574219 -109.835938 93.246094 -103.734375 93.246094 -94.582031 C 93.246094 -85.046875 90.765625 -78.65625 86.378906 -74.367188 C 80.945312 -68.835938 72.175781 -67.027344 60.160156 -67.027344 L 38.136719 -67.027344 Z M 38.136719 -119.464844 "/></g></g><g transform="translate(2170.349217, 743.007952)"><g><path d="M 107.261719 0 L 125.089844 0 L 75.605469 -134.242188 L 55.203125 -134.242188 L 5.71875 0 L 23.550781 0 L 34.992188 -32.128906 L 95.722656 -32.128906 Z M 40.425781 -47.195312 L 65.40625 -117.082031 L 90.386719 -47.195312 Z M 40.425781 -47.195312 "/></g></g><g transform="translate(2301.159831, 743.007952)"><g><path d="M 38.136719 -15.539062 L 38.136719 -134.242188 L 21.070312 -134.242188 L 21.070312 0 L 84.761719 0 L 84.761719 -15.539062 Z M 38.136719 -15.539062 "/></g></g></g><g fill="#000000" fill-opacity="1"><g transform="translate(1532.027746, 1016.007928)"><g><path d="M 21.070312 0 L 38.136719 0 L 38.136719 -134.242188 L 21.070312 -134.242188 Z M 21.070312 0 "/></g></g></g><g fill="#000000" fill-opacity="1"><g transform="translate(1591.235753, 1016.007928)"><g><path d="M 111.265625 -134.242188 L 111.265625 -26.125 L 38.898438 -134.242188 L 21.070312 -134.242188 L 21.070312 0 L 37.851562 0 L 37.851562 -108.59375 L 110.214844 0 L 128.238281 0 L 128.238281 -134.242188 Z M 111.265625 -134.242188 "/></g></g></g><g fill="#000000" fill-opacity="1"><g transform="translate(1740.542927, 1016.007928)"><g><path d="M 91.242188 -134.242188 L 5.339844 -134.242188 L 5.339844 -118.703125 L 39.851562 -118.703125 L 39.851562 0 L 56.824219 0 L 56.824219 -118.703125 L 91.242188 -118.703125 Z M 91.242188 -134.242188 "/></g></g><g transform="translate(1837.125399, 1016.007928)"><g><path d="M 93.054688 -118.703125 L 93.054688 -134.242188 L 21.070312 -134.242188 L 21.070312 0 L 93.054688 0 L 93.054688 -15.539062 L 38.519531 -15.539062 L 38.519531 -59.398438 L 86.570312 -59.398438 L 86.570312 -74.75 L 38.519531 -74.75 L 38.519531 -118.703125 Z M 93.054688 -118.703125 "/></g></g><g transform="translate(1941.812028, 1016.007928)"><g><path d="M 38.136719 -15.539062 L 38.136719 -134.242188 L 21.070312 -134.242188 L 21.070312 0 L 84.761719 0 L 84.761719 -15.539062 Z M 38.136719 -15.539062 "/></g></g><g transform="translate(2032.006518, 1016.007928)"><g><path d="M 38.136719 -15.539062 L 38.136719 -134.242188 L 21.070312 -134.242188 L 21.070312 0 L 84.761719 0 L 84.761719 -15.539062 Z M 38.136719 -15.539062 "/></g></g><g transform="translate(2122.201008, 1016.007928)"><g><path d="M 21.070312 0 L 38.136719 0 L 38.136719 -134.242188 L 21.070312 -134.242188 Z M 21.070312 0 "/></g></g><g transform="translate(2181.409019, 1016.007928)"><g><path d="M 78.085938 1.8125 C 101.0625 1.8125 118.035156 -8.007812 126.902344 -25.171875 L 126.902344 0 L 140.917969 0 L 140.917969 -68.457031 L 78.945312 -68.457031 L 78.945312 -53.964844 L 124.230469 -53.964844 C 121.277344 -27.457031 102.96875 -13.730469 79.039062 -13.730469 C 50.246094 -13.730469 28.890625 -33.085938 28.890625 -67.027344 C 28.890625 -101.351562 50.628906 -120.324219 78.5625 -120.324219 C 96.105469 -120.324219 111.742188 -112.789062 120.703125 -96.867188 L 135.578125 -104.78125 C 123.945312 -125.375 102.875 -136.054688 78.5625 -136.054688 C 40.710938 -136.054688 11.726562 -110.121094 11.726562 -66.738281 C 11.726562 -23.644531 40.617188 1.8125 78.085938 1.8125 Z M 78.085938 1.8125 "/></g></g><g transform="translate(2336.81813, 1016.007928)"><g><path d="M 93.054688 -118.703125 L 93.054688 -134.242188 L 21.070312 -134.242188 L 21.070312 0 L 93.054688 0 L 93.054688 -15.539062 L 38.519531 -15.539062 L 38.519531 -59.398438 L 86.570312 -59.398438 L 86.570312 -74.75 L 38.519531 -74.75 L 38.519531 -118.703125 Z M 93.054688 -118.703125 "/></g></g><g transform="translate(2441.504758, 1016.007928)"><g><path d="M 111.265625 -134.242188 L 111.265625 -26.125 L 38.898438 -134.242188 L 21.070312 -134.242188 L 21.070312 0 L 37.851562 0 L 37.851562 -108.59375 L 110.214844 0 L 128.238281 0 L 128.238281 -134.242188 Z M 111.265625 -134.242188 "/></g></g><g transform="translate(2590.811916, 1016.007928)"><g><path d="M 78.5625 1.8125 C 105.066406 1.8125 127.378906 -11.25 137.867188 -33.847656 L 122.132812 -40.234375 C 113.933594 -23.644531 97.726562 -14.492188 78.5625 -14.492188 C 50.722656 -14.492188 28.699219 -33.5625 28.699219 -67.21875 C 28.699219 -100.683594 50.722656 -119.75 78.5625 -119.75 C 97.726562 -119.75 113.933594 -110.503906 122.132812 -93.914062 L 137.867188 -100.394531 C 127.378906 -122.898438 105.066406 -136.054688 78.5625 -136.054688 C 40.710938 -136.054688 11.726562 -110.027344 11.726562 -67.21875 C 11.726562 -24.21875 40.710938 1.8125 78.5625 1.8125 Z M 78.5625 1.8125 "/></g></g><g transform="translate(2736.877412, 1016.007928)"><g><path d="M 93.054688 -118.703125 L 93.054688 -134.242188 L 21.070312 -134.242188 L 21.070312 0 L 93.054688 0 L 93.054688 -15.539062 L 38.519531 -15.539062 L 38.519531 -59.398438 L 86.570312 -59.398438 L 86.570312 -74.75 L 38.519531 -74.75 L 38.519531 -118.703125 Z M 93.054688 -118.703125 "/></g></g></g><g clip-path="url(#33a5217301)"><path fill="#ffffff" d="M 890.0625 279.851562 C 890.0625 280.664062 889.984375 281.46875 889.824219 282.265625 C 889.667969 283.0625 889.433594 283.835938 889.121094 284.589844 C 888.808594 285.339844 888.429688 286.050781 887.976562 286.726562 C 887.527344 287.402344 887.011719 288.027344 886.4375 288.601562 C 885.863281 289.175781 885.238281 289.691406 884.5625 290.140625 C 883.886719 290.59375 883.175781 290.976562 882.421875 291.285156 C 881.671875 291.597656 880.898438 291.832031 880.101562 291.988281 C 879.304688 292.148438 878.5 292.226562 877.6875 292.226562 C 876.875 292.226562 876.070312 292.148438 875.273438 291.988281 C 874.476562 291.832031 873.703125 291.597656 872.953125 291.285156 C 872.203125 290.976562 871.488281 290.59375 870.8125 290.140625 C 870.136719 289.691406 869.511719 289.175781 868.9375 288.601562 C 868.363281 288.027344 867.851562 287.402344 867.398438 286.726562 C 866.945312 286.050781 866.566406 285.339844 866.253906 284.589844 C 865.945312 283.835938 865.710938 283.0625 865.550781 282.265625 C 865.390625 281.46875 865.3125 280.664062 865.3125 279.851562 C 865.3125 279.039062 865.390625 278.234375 865.550781 277.4375 C 865.710938 276.640625 865.945312 275.867188 866.253906 275.117188 C 866.566406 274.367188 866.945312 273.652344 867.398438 272.976562 C 867.851562 272.300781 868.363281 271.675781 868.9375 271.101562 C 869.511719 270.527344 870.136719 270.015625 870.8125 269.5625 C 871.488281 269.113281 872.203125 268.730469 872.953125 268.417969 C 873.703125 268.109375 874.476562 267.875 875.273438 267.714844 C 876.070312 267.558594 876.875 267.476562 877.6875 267.476562 C 878.5 267.476562 879.304688 267.558594 880.101562 267.714844 C 880.898438 267.875 881.671875 268.109375 882.421875 268.417969 C 883.175781 268.730469 883.886719 269.113281 884.5625 269.5625 C 885.238281 270.015625 885.863281 270.527344 886.4375 271.101562 C 887.011719 271.675781 887.527344 272.300781 887.976562 272.976562 C 888.429688 273.652344 888.808594 274.367188 889.121094 275.117188 C 889.433594 275.867188 889.667969 276.640625 889.824219 277.4375 C 889.984375 278.234375 890.0625 279.039062 890.0625 279.851562 Z M 890.0625 279.851562 " fill-opacity="1" fill-rule="nonzero"/></g></svg>