<?xml version="1.0" encoding="utf-8"?>
<!-- Generator: Adobe Illustrator 24.2.3, SVG Export Plug-In . SVG Version: 6.00 Build 0)  -->
<svg version="1.1" id="レイヤー_1" xmlns="http://www.w3.org/2000/svg" xmlns:xlink="http://www.w3.org/1999/xlink" x="0px"
	 y="0px" viewBox="0 0 3840 1815.6" style="enable-background:new 0 0 3840 1815.6;" xml:space="preserve">
<style type="text/css">
	.st0{fill:#FFFFFF;}
	.st1{fill:#C3D4FA;}
	.st2{clip-path:url(#SVGID_2_);}
	.st3{fill:#A4BEF1;}
	.st4{clip-path:url(#SVGID_4_);}
	.st5{fill:#8C90FD;}
	.st6{fill:#444444;}
	.st7{clip-path:url(#SVGID_6_);}
	.st8{clip-path:url(#SVGID_8_);}
	.st9{clip-path:url(#SVGID_10_);}
	.st10{clip-path:url(#SVGID_12_);}
	.st11{clip-path:url(#SVGID_14_);}
	.st12{fill:#222222;}
	.st13{clip-path:url(#SVGID_16_);}
	.st14{clip-path:url(#SVGID_18_);}
	.st15{clip-path:url(#SVGID_20_);}
	.st16{clip-path:url(#SVGID_22_);}
	.st17{fill:#222244;}
</style>
<rect x="-384" y="-216" class="st0" width="4608" height="2592"/>
<rect x="-384" y="-216" class="st1" width="4608" height="2592"/>
<g>
	<defs>
		<rect id="SVGID_1_" x="1280" y="330.8" width="2560" height="1484.8"/>
	</defs>
	<clipPath id="SVGID_2_">
		<use xlink:href="#SVGID_1_"  style="overflow:visible;"/>
	</clipPath>
	<g class="st2">
		<path class="st3" d="M1280,330.8h2560v1484.8H1280V330.8z"/>
	</g>
</g>
<g>
	<defs>
		<rect id="SVGID_3_" x="2560" y="655.6" width="1280" height="1160"/>
	</defs>
	<clipPath id="SVGID_4_">
		<use xlink:href="#SVGID_3_"  style="overflow:visible;"/>
	</clipPath>
	<g class="st4">
		<path class="st5" d="M2560,655.6h1283.3v1160H2560V655.6z"/>
	</g>
</g>
<path class="st6" d="M1796.9,1158.6c-11.2,11.4-26.1,17.8-42,17.9c-15.9,0.2-31-5.9-42.4-17c-18.5-18.1-23.3-45.9-11.8-69.1
	c2.7-5.6,6.4-10.8,10.9-15.3c23-23.5,60.9-24,84.4-1c18.5,18.2,23.3,45.9,11.8,69.2C1805,1148.8,1801.3,1154,1796.9,1158.6"/>
<path class="st6" d="M1965.7,995.1c7.2-7.4,16.9-11.6,27.3-11.7c10.3-0.1,20.1,3.8,27.5,11.1c12,11.8,15.1,29.8,7.7,44.9
	c-1.8,3.6-4.2,7-7.1,10c-14.9,15.3-39.5,15.6-54.8,0.6c-12-11.8-15.2-29.9-7.7-44.9C1960.4,1001.4,1962.8,998,1965.7,995.1"/>
<g>
	<defs>
		<rect id="SVGID_5_" x="1535.3" y="803.6" width="759.3" height="864"/>
	</defs>
	<clipPath id="SVGID_6_">
		<use xlink:href="#SVGID_5_"  style="overflow:visible;"/>
	</clipPath>
	<g class="st7">
		<path class="st6" d="M1858.1,1065.3c1.9,3.8,3.5,7.6,4.9,11.4c1.5,4,5.8,8.2,9.8,9.4l18.3,5.2c2.7,0.8,5.2,2.9,6.9,5.4
			c0,0,0,0,0,0c0.3,0.4,0.5,0.9,0.7,1.3c0.1,0.1,0.1,0.3,0.2,0.4c0.1,0.3,0.3,0.7,0.4,1c0.2,0.5,0.3,1,0.3,1.5
			c0.5,4.3,0.8,8.8,0.8,13.2c0,4.8-0.1,9.5-0.6,14.1c-0.4,4.2-4.2,8.6-8.3,9.9l-17.7,5.5c-4.1,1.2-8.2,5.6-9.5,9.6
			c-1.6,5-3.6,9.9-6,14.8c-0.3,0.7-0.7,1.4-1.1,2.1c-0.6,1.2,0.5,5.1,2.6,8.8l9,16.1c2.1,3.7,1.8,9.6-0.9,12.9
			c-2.9,3.7-6,7.2-9.3,10.6c-3.1,3.2-6.4,6.2-9.7,9c-3.3,2.7-9.1,3.2-12.8,1.2l-16.1-8.5c-3.7-2-9.7-1.8-13.6,0.1
			c-4,2-8.2,3.8-12.5,5.4c-4,1.5-8.2,5.7-9.4,9.8l-5,17.4c-1.2,4.1-5.5,8-9.7,8.5c-4.4,0.5-8.8,0.7-13.2,0.8
			c-4.8,0.1-9.5-0.2-14.2-0.6c-4.2-0.4-8.7-4.2-9.9-8.3l-5.3-17.1c-1.2-4-5.6-8.2-9.6-9.5c-4.3-1.4-8.6-3.1-12.7-5.1
			c-3.9-1.8-9.8-1.9-13.6,0.2l-15.7,8.7c-3.7,2.1-9.6,1.8-12.9-0.8c-3.7-2.9-7.3-6-10.7-9.4c-3.2-3.1-6.2-6.4-9-9.7
			c-2.7-3.3-3.2-9.1-1.2-12.8l8.6-16.2c2-3.8,1.8-9.8-0.1-13.6c-2-4-3.7-8.1-5.2-12.3c-1.4-4-5.7-8.3-9.7-9.4l-17.6-5
			c-3.1-0.9-6.1-3.6-7.5-6.7c-0.1-0.1-0.1-0.2-0.1-0.3c-0.2-0.4-0.4-0.8-0.5-1.2c-0.2-0.5-0.3-1.1-0.4-1.6c-0.1-1.1-0.2-2.2-0.3-3.3
			c-0.3-3.6-0.6-7.1-0.6-10.8c-0.1-4.5,0.2-8.9,0.5-13.3c0.4-4.3,4.2-8.7,8.3-9.9l17.9-5.5c4.1-1.2,8.3-5.6,9.6-9.6
			c1.5-4.6,3.5-9.3,5.7-13.8c0.4-0.8,0.8-1.6,1.3-2.4c0.7-1.3-0.3-5.4-2.4-9.2l-9.2-16.6c-2.1-3.7-1.8-9.6,0.9-12.8
			c2.7-3.4,5.7-6.7,8.8-9.9c3.3-3.4,6.8-6.6,10.4-9.6c3.3-2.7,9.1-3.1,12.8-1.2l16.8,8.9c3.7,2,9.8,1.9,13.6,0
			c3.7-1.8,7.4-3.4,11.2-4.7c4-1.4,8.2-5.7,9.4-9.8l5.3-18.5c1.1-4.1,5.5-8,9.7-8.5c4.7-0.5,9.4-0.9,14.2-0.9
			c4.5-0.1,8.9,0.1,13.2,0.5c4.3,0.3,8.7,4.2,9.9,8.2l5.7,18.5c1.2,4.1,5.6,8.2,9.6,9.6c3.8,1.3,7.6,2.8,11.3,4.5
			c3.9,1.8,9.9,1.8,13.6-0.3l16.9-9.4c3.7-2.1,9.5-1.8,12.9,0.9c3.4,2.7,6.7,5.7,9.9,8.8c3.4,3.3,6.6,6.8,9.6,10.5
			c2.7,3.3,3.1,9.1,1.1,12.8l-8.9,16.8C1856,1055.5,1856.2,1061.5,1858.1,1065.3z M1901.6,1070.5c-1.3-0.6-2.5-1.4-3.6-2.4
			c-0.1-0.1-0.2-0.2-0.3-0.3c-0.4-0.4-0.8-0.8-1-1.2c-0.1-0.1-0.2-0.3-0.3-0.4c-0.3-0.5-0.7-1.1-0.9-1.7c-1.7-4.3-3.3-8.8-4.5-13.4
			c-1.2-4.3-2.2-8.7-2.9-13c-0.1-0.5-0.1-1-0.1-1.5c0-0.3,0-0.6,0.1-0.9c0-0.2,0-0.4,0-0.6c0-0.4,0.1-0.8,0.3-1.3c0,0,0-0.1,0-0.1
			c0.1-0.5,0.3-0.9,0.5-1.4c1-2.4,2.6-4.6,4.6-5.9l11.7-7.3c3.6-2.3,6.8-7.5,7.6-11.7c0.6-3.5,1.5-7,2.6-10.5c1.3-4,1.1-10.2-1-13.9
			l-6.7-12c-2.1-3.7-1.8-9.5,0.9-12.8c2.7-3.4,5.7-6.7,8.8-9.9c3.4-3.4,6.8-6.6,10.5-9.6c3.3-2.7,9.1-3.1,12.9-1.2l11.9,6.3
			c3.8,2,9.9,2.1,13.9,0.7c3.4-1.2,6.9-2.2,10.4-2.9c4.1-0.9,9.4-4.2,11.6-7.8l7-11.8c2.2-3.6,7.4-6.3,11.6-5.6
			c4.3,0.7,8.6,1.5,13,2.7c4.6,1.2,9.1,2.6,13.5,4.3c4,1.5,7.3,6.3,7.4,10.6l0.5,14.1c0.2,4.2,2.5,9.2,5.1,11.4c1.5,1.3,3,2.6,4.5,4
			c1.6,1.6,3.1,3.2,4.5,4.8c2.4,2.8,7.6,5.2,11.8,5.3l14.4,0.2c2.9,0.1,6.1,1.6,8.3,3.7c0.2,0.1,0.3,0.3,0.4,0.4
			c0.2,0.2,0.3,0.4,0.5,0.6c0.2,0.2,0.4,0.4,0.5,0.7c0.1,0.2,0.2,0.3,0.3,0.5c0.3,0.4,0.5,0.8,0.7,1.3c1.6,4.1,3,8.3,4.2,12.6
			c1.3,4.6,2.3,9.2,3.1,13.9c0.7,4.2-1.9,9.4-5.5,11.7l-12.5,7.9c-3.6,2.3-6.8,7.5-7.7,11.7c-0.6,2.9-1.3,5.7-2.2,8.6
			c-1.3,4-1,10.2,1,13.9l7.3,13c2.1,3.7,1.8,9.6-0.8,12.9c-2.9,3.7-6,7.2-9.4,10.6c-3.1,3.2-6.4,6.2-9.7,9
			c-3.3,2.7-9.1,3.2-12.8,1.1l-13.3-7c-3.7-2-9.9-2.1-13.9-0.8c-2.8,1-5.7,1.7-8.6,2.4c-4.2,0.9-9.3,4.3-11.5,7.9l-7.6,12.7
			c-2.2,3.6-7.4,6.3-11.6,5.7c-4.6-0.6-9.3-1.5-13.9-2.8c-4.3-1.1-8.6-2.4-12.6-3.9c-4-1.5-7.3-6.3-7.5-10.5l-0.5-14.4
			c-0.2-4.3-2.7-9.4-5.5-11.7c-1.6-1.4-3.3-2.9-4.9-4.4c-1.4-1.4-2.8-2.9-4.1-4.4c-2.2-2.5-7.3-4.7-11.5-4.8l-14.2-0.2
			C1904.6,1071.6,1903,1071.2,1901.6,1070.5C1901.6,1070.6,1901.6,1070.6,1901.6,1070.5z M1883.2,803.6c-141.6,0-308.2,54-341,232.3
			c-39.1,212.6,99.9,366.8,99.9,366.8l6.3,119.3l386.5,145.6l16-92.5c0,0,76.9,18.5,149,5.6c58-10.4,11.2-95,11.2-95l16.8-48.4
			l-26.2-26.2l25.1-23.2v-58.7c0,0,25.5,4.2,56.8-5.6c45.7-14.4-66.3-155-66.7-190.6C2214.9,968.5,2127.9,803.6,1883.2,803.6"/>
	</g>
</g>
<g>
	<defs>
		<rect id="SVGID_7_" x="166.7" y="721.3" width="726.6" height="783.8"/>
	</defs>
	<clipPath id="SVGID_8_">
		<use xlink:href="#SVGID_7_"  style="overflow:visible;"/>
	</clipPath>
	<g class="st8">
		<path class="st6" d="M883.7,1180.8c-6.9-2.7-14.7,0.7-17.6,7.6c-17.4,44-41.7,84.6-72.6,120.6l-56.6,66c-2.2,2.4-3.2,5.5-3.2,8.8
			v94.5h-297v-81h123.5c20.7,0,39.2-11.5,48.3-29.8l15.8-31.6c3.4-6.6,0.7-14.7-6.1-18.1c-6.6-3.4-14.7-0.7-18.1,6.1l-15.8,31.6
			c-4.6,9.2-13.9,15-24.2,15h-245c-22.3,0-40.5-18.2-40.5-40.5v-108c0-7.4-6.1-13.5-13.5-13.5h-39.6c-15.4,0-27.9-12.6-27.9-27.9
			c0-5.5,1.6-10.9,4.7-15.5l74-111.1c1.5-2.2,2.3-4.9,2.3-7.4v-13.5c0-123.9,73.6-236,187.4-285.1c6.9-3,10-10.9,7-17.7
			c-3-6.8-10.9-10-17.7-7c-123.7,53.5-203.7,175.1-203.7,310v9.5L175.9,1150c-6.1,9-9.2,19.6-9.2,30.5c0,30.2,24.7,54.9,54.9,54.9
			h26.1v94.5c0,37.3,30.2,67.5,67.5,67.5h94.5v94.5c0,7.4,6.1,13.5,13.5,13.5h324c7.4,0,13.5-6.1,13.5-13.5v-103l53.3-62.2
			c32.8-38.2,58.7-81.4,77.2-128.3c2.7-6.9-0.7-14.7-7.6-17.5V1180.8z"/>
	</g>
</g>
<path class="st6" d="M625.7,951.7h-108c-7.4,0-13.5,6.1-13.5,13.5c0,7.4,6.1,13.5,13.5,13.5h94.5v40.5c0,7.4,6.1,13.5,13.5,13.5
	c7.4,0,13.5-6.1,13.5-13.5v-54C639.2,957.8,633.1,951.7,625.7,951.7z"/>
<path class="st6" d="M625.7,1059.7h-94.5v-40.5c0-7.4-6.1-13.5-13.5-13.5c-7.4,0-13.5,6.1-13.5,13.5v54c0,7.4,6.1,13.5,13.5,13.5
	h108c7.4,0,13.5-6.1,13.5-13.5C639.2,1065.8,633.1,1059.7,625.7,1059.7z"/>
<path class="st6" d="M585.2,1019.2c0,0.9-0.1,1.8-0.3,2.6s-0.4,1.7-0.8,2.5c-0.3,0.8-0.8,1.6-1.2,2.3c-0.5,0.7-1.1,1.4-1.7,2
	c-0.6,0.6-1.3,1.2-2,1.7c-0.7,0.5-1.5,0.9-2.3,1.3c-0.8,0.3-1.7,0.6-2.5,0.8c-0.9,0.2-1.7,0.3-2.6,0.3c-0.9,0-1.8-0.1-2.6-0.3
	c-0.9-0.2-1.7-0.4-2.5-0.8c-0.8-0.3-1.6-0.8-2.3-1.2c-0.7-0.5-1.4-1.1-2-1.7c-0.6-0.6-1.2-1.3-1.7-2c-0.5-0.7-0.9-1.5-1.2-2.3
	c-0.3-0.8-0.6-1.7-0.8-2.5c-0.2-0.9-0.3-1.7-0.3-2.6c0-0.9,0.1-1.8,0.3-2.6c0.2-0.9,0.4-1.7,0.8-2.5c0.3-0.8,0.8-1.6,1.2-2.3
	c0.5-0.7,1.1-1.4,1.7-2c0.6-0.6,1.3-1.2,2-1.7c0.7-0.5,1.5-0.9,2.3-1.2c0.8-0.3,1.7-0.6,2.5-0.8c0.9-0.2,1.7-0.3,2.6-0.3
	c0.9,0,1.8,0.1,2.6,0.3c0.9,0.2,1.7,0.4,2.5,0.8c0.8,0.3,1.6,0.8,2.3,1.2c0.7,0.5,1.4,1.1,2,1.7c0.6,0.6,1.2,1.3,1.7,2
	c0.5,0.7,0.9,1.5,1.2,2.3c0.3,0.8,0.6,1.7,0.8,2.5S585.2,1018.3,585.2,1019.2z"/>
<path class="st6" d="M747.2,803.2c0,22.3,18.2,40.5,40.5,40.5c3.4,0,6.6-0.5,9.9-1.3l32.9,49.3c2.6,3.8,6.8,6.1,11.2,6.1h29.4
	c5.5,15.7,20.4,27,38.1,27c22.3,0,40.5-18.2,40.5-40.5c0-22.3-18.2-40.5-40.5-40.5c-17.6,0-32.4,11.3-38.1,27h-22.3L820,827.3
	c5.1-6.8,8.2-15.1,8.2-24.2c0-22.3-18.2-40.5-40.5-40.5C765.4,762.7,747.2,780.9,747.2,803.2z M909.2,870.7
	c7.4,0,13.5,6.1,13.5,13.5c0,7.4-6.1,13.5-13.5,13.5c-7.4,0-13.5-6.1-13.5-13.5C895.7,876.8,901.8,870.7,909.2,870.7z M801.2,803.2
	c0,7.4-6.1,13.5-13.5,13.5c-7.4,0-13.5-6.1-13.5-13.5c0-7.4,6.1-13.5,13.5-13.5C795.1,789.7,801.2,795.8,801.2,803.2z"/>
<g>
	<defs>
		<rect id="SVGID_9_" x="665.3" y="1018.7" width="311.4" height="270.7"/>
	</defs>
	<clipPath id="SVGID_10_">
		<use xlink:href="#SVGID_9_"  style="overflow:visible;"/>
	</clipPath>
	<g class="st9">
		<path class="st6" d="M936.2,1019.2c-22.3,0-40.5,18.2-40.5,40.5c0,6.2,1.5,12,4,17.4l-77.1,77.1h-116c-7.4,0-13.5,6.1-13.5,13.5
			v42.9c-15.7,5.5-27,20.4-27,38.1c0,22.3,18.2,40.5,40.5,40.5c22.3,0,40.5-18.2,40.5-40.5c0-17.5-11.3-32.4-27-38.1v-29.4h108
			c3.6,0,7-1.5,9.6-3.9l81.1-81.1c5.3,2.6,11.1,4,17.4,4c22.3,0,40.5-18.2,40.5-40.5c0-22.3-18.2-40.5-40.5-40.5H936.2z
			 M706.7,1262.2c-7.4,0-13.5-6.1-13.5-13.5c0-7.4,6.1-13.5,13.5-13.5c7.4,0,13.5,6.1,13.5,13.5
			C720.2,1256.1,714.1,1262.2,706.7,1262.2z M936.2,1073.2c-3.6,0-7-1.5-9.5-3.9c0,0,0,0,0-0.1c0-0.1,0,0-0.1,0
			c-2.4-2.4-3.9-5.7-3.9-9.5c0-7.4,6.1-13.5,13.5-13.5c7.4,0,13.5,6.1,13.5,13.5C949.7,1067.1,943.6,1073.2,936.2,1073.2z"/>
	</g>
</g>
<g>
	<defs>
		<rect id="SVGID_11_" x="354.7" y="641.2" width="514.7" height="594.8"/>
	</defs>
	<clipPath id="SVGID_12_">
		<use xlink:href="#SVGID_11_"  style="overflow:visible;"/>
	</clipPath>
	<g class="st10">
		<path class="st6" d="M504.2,719.7v42.9c0,4.2,2,8.2,5.4,10.8l48.6,36.4v87.8h-27v-54c0-7.4-6.1-13.5-13.5-13.5h-42.9
			c-5.5-15.7-20.4-27-38.1-27c-22.3,0-40.5,18.2-40.5,40.5c0,22.3,18.2,40.5,40.5,40.5c17.5,0,32.4-11.3,38.1-27h29.4v40.5h-13.5
			c-22.3,0-40.5,18.2-40.5,40.5v13.5h-54c-7.4,0-13.5,6.1-13.5,13.5c0,7.4,6.1,13.5,13.5,13.5h54v27h-81c-7.4,0-13.5,6.1-13.5,13.5
			c0,7.4,6.1,13.5,13.5,13.5h81v27h-27c-7.4,0-13.5,6.1-13.5,13.5c0,7.4,6.1,13.5,13.5,13.5h27v13.5c0,22.3,18.2,40.5,40.5,40.5
			h13.5v54c0,7.4,6.1,13.5,13.5,13.5c7.4,0,13.5-6.1,13.5-13.5v-54h27v81c0,7.4,6.1,13.5,13.5,13.5c7.4,0,13.5-6.1,13.5-13.5v-81h27
			v27c0,7.4,6.1,13.5,13.5,13.5c7.4,0,13.5-6.1,13.5-13.5v-27h13.5c22.3,0,40.5-18.2,40.5-40.5h42.9c5.5,15.7,20.4,27,38.1,27
			c22.3,0,40.5-18.2,40.5-40.5c0-2.4-0.3-4.9-0.7-7.2l50.8-50.8c5.3-5.3,5.3-13.8,0-19s-13.8-5.3-19,0l-45.9,45.9
			c-7-5.8-15.8-9.3-25.5-9.3c-17.6,0-32.4,11.3-38.1,27h-42.9v-108h56.4c5.5,15.7,20.4,27,38.1,27c22.3,0,40.5-18.2,40.5-40.5
			s-18.2-40.5-40.5-40.5c-17.6,0-32.4,11.3-38.1,27h-56.4c0-17.5-11.3-32.4-27-38.1v-32c15.7-5.5,27-20.4,27-38.1
			c0-17.7-11.3-32.4-27-38.1v-10.4l63.6-63.6c5.3,2.6,11.1,4,17.4,4c22.3,0,40.5-18.2,40.5-40.5c0-22.3-18.2-40.5-40.5-40.5
			c-22.3,0-40.5,18.2-40.5,40.5c0,6.2,1.5,12,4,17.4l-67.6,67.6c-2.6,2.6-3.9,5.9-3.9,9.6v15.9c-15.7,5.5-27,20.4-27,38.1
			c0,17.7,11.3,32.4,27,38.1v29.4h-54v-94.5c0-4.2-2-8.2-5.4-10.8l-48.6-36.5v-36.2c15.7-5.5,27-20.4,27-38.1
			c0-22.3-18.2-40.5-40.5-40.5c-22.3,0-40.5,18.2-40.5,40.5c0,17.6,11.3,32.4,27,38.1L504.2,719.7z M436.7,857.2
			c-7.4,0-13.5-6.1-13.5-13.5c0-7.4,6.1-13.5,13.5-13.5c7.4,0,13.5,6.1,13.5,13.5C450.2,851.1,444.1,857.2,436.7,857.2z
			 M774.2,1073.2c7.4,0,13.5,6.1,13.5,13.5c0,7.4-6.1,13.5-13.5,13.5c-7.4,0-13.5-6.1-13.5-13.5
			C760.7,1079.3,766.8,1073.2,774.2,1073.2z M787.7,938.2c7.4,0,13.5,6.1,13.5,13.5c0,7.4-6.1,13.5-13.5,13.5
			c-7.4,0-13.5-6.1-13.5-13.5C774.2,944.3,780.3,938.2,787.7,938.2z M747.2,668.2c7.4,0,13.5,6.1,13.5,13.5
			c0,7.4-6.1,13.5-13.5,13.5c-3.6,0-7-1.5-9.5-3.9c0,0,0,0,0-0.1c0-0.1,0,0-0.1,0c-2.4-2.4-3.9-5.7-3.9-9.5
			C733.7,674.3,739.8,668.2,747.2,668.2z M666.2,1100.2c0,7.4-6.1,13.5-13.5,13.5h-162c-7.4,0-13.5-6.1-13.5-13.5v-162
			c0-7.4,6.1-13.5,13.5-13.5h162c7.4,0,13.5,6.1,13.5,13.5V1100.2z M652.7,816.7c7.4,0,13.5,6.1,13.5,13.5c0,7.4-6.1,13.5-13.5,13.5
			c-7.4,0-13.5-6.1-13.5-13.5C639.2,822.8,645.3,816.7,652.7,816.7z M517.7,668.2c7.4,0,13.5,6.1,13.5,13.5
			c0,7.4-6.1,13.5-13.5,13.5c-7.4,0-13.5-6.1-13.5-13.5C504.2,674.3,510.3,668.2,517.7,668.2z"/>
	</g>
</g>
<g>
	<defs>
		<rect id="SVGID_13_" x="2678.3" y="1228" width="127" height="89.3"/>
	</defs>
	<clipPath id="SVGID_14_">
		<use xlink:href="#SVGID_13_"  style="overflow:visible;"/>
	</clipPath>
	<g class="st11">
		<path class="st12" d="M2688.5,1293.6h34.7c1.8,0,3.3,1.5,3.3,3.3v10.7c0,6.9,7.5,11.2,13.4,7.7l60.7-35c6-3.4,6-12,0-15.5
			l-60.7-35c-6-3.4-13.4,0.9-13.4,7.7v10.7c0,1.8-1.5,3.3-3.3,3.3h-34.7c-5.6,0-10.2,4.6-10.2,10.2v21.8
			C2678.3,1289,2682.9,1293.6,2688.5,1293.6"/>
	</g>
</g>
<g>
	<defs>
		<rect id="SVGID_15_" x="3598.2" y="1374.4" width="126.8" height="88.2"/>
	</defs>
	<clipPath id="SVGID_16_">
		<use xlink:href="#SVGID_15_"  style="overflow:visible;"/>
	</clipPath>
	<g class="st13">
		<path class="st12" d="M3720.5,1410.8l-60.7-35c-6-3.4-13.4,0.9-13.4,7.7v10.7c0,1.8-1.5,3.3-3.3,3.3h-34.7
			c-5.6,0-10.2,4.6-10.2,10.2v21.8c0,5.6,4.6,10.2,10.2,10.2h34.7c1.8,0,3.3,1.5,3.3,3.3v10.7c0,6.9,7.5,11.2,13.4,7.7l60.7-35
			C3726.4,1422.8,3726.4,1414.2,3720.5,1410.8"/>
	</g>
</g>
<g>
	<defs>
		<rect id="SVGID_17_" x="2678.3" y="1518.7" width="127" height="88"/>
	</defs>
	<clipPath id="SVGID_18_">
		<use xlink:href="#SVGID_17_"  style="overflow:visible;"/>
	</clipPath>
	<g class="st14">
		<path class="st12" d="M2800.6,1554.9l-60.7-35c-6-3.4-13.4,0.9-13.4,7.7v10.7c0,1.8-1.5,3.3-3.3,3.3h-34.7
			c-5.6,0-10.2,4.6-10.2,10.2v21.8c0,5.6,4.6,10.2,10.2,10.2h34.7c1.8,0,3.3,1.5,3.3,3.3v10.7c0,6.9,7.5,11.2,13.4,7.7l60.7-35
			C2806.6,1567,2806.6,1558.4,2800.6,1554.9"/>
	</g>
</g>
<path class="st12" d="M3543.8,1455.2c20.2,0,36.6-16.4,36.6-36.7c0-20.2-16.4-36.7-36.6-36.7c-20.2,0-36.7,16.4-36.7,36.7
	C3507.1,1438.8,3523.5,1455.2,3543.8,1455.2"/>
<g>
	<defs>
		<rect id="SVGID_19_" x="3165.3" y="1163.1" width="74.7" height="74.2"/>
	</defs>
	<clipPath id="SVGID_20_">
		<use xlink:href="#SVGID_19_"  style="overflow:visible;"/>
	</clipPath>
	<g class="st15">
		<path class="st12" d="M3202.2,1236.6c20.2,0,36.7-16.4,36.7-36.7c0-20.2-16.4-36.7-36.7-36.7c-20.2,0-36.7,16.4-36.7,36.7
			C3165.5,1220.2,3181.9,1236.6,3202.2,1236.6"/>
	</g>
</g>
<path class="st12" d="M2859.5,1309.2c20.2,0,36.7-16.4,36.7-36.7s-16.4-36.7-36.7-36.7c-20.2,0-36.7,16.4-36.7,36.7
	S2839.3,1309.2,2859.5,1309.2"/>
<path class="st12" d="M3202.2,1381.7c20.2,0,36.7-16.4,36.7-36.7c0-20.2-16.4-36.7-36.7-36.7c-20.2,0-36.7,16.4-36.7,36.7
	C3165.5,1365.3,3181.9,1381.7,3202.2,1381.7"/>
<path class="st12" d="M2859.5,1599.3c20.2,0,36.7-16.4,36.7-36.7c0-20.2-16.4-36.7-36.7-36.7c-20.2,0-36.7,16.4-36.7,36.7
	C2822.9,1582.9,2839.3,1599.3,2859.5,1599.3"/>
<path class="st12" d="M3202.2,1526.8c20.2,0,36.7-16.4,36.7-36.7c0-20.2-16.4-36.7-36.7-36.7c-20.2,0-36.7,16.4-36.7,36.7
	C3165.5,1510.4,3181.9,1526.8,3202.2,1526.8"/>
<g>
	<defs>
		<rect id="SVGID_21_" x="3165.3" y="1598.2" width="73.8" height="73.6"/>
	</defs>
	<clipPath id="SVGID_22_">
		<use xlink:href="#SVGID_21_"  style="overflow:visible;"/>
	</clipPath>
	<g class="st16">
		<path class="st12" d="M3202.2,1671.9c20.2,0,36.7-16.4,36.7-36.6c0-20.2-16.4-36.7-36.7-36.7c-20.2,0-36.7,16.4-36.7,36.7
			C3165.5,1655.5,3181.9,1671.9,3202.2,1671.9"/>
	</g>
</g>
<path class="st12" d="M3016.9,1383.1l-20.3,21.5l-81.5-86.2L3016.9,1383.1z M3032.2,1392.9l39,24.8l-38.9,24.7l-23.5-24.8
	L3032.2,1392.9z M2915,1516.9l81.6-86.4l20.4,21.6L2915,1516.9z M2984.3,1417.6l-94.4,99.9c8.7,5.9,15.6,14.1,19.7,23.9l119.8-76.1
	l41.4,43.8l-160.5,33.8c2.1,5.4,3.4,11.3,3.7,17.4l171.2-36.1l73.7,78.1c3.6-4.7,8-8.9,12.9-12.2l-66.3-70.1l46.1-9.7
	c-2.2-5.4-3.5-11.3-3.8-17.4l-56.6,11.9l-46.5-49.2l43.1-27.4l64.2,40.8c2.3-5.5,5.6-10.6,9.5-15l-57.1-36.3l57.3-36.4
	c-4-4.4-7.2-9.5-9.6-15l-64.3,40.8l-43.2-27.5l46.1-48.8l57,11.9c0.3-6.1,1.5-12,3.6-17.4l-46.3-9.7l66.7-70.6
	c-4.9-3.3-9.3-7.5-12.9-12.2l-74.2,78.6l-170.8-35.6c-0.4,6.1-1.7,11.9-4,17.4l160.4,33.5l-41,43.4l-119.7-76.1
	c-4.1,9.7-11,18-19.7,23.8L2984.3,1417.6"/>
<path class="st12" d="M3253,1470.7c2.1,5.4,3.3,11.3,3.6,17.4l236.5-49.8c-2.1-5.4-3.4-11.3-3.7-17.4L3253,1470.7"/>
<path class="st12" d="M2910.2,1582.5l237.6,50.3c0.3-6.1,1.6-12,3.7-17.4l-237.6-50.3C2913.6,1571.2,2912.3,1577.1,2910.2,1582.5"/>
<path class="st12" d="M3252.3,1614l250.9-159.2c-4-4.4-7.2-9.5-9.6-15l-250.9,159.2C3246.7,1603.4,3249.9,1608.4,3252.3,1614"/>
<path class="st12" d="M3151.5,1219.8c-2.1-5.4-3.4-11.3-3.7-17.4l-237.6,50.3c2.1,5.4,3.4,11.3,3.7,17.4L3151.5,1219.8"/>
<path class="st12" d="M3242.6,1236.4l251.1,160.7c2.4-5.5,5.6-10.6,9.6-15l-251.1-160.7C3249.8,1226.9,3246.6,1232,3242.6,1236.4"/>
<path class="st12" d="M3256.6,1347.6c-0.3,6.1-1.6,12-3.8,17.4l236.6,50.9c0.3-6.1,1.6-12,3.8-17.4L3256.6,1347.6"/>
<g>
	<g transform="translate(97.820855, 192.09274)">
		<g>
			<path class="st17" d="M88.2-45.8c-0.9,17.6,0.9,78.1-52.3,107.6c5.3,3.7,10.5,8.5,13.3,12.7C77.4,57.2,91.4,31.5,98.6,7.5
				c7.5,24.5,22.4,52,52.5,66.9c2.5-4.3,7.3-9.7,12.3-13.5c-49.7-23.3-56.4-80.8-57.5-99.2c0.1-2.8,0.3-5.5,0.4-7.6H88.2z"/>
		</g>
	</g>
</g>
<g>
	<g transform="translate(197.816997, 192.09274)">
		<g>
			<path class="st17" d="M141.3,50.4v-68.9h44.8V-35H79.5v16.5h43.6v68.9H72.3v16h121.2v-16H141.3z"/>
		</g>
	</g>
</g>
<g>
	<g transform="translate(297.813139, 192.09274)">
		<g>
			<path class="st17" d="M167.1,18.7V3.8h-21.9v-21.2h18.8v-14.7h-35.2c1.3-4.5,2.4-9.1,3.3-13.7L117-48.9
				c-2.7,15.2-7.7,30.5-14.9,40.1c3.6,2,9.9,6.5,12.8,9.2c3.3-4.9,6.4-11.1,9.1-17.9h5.3V3.8h-24.7v14.9h23.6
				c-2.1,15.5-8.3,32.1-25.6,44.5c3.3,2.4,9.2,8.7,11.3,12c12.8-9.3,20.7-21.9,25.2-34.9c6.5,8.1,14.1,18.1,18.5,25.1L168.3,52
				c-3.7-4.4-18.1-21.1-25.1-27.9c0.4-1.7,0.7-3.6,0.9-5.5H167.1z M186.1,47.2v-69.7h19.3v69.7H186.1z M170.7-37.4V71.8h15.3v-9.6
				h19.3v7.6h16.1V-37.4H170.7z"/>
		</g>
	</g>
</g>
<g>
	<g transform="translate(397.809294, 192.09274)">
		<g>
			<path class="st17" d="M243.4,11c12.3,0,16.4-4.9,18.1-22c-4.3-0.9-10.8-3.5-14-5.9c-0.5,11.6-1.5,13.6-5.7,13.6h-14.5
				c-5.1,0-5.9-0.5-5.9-5.3v-7.9C233-20,245.5-24.2,255.5-29l-10.1-11.5c-6.3,3.5-15.1,7.6-24,11.1v-19.1h-15.7v40.1
				c0,14.7,3.7,19.3,19.3,19.3H243.4z M159.5,38.6v-7.9h20v7.9H159.5z M179.5,12V19h-20V12H179.5z M195.1-1h-50.3v76.5h14.7V50.3h20
				v8.9c0,1.6-0.5,2-2.1,2c-1.7,0.1-7.1,0.3-11.7,0c2,3.7,4.3,9.9,5.1,14c8,0,14.1-0.1,18.7-2.7c4.4-2.3,5.7-6.1,5.7-13.1V-1z
				 M175.1-35c2.1,3.5,4.3,7.2,6.3,10.9l-17.7,0.8c3.3-7.1,6.9-15.1,10-22.8l-16.5-3.3c-2.3,8.1-6,18.4-9.7,26.8
				c-3.7,0.1-7.2,0.3-10.4,0.3l1.3,15.1c13.6-0.8,31.7-1.9,49.3-3.1c1.1,2.5,1.9,4.9,2.4,7.1l14.5-5.9c-2.5-8.7-9.6-21.3-16.1-30.9
				L175.1-35z M227.4,60.8c-5.2,0-6.1-0.7-6.1-5.3V44.8c12.1-3.7,25.3-8.5,35.6-14.1l-10.5-11.6c-6.4,4.3-15.6,8.7-25.1,12.5v-18
				h-15.6v41.9c0,14.7,3.9,19.2,19.5,19.2h18.9c12.8,0,16.8-5.2,18.5-24c-4.1-1.1-10.5-3.5-13.9-5.9c-0.7,13.5-1.6,16-6.1,16H227.4z
				"/>
		</g>
	</g>
</g>
<g>
	<g transform="translate(2014.501763, 653.442813)">
		<g>
			<path class="st17" d="M728.4,123.4h9.6c-0.9,16.3-4,24.4-26,28.9c2.7,2.8,6.4,8.1,7.5,11.7c26.8-6.5,32-18.9,33.2-40.7h7.2v19.7
				c0,12.3,2.7,16.1,14.9,16.1h10.9c9.1,0,12.7-3.6,14.1-17.6c-3.9-0.9-9.9-3.1-12.5-5.2c-0.4,8.8-0.9,10.1-3.2,10.1h-6.8
				c-2.5,0-2.9-0.5-2.9-3.7v-19.5h10v9.9h14.1v-23.1h-83.9v26.7h13.7V123.4z M714.2,119.9c-5.2-4.5-15.7-10.4-23.6-13.7l-9.2,11.6
				c8.1,3.9,18.3,10.3,23.1,14.9L714.2,119.9z M708.2,153.5c-5.2-4.1-16.1-8.9-24.3-11.6l-8,12.4c8.3,3.2,18.8,8.7,23.9,12.9
				L708.2,153.5z M701.4,176.2c-7.1,15.7-16,32.5-22.4,42.8l14,9.3c7.1-12.9,14.3-28.5,20.5-42.7L701.4,176.2z M798.6,187v-14.1
				h-35.2v-13.3h-15.6v13.3h-33.3V187h25.1c-7.9,11.2-19.7,20.9-32.5,26.1c3.2,2.9,7.7,8.5,10.1,12.1c11.7-6,22.4-15.6,30.7-27.2
				v30.8h15.6v-32.4c7.3,11.5,16.9,22,26.9,28.3c2.5-4,7.5-9.9,11.2-12.9c-10.8-5.2-21.7-14.8-29.1-24.8H798.6z"/>
		</g>
	</g>
</g>
<g>
	<g transform="translate(2114.497906, 653.442813)">
		<g>
			<path class="st17" d="M804.2,198.1v4.9h-40.8v-4.9H804.2z M763.4,216.5v-5.2h40.8v5.2H763.4z M748,229.4h15.3v-3.5h40.8v3.5h16
				v-40.9H748V229.4z M772.2,148.5c-0.7-2-2.1-4.5-4-6.8h29.2c-1.5,2.3-3.3,4.7-4.9,6.8H772.2z M809.4,162.4h-19.1v-5.1h19.1V162.4z
				 M809.4,175.8h-19.1v-5.2h19.1V175.8z M757.4,170.6h18.4v5.2h-18.4V170.6z M757.4,157.3h18.4v5.1h-18.4V157.3z M738.6,122.5H809
				v7.2h-70.4V122.5z M824.8,110.5h-102v39.1c0,21.3-1.1,51.1-14.3,71.3c3.9,1.6,10.9,5.6,14,8.1c14-21.7,16-56.3,16-79.5v-7.9h17.2
				l-2.4,0.8c1.6,1.7,3.1,3.9,4.3,6h-14.9v36h82.1v-36h-17.6c1.9-1.9,3.9-4.1,5.9-6.4l-1.6-0.4h13.3V110.5z"/>
		</g>
	</g>
</g>
<g>
	<g transform="translate(2214.494048, 653.442813)">
		<g>
			<path class="st17" d="M762.3,139.9h85.1v18.4H863v-32.4h-17.7c3.7-4.7,7.6-9.9,11.2-15.1l-17.2-5.2c-2.5,6.3-7.1,14-11.5,20.3
				h-20.1l6.4-2.5c-1.7-5.3-6.1-13.5-10.4-19.2l-14,5.1c3.2,5.1,6.5,11.5,8.4,16.7h-20.9l4.8-2.3c-2.1-5.2-7.5-12.3-12.1-17.5
				l-13.5,6c3.2,4.1,6.8,9.3,9.2,13.7h-18.1v32.4h14.9V139.9z M864.3,179.9h-50.1c10.8-6.3,21.2-14.7,28.7-22.8l-10-7.7l-3.5,0.8
				h-59.9v13.7h45.2c-3.2,2.7-6.8,5.2-10.3,7.3h-7.6v8.7h-51.2v14.7h51.2v17.3c0,1.9-0.7,2.4-3.5,2.4c-2.7,0.1-12.5,0.1-21.1-0.3
				c2.4,4.3,5.5,10.9,6.5,15.5c11.3,0,19.6-0.3,25.9-2.5c6.5-2.3,8.3-6.4,8.3-14.7v-17.7h51.3V179.9z"/>
		</g>
	</g>
</g>
<g>
	<g transform="translate(2314.490202, 653.442813)">
		<g>
			<path class="st17" d="M811.1,140.6c-12.8,4.4-25.9,8.9-34.5,11.6l5.5,12.9c9.5-3.9,20.8-8.5,31.5-13.2L811.1,140.6z M867.2,193.3
				h-57.1v-7.7h57.1V193.3z M810.2,212.9v-7.7h57.1v7.7H810.2z M832.4,161.8c0.8-1.7,1.1-4,1.1-6.9v-44.1H780V123h10.1l-6.7,8
				c6,3.2,13.5,8.4,16.9,12.1l7.9-10.1c-3.2-3.1-9.3-7.1-14.8-10h25.7v31.7c0,1.3-0.5,1.9-2,1.9c-1.5,0-6.7,0-11.2-0.1
				c1.6,3.1,3.5,7.7,4,11.2c8.1,0,14,0,18.1-1.7l0.4-0.1c-0.8,2.4-1.7,5.2-2.8,7.7h-31.3v56.1h15.7v-4.8h57.1v4.8h16.5v-56.1h-42.3
				c1.7-2.9,3.6-6.3,5.2-9.7L832.4,161.8z M893.8,110.8h-53.1V123h8.7l-6.3,7.9c5.6,3.1,12.9,7.9,16.7,11.6
				c-8.7,2.9-16.8,5.5-22.9,7.3l5.3,11.9c9.9-3.6,22.1-8.1,33.6-12.5l-2.4-11.3c-4.1,1.5-8.3,2.8-12.3,4.3l7.2-9.6
				c-3.2-2.8-9.3-6.7-14.8-9.5H879v31.3c0,1.5-0.5,1.9-2.3,2c-1.6,0-7.5,0-12.5-0.3c1.7,3.3,3.6,8.3,4.3,12c8.7,0.1,15.1,0,19.5-2
				c4.5-2,5.9-5.2,5.9-11.6V110.8z"/>
		</g>
	</g>
</g>
<g>
	<g transform="translate(1036.22071, 397.492768)">
		<g>
			<path class="st17" d="M453.8,99.4c-2,4.4-4.7,8.4-7.7,12.1c-1.1-3.6-2.1-7.7-3.1-12.1H453.8z M392.5,87.2
				c-3.2-5.6-9.6-15.9-12.4-20v-5.7h12.1V47.3c3.6,3.1,7.3,6.8,9.9,9.9c-2.7,4.3-5.5,8.3-8,11.7l-4.1,0.3l2.1,11.7
				c7.5-0.8,15.7-1.9,24.4-2.8c0.3,1.5,0.4,2.8,0.5,4l9.1-3.6c0.4,2.9,0.8,5.9,1.1,8.7H392.5z M411.5,61.4c0.8,1.9,1.5,3.9,2.1,6
				l-7.2,0.5c5.7-7.5,12-16.8,17.3-25.1c0.3,10.7,0.9,20.9,1.9,30.7c-1.1-4.7-3.1-10.4-5.2-14.9L411.5,61.4z M438.6,67
				c-0.5-6.7-0.9-13.5-1.1-20.7c3.9,3.3,7.9,7.3,10.7,10.8c-2.3,3.5-4.5,6.8-6.7,9.6L438.6,67z M440.9,87.2c-0.7-4-1.2-8.1-1.6-12.5
				l0.8,3.7c3.7-0.4,7.6-0.9,11.7-1.3l-6,5.2c2.1,1.5,4.4,3.2,6.4,4.9H440.9z M454.6,99.4h18.7V87.2h-10.1l2.5-2.3
				c-2.1-2.5-6.3-5.9-10.1-8.4l9.9-1.3c0.5,1.9,0.8,3.7,1.1,5.2l9.5-4c-0.8-5.2-3.9-13.5-6.9-19.7l-8.9,3.2c0.8,1.7,1.6,3.6,2.3,5.5
				l-8,0.5c5.9-7.9,12.3-17.6,17.6-26l-10.8-5.3c-1.9,3.9-4.3,8.4-6.8,12.8c-1.1-1.1-2.3-2.3-3.5-3.5c3.3-5.2,7.2-12.4,10.9-19.1
				l-11.9-4.5c-1.5,5.1-4,11.7-6.5,17.2l-2.1-1.6l-3.9,5.6c-0.1-7.1-0.1-14.3,0-21.7h-14c0,6.5,0.1,12.9,0.3,19.2l-8.9-4.4
				c-1.9,4-4.1,8.4-6.8,12.9c-0.9-1.1-2.1-2.3-3.3-3.5c3.2-5.3,7.1-12.7,10.8-19.1l-11.7-4.5c-1.5,4.9-4,11.6-6.5,17.2l-2.3-1.7
				l-5.9,8.7c0.9,0.8,2,1.6,2.9,2.5h-11.9V19.6h-14.1V47h-14.3v14.4h13.2c-3.1,15.9-9.3,34.4-16.3,44.9c2.1,3.6,5.2,9.3,6.7,13.5
				c4-6.4,7.6-15.3,10.7-25.1V144h14.1V85.3c2.7,5.9,5.3,12,6.7,16l5.3-7.9v6h8.3c-1.3,13.5-4.7,26.1-16.4,34
				c3.2,2.3,7.2,7.2,8.9,10.4c9.5-6.5,14.7-15.5,17.7-25.6c4.1,3.2,8,6.5,10.3,9.1l8.5-10.5c-3.5-3.6-10-8.4-15.9-12.3
				c0.3-1.6,0.5-3.3,0.7-5.1h15.1c1.6,8.5,3.6,16,6.1,22.4c-6.4,4.9-13.9,8.9-22.3,12c2.7,2.5,6.5,7.2,8.3,10.1
				c7.2-2.8,14-6.3,20.1-10.5c4.8,6.8,10.8,10.7,18.3,10.7c10.4,0,14.1-4,16.5-19.1c-3.1-1.5-7.3-4.1-10.3-7.2
				c-0.7,10.5-1.9,13.1-5.2,13.1s-6.3-2.1-8.9-6.1c6.1-6,11.2-12.9,15.1-20.7L454.6,99.4z"/>
		</g>
	</g>
</g>
<g>
	<g transform="translate(1136.216853, 397.492768)">
		<g>
			<path class="st17" d="M428.6,80.6c-1.9-3.1-10.8-14.4-14.1-18v-2.1H425V45.8h-10.5V19.6h-14.5v26.3h-14.4v14.7h14.4v1.9
				c-3.7,15.7-10.5,33.9-18.4,43.9c2.5,4.1,6.1,11.2,7.5,15.6c4-5.9,7.6-14.4,10.9-23.7v46h14.5V80.2c2.4,4.4,4.7,8.8,6,11.6
				L428.6,80.6z M484.5,27.6c3.7,4.8,7.9,11.6,9.5,15.9l10.9-6.1c-1.9-4.4-6.1-10.7-10.3-15.2L484.5,27.6z M493.1,65.7
				c-1.9,10.5-4.5,20.3-8.1,28.9c-1.1-10.7-1.9-23.3-2.4-36.9h23.1V43.4h-23.3c-0.1-7.7,0-15.7,0.1-23.7h-14.7
				c0,7.9,0.1,16,0.3,23.7h-39.2v14.3h39.6c0.8,21.7,2.4,41.9,5.6,57.1c-3.3,4.5-6.9,8.5-10.9,12.1v-30h5.6V83.3h-5.6V62.1h-12v21.2
				h-5.9V62.4h-11.9v20.9h-6.7v13.6h6.4c-0.8,12.5-3.6,25.5-12.5,36.1c3.2,1.7,8,5.3,10.3,7.9c10.3-12.7,13.3-28.7,14.1-44h6.1v31.3
				h10.4c-2.5,2-5.2,4-8.1,5.9c3.2,2,8.7,6.5,10.8,8.7c5.2-3.7,10-8,14.1-12.8c3.5,8.3,8,13.2,13.9,13.2c9.9,0,13.6-5.5,15.6-24.3
				c-3.3-1.6-7.9-4.8-10.7-8c-0.4,12.4-1.5,18.1-3.1,18.1c-2.1,0-4.1-4.7-5.7-12.5c8.3-13.5,14-29.7,17.9-48.9L493.1,65.7z"/>
		</g>
	</g>
</g>
<g>
	<g transform="translate(1236.212995, 397.492768)">
		<g>
			<path class="st17" d="M436.2,54.6h85.1V73h15.6V40.6h-17.7c3.7-4.7,7.6-9.9,11.2-15.1l-17.2-5.2c-2.5,6.3-7.1,14-11.5,20.3h-20.1
				l6.4-2.5c-1.7-5.3-6.1-13.5-10.4-19.2l-14,5.1c3.2,5.1,6.5,11.5,8.4,16.7H451l4.8-2.3c-2.1-5.2-7.5-12.3-12.1-17.5l-13.5,6
				c3.2,4.1,6.8,9.3,9.2,13.7h-18.1V73h14.9V54.6z M538.2,94.6h-50.1c10.8-6.3,21.2-14.7,28.7-22.8l-10-7.7l-3.5,0.8h-59.9v13.7
				h45.2c-3.2,2.7-6.8,5.2-10.3,7.3h-7.6v8.7h-51.2v14.7h51.2v17.3c0,1.9-0.7,2.4-3.5,2.4c-2.7,0.1-12.5,0.1-21.1-0.3
				c2.4,4.3,5.5,10.9,6.5,15.5c11.3,0,19.6-0.3,25.9-2.5c6.5-2.3,8.3-6.4,8.3-14.7v-17.7h51.3V94.6z"/>
		</g>
	</g>
</g>
<g>
	<g transform="translate(1336.209149, 397.492768)">
		<g>
			<path class="st17" d="M485,55.3c-12.8,4.4-25.9,8.9-34.5,11.6l5.5,12.9c9.5-3.9,20.8-8.5,31.5-13.2L485,55.3z M541.1,108h-57.1
				v-7.7h57.1V108z M484.1,127.6v-7.7h57.1v7.7H484.1z M506.3,76.5c0.8-1.7,1.1-4,1.1-6.9V25.4h-53.5v12.3h10.1l-6.7,8
				c6,3.2,13.5,8.4,16.9,12.1l7.9-10.1c-3.2-3.1-9.3-7.1-14.8-10h25.7v31.7c0,1.3-0.5,1.9-2,1.9c-1.5,0-6.7,0-11.2-0.1
				c1.6,3.1,3.5,7.7,4,11.2c8.1,0,14,0,18.1-1.7l0.4-0.1c-0.8,2.4-1.7,5.2-2.8,7.7h-31.3v56.1h15.7v-4.8h57.1v4.8h16.5V88.2h-42.3
				c1.7-2.9,3.6-6.3,5.2-9.7L506.3,76.5z M567.7,25.4h-53.1v12.3h8.7l-6.3,7.9c5.6,3.1,12.9,7.9,16.7,11.6
				c-8.7,2.9-16.8,5.5-22.9,7.3l5.3,11.9c9.9-3.6,22.1-8.1,33.6-12.5l-2.4-11.3c-4.1,1.5-8.3,2.8-12.3,4.3l7.2-9.6
				c-3.2-2.8-9.3-6.7-14.8-9.5h25.5V69c0,1.5-0.5,1.9-2.3,2c-1.6,0-7.5,0-12.5-0.3c1.7,3.3,3.6,8.3,4.3,12c8.7,0.1,15.1,0,19.5-2
				c4.5-2,5.9-5.2,5.9-11.6V25.4z"/>
		</g>
	</g>
</g>
<g>
	<g transform="translate(97.820855, 271.692759)">
		<g>
			<path class="st6" d="M61.4,38.9l-8,26.9c-0.1,0.5,0.1,0.7,0.6,0.7h15c0.5,0,0.7-0.2,0.6-0.7l-8-26.9
				C61.6,38.8,61.6,38.8,61.4,38.9C61.5,38.8,61.4,38.8,61.4,38.9z M50.4,76.2L47.5,86c-0.5,1.4-1.3,2.5-2.4,3.3
				c-1.1,0.8-2.4,1.3-3.8,1.3h-2.7c-1.2,0-2.1-0.5-2.8-1.4c-0.7-1-0.8-2-0.4-3.2l18.4-53.1c0.4-1.4,1.3-2.5,2.5-3.3
				c1.2-0.9,2.5-1.3,4-1.3h3.1c1.5,0,2.8,0.4,4,1.3c1.2,0.8,2,2,2.5,3.3L88.1,86c0.4,1.1,0.3,2.2-0.4,3.2c-0.7,1-1.6,1.4-2.8,1.4
				h-3.1c-1.4,0-2.7-0.4-3.8-1.3c-1.1-0.9-1.9-2-2.4-3.3l-2.9-9.7c-0.1-0.5-0.4-0.7-0.9-0.7H51.3C50.8,75.5,50.5,75.8,50.4,76.2z"/>
		</g>
	</g>
</g>
<g>
	<g transform="translate(141.466179, 271.692759)">
		<g>
			<path class="st6" d="M64.4,71.2v14.5c0,1.3-0.5,2.4-1.5,3.4c-1,1-2.1,1.4-3.4,1.4h-1.6c-1.3,0-2.4-0.5-3.4-1.4
				c-1-1-1.4-2.1-1.4-3.4V51.1c0-1.3,0.5-2.5,1.4-3.4c1-1,2.1-1.5,3.4-1.5h0.9c1.3,0,2.4,0.5,3.4,1.5c0.9,1,1.4,2.1,1.5,3.4l0.1,3.6
				c0,0.1,0,0.1,0.1,0.1c0.1,0,0.1,0,0.2-0.1c4.2-5,9.4-8,15.8-9c1.2-0.2,2.2,0.2,3.1,1c0.9,0.8,1.4,1.9,1.4,3.1s-0.5,2.3-1.4,3.3
				c-0.9,0.9-2,1.4-3.2,1.6c-5,0.7-8.8,2.5-11.4,5.4C65.7,63,64.4,66.7,64.4,71.2z"/>
		</g>
	</g>
</g>
<g>
	<g transform="translate(172.440275, 271.692759)">
		<g>
			<path class="st6" d="M70.5,76.3V56.9c0-0.5-0.2-0.7-0.7-0.7h-4.4c-1.1,0-2.1-0.4-2.9-1.2c-0.8-0.8-1.2-1.8-1.2-2.9
				c0-1.1,0.4-2.1,1.2-2.9c0.8-0.8,1.8-1.2,2.9-1.2h4.4c0.5,0,0.7-0.3,0.7-0.8V36.5c0-1.3,0.5-2.4,1.4-3.4c1-1,2.1-1.5,3.4-1.5h1.6
				c1.3,0,2.4,0.5,3.4,1.5c1,1,1.5,2.1,1.5,3.4v10.6c0,0.5,0.3,0.8,0.8,0.8H93c1.1,0,2.1,0.4,2.9,1.2c0.8,0.8,1.2,1.8,1.2,2.9
				c0,1.1-0.4,2.1-1.2,2.9c-0.8,0.8-1.8,1.2-2.9,1.2H82.6c-0.5,0-0.8,0.2-0.8,0.7v17.5c0,3.3,0.4,5.6,1.3,6.8
				c0.9,1.2,2.4,1.8,4.6,1.8c0.8,0,2.1-0.1,3.7-0.3c1.1-0.2,2.1,0.1,3,0.6c0.9,0.6,1.5,1.4,1.7,2.4c0.2,1.2,0,2.3-0.6,3.3
				s-1.5,1.6-2.7,1.8c-2.6,0.5-5,0.7-7.4,0.7c-5.2,0-9-1.2-11.4-3.5C71.6,85.6,70.5,81.7,70.5,76.3z"/>
		</g>
	</g>
</g>
<g>
	<g transform="translate(206.550178, 271.692759)">
		<g>
			<path class="st6" d="M89,31.4v0.5c0,1.3-0.5,2.4-1.4,3.4c-0.9,1-2.1,1.5-3.4,1.5h-2c-1.3,0-2.4-0.5-3.4-1.5c-1-1-1.4-2.1-1.4-3.4
				v-0.5c0-1.3,0.5-2.4,1.4-3.4c1-1,2.1-1.5,3.4-1.5h2c1.3,0,2.4,0.5,3.4,1.5C88.5,29,89,30.1,89,31.4z M89,51.1v34.6
				c0,1.3-0.5,2.4-1.4,3.4c-0.9,1-2.1,1.4-3.4,1.4h-2c-1.3,0-2.4-0.5-3.4-1.4c-1-1-1.4-2.1-1.4-3.4V51.1c0-1.3,0.5-2.5,1.4-3.4
				c1-1,2.1-1.5,3.4-1.5h2c1.3,0,2.4,0.5,3.4,1.5C88.5,48.6,89,49.7,89,51.1z"/>
		</g>
	</g>
</g>
<g>
	<g transform="translate(227.988862, 271.692759)">
		<g>
			<path class="st6" d="M90.9,85.7V56.9c0-0.5-0.3-0.7-0.8-0.7h-5.8c-1.1,0-2.1-0.4-2.9-1.2c-0.8-0.8-1.2-1.8-1.2-2.9
				c0-1.1,0.4-2.1,1.2-2.9c0.8-0.8,1.8-1.2,2.9-1.2h5.8c0.5,0,0.8-0.3,0.8-0.8v-2.9c0-5.5,1.4-9.7,4.2-12.5
				c2.8-2.8,6.9-4.3,12.3-4.3c2,0,3.8,0.1,5.3,0.3c1.2,0.2,2.1,0.8,2.8,1.9c0.7,1,0.8,2.2,0.6,3.4c-0.2,1.1-0.8,1.9-1.8,2.5
				c-1,0.6-2.1,0.8-3.3,0.6c-0.5-0.1-1.1-0.1-1.9-0.1c-2.5,0-4.3,0.6-5.3,1.8c-1,1.2-1.5,3.4-1.5,6.4v2.9c0,0.5,0.2,0.8,0.7,0.8h9
				c1.1,0,2.1,0.4,2.9,1.2c0.8,0.8,1.2,1.8,1.2,2.9c0,1.1-0.4,2.1-1.2,2.9c-0.8,0.8-1.8,1.2-2.9,1.2h-9c-0.5,0-0.7,0.2-0.7,0.7v28.9
				c0,1.3-0.5,2.4-1.5,3.4c-1,1-2.1,1.4-3.4,1.4h-1.6c-1.3,0-2.4-0.5-3.4-1.4C91.3,88.2,90.9,87,90.9,85.7z"/>
		</g>
	</g>
</g>
<g>
	<g transform="translate(262.098765, 271.692759)">
		<g>
			<path class="st6" d="M107.5,31.4v0.5c0,1.3-0.5,2.4-1.4,3.4c-0.9,1-2.1,1.5-3.4,1.5h-2c-1.3,0-2.4-0.5-3.4-1.5
				c-1-1-1.4-2.1-1.4-3.4v-0.5c0-1.3,0.5-2.4,1.4-3.4c1-1,2.1-1.5,3.4-1.5h2c1.3,0,2.4,0.5,3.4,1.5C107,29,107.5,30.1,107.5,31.4z
				 M107.5,51.1v34.6c0,1.3-0.5,2.4-1.4,3.4c-0.9,1-2.1,1.4-3.4,1.4h-2c-1.3,0-2.4-0.5-3.4-1.4c-1-1-1.4-2.1-1.4-3.4V51.1
				c0-1.3,0.5-2.5,1.4-3.4c1-1,2.1-1.5,3.4-1.5h2c1.3,0,2.4,0.5,3.4,1.5C107,48.6,107.5,49.7,107.5,51.1z"/>
		</g>
	</g>
</g>
<g>
	<g transform="translate(283.537449, 271.692759)">
		<g>
			<path class="st6" d="M121.1,91.4c-7.1,0-12.8-2.1-17.2-6.2c-4.3-4.2-6.5-9.8-6.5-16.8c0-7.2,2.1-12.9,6.3-16.9
				c4.2-4.1,10-6.1,17.4-6.1c3.3,0,6.7,0.5,10.3,1.6c1.2,0.3,2.1,1.1,2.6,2.2c0.5,1.1,0.6,2.3,0.3,3.5c-0.3,1.1-1.1,1.9-2.1,2.4
				c-1.1,0.5-2.1,0.5-3.2,0.1c-2.4-0.8-4.8-1.3-7.4-1.3c-4,0-7.2,1.3-9.4,3.8s-3.4,6.1-3.4,10.8c0,4.6,1.2,8.1,3.5,10.8
				c2.4,2.6,5.4,3.9,9.3,3.9c2.6,0,5-0.4,7.4-1.3c1.1-0.4,2.1-0.4,3.2,0c1.1,0.4,1.8,1.2,2.1,2.3c0.4,1.2,0.3,2.4-0.3,3.5
				c-0.6,1.1-1.5,1.9-2.6,2.2C127.8,90.9,124.3,91.4,121.1,91.4z"/>
		</g>
	</g>
</g>
<g>
	<g transform="translate(317.26338, 271.692759)">
		<g>
			<path class="st6" d="M125.9,31.4v0.5c0,1.3-0.5,2.4-1.4,3.4c-0.9,1-2.1,1.5-3.4,1.5h-2c-1.3,0-2.4-0.5-3.4-1.5
				c-1-1-1.4-2.1-1.4-3.4v-0.5c0-1.3,0.5-2.4,1.4-3.4c1-1,2.1-1.5,3.4-1.5h2c1.3,0,2.4,0.5,3.4,1.5C125.4,29,125.9,30.1,125.9,31.4z
				 M125.9,51.1v34.6c0,1.3-0.5,2.4-1.4,3.4c-0.9,1-2.1,1.4-3.4,1.4h-2c-1.3,0-2.4-0.5-3.4-1.4c-1-1-1.4-2.1-1.4-3.4V51.1
				c0-1.3,0.5-2.5,1.4-3.4c1-1,2.1-1.5,3.4-1.5h2c1.3,0,2.4,0.5,3.4,1.5C125.4,48.6,125.9,49.7,125.9,51.1z"/>
		</g>
	</g>
</g>
<g>
	<g transform="translate(338.702075, 271.692759)">
		<g>
			<path class="st6" d="M141,69.3c-4.5,0-7.9,0.8-10.3,2.3c-2.4,1.5-3.6,3.5-3.6,5.9c0,1.8,0.5,3.2,1.6,4.3c1.1,1,2.6,1.5,4.4,1.5
				c3.2,0,6-1,8.2-3.1c2.2-2.1,3.3-4.8,3.3-8v-2.1c0-0.5-0.2-0.8-0.7-0.8H141z M130.3,91.4c-4.2,0-7.5-1.2-10-3.5
				c-2.5-2.3-3.7-5.5-3.7-9.6c0-4.9,2.1-8.9,6.3-11.9c4.2-3,10.2-4.5,18.1-4.5h3c0.5,0,0.7-0.2,0.7-0.7c-0.1-2.8-0.7-4.8-1.9-6
				c-1.2-1.1-3.3-1.7-6.3-1.7c-4,0-7.9,0.7-11.9,2.1c-1,0.3-2,0.3-3-0.2c-0.9-0.5-1.5-1.2-1.7-2.3c-0.2-1.2-0.1-2.3,0.5-3.4
				c0.6-1.1,1.4-1.8,2.6-2.2c4.5-1.5,9.1-2.3,13.8-2.3c6.8,0,11.6,1.3,14.6,4c3,2.6,4.4,6.9,4.4,12.8v16.5c0,2.3,0.2,4.7,0.5,7.1
				c0.2,1.3-0.2,2.4-1,3.4c-0.8,1-1.8,1.5-3.1,1.5h-0.9c-1.4,0-2.7-0.4-3.8-1.4c-1.1-0.9-1.7-2.1-1.8-3.4c-0.1-0.4-0.1-0.9-0.1-1.6
				c0-0.1,0-0.2-0.1-0.2c-0.1,0-0.2,0-0.2,0.1c-1.6,2.3-3.8,4.1-6.5,5.4C136.3,90.8,133.4,91.4,130.3,91.4z"/>
		</g>
	</g>
</g>
<g>
	<g transform="translate(374.987854, 271.692759)">
		<g>
			<path class="st6" d="M145.1,31.4v54.3c0,1.3-0.5,2.4-1.4,3.4c-0.9,1-2.1,1.4-3.4,1.4h-2c-1.3,0-2.4-0.5-3.4-1.4
				c-1-1-1.4-2.1-1.4-3.4V31.4c0-1.3,0.5-2.4,1.4-3.4c1-1,2.1-1.5,3.4-1.5h2c1.3,0,2.4,0.5,3.4,1.5C144.7,29,145.1,30.1,145.1,31.4z
				"/>
		</g>
	</g>
</g>
<g>
	<g transform="translate(396.426527, 271.692759)">
	</g>
</g>
<g>
	<g transform="translate(415.881344, 271.692759)">
		<g>
			<path class="st6" d="M160.1,33.1v52.6c0,1.3-0.5,2.4-1.4,3.4c-0.9,1-2.1,1.4-3.4,1.4h-3.4c-1.3,0-2.4-0.5-3.4-1.4
				c-1-1-1.4-2.1-1.4-3.4V33.1c0-1.3,0.5-2.4,1.4-3.4c1-1,2.1-1.5,3.4-1.5h3.4c1.3,0,2.4,0.5,3.4,1.5
				C159.7,30.7,160.1,31.8,160.1,33.1z"/>
		</g>
	</g>
</g>
<g>
	<g transform="translate(438.343966, 271.692759)">
		<g>
			<path class="st6" d="M163.1,66.9v18.8c0,1.3-0.5,2.4-1.5,3.4c-1,1-2.1,1.4-3.4,1.4h-1.4c-1.3,0-2.4-0.5-3.4-1.4
				c-1-1-1.4-2.1-1.4-3.4V51.1c0-1.3,0.5-2.5,1.4-3.4c1-1,2.1-1.5,3.4-1.5h0.7c1.4,0,2.5,0.5,3.5,1.4c1,0.9,1.5,2.1,1.6,3.5v1.3
				c0,0.1,0,0.1,0.1,0.1c0.1,0,0.2,0,0.2-0.1c1.7-2.2,3.8-3.9,6.3-5.1c2.5-1.3,5.1-1.9,7.8-1.9c5.1,0,8.9,1.6,11.3,4.8
				c2.4,3.2,3.6,8.3,3.6,15.5v20.1c0,1.3-0.5,2.4-1.5,3.4c-1,1-2.1,1.4-3.4,1.4h-1.3c-1.3,0-2.5-0.5-3.4-1.4c-0.9-1-1.4-2.1-1.4-3.4
				v-19c0-4.9-0.6-8.2-1.7-9.9c-1.1-1.7-3.2-2.6-6.1-2.6c-2.5,0-4.8,1.3-6.9,3.9C164.1,60.5,163.1,63.5,163.1,66.9z"/>
		</g>
	</g>
</g>
<g>
	<g transform="translate(476.677619, 271.692759)">
		<g>
			<path class="st6" d="M171.9,76.3V56.9c0-0.5-0.2-0.7-0.7-0.7h-4.4c-1.1,0-2.1-0.4-2.9-1.2c-0.8-0.8-1.2-1.8-1.2-2.9
				c0-1.1,0.4-2.1,1.2-2.9c0.8-0.8,1.8-1.2,2.9-1.2h4.4c0.5,0,0.7-0.3,0.7-0.8V36.5c0-1.3,0.5-2.4,1.4-3.4c1-1,2.1-1.5,3.4-1.5h1.6
				c1.3,0,2.4,0.5,3.4,1.5c1,1,1.5,2.1,1.5,3.4v10.6c0,0.5,0.3,0.8,0.8,0.8h10.4c1.1,0,2.1,0.4,2.9,1.2c0.8,0.8,1.2,1.8,1.2,2.9
				c0,1.1-0.4,2.1-1.2,2.9c-0.8,0.8-1.8,1.2-2.9,1.2H184c-0.5,0-0.8,0.2-0.8,0.7v17.5c0,3.3,0.4,5.6,1.3,6.8
				c0.9,1.2,2.4,1.8,4.6,1.8c0.8,0,2.1-0.1,3.7-0.3c1.1-0.2,2.1,0.1,3,0.6c0.9,0.6,1.5,1.4,1.7,2.4c0.2,1.2,0,2.3-0.6,3.3
				s-1.5,1.6-2.7,1.8c-2.6,0.5-5,0.7-7.4,0.7c-5.2,0-9-1.2-11.4-3.5C173,85.6,171.9,81.7,171.9,76.3z"/>
		</g>
	</g>
</g>
<g>
	<g transform="translate(510.787509, 271.692759)">
		<g>
			<path class="st6" d="M194.8,53.4c-3,0-5.5,0.9-7.3,2.8c-1.8,1.8-2.9,4.5-3.1,8c0,0.5,0.2,0.7,0.7,0.7h19.3c0.5,0,0.7-0.2,0.7-0.7
				c-0.2-3.5-1.1-6.1-2.9-8C200.3,54.3,197.8,53.4,194.8,53.4z M195.8,91.4c-6.7,0-12.2-2.1-16.4-6.2c-4.2-4.2-6.3-9.8-6.3-16.8
				c0-7.2,1.9-12.8,5.8-16.9c3.9-4.1,9.1-6.1,15.7-6.1c6.5,0,11.6,1.9,15.3,5.8c3.7,3.8,5.6,9.3,5.6,16.5c0,1.4-0.5,2.5-1.5,3.4
				c-1,0.9-2.2,1.4-3.6,1.4H185c-0.6,0-0.8,0.3-0.7,0.8c0.5,3.1,1.8,5.6,4,7.4c2.3,1.8,5.1,2.7,8.4,2.7c3,0,5.9-0.5,8.8-1.5
				c1-0.4,2-0.4,3.1,0.1c1,0.5,1.7,1.2,2.1,2.2c0.4,1.1,0.3,2.2-0.2,3.3c-0.5,1-1.3,1.8-2.4,2.2C204.3,90.8,200.2,91.4,195.8,91.4z"
				/>
		</g>
	</g>
</g>
<g>
	<g transform="translate(547.201279, 271.692759)">
		<g>
			<path class="st6" d="M202.5,31.4v54.3c0,1.3-0.5,2.4-1.4,3.4c-0.9,1-2.1,1.4-3.4,1.4h-2c-1.3,0-2.4-0.5-3.4-1.4
				c-1-1-1.4-2.1-1.4-3.4V31.4c0-1.3,0.5-2.4,1.4-3.4c1-1,2.1-1.5,3.4-1.5h2c1.3,0,2.4,0.5,3.4,1.5C202.1,29,202.5,30.1,202.5,31.4z
				"/>
		</g>
	</g>
</g>
<g>
	<g transform="translate(568.639952, 271.692759)">
		<g>
			<path class="st6" d="M209.7,31.4v54.3c0,1.3-0.5,2.4-1.4,3.4c-0.9,1-2.1,1.4-3.4,1.4h-2c-1.3,0-2.4-0.5-3.4-1.4
				c-1-1-1.4-2.1-1.4-3.4V31.4c0-1.3,0.5-2.4,1.4-3.4c1-1,2.1-1.5,3.4-1.5h2c1.3,0,2.4,0.5,3.4,1.5C209.2,29,209.7,30.1,209.7,31.4z
				"/>
		</g>
	</g>
</g>
<g>
	<g transform="translate(590.078625, 271.692759)">
		<g>
			<path class="st6" d="M216.8,31.4v0.5c0,1.3-0.5,2.4-1.4,3.4c-0.9,1-2.1,1.5-3.4,1.5h-2c-1.3,0-2.4-0.5-3.4-1.5
				c-1-1-1.4-2.1-1.4-3.4v-0.5c0-1.3,0.5-2.4,1.4-3.4c1-1,2.1-1.5,3.4-1.5h2c1.3,0,2.4,0.5,3.4,1.5C216.4,29,216.8,30.1,216.8,31.4z
				 M216.8,51.1v34.6c0,1.3-0.5,2.4-1.4,3.4c-0.9,1-2.1,1.4-3.4,1.4h-2c-1.3,0-2.4-0.5-3.4-1.4c-1-1-1.4-2.1-1.4-3.4V51.1
				c0-1.3,0.5-2.5,1.4-3.4c1-1,2.1-1.5,3.4-1.5h2c1.3,0,2.4,0.5,3.4,1.5C216.4,48.6,216.8,49.7,216.8,51.1z"/>
		</g>
	</g>
</g>
<g>
	<g transform="translate(611.517299, 271.692759)">
		<g>
			<path class="st6" d="M235.3,57.4c-1.9-2.3-4.4-3.5-7.5-3.5s-5.6,1.2-7.3,3.5c-1.8,2.3-2.6,5.7-2.6,10.1c0,4.3,0.9,7.6,2.8,10
				c1.8,2.4,4.3,3.6,7.2,3.6c3.1,0,5.6-1.2,7.5-3.5c1.9-2.3,2.8-5.6,2.8-9.7v-0.9C238.2,63,237.2,59.7,235.3,57.4z M224.7,89.7
				c-5,0-9.2-2-12.5-6c-3.3-4-5-9.4-5-16.2c0-7.2,1.5-12.7,4.6-16.5c3.1-3.8,7.4-5.7,12.8-5.7c5.6,0,10.2,2.3,13.8,7
				c0.1,0.1,0.1,0.1,0.2,0.1c0.1,0,0.1,0,0.1-0.1l0.1-1.3c0.1-1.4,0.6-2.5,1.5-3.5c0.9-0.9,2.1-1.4,3.5-1.4h0.8
				c1.3,0,2.4,0.5,3.4,1.5c0.9,1,1.4,2.1,1.4,3.4v35c0,16.1-7.8,24.1-23.3,24.1c-3.6,0-7.1-0.4-10.4-1.3c-1.2-0.3-2.1-1-2.6-2.1
				c-0.6-1.1-0.7-2.2-0.4-3.4c0.2-1.1,0.8-1.9,1.8-2.4c1-0.5,2-0.7,3.1-0.4c2.9,0.8,5.7,1.2,8.3,1.2c4.4,0,7.6-1.2,9.6-3.5
				c2-2.3,3-6.3,3-12v-3.1l-0.1-0.1c-0.1,0-0.2,0.1-0.2,0.2C234.9,87.6,230.5,89.7,224.7,89.7z"/>
		</g>
	</g>
</g>
<g>
	<g transform="translate(649.97892, 271.692759)">
		<g>
			<path class="st6" d="M241.2,53.4c-3,0-5.5,0.9-7.3,2.8c-1.8,1.8-2.9,4.5-3.1,8c0,0.5,0.2,0.7,0.7,0.7h19.3c0.5,0,0.7-0.2,0.7-0.7
				c-0.2-3.5-1.1-6.1-2.9-8C246.7,54.3,244.2,53.4,241.2,53.4z M242.2,91.4c-6.7,0-12.2-2.1-16.4-6.2c-4.2-4.2-6.3-9.8-6.3-16.8
				c0-7.2,1.9-12.8,5.8-16.9c3.9-4.1,9.1-6.1,15.7-6.1c6.5,0,11.6,1.9,15.3,5.8c3.7,3.8,5.6,9.3,5.6,16.5c0,1.4-0.5,2.5-1.5,3.4
				c-1,0.9-2.2,1.4-3.6,1.4h-25.4c-0.6,0-0.8,0.3-0.7,0.8c0.5,3.1,1.8,5.6,4,7.4c2.3,1.8,5.1,2.7,8.4,2.7c3,0,5.9-0.5,8.8-1.5
				c1-0.4,2-0.4,3.1,0.1c1,0.5,1.7,1.2,2.1,2.2c0.4,1.1,0.3,2.2-0.2,3.3c-0.5,1-1.3,1.8-2.4,2.2C250.7,90.8,246.6,91.4,242.2,91.4z"
				/>
		</g>
	</g>
</g>
<g>
	<g transform="translate(686.39269, 271.692759)">
		<g>
			<path class="st6" d="M245.8,66.9v18.8c0,1.3-0.5,2.4-1.5,3.4c-1,1-2.1,1.4-3.4,1.4h-1.4c-1.3,0-2.4-0.5-3.4-1.4
				c-1-1-1.4-2.1-1.4-3.4V51.1c0-1.3,0.5-2.5,1.4-3.4c1-1,2.1-1.5,3.4-1.5h0.7c1.4,0,2.5,0.5,3.5,1.4c1,0.9,1.5,2.1,1.6,3.5v1.3
				c0,0.1,0,0.1,0.1,0.1c0.1,0,0.2,0,0.2-0.1c1.7-2.2,3.8-3.9,6.3-5.1c2.5-1.3,5.1-1.9,7.8-1.9c5.1,0,8.9,1.6,11.3,4.8
				c2.4,3.2,3.6,8.3,3.6,15.5v20.1c0,1.3-0.5,2.4-1.5,3.4c-1,1-2.1,1.4-3.4,1.4h-1.3c-1.3,0-2.5-0.5-3.4-1.4c-0.9-1-1.4-2.1-1.4-3.4
				v-19c0-4.9-0.6-8.2-1.7-9.9c-1.1-1.7-3.2-2.6-6.1-2.6c-2.5,0-4.8,1.3-6.9,3.9C246.8,60.5,245.8,63.5,245.8,66.9z"/>
		</g>
	</g>
</g>
<g>
	<g transform="translate(724.72632, 271.692759)">
		<g>
			<path class="st6" d="M268.1,91.4c-7.1,0-12.8-2.1-17.2-6.2c-4.3-4.2-6.5-9.8-6.5-16.8c0-7.2,2.1-12.9,6.3-16.9
				c4.2-4.1,10-6.1,17.4-6.1c3.3,0,6.7,0.5,10.3,1.6c1.2,0.3,2.1,1.1,2.6,2.2c0.5,1.1,0.6,2.3,0.3,3.5c-0.3,1.1-1.1,1.9-2.1,2.4
				c-1.1,0.5-2.1,0.5-3.2,0.1c-2.4-0.8-4.8-1.3-7.4-1.3c-4,0-7.2,1.3-9.4,3.8s-3.4,6.1-3.4,10.8c0,4.6,1.2,8.1,3.5,10.8
				c2.4,2.6,5.4,3.9,9.3,3.9c2.6,0,5-0.4,7.4-1.3c1.1-0.4,2.1-0.4,3.2,0c1.1,0.4,1.8,1.2,2.1,2.3c0.4,1.2,0.3,2.4-0.3,3.5
				c-0.6,1.1-1.5,1.9-2.6,2.2C274.8,90.9,271.4,91.4,268.1,91.4z"/>
		</g>
	</g>
</g>
<g>
	<g transform="translate(758.452239, 271.692759)">
		<g>
			<path class="st6" d="M277.3,53.4c-3,0-5.5,0.9-7.3,2.8c-1.8,1.8-2.9,4.5-3.1,8c0,0.5,0.2,0.7,0.7,0.7h19.3c0.5,0,0.7-0.2,0.7-0.7
				c-0.2-3.5-1.1-6.1-2.9-8C282.8,54.3,280.4,53.4,277.3,53.4z M278.3,91.4c-6.7,0-12.2-2.1-16.4-6.2c-4.2-4.2-6.3-9.8-6.3-16.8
				c0-7.2,1.9-12.8,5.8-16.9c3.9-4.1,9.1-6.1,15.7-6.1c6.5,0,11.6,1.9,15.3,5.8c3.7,3.8,5.6,9.3,5.6,16.5c0,1.4-0.5,2.5-1.5,3.4
				c-1,0.9-2.2,1.4-3.6,1.4h-25.4c-0.6,0-0.8,0.3-0.7,0.8c0.5,3.1,1.8,5.6,4,7.4c2.3,1.8,5.1,2.7,8.4,2.7c3,0,5.9-0.5,8.8-1.5
				c1-0.4,2-0.4,3.1,0.1c1,0.5,1.7,1.2,2.1,2.2c0.4,1.1,0.3,2.2-0.2,3.3c-0.5,1-1.3,1.8-2.4,2.2C286.9,90.8,282.8,91.4,278.3,91.4z"
				/>
		</g>
	</g>
</g>
<g>
	<g transform="translate(2014.501763, 733.042838)">
		<g>
			<path class="st6" d="M690,192v42.5c0,0.4,0.2,0.7,0.7,0.8c1.8,0.3,3.5,0.4,5.2,0.4c6.9,0,12.1-1.9,15.6-5.7
				c3.4-3.8,5.2-9.7,5.2-17.6c0-14.4-6.9-21.6-20.8-21.6c-1.6,0-3.4,0.1-5.2,0.4C690.3,191.3,690,191.6,690,192z M728,212.3
				c0,10.6-2.8,18.8-8.5,24.4c-5.7,5.6-13.7,8.4-24.2,8.4c-4.5,0-8.6-0.2-12.2-0.6c-1.4-0.2-2.6-0.8-3.5-1.8
				c-0.9-1.1-1.4-2.3-1.4-3.7v-51.7c0-1.4,0.4-2.7,1.4-3.7c0.9-1.1,2.1-1.7,3.5-1.8c3.6-0.4,7.7-0.6,12.2-0.6
				c10.4,0,18.4,2.7,24.1,8.1C725.2,194.8,728,202.4,728,212.3z"/>
		</g>
	</g>
</g>
<g>
	<g transform="translate(2059.043035, 733.042838)">
		<g>
			<path class="st6" d="M710.8,207.1c-3,0-5.5,0.9-7.3,2.8c-1.8,1.8-2.9,4.5-3.1,8c0,0.5,0.2,0.7,0.7,0.7h19.3
				c0.5,0,0.7-0.2,0.7-0.7c-0.2-3.5-1.1-6.1-2.9-8C716.3,208.1,713.9,207.1,710.8,207.1z M711.9,245.2c-6.7,0-12.2-2.1-16.4-6.2
				c-4.2-4.2-6.3-9.8-6.3-16.8c0-7.2,1.9-12.8,5.8-16.9c3.9-4.1,9.1-6.1,15.7-6.1c6.5,0,11.6,1.9,15.3,5.8c3.7,3.8,5.6,9.3,5.6,16.5
				c0,1.4-0.5,2.5-1.5,3.4c-1,0.9-2.2,1.4-3.6,1.4h-25.4c-0.6,0-0.8,0.3-0.7,0.8c0.5,3.1,1.8,5.6,4,7.4c2.3,1.8,5.1,2.7,8.4,2.7
				c3,0,5.9-0.5,8.8-1.5c1-0.4,2-0.4,3.1,0.1c1,0.5,1.7,1.2,2.1,2.2c0.4,1.1,0.3,2.2-0.2,3.3c-0.5,1-1.3,1.8-2.4,2.2
				C720.4,244.6,716.3,245.2,711.9,245.2z"/>
		</g>
	</g>
</g>
<g>
	<g transform="translate(2095.456804, 733.042838)">
		<g>
			<path class="st6" d="M723,207.1c-3,0-5.5,0.9-7.3,2.8c-1.8,1.8-2.9,4.5-3.1,8c0,0.5,0.2,0.7,0.7,0.7h19.3c0.5,0,0.7-0.2,0.7-0.7
				c-0.2-3.5-1.1-6.1-2.9-8C728.5,208.1,726.1,207.1,723,207.1z M724,245.2c-6.7,0-12.2-2.1-16.4-6.2c-4.2-4.2-6.3-9.8-6.3-16.8
				c0-7.2,1.9-12.8,5.8-16.9c3.9-4.1,9.1-6.1,15.7-6.1c6.5,0,11.6,1.9,15.3,5.8c3.7,3.8,5.6,9.3,5.6,16.5c0,1.4-0.5,2.5-1.5,3.4
				c-1,0.9-2.2,1.4-3.6,1.4h-25.4c-0.6,0-0.8,0.3-0.7,0.8c0.5,3.1,1.8,5.6,4,7.4c2.3,1.8,5.1,2.7,8.4,2.7c3,0,5.9-0.5,8.8-1.5
				c1-0.4,2-0.4,3.1,0.1c1,0.5,1.7,1.2,2.1,2.2c0.4,1.1,0.3,2.2-0.2,3.3c-0.5,1-1.3,1.8-2.4,2.2C732.5,244.6,728.4,245.2,724,245.2z
				"/>
		</g>
	</g>
</g>
<g>
	<g transform="translate(2131.870574, 733.042838)">
		<g>
			<path class="st6" d="M727.6,221.7v0.9c0,4.4,0.9,7.9,2.8,10.3c1.8,2.4,4.3,3.6,7.3,3.6c3,0,5.5-1.2,7.4-3.7
				c1.9-2.5,2.9-6,2.9-10.6c0-4.8-0.9-8.4-2.7-10.8c-1.8-2.4-4.3-3.6-7.6-3.6c-3,0-5.4,1.2-7.3,3.7
				C728.5,214,727.6,217.4,727.6,221.7z M727.6,239.1v19.2c0,1.3-0.5,2.4-1.5,3.4c-1,1-2.1,1.5-3.4,1.5h-1.4c-1.3,0-2.4-0.5-3.4-1.5
				c-1-1-1.4-2.1-1.4-3.4v-53.4c0-1.3,0.5-2.5,1.4-3.4c1-1,2.1-1.5,3.4-1.5h0.7c1.4,0,2.5,0.5,3.5,1.4c1,0.9,1.5,2.1,1.6,3.5v1.3
				c0,0.1,0,0.1,0.1,0.1c0.1,0,0.2,0,0.2-0.1c3.5-4.7,8-7,13.5-7c5.5,0,9.8,2,13,5.9c3.2,3.9,4.8,9.6,4.8,17.1c0,7.3-1.6,13-4.9,17
				c-3.3,4-7.5,6-12.8,6c-5.4,0-9.7-2-13-6.1C727.9,239,727.8,239,727.6,239.1C727.6,239,727.6,239,727.6,239.1z"/>
		</g>
	</g>
</g>
<g>
	<g transform="translate(2170.332218, 733.042838)">
	</g>
</g>
<g>
	<g transform="translate(2189.787023, 733.042838)">
		<g>
			<path class="st6" d="M776.5,239.2v0.3c0,1.3-0.5,2.4-1.5,3.4c-1,1-2.1,1.4-3.4,1.4h-30.1c-1.3,0-2.4-0.5-3.4-1.4
				c-1-1-1.4-2.1-1.4-3.4v-52.6c0-1.3,0.5-2.4,1.4-3.4c1-1,2.1-1.5,3.4-1.5h2.6c1.3,0,2.4,0.5,3.4,1.5c1,1,1.5,2.1,1.5,3.4v46.8
				c0,0.5,0.3,0.8,0.8,0.8h21.9c1.3,0,2.4,0.5,3.4,1.4C776,236.8,776.5,237.9,776.5,239.2z"/>
		</g>
	</g>
</g>
<g>
	<g transform="translate(2228.120665, 733.042838)">
		<g>
			<path class="st6" d="M767.2,207.1c-3,0-5.5,0.9-7.3,2.8c-1.8,1.8-2.9,4.5-3.1,8c0,0.5,0.2,0.7,0.7,0.7h19.3
				c0.5,0,0.7-0.2,0.7-0.7c-0.2-3.5-1.1-6.1-2.9-8C772.7,208.1,770.3,207.1,767.2,207.1z M768.2,245.2c-6.7,0-12.2-2.1-16.4-6.2
				c-4.2-4.2-6.3-9.8-6.3-16.8c0-7.2,1.9-12.8,5.8-16.9c3.9-4.1,9.1-6.1,15.7-6.1c6.5,0,11.6,1.9,15.3,5.8c3.7,3.8,5.6,9.3,5.6,16.5
				c0,1.4-0.5,2.5-1.5,3.4c-1,0.9-2.2,1.4-3.6,1.4h-25.4c-0.6,0-0.8,0.3-0.7,0.8c0.5,3.1,1.8,5.6,4,7.4c2.3,1.8,5.1,2.7,8.4,2.7
				c3,0,5.9-0.5,8.8-1.5c1-0.4,2-0.4,3.1,0.1c1,0.5,1.7,1.2,2.1,2.2c0.4,1.1,0.3,2.2-0.2,3.3c-0.5,1-1.3,1.8-2.4,2.2
				C776.8,244.6,772.7,245.2,768.2,245.2z"/>
		</g>
	</g>
</g>
<g>
	<g transform="translate(2264.534434, 733.042838)">
		<g>
			<path class="st6" d="M782.9,223.1c-4.5,0-7.9,0.8-10.3,2.3c-2.4,1.5-3.6,3.5-3.6,5.9c0,1.8,0.5,3.2,1.6,4.3
				c1.1,1,2.6,1.5,4.4,1.5c3.2,0,6-1,8.2-3.1c2.2-2.1,3.3-4.8,3.3-8v-2.1c0-0.5-0.2-0.8-0.7-0.8H782.9z M772.3,245.2
				c-4.2,0-7.5-1.2-10-3.5c-2.5-2.3-3.7-5.5-3.7-9.6c0-4.9,2.1-8.9,6.3-11.9c4.2-3,10.2-4.5,18.1-4.5h3c0.5,0,0.7-0.2,0.7-0.7
				c-0.1-2.8-0.7-4.8-1.9-6c-1.2-1.1-3.3-1.7-6.3-1.7c-4,0-7.9,0.7-11.9,2.1c-1,0.3-2,0.3-3-0.2c-0.9-0.5-1.5-1.2-1.7-2.3
				c-0.2-1.2-0.1-2.3,0.5-3.4c0.6-1.1,1.4-1.8,2.6-2.2c4.5-1.5,9.1-2.3,13.8-2.3c6.8,0,11.6,1.3,14.6,4c3,2.6,4.4,6.9,4.4,12.8v16.5
				c0,2.3,0.2,4.7,0.5,7.1c0.2,1.3-0.2,2.4-1,3.4c-0.8,1-1.8,1.5-3.1,1.5h-0.9c-1.4,0-2.7-0.4-3.8-1.4c-1.1-0.9-1.7-2.1-1.8-3.4
				c-0.1-0.4-0.1-0.9-0.1-1.6c0-0.1,0-0.2-0.1-0.2c-0.1,0-0.2,0-0.2,0.1c-1.6,2.3-3.8,4.1-6.5,5.4
				C778.3,244.5,775.4,245.2,772.3,245.2z"/>
		</g>
	</g>
</g>
<g>
	<g transform="translate(2300.82019, 733.042838)">
		<g>
			<path class="st6" d="M784.2,225v14.5c0,1.3-0.5,2.4-1.5,3.4c-1,1-2.1,1.4-3.4,1.4h-1.6c-1.3,0-2.4-0.5-3.4-1.4
				c-1-1-1.4-2.1-1.4-3.4v-34.6c0-1.3,0.5-2.5,1.4-3.4c1-1,2.1-1.5,3.4-1.5h0.9c1.3,0,2.4,0.5,3.4,1.5c0.9,1,1.4,2.1,1.5,3.4
				l0.1,3.6c0,0.1,0,0.1,0.1,0.1c0.1,0,0.1,0,0.2-0.1c4.2-5,9.4-8,15.8-9c1.2-0.2,2.2,0.2,3.1,1c0.9,0.8,1.4,1.9,1.4,3.1
				s-0.5,2.3-1.4,3.3c-0.9,0.9-2,1.4-3.2,1.6c-5,0.7-8.8,2.5-11.4,5.4C785.5,216.8,784.2,220.5,784.2,225z"/>
		</g>
	</g>
</g>
<g>
	<g transform="translate(2331.794286, 733.042838)">
		<g>
			<path class="st6" d="M794.2,220.7v18.8c0,1.3-0.5,2.4-1.5,3.4c-1,1-2.1,1.4-3.4,1.4H788c-1.3,0-2.4-0.5-3.4-1.4
				c-1-1-1.4-2.1-1.4-3.4v-34.6c0-1.3,0.5-2.5,1.4-3.4c1-1,2.1-1.5,3.4-1.5h0.7c1.4,0,2.5,0.5,3.5,1.4c1,0.9,1.5,2.1,1.6,3.5v1.3
				c0,0.1,0,0.1,0.1,0.1c0.1,0,0.2,0,0.2-0.1c1.7-2.2,3.8-3.9,6.3-5.1s5.1-1.9,7.8-1.9c5.1,0,8.9,1.6,11.3,4.8
				c2.4,3.2,3.6,8.3,3.6,15.5v20.1c0,1.3-0.5,2.4-1.5,3.4c-1,1-2.1,1.4-3.4,1.4h-1.3c-1.3,0-2.5-0.5-3.4-1.4c-0.9-1-1.4-2.1-1.4-3.4
				v-19c0-4.9-0.6-8.2-1.7-9.9c-1.1-1.7-3.2-2.6-6.1-2.6c-2.5,0-4.8,1.3-6.9,3.9C795.3,214.3,794.2,217.3,794.2,220.7z"/>
		</g>
	</g>
</g>
<g>
	<g transform="translate(2370.127939, 733.042838)">
		<g>
			<path class="st6" d="M810.2,185.2v0.5c0,1.3-0.5,2.4-1.4,3.4c-0.9,1-2.1,1.5-3.4,1.5h-2c-1.3,0-2.4-0.5-3.4-1.5
				c-1-1-1.4-2.1-1.4-3.4v-0.5c0-1.3,0.5-2.4,1.4-3.4c1-1,2.1-1.5,3.4-1.5h2c1.3,0,2.4,0.5,3.4,1.5
				C809.7,182.8,810.2,183.9,810.2,185.2z M810.2,204.8v34.6c0,1.3-0.5,2.4-1.4,3.4c-0.9,1-2.1,1.4-3.4,1.4h-2
				c-1.3,0-2.4-0.5-3.4-1.4c-1-1-1.4-2.1-1.4-3.4v-34.6c0-1.3,0.5-2.5,1.4-3.4c1-1,2.1-1.5,3.4-1.5h2c1.3,0,2.4,0.5,3.4,1.5
				C809.7,202.4,810.2,203.5,810.2,204.8z"/>
		</g>
	</g>
</g>
<g>
	<g transform="translate(2391.566612, 733.042838)">
		<g>
			<path class="st6" d="M814.2,220.7v18.8c0,1.3-0.5,2.4-1.5,3.4c-1,1-2.1,1.4-3.4,1.4h-1.4c-1.3,0-2.4-0.5-3.4-1.4
				c-1-1-1.4-2.1-1.4-3.4v-34.6c0-1.3,0.5-2.5,1.4-3.4c1-1,2.1-1.5,3.4-1.5h0.7c1.4,0,2.5,0.5,3.5,1.4c1,0.9,1.5,2.1,1.6,3.5v1.3
				c0,0.1,0,0.1,0.1,0.1c0.1,0,0.2,0,0.2-0.1c1.7-2.2,3.8-3.9,6.3-5.1s5.1-1.9,7.8-1.9c5.1,0,8.9,1.6,11.3,4.8
				c2.4,3.2,3.6,8.3,3.6,15.5v20.1c0,1.3-0.5,2.4-1.5,3.4c-1,1-2.1,1.4-3.4,1.4h-1.3c-1.3,0-2.5-0.5-3.4-1.4c-0.9-1-1.4-2.1-1.4-3.4
				v-19c0-4.9-0.6-8.2-1.7-9.9c-1.1-1.7-3.2-2.6-6.1-2.6c-2.5,0-4.8,1.3-6.9,3.9C815.2,214.3,814.2,217.3,814.2,220.7z"/>
		</g>
	</g>
</g>
<g>
	<g transform="translate(2429.900242, 733.042838)">
		<g>
			<path class="st6" d="M841.4,211.2c-1.9-2.3-4.4-3.5-7.5-3.5s-5.6,1.2-7.3,3.5c-1.8,2.3-2.6,5.7-2.6,10.1c0,4.3,0.9,7.6,2.8,10
				c1.8,2.4,4.3,3.6,7.2,3.6c3.1,0,5.6-1.2,7.5-3.5c1.9-2.3,2.8-5.6,2.8-9.7v-0.9C844.3,216.7,843.3,213.5,841.4,211.2z
				 M830.8,243.5c-5,0-9.2-2-12.5-6c-3.3-4-5-9.4-5-16.2c0-7.2,1.5-12.7,4.6-16.5c3.1-3.8,7.4-5.7,12.8-5.7c5.6,0,10.2,2.3,13.8,7
				c0.1,0.1,0.1,0.1,0.2,0.1c0.1,0,0.1,0,0.1-0.1l0.1-1.3c0.1-1.4,0.6-2.5,1.5-3.5c0.9-0.9,2.1-1.4,3.5-1.4h0.8
				c1.3,0,2.4,0.5,3.4,1.5c0.9,1,1.4,2.1,1.4,3.4v35c0,16.1-7.8,24.1-23.3,24.1c-3.6,0-7.1-0.4-10.4-1.3c-1.2-0.3-2.1-1-2.6-2.1
				c-0.6-1.1-0.7-2.2-0.4-3.4c0.2-1.1,0.8-1.9,1.8-2.4c1-0.5,2-0.7,3.1-0.4c2.9,0.8,5.7,1.2,8.3,1.2c4.4,0,7.6-1.2,9.6-3.5
				c2-2.3,3-6.3,3-12V237l-0.1-0.1c-0.1,0-0.2,0.1-0.2,0.2C841.1,241.4,836.6,243.5,830.8,243.5z"/>
		</g>
	</g>
</g>
<g>
	<g transform="translate(1036.22071, 477.09282)">
		<g>
			<path class="st6" d="M363.5,117.1v37.1c0,1.3-0.5,2.4-1.4,3.4c-0.9,1-2.1,1.4-3.4,1.4H357c-1.3,0-2.4-0.5-3.4-1.4
				c-1-1-1.4-2.1-1.4-3.4v-52.6c0-1.3,0.5-2.4,1.4-3.4c1-1,2.1-1.5,3.4-1.5h2.2c1.5,0,2.8,0.4,4.1,1.2c1.3,0.8,2.3,1.8,3,3.1
				l16.3,32.3c0,0.1,0,0.1,0.1,0.1c0.1,0,0.1,0,0.1-0.1l16.3-32.3c0.7-1.3,1.7-2.4,3-3.1c1.3-0.8,2.7-1.2,4.1-1.2h2.6
				c1.3,0,2.4,0.5,3.4,1.5c1,1,1.5,2.1,1.5,3.4v52.6c0,1.3-0.5,2.4-1.5,3.4c-1,1-2.1,1.4-3.4,1.4h-2c-1.3,0-2.4-0.5-3.4-1.4
				c-0.9-1-1.4-2.1-1.4-3.4v-37.1c0-0.1,0-0.1-0.1-0.1c-0.1,0-0.2,0-0.2,0.1l-11.4,22c-1.5,2.9-3.8,4.3-7,4.3h-1.2
				c-3.2,0-5.5-1.4-7-4.3l-11.3-22C363.8,117,363.7,117,363.5,117.1C363.5,117,363.5,117,363.5,117.1z"/>
		</g>
	</g>
</g>
<g>
	<g transform="translate(1092.409263, 477.09282)">
		<g>
			<path class="st6" d="M392.2,137.8c-4.5,0-7.9,0.8-10.3,2.3c-2.4,1.5-3.6,3.5-3.6,5.9c0,1.8,0.5,3.2,1.6,4.3
				c1.1,1,2.6,1.5,4.4,1.5c3.2,0,6-1,8.2-3.1c2.2-2.1,3.3-4.8,3.3-8v-2.1c0-0.5-0.2-0.8-0.7-0.8H392.2z M381.6,159.9
				c-4.2,0-7.5-1.2-10-3.5c-2.5-2.3-3.7-5.5-3.7-9.6c0-4.9,2.1-8.9,6.3-11.9c4.2-3,10.2-4.5,18.1-4.5h3c0.5,0,0.7-0.2,0.7-0.7
				c-0.1-2.8-0.7-4.8-1.9-6c-1.2-1.1-3.3-1.7-6.3-1.7c-4,0-7.9,0.7-11.9,2.1c-1,0.3-2,0.3-3-0.2c-0.9-0.5-1.5-1.2-1.7-2.3
				c-0.2-1.2-0.1-2.3,0.5-3.4c0.6-1.1,1.4-1.8,2.6-2.2c4.5-1.5,9.1-2.3,13.8-2.3c6.8,0,11.6,1.3,14.6,4c3,2.6,4.4,6.9,4.4,12.8v16.5
				c0,2.3,0.2,4.7,0.5,7.1c0.2,1.3-0.2,2.4-1,3.4c-0.8,1-1.8,1.5-3.1,1.5h-0.9c-1.4,0-2.7-0.4-3.8-1.4c-1.1-0.9-1.7-2.1-1.8-3.4
				c-0.1-0.4-0.1-0.9-0.1-1.6c0-0.1,0-0.2-0.1-0.2c-0.1,0-0.2,0-0.2,0.1c-1.6,2.3-3.8,4.1-6.5,5.4
				C387.6,159.2,384.7,159.9,381.6,159.9z"/>
		</g>
	</g>
</g>
<g>
	<g transform="translate(1128.69503, 477.09282)">
		<g>
			<path class="st6" d="M402.8,159.9c-7.1,0-12.8-2.1-17.2-6.2c-4.3-4.2-6.5-9.8-6.5-16.8c0-7.2,2.1-12.9,6.3-16.9
				c4.2-4.1,10-6.1,17.4-6.1c3.3,0,6.7,0.5,10.3,1.6c1.2,0.3,2.1,1.1,2.6,2.2c0.5,1.1,0.6,2.3,0.3,3.5c-0.3,1.1-1.1,1.9-2.1,2.4
				c-1.1,0.5-2.1,0.5-3.2,0.1c-2.4-0.8-4.8-1.3-7.4-1.3c-4,0-7.2,1.3-9.4,3.8c-2.3,2.5-3.4,6.1-3.4,10.8c0,4.6,1.2,8.1,3.5,10.8
				c2.4,2.6,5.4,3.9,9.3,3.9c2.6,0,5-0.4,7.4-1.3c1.1-0.4,2.1-0.4,3.2,0c1.1,0.4,1.8,1.2,2.1,2.3c0.4,1.2,0.3,2.4-0.3,3.5
				c-0.6,1.1-1.5,1.9-2.6,2.2C409.5,159.3,406.1,159.9,402.8,159.9z"/>
		</g>
	</g>
</g>
<g>
	<g transform="translate(1162.42096, 477.09282)">
		<g>
			<path class="st6" d="M404.9,135.4v18.8c0,1.3-0.5,2.4-1.5,3.4c-1,1-2.1,1.4-3.4,1.4h-1.4c-1.3,0-2.5-0.5-3.4-1.4
				c-1-1-1.4-2.1-1.4-3.4V99.9c0-1.3,0.5-2.4,1.4-3.4c1-1,2.1-1.5,3.4-1.5h1.4c1.3,0,2.4,0.5,3.4,1.5c1,1,1.5,2.1,1.5,3.4v20.4
				c0,0.1,0,0.1,0.1,0.1c0.1,0,0.1,0,0.2-0.1c3.7-4.3,8.2-6.5,13.6-6.5c5.1,0,8.9,1.6,11.3,4.8c2.4,3.2,3.6,8.3,3.6,15.5v20.1
				c0,1.3-0.5,2.4-1.5,3.4c-1,1-2.1,1.4-3.4,1.4h-1.3c-1.3,0-2.4-0.5-3.4-1.4c-0.9-1-1.4-2.1-1.4-3.4v-19c0-4.9-0.6-8.2-1.7-9.9
				c-1.1-1.7-3.2-2.6-6.1-2.6c-2.7,0-5,1.3-7,4C405.9,129.2,404.9,132.2,404.9,135.4z"/>
		</g>
	</g>
</g>
<g>
	<g transform="translate(1201.07459, 477.09282)">
		<g>
			<path class="st6" d="M420.5,99.9v0.5c0,1.3-0.5,2.4-1.4,3.4c-0.9,1-2.1,1.5-3.4,1.5h-2c-1.3,0-2.4-0.5-3.4-1.5
				c-1-1-1.4-2.1-1.4-3.4v-0.5c0-1.3,0.5-2.4,1.4-3.4c1-1,2.1-1.5,3.4-1.5h2c1.3,0,2.4,0.5,3.4,1.5C420,97.4,420.5,98.6,420.5,99.9z
				 M420.5,119.5v34.6c0,1.3-0.5,2.4-1.4,3.4c-0.9,1-2.1,1.4-3.4,1.4h-2c-1.3,0-2.4-0.5-3.4-1.4c-1-1-1.4-2.1-1.4-3.4v-34.6
				c0-1.3,0.5-2.5,1.4-3.4c1-1,2.1-1.5,3.4-1.5h2c1.3,0,2.4,0.5,3.4,1.5C420,117.1,420.5,118.2,420.5,119.5z"/>
		</g>
	</g>
</g>
<g>
	<g transform="translate(1222.513274, 477.09282)">
		<g>
			<path class="st6" d="M424.5,135.4v18.8c0,1.3-0.5,2.4-1.5,3.4c-1,1-2.1,1.4-3.4,1.4h-1.4c-1.3,0-2.4-0.5-3.4-1.4
				c-1-1-1.4-2.1-1.4-3.4v-34.6c0-1.3,0.5-2.5,1.4-3.4c1-1,2.1-1.5,3.4-1.5h0.7c1.4,0,2.5,0.5,3.5,1.4c1,0.9,1.5,2.1,1.6,3.5v1.3
				c0,0.1,0,0.1,0.1,0.1c0.1,0,0.2,0,0.2-0.1c1.7-2.2,3.8-3.9,6.3-5.1s5.1-1.9,7.8-1.9c5.1,0,8.9,1.6,11.3,4.8
				c2.4,3.2,3.6,8.3,3.6,15.5v20.1c0,1.3-0.5,2.4-1.5,3.4c-1,1-2.1,1.4-3.4,1.4h-1.3c-1.3,0-2.5-0.5-3.4-1.4c-0.9-1-1.4-2.1-1.4-3.4
				v-19c0-4.9-0.6-8.2-1.7-9.9c-1.1-1.7-3.2-2.6-6.1-2.6c-2.5,0-4.8,1.3-6.9,3.9C425.5,129,424.5,132,424.5,135.4z"/>
		</g>
	</g>
</g>
<g>
	<g transform="translate(1260.846927, 477.09282)">
		<g>
			<path class="st6" d="M444.8,121.8c-3,0-5.5,0.9-7.3,2.8c-1.8,1.8-2.9,4.5-3.1,8c0,0.5,0.2,0.7,0.7,0.7h19.3
				c0.5,0,0.7-0.2,0.7-0.7c-0.2-3.5-1.1-6.1-2.9-8C450.3,122.7,447.9,121.8,444.8,121.8z M445.8,159.9c-6.7,0-12.2-2.1-16.4-6.2
				c-4.2-4.2-6.3-9.8-6.3-16.8c0-7.2,1.9-12.8,5.8-16.9c3.9-4.1,9.1-6.1,15.7-6.1c6.5,0,11.6,1.9,15.3,5.8c3.7,3.8,5.6,9.3,5.6,16.5
				c0,1.4-0.5,2.5-1.5,3.4c-1,0.9-2.2,1.4-3.6,1.4h-25.4c-0.6,0-0.8,0.3-0.7,0.8c0.5,3.1,1.8,5.6,4,7.4c2.3,1.8,5.1,2.7,8.4,2.7
				c3,0,5.9-0.5,8.8-1.5c1-0.4,2-0.4,3.1,0.1c1,0.5,1.7,1.2,2.1,2.2c0.4,1.1,0.3,2.2-0.2,3.3c-0.5,1-1.3,1.8-2.4,2.2
				C454.3,159.3,450.2,159.9,445.8,159.9z"/>
		</g>
	</g>
</g>
<g>
	<g transform="translate(1297.260697, 477.09282)">
	</g>
</g>
<g>
	<g transform="translate(1316.715514, 477.09282)">
		<g>
			<path class="st6" d="M485.5,153.9v0.3c0,1.3-0.5,2.4-1.5,3.4c-1,1-2.1,1.4-3.4,1.4h-30.1c-1.3,0-2.4-0.5-3.4-1.4
				c-1-1-1.4-2.1-1.4-3.4v-52.6c0-1.3,0.5-2.4,1.4-3.4c1-1,2.1-1.5,3.4-1.5h2.6c1.3,0,2.4,0.5,3.4,1.5c1,1,1.5,2.1,1.5,3.4v46.8
				c0,0.5,0.3,0.8,0.8,0.8h21.9c1.3,0,2.4,0.5,3.4,1.4C485,151.5,485.5,152.6,485.5,153.9z"/>
		</g>
	</g>
</g>
<g>
	<g transform="translate(1355.049144, 477.09282)">
		<g>
			<path class="st6" d="M476.2,121.8c-3,0-5.5,0.9-7.3,2.8c-1.8,1.8-2.9,4.5-3.1,8c0,0.5,0.2,0.7,0.7,0.7h19.3
				c0.5,0,0.7-0.2,0.7-0.7c-0.2-3.5-1.1-6.1-2.9-8C481.7,122.7,479.3,121.8,476.2,121.8z M477.2,159.9c-6.7,0-12.2-2.1-16.4-6.2
				c-4.2-4.2-6.3-9.8-6.3-16.8c0-7.2,1.9-12.8,5.8-16.9c3.9-4.1,9.1-6.1,15.7-6.1c6.5,0,11.6,1.9,15.3,5.8c3.7,3.8,5.6,9.3,5.6,16.5
				c0,1.4-0.5,2.5-1.5,3.4c-1,0.9-2.2,1.4-3.6,1.4h-25.4c-0.6,0-0.8,0.3-0.7,0.8c0.5,3.1,1.8,5.6,4,7.4c2.3,1.8,5.1,2.7,8.4,2.7
				c3,0,5.9-0.5,8.8-1.5c1-0.4,2-0.4,3.1,0.1c1,0.5,1.7,1.2,2.1,2.2c0.4,1.1,0.3,2.2-0.2,3.3c-0.5,1-1.3,1.8-2.4,2.2
				C485.7,159.3,481.6,159.9,477.2,159.9z"/>
		</g>
	</g>
</g>
<g>
	<g transform="translate(1391.462913, 477.09282)">
		<g>
			<path class="st6" d="M491.9,137.8c-4.5,0-7.9,0.8-10.3,2.3c-2.4,1.5-3.6,3.5-3.6,5.9c0,1.8,0.5,3.2,1.6,4.3
				c1.1,1,2.6,1.5,4.4,1.5c3.2,0,6-1,8.2-3.1c2.2-2.1,3.3-4.8,3.3-8v-2.1c0-0.5-0.2-0.8-0.7-0.8H491.9z M481.2,159.9
				c-4.2,0-7.5-1.2-10-3.5c-2.5-2.3-3.7-5.5-3.7-9.6c0-4.9,2.1-8.9,6.3-11.9c4.2-3,10.2-4.5,18.1-4.5h3c0.5,0,0.7-0.2,0.7-0.7
				c-0.1-2.8-0.7-4.8-1.9-6c-1.2-1.1-3.3-1.7-6.3-1.7c-4,0-7.9,0.7-11.9,2.1c-1,0.3-2,0.3-3-0.2c-0.9-0.5-1.5-1.2-1.7-2.3
				c-0.2-1.2-0.1-2.3,0.5-3.4c0.6-1.1,1.4-1.8,2.6-2.2c4.5-1.5,9.1-2.3,13.8-2.3c6.8,0,11.6,1.3,14.6,4c3,2.6,4.4,6.9,4.4,12.8v16.5
				c0,2.3,0.2,4.7,0.5,7.1c0.2,1.3-0.2,2.4-1,3.4c-0.8,1-1.8,1.5-3.1,1.5h-0.9c-1.4,0-2.7-0.4-3.8-1.4c-1.1-0.9-1.7-2.1-1.8-3.4
				c-0.1-0.4-0.1-0.9-0.1-1.6c0-0.1,0-0.2-0.1-0.2c-0.1,0-0.2,0-0.2,0.1c-1.6,2.3-3.8,4.1-6.5,5.4
				C487.3,159.2,484.4,159.9,481.2,159.9z"/>
		</g>
	</g>
</g>
<g>
	<g transform="translate(1427.748692, 477.09282)">
		<g>
			<path class="st6" d="M493.1,139.7v14.5c0,1.3-0.5,2.4-1.5,3.4c-1,1-2.1,1.4-3.4,1.4h-1.6c-1.3,0-2.4-0.5-3.4-1.4
				c-1-1-1.4-2.1-1.4-3.4v-34.6c0-1.3,0.5-2.5,1.4-3.4c1-1,2.1-1.5,3.4-1.5h0.9c1.3,0,2.4,0.5,3.4,1.5c0.9,1,1.4,2.1,1.5,3.4
				l0.1,3.6c0,0.1,0,0.1,0.1,0.1c0.1,0,0.1,0,0.2-0.1c4.2-5,9.4-8,15.8-9c1.2-0.2,2.2,0.2,3.1,1c0.9,0.8,1.4,1.9,1.4,3.1
				s-0.5,2.3-1.4,3.3c-0.9,0.9-2,1.4-3.2,1.6c-5,0.7-8.8,2.5-11.4,5.4C494.5,131.5,493.1,135.2,493.1,139.7z"/>
		</g>
	</g>
</g>
<g>
	<g transform="translate(1458.72281, 477.09282)">
		<g>
			<path class="st6" d="M503.2,135.4v18.8c0,1.3-0.5,2.4-1.5,3.4c-1,1-2.1,1.4-3.4,1.4H497c-1.3,0-2.4-0.5-3.4-1.4
				c-1-1-1.4-2.1-1.4-3.4v-34.6c0-1.3,0.5-2.5,1.4-3.4c1-1,2.1-1.5,3.4-1.5h0.7c1.4,0,2.5,0.5,3.5,1.4c1,0.9,1.5,2.1,1.6,3.5v1.3
				c0,0.1,0,0.1,0.1,0.1c0.1,0,0.2,0,0.2-0.1c1.7-2.2,3.8-3.9,6.3-5.1s5.1-1.9,7.8-1.9c5.1,0,8.9,1.6,11.3,4.8
				c2.4,3.2,3.6,8.3,3.6,15.5v20.1c0,1.3-0.5,2.4-1.5,3.4c-1,1-2.1,1.4-3.4,1.4h-1.3c-1.3,0-2.5-0.5-3.4-1.4c-0.9-1-1.4-2.1-1.4-3.4
				v-19c0-4.9-0.6-8.2-1.7-9.9c-1.1-1.7-3.2-2.6-6.1-2.6c-2.5,0-4.8,1.3-6.9,3.9C504.3,129,503.2,132,503.2,135.4z"/>
		</g>
	</g>
</g>
<g>
	<g transform="translate(1497.05644, 477.09282)">
		<g>
			<path class="st6" d="M519.2,99.9v0.5c0,1.3-0.5,2.4-1.4,3.4c-0.9,1-2.1,1.5-3.4,1.5h-2c-1.3,0-2.4-0.5-3.4-1.5
				c-1-1-1.4-2.1-1.4-3.4v-0.5c0-1.3,0.5-2.4,1.4-3.4c1-1,2.1-1.5,3.4-1.5h2c1.3,0,2.4,0.5,3.4,1.5
				C518.7,97.4,519.2,98.6,519.2,99.9z M519.2,119.5v34.6c0,1.3-0.5,2.4-1.4,3.4c-0.9,1-2.1,1.4-3.4,1.4h-2c-1.3,0-2.4-0.5-3.4-1.4
				c-1-1-1.4-2.1-1.4-3.4v-34.6c0-1.3,0.5-2.5,1.4-3.4c1-1,2.1-1.5,3.4-1.5h2c1.3,0,2.4,0.5,3.4,1.5
				C518.7,117.1,519.2,118.2,519.2,119.5z"/>
		</g>
	</g>
</g>
<g>
	<g transform="translate(1518.495113, 477.09282)">
		<g>
			<path class="st6" d="M523.1,135.4v18.8c0,1.3-0.5,2.4-1.5,3.4c-1,1-2.1,1.4-3.4,1.4h-1.4c-1.3,0-2.4-0.5-3.4-1.4
				c-1-1-1.4-2.1-1.4-3.4v-34.6c0-1.3,0.5-2.5,1.4-3.4c1-1,2.1-1.5,3.4-1.5h0.7c1.4,0,2.5,0.5,3.5,1.4c1,0.9,1.5,2.1,1.6,3.5v1.3
				c0,0.1,0,0.1,0.1,0.1c0.1,0,0.2,0,0.2-0.1c1.7-2.2,3.8-3.9,6.3-5.1s5.1-1.9,7.8-1.9c5.1,0,8.9,1.6,11.3,4.8
				c2.4,3.2,3.6,8.3,3.6,15.5v20.1c0,1.3-0.5,2.4-1.5,3.4c-1,1-2.1,1.4-3.4,1.4h-1.3c-1.3,0-2.5-0.5-3.4-1.4c-0.9-1-1.4-2.1-1.4-3.4
				v-19c0-4.9-0.6-8.2-1.7-9.9c-1.1-1.7-3.2-2.6-6.1-2.6c-2.5,0-4.8,1.3-6.9,3.9C524.2,129,523.1,132,523.1,135.4z"/>
		</g>
	</g>
</g>
<g>
	<g transform="translate(1556.828743, 477.09282)">
		<g>
			<path class="st6" d="M550.4,125.8c-1.9-2.3-4.4-3.5-7.5-3.5s-5.6,1.2-7.3,3.5c-1.8,2.3-2.6,5.7-2.6,10.1c0,4.3,0.9,7.6,2.8,10
				c1.8,2.4,4.3,3.6,7.2,3.6c3.1,0,5.6-1.2,7.5-3.5c1.9-2.3,2.8-5.6,2.8-9.7v-0.9C553.3,131.4,552.3,128.2,550.4,125.8z
				 M539.8,158.2c-5,0-9.2-2-12.5-6c-3.3-4-5-9.4-5-16.2c0-7.2,1.5-12.7,4.6-16.5c3.1-3.8,7.4-5.7,12.8-5.7c5.6,0,10.2,2.3,13.8,7
				c0.1,0.1,0.1,0.1,0.2,0.1c0.1,0,0.1,0,0.1-0.1l0.1-1.3c0.1-1.4,0.6-2.5,1.5-3.5c0.9-0.9,2.1-1.4,3.5-1.4h0.8
				c1.3,0,2.4,0.5,3.4,1.5c0.9,1,1.4,2.1,1.4,3.4v35c0,16.1-7.8,24.1-23.3,24.1c-3.6,0-7.1-0.4-10.4-1.3c-1.2-0.3-2.1-1-2.6-2.1
				c-0.6-1.1-0.7-2.2-0.4-3.4c0.2-1.1,0.8-1.9,1.8-2.4c1-0.5,2-0.7,3.1-0.4c2.9,0.8,5.7,1.2,8.3,1.2c4.4,0,7.6-1.2,9.6-3.5
				c2-2.3,3-6.3,3-12v-3.1l-0.1-0.1c-0.1,0-0.2,0.1-0.2,0.2C550,156,545.6,158.2,539.8,158.2z"/>
		</g>
	</g>
</g>
</svg>
