<?xml version="1.0" encoding="utf-8"?>
<!-- Generator: Adobe Illustrator 27.3.1, SVG Export Plug-In . SVG Version: 6.00 Build 0)  -->
<svg version="1.1" id="レイヤー_1" xmlns="http://www.w3.org/2000/svg" xmlns:xlink="http://www.w3.org/1999/xlink" x="0px"
	 y="0px" viewBox="0 0 3840 1815.6" style="enable-background:new 0 0 3840 1815.6;" xml:space="preserve">
<style type="text/css">
	.st0{fill:#FFFFFF;}
	.st1{fill:#C3D4FA;}
	.st2{clip-path:url(#SVGID_00000049223520460545020880000016724129985064148380_);}
	.st3{fill:#A4BEF1;}
	.st4{clip-path:url(#SVGID_00000055686879309948080570000000031230458968664471_);}
	.st5{fill:#8C90FD;}
	.st6{fill:#444444;}
	.st7{clip-path:url(#SVGID_00000109026191013846715790000018032355710906922632_);}
	.st8{clip-path:url(#SVGID_00000135659444155318839420000014985244833840703656_);}
	.st9{clip-path:url(#SVGID_00000061471348854868190490000015882043340028130947_);}
	.st10{clip-path:url(#SVGID_00000062190002586392669340000016819527540468167830_);}
	.st11{clip-path:url(#SVGID_00000101785371232193899450000010507163992383562907_);}
	.st12{fill:#222222;}
	.st13{clip-path:url(#SVGID_00000029017055934278335270000015064219738471433136_);}
	.st14{clip-path:url(#SVGID_00000041263713190621833870000016364009212140653491_);}
	.st15{clip-path:url(#SVGID_00000057109636409448283080000003414394147084250811_);}
	.st16{clip-path:url(#SVGID_00000054969233826177968520000001616202850282883233_);}
	.st17{fill:#222244;}
</style>
<rect x="-384" y="-216" class="st0" width="4608" height="2592"/>
<rect x="-384" y="-216" class="st1" width="4608" height="2592"/>
<g>
	<defs>
		<rect id="SVGID_1_" x="1280" y="330.8" width="2560" height="1484.8"/>
	</defs>
	<clipPath id="SVGID_00000091717381553534064860000017343768363639684504_">
		<use xlink:href="#SVGID_1_"  style="overflow:visible;"/>
	</clipPath>
	<g style="clip-path:url(#SVGID_00000091717381553534064860000017343768363639684504_);">
		<path class="st3" d="M1280,330.8h2560v1484.8H1280V330.8z"/>
	</g>
</g>
<g>
	<defs>
		<rect id="SVGID_00000067193751575352137990000005057020028323347347_" x="2560" y="655.6" width="1280" height="1160"/>
	</defs>
	<clipPath id="SVGID_00000092420700427818201490000014304388301386001831_">
		<use xlink:href="#SVGID_00000067193751575352137990000005057020028323347347_"  style="overflow:visible;"/>
	</clipPath>
	<g style="clip-path:url(#SVGID_00000092420700427818201490000014304388301386001831_);">
		<path class="st5" d="M2560,655.6h1283.3v1160H2560V655.6z"/>
	</g>
</g>
<path class="st6" d="M1796.9,1158.6c-11.2,11.4-26.1,17.8-42,17.9c-15.9,0.2-31-5.9-42.4-17c-18.5-18.1-23.3-45.9-11.8-69.1
	c2.7-5.6,6.4-10.8,10.9-15.3c23-23.5,60.9-24,84.4-1c18.5,18.2,23.3,45.9,11.8,69.2C1805,1148.8,1801.3,1154,1796.9,1158.6"/>
<path class="st6" d="M1965.7,995.1c7.2-7.4,16.9-11.6,27.3-11.7c10.3-0.1,20.1,3.8,27.5,11.1c12,11.8,15.1,29.8,7.7,44.9
	c-1.8,3.6-4.2,7-7.1,10c-14.9,15.3-39.5,15.6-54.8,0.6c-12-11.8-15.2-29.9-7.7-44.9C1960.4,1001.4,1962.8,998,1965.7,995.1"/>
<g>
	<defs>
		<rect id="SVGID_00000018925987236000412490000008269474164559978401_" x="1535.3" y="803.6" width="759.3" height="864"/>
	</defs>
	<clipPath id="SVGID_00000067958885488827697140000006486516859382002352_">
		<use xlink:href="#SVGID_00000018925987236000412490000008269474164559978401_"  style="overflow:visible;"/>
	</clipPath>
	<g style="clip-path:url(#SVGID_00000067958885488827697140000006486516859382002352_);">
		<path class="st6" d="M1858.1,1065.3c1.9,3.8,3.5,7.6,4.9,11.4c1.5,4,5.8,8.2,9.8,9.4l18.3,5.2c2.7,0.8,5.2,2.9,6.9,5.4
			c0,0,0,0,0,0c0.3,0.4,0.5,0.9,0.7,1.3c0.1,0.1,0.1,0.3,0.2,0.4c0.1,0.3,0.3,0.7,0.4,1c0.2,0.5,0.3,1,0.3,1.5
			c0.5,4.3,0.8,8.8,0.8,13.2c0,4.8-0.1,9.5-0.6,14.1c-0.4,4.2-4.2,8.6-8.3,9.9l-17.7,5.5c-4.1,1.2-8.2,5.6-9.5,9.6
			c-1.6,5-3.6,9.9-6,14.8c-0.3,0.7-0.7,1.4-1.1,2.1c-0.6,1.2,0.5,5.1,2.6,8.8l9,16.1c2.1,3.7,1.8,9.6-0.9,12.9
			c-2.9,3.7-6,7.2-9.3,10.6c-3.1,3.2-6.4,6.2-9.7,9c-3.3,2.7-9.1,3.2-12.8,1.2l-16.1-8.5c-3.7-2-9.7-1.8-13.6,0.1
			c-4,2-8.2,3.8-12.5,5.4c-4,1.5-8.2,5.7-9.4,9.8l-5,17.4c-1.2,4.1-5.5,8-9.7,8.5c-4.4,0.5-8.8,0.7-13.2,0.8
			c-4.8,0.1-9.5-0.2-14.2-0.6c-4.2-0.4-8.7-4.2-9.9-8.3l-5.3-17.1c-1.2-4-5.6-8.2-9.6-9.5c-4.3-1.4-8.6-3.1-12.7-5.1
			c-3.9-1.8-9.8-1.9-13.6,0.2l-15.7,8.7c-3.7,2.1-9.6,1.8-12.9-0.8c-3.7-2.9-7.2-6-10.7-9.4c-3.2-3.1-6.2-6.4-9-9.7
			c-2.7-3.2-3.2-9.1-1.2-12.8l8.6-16.2c2-3.8,1.8-9.8-0.1-13.6c-2-4-3.7-8.1-5.2-12.3c-1.4-4-5.7-8.3-9.7-9.4l-17.6-5
			c-3.1-0.9-6.1-3.6-7.5-6.7c-0.1-0.1-0.1-0.2-0.1-0.3c-0.2-0.4-0.4-0.8-0.5-1.2c-0.2-0.5-0.3-1.1-0.4-1.6c-0.1-1.1-0.2-2.2-0.3-3.3
			c-0.3-3.6-0.6-7.1-0.6-10.8c-0.1-4.5,0.2-8.9,0.5-13.3c0.4-4.2,4.2-8.7,8.3-9.9l17.9-5.5c4.1-1.2,8.3-5.6,9.6-9.6
			c1.5-4.6,3.5-9.2,5.7-13.8c0.4-0.8,0.8-1.6,1.3-2.4c0.7-1.3-0.3-5.4-2.4-9.2l-9.2-16.6c-2.1-3.7-1.8-9.6,0.9-12.8
			c2.7-3.4,5.7-6.7,8.8-9.9c3.3-3.4,6.8-6.6,10.4-9.6c3.3-2.7,9.1-3.1,12.8-1.2l16.8,8.9c3.7,2,9.8,1.9,13.6,0
			c3.7-1.8,7.4-3.4,11.2-4.7c4-1.4,8.2-5.7,9.4-9.8l5.3-18.5c1.1-4.1,5.5-8,9.7-8.5c4.7-0.5,9.4-0.9,14.2-0.9
			c4.5-0.1,8.9,0.1,13.2,0.5c4.3,0.3,8.7,4.2,9.9,8.2l5.7,18.5c1.2,4.1,5.6,8.2,9.6,9.6c3.8,1.3,7.6,2.8,11.3,4.5
			c3.9,1.8,9.9,1.8,13.6-0.3l16.9-9.4c3.7-2.1,9.5-1.8,12.9,0.9c3.4,2.7,6.7,5.7,9.9,8.8c3.4,3.3,6.6,6.8,9.6,10.5
			c2.7,3.3,3.1,9.1,1.1,12.8l-8.9,16.8C1856,1055.5,1856.2,1061.5,1858.1,1065.3z M1901.6,1070.5c-1.3-0.6-2.5-1.4-3.6-2.4
			c-0.1-0.1-0.2-0.2-0.3-0.3c-0.4-0.4-0.8-0.8-1-1.2c-0.1-0.1-0.2-0.3-0.3-0.4c-0.3-0.5-0.7-1.1-0.9-1.7c-1.7-4.3-3.3-8.8-4.5-13.4
			c-1.2-4.3-2.2-8.7-2.9-13c-0.1-0.5-0.1-1-0.1-1.5c0-0.3,0-0.6,0.1-0.9c0-0.2,0-0.4,0-0.6c0-0.4,0.1-0.8,0.3-1.3c0,0,0-0.1,0-0.1
			c0.1-0.5,0.3-0.9,0.5-1.4c1-2.4,2.6-4.6,4.6-5.9l11.7-7.3c3.6-2.2,6.8-7.5,7.6-11.7c0.6-3.5,1.5-7,2.6-10.5c1.3-4,1.1-10.2-1-13.9
			l-6.7-12c-2.1-3.7-1.8-9.5,0.9-12.8c2.7-3.4,5.7-6.7,8.8-9.9c3.4-3.4,6.8-6.6,10.5-9.6c3.3-2.7,9.1-3.1,12.9-1.2l11.9,6.3
			c3.8,2,9.9,2.1,13.9,0.7c3.4-1.2,6.9-2.2,10.4-2.9c4.1-0.9,9.4-4.2,11.6-7.8l7-11.8c2.2-3.6,7.4-6.3,11.6-5.6
			c4.3,0.7,8.6,1.5,13,2.7c4.6,1.2,9.1,2.6,13.5,4.3c4,1.5,7.3,6.3,7.4,10.6l0.5,14.1c0.2,4.2,2.5,9.2,5.1,11.4c1.5,1.3,3,2.6,4.5,4
			c1.6,1.6,3.1,3.2,4.5,4.8c2.4,2.8,7.6,5.2,11.8,5.3l14.4,0.2c2.9,0.1,6.1,1.6,8.3,3.7c0.2,0.1,0.3,0.3,0.4,0.4
			c0.2,0.2,0.3,0.4,0.5,0.6c0.2,0.2,0.4,0.4,0.5,0.7c0.1,0.2,0.2,0.3,0.3,0.5c0.3,0.4,0.5,0.8,0.7,1.3c1.6,4.1,3,8.3,4.2,12.6
			c1.3,4.6,2.3,9.2,3.1,13.9c0.7,4.2-1.9,9.4-5.5,11.7l-12.5,7.9c-3.6,2.3-6.8,7.5-7.7,11.7c-0.6,2.9-1.3,5.7-2.2,8.6
			c-1.3,4-1,10.2,1,13.9l7.3,13c2.1,3.7,1.8,9.6-0.8,12.9c-2.9,3.7-6,7.2-9.4,10.6c-3.1,3.2-6.4,6.2-9.7,9
			c-3.3,2.7-9.1,3.2-12.8,1.1l-13.3-7c-3.7-2-9.9-2.1-13.9-0.8c-2.8,1-5.7,1.7-8.6,2.4c-4.2,0.9-9.3,4.3-11.5,7.9l-7.6,12.7
			c-2.2,3.6-7.4,6.3-11.6,5.7c-4.6-0.6-9.3-1.5-13.9-2.8c-4.3-1.1-8.6-2.4-12.6-3.9c-4-1.5-7.3-6.3-7.5-10.5l-0.5-14.4
			c-0.2-4.2-2.7-9.4-5.5-11.7c-1.6-1.4-3.3-2.9-4.9-4.4c-1.4-1.4-2.8-2.9-4.1-4.4c-2.2-2.5-7.3-4.7-11.5-4.8l-14.2-0.2
			C1904.6,1071.6,1903,1071.2,1901.6,1070.5C1901.6,1070.6,1901.6,1070.6,1901.6,1070.5z M1883.2,803.6c-141.6,0-308.2,54-341,232.3
			c-39.1,212.6,99.9,366.8,99.9,366.8l6.3,119.3l386.5,145.6l16-92.5c0,0,76.9,18.5,149,5.6c58-10.4,11.2-95,11.2-95l16.8-48.4
			l-26.2-26.2l25.1-23.2v-58.7c0,0,25.5,4.2,56.8-5.6c45.7-14.4-66.3-155-66.7-190.6C2214.9,968.5,2127.9,803.6,1883.2,803.6"/>
	</g>
</g>
<g>
	<defs>
		<rect id="SVGID_00000117665562588127695010000017162756313185317289_" x="166.7" y="721.3" width="726.6" height="783.8"/>
	</defs>
	<clipPath id="SVGID_00000016777116064004874730000013460089375315101841_">
		<use xlink:href="#SVGID_00000117665562588127695010000017162756313185317289_"  style="overflow:visible;"/>
	</clipPath>
	<g style="clip-path:url(#SVGID_00000016777116064004874730000013460089375315101841_);">
		<path class="st6" d="M883.7,1180.8c-6.9-2.7-14.7,0.7-17.6,7.6c-17.4,44-41.7,84.6-72.6,120.6l-56.6,66c-2.2,2.4-3.2,5.5-3.2,8.8
			v94.5h-297v-81h123.5c20.7,0,39.2-11.5,48.3-29.8l15.8-31.6c3.4-6.6,0.7-14.7-6.1-18.1c-6.6-3.4-14.7-0.7-18.1,6.1l-15.8,31.6
			c-4.6,9.2-13.9,15-24.2,15h-245c-22.3,0-40.5-18.2-40.5-40.5v-108c0-7.4-6.1-13.5-13.5-13.5h-39.6c-15.4,0-27.9-12.6-27.9-27.9
			c0-5.5,1.6-10.9,4.7-15.5l74-111.1c1.5-2.2,2.3-4.9,2.3-7.4v-13.5c0-123.9,73.6-236,187.4-285.1c6.9-3,10-10.9,7-17.7
			c-3-6.8-10.9-10-17.7-7c-123.7,53.5-203.7,175.1-203.7,310v9.5L175.9,1150c-6.1,9-9.2,19.6-9.2,30.5c0,30.2,24.7,54.9,54.9,54.9
			h26.1v94.5c0,37.3,30.2,67.5,67.5,67.5h94.5v94.5c0,7.4,6.1,13.5,13.5,13.5h324c7.4,0,13.5-6.1,13.5-13.5v-103l53.3-62.2
			c32.8-38.2,58.7-81.4,77.2-128.2c2.7-6.9-0.7-14.7-7.6-17.5V1180.8z"/>
	</g>
</g>
<path class="st6" d="M625.7,951.7h-108c-7.4,0-13.5,6.1-13.5,13.5c0,7.4,6.1,13.5,13.5,13.5h94.5v40.5c0,7.4,6.1,13.5,13.5,13.5
	c7.4,0,13.5-6.1,13.5-13.5v-54C639.2,957.8,633.1,951.7,625.7,951.7z"/>
<path class="st6" d="M625.7,1059.7h-94.5v-40.5c0-7.4-6.1-13.5-13.5-13.5c-7.4,0-13.5,6.1-13.5,13.5v54c0,7.4,6.1,13.5,13.5,13.5
	h108c7.4,0,13.5-6.1,13.5-13.5C639.2,1065.8,633.1,1059.7,625.7,1059.7z"/>
<path class="st6" d="M585.2,1019.2c0,0.9-0.1,1.8-0.3,2.6s-0.4,1.7-0.8,2.5c-0.3,0.8-0.8,1.6-1.2,2.3c-0.5,0.7-1.1,1.4-1.7,2
	c-0.6,0.6-1.3,1.2-2,1.7c-0.7,0.5-1.5,0.9-2.3,1.2c-0.8,0.3-1.7,0.6-2.5,0.8c-0.9,0.2-1.7,0.3-2.6,0.3c-0.9,0-1.8-0.1-2.6-0.3
	c-0.9-0.2-1.7-0.4-2.5-0.8c-0.8-0.3-1.6-0.8-2.3-1.2c-0.7-0.5-1.4-1.1-2-1.7c-0.6-0.6-1.2-1.3-1.7-2c-0.5-0.7-0.9-1.5-1.2-2.3
	c-0.3-0.8-0.6-1.7-0.8-2.5c-0.2-0.9-0.3-1.7-0.3-2.6c0-0.9,0.1-1.8,0.3-2.6c0.2-0.9,0.4-1.7,0.8-2.5c0.3-0.8,0.8-1.6,1.2-2.3
	c0.5-0.7,1.1-1.4,1.7-2c0.6-0.6,1.3-1.2,2-1.7c0.7-0.5,1.5-0.9,2.3-1.2c0.8-0.3,1.7-0.6,2.5-0.8c0.9-0.2,1.7-0.3,2.6-0.3
	c0.9,0,1.8,0.1,2.6,0.3c0.9,0.2,1.7,0.4,2.5,0.8c0.8,0.3,1.6,0.8,2.3,1.2c0.7,0.5,1.4,1.1,2,1.7c0.6,0.6,1.2,1.3,1.7,2
	c0.5,0.7,0.9,1.5,1.2,2.3c0.3,0.8,0.6,1.7,0.8,2.5S585.2,1018.3,585.2,1019.2z"/>
<path class="st6" d="M747.2,803.2c0,22.3,18.2,40.5,40.5,40.5c3.4,0,6.6-0.5,9.9-1.3l32.9,49.3c2.6,3.8,6.8,6.1,11.2,6.1h29.4
	c5.5,15.7,20.4,27,38.1,27c22.3,0,40.5-18.2,40.5-40.5c0-22.3-18.2-40.5-40.5-40.5c-17.6,0-32.4,11.3-38.1,27h-22.3L820,827.3
	c5.1-6.8,8.2-15.1,8.2-24.2c0-22.3-18.2-40.5-40.5-40.5C765.4,762.7,747.2,780.9,747.2,803.2z M909.2,870.7
	c7.4,0,13.5,6.1,13.5,13.5c0,7.4-6.1,13.5-13.5,13.5c-7.4,0-13.5-6.1-13.5-13.5C895.7,876.8,901.8,870.7,909.2,870.7z M801.2,803.2
	c0,7.4-6.1,13.5-13.5,13.5c-7.4,0-13.5-6.1-13.5-13.5c0-7.4,6.1-13.5,13.5-13.5C795.1,789.7,801.2,795.8,801.2,803.2z"/>
<g>
	<defs>
		<rect id="SVGID_00000066487580717652432580000008423450189944385419_" x="665.3" y="1018.7" width="311.4" height="270.7"/>
	</defs>
	<clipPath id="SVGID_00000034049426678314507580000012805405919639880326_">
		<use xlink:href="#SVGID_00000066487580717652432580000008423450189944385419_"  style="overflow:visible;"/>
	</clipPath>
	<g style="clip-path:url(#SVGID_00000034049426678314507580000012805405919639880326_);">
		<path class="st6" d="M936.2,1019.2c-22.3,0-40.5,18.2-40.5,40.5c0,6.2,1.5,12,4,17.4l-77.1,77.1h-116c-7.4,0-13.5,6.1-13.5,13.5
			v42.9c-15.7,5.5-27,20.4-27,38.1c0,22.3,18.2,40.5,40.5,40.5c22.3,0,40.5-18.2,40.5-40.5c0-17.5-11.3-32.4-27-38.1v-29.4h108
			c3.6,0,7-1.5,9.6-3.9l81.1-81.1c5.3,2.6,11.1,4,17.4,4c22.3,0,40.5-18.2,40.5-40.5c0-22.3-18.2-40.5-40.5-40.5H936.2z
			 M706.7,1262.2c-7.4,0-13.5-6.1-13.5-13.5c0-7.4,6.1-13.5,13.5-13.5c7.4,0,13.5,6.1,13.5,13.5
			C720.2,1256.1,714.1,1262.2,706.7,1262.2z M936.2,1073.2c-3.6,0-7-1.5-9.5-3.9c0,0,0,0,0-0.1s0,0-0.1,0c-2.4-2.4-3.9-5.7-3.9-9.5
			c0-7.4,6.1-13.5,13.5-13.5c7.4,0,13.5,6.1,13.5,13.5C949.7,1067.1,943.6,1073.2,936.2,1073.2z"/>
	</g>
</g>
<g>
	<defs>
		<rect id="SVGID_00000103956322077707841610000009715448240556301471_" x="354.7" y="641.2" width="514.7" height="594.8"/>
	</defs>
	<clipPath id="SVGID_00000102509094981040653570000001170671562769273020_">
		<use xlink:href="#SVGID_00000103956322077707841610000009715448240556301471_"  style="overflow:visible;"/>
	</clipPath>
	<g style="clip-path:url(#SVGID_00000102509094981040653570000001170671562769273020_);">
		<path class="st6" d="M504.2,719.7v42.9c0,4.2,2,8.2,5.4,10.8l48.6,36.4v87.8h-27v-54c0-7.4-6.1-13.5-13.5-13.5h-42.9
			c-5.5-15.7-20.4-27-38.1-27c-22.3,0-40.5,18.2-40.5,40.5c0,22.3,18.2,40.5,40.5,40.5c17.5,0,32.4-11.3,38.1-27h29.4v40.5h-13.5
			c-22.3,0-40.5,18.2-40.5,40.5v13.5h-54c-7.4,0-13.5,6.1-13.5,13.5c0,7.4,6.1,13.5,13.5,13.5h54v27h-81c-7.4,0-13.5,6.1-13.5,13.5
			c0,7.4,6.1,13.5,13.5,13.5h81v27h-27c-7.4,0-13.5,6.1-13.5,13.5c0,7.4,6.1,13.5,13.5,13.5h27v13.5c0,22.3,18.2,40.5,40.5,40.5
			h13.5v54c0,7.4,6.1,13.5,13.5,13.5c7.4,0,13.5-6.1,13.5-13.5v-54h27v81c0,7.4,6.1,13.5,13.5,13.5c7.4,0,13.5-6.1,13.5-13.5v-81h27
			v27c0,7.4,6.1,13.5,13.5,13.5c7.4,0,13.5-6.1,13.5-13.5v-27h13.5c22.3,0,40.5-18.2,40.5-40.5h42.9c5.5,15.7,20.4,27,38.1,27
			c22.3,0,40.5-18.2,40.5-40.5c0-2.4-0.3-4.9-0.7-7.2l50.8-50.8c5.3-5.3,5.3-13.8,0-19s-13.8-5.3-19,0l-45.9,45.9
			c-7-5.8-15.8-9.3-25.5-9.3c-17.6,0-32.4,11.3-38.1,27h-42.9v-108h56.4c5.5,15.7,20.4,27,38.1,27c22.3,0,40.5-18.2,40.5-40.5
			s-18.2-40.5-40.5-40.5c-17.6,0-32.4,11.3-38.1,27h-56.4c0-17.5-11.3-32.4-27-38.1v-32c15.7-5.5,27-20.4,27-38.1
			c0-17.7-11.3-32.4-27-38.1v-10.4l63.6-63.6c5.3,2.6,11.1,4,17.4,4c22.3,0,40.5-18.2,40.5-40.5c0-22.3-18.2-40.5-40.5-40.5
			c-22.3,0-40.5,18.2-40.5,40.5c0,6.2,1.5,12,4,17.4l-67.6,67.6c-2.6,2.6-3.9,5.9-3.9,9.6v15.9c-15.7,5.5-27,20.4-27,38.1
			c0,17.7,11.3,32.4,27,38.1v29.4h-54v-94.5c0-4.2-2-8.2-5.4-10.8l-48.6-36.5v-36.2c15.7-5.5,27-20.4,27-38.1
			c0-22.3-18.2-40.5-40.5-40.5c-22.3,0-40.5,18.2-40.5,40.5c0,17.6,11.3,32.4,27,38.1L504.2,719.7z M436.7,857.2
			c-7.4,0-13.5-6.1-13.5-13.5c0-7.4,6.1-13.5,13.5-13.5c7.4,0,13.5,6.1,13.5,13.5C450.2,851.1,444.1,857.2,436.7,857.2z
			 M774.2,1073.2c7.4,0,13.5,6.1,13.5,13.5c0,7.4-6.1,13.5-13.5,13.5c-7.4,0-13.5-6.1-13.5-13.5
			C760.7,1079.2,766.8,1073.2,774.2,1073.2z M787.7,938.2c7.4,0,13.5,6.1,13.5,13.5c0,7.4-6.1,13.5-13.5,13.5
			c-7.4,0-13.5-6.1-13.5-13.5C774.2,944.2,780.3,938.2,787.7,938.2z M747.2,668.2c7.4,0,13.5,6.1,13.5,13.5
			c0,7.4-6.1,13.5-13.5,13.5c-3.6,0-7-1.5-9.5-3.9c0,0,0,0,0-0.1s0,0-0.1,0c-2.4-2.4-3.9-5.7-3.9-9.5
			C733.7,674.2,739.8,668.2,747.2,668.2z M666.2,1100.2c0,7.4-6.1,13.5-13.5,13.5h-162c-7.4,0-13.5-6.1-13.5-13.5v-162
			c0-7.4,6.1-13.5,13.5-13.5h162c7.4,0,13.5,6.1,13.5,13.5V1100.2z M652.7,816.7c7.4,0,13.5,6.1,13.5,13.5c0,7.4-6.1,13.5-13.5,13.5
			c-7.4,0-13.5-6.1-13.5-13.5C639.2,822.8,645.3,816.7,652.7,816.7z M517.7,668.2c7.4,0,13.5,6.1,13.5,13.5
			c0,7.4-6.1,13.5-13.5,13.5c-7.4,0-13.5-6.1-13.5-13.5C504.2,674.2,510.3,668.2,517.7,668.2z"/>
	</g>
</g>
<g>
	<defs>
		<rect id="SVGID_00000183946277830386582670000007231331023120731575_" x="2678.3" y="1228" width="127" height="89.3"/>
	</defs>
	<clipPath id="SVGID_00000069398066575043644570000011695019722874606744_">
		<use xlink:href="#SVGID_00000183946277830386582670000007231331023120731575_"  style="overflow:visible;"/>
	</clipPath>
	<g style="clip-path:url(#SVGID_00000069398066575043644570000011695019722874606744_);">
		<path class="st12" d="M2688.5,1293.6h34.7c1.8,0,3.3,1.5,3.3,3.3v10.7c0,6.9,7.5,11.2,13.4,7.7l60.7-35c6-3.4,6-12,0-15.5
			l-60.7-35c-6-3.4-13.4,0.9-13.4,7.7v10.7c0,1.8-1.5,3.3-3.3,3.3h-34.7c-5.6,0-10.2,4.6-10.2,10.2v21.8
			C2678.3,1289,2682.9,1293.6,2688.5,1293.6"/>
	</g>
</g>
<g>
	<defs>
		<rect id="SVGID_00000168820032590144145400000015357295256060631716_" x="3598.2" y="1374.4" width="126.8" height="88.2"/>
	</defs>
	<clipPath id="SVGID_00000134209469773740941390000001854622841490299521_">
		<use xlink:href="#SVGID_00000168820032590144145400000015357295256060631716_"  style="overflow:visible;"/>
	</clipPath>
	<g style="clip-path:url(#SVGID_00000134209469773740941390000001854622841490299521_);">
		<path class="st12" d="M3720.5,1410.8l-60.7-35c-6-3.4-13.4,0.9-13.4,7.7v10.7c0,1.8-1.5,3.3-3.3,3.3h-34.7
			c-5.6,0-10.2,4.6-10.2,10.2v21.8c0,5.6,4.6,10.2,10.2,10.2h34.7c1.8,0,3.3,1.5,3.3,3.3v10.7c0,6.9,7.5,11.2,13.4,7.7l60.7-35
			C3726.4,1422.8,3726.4,1414.2,3720.5,1410.8"/>
	</g>
</g>
<g>
	<defs>
		<rect id="SVGID_00000072238192378450365090000013352216610002185645_" x="2678.3" y="1518.7" width="127" height="88"/>
	</defs>
	<clipPath id="SVGID_00000181074130130709336110000017437339839474686350_">
		<use xlink:href="#SVGID_00000072238192378450365090000013352216610002185645_"  style="overflow:visible;"/>
	</clipPath>
	<g style="clip-path:url(#SVGID_00000181074130130709336110000017437339839474686350_);">
		<path class="st12" d="M2800.6,1554.9l-60.7-35c-6-3.4-13.4,0.9-13.4,7.7v10.7c0,1.8-1.5,3.3-3.3,3.3h-34.7
			c-5.6,0-10.2,4.6-10.2,10.2v21.8c0,5.6,4.6,10.2,10.2,10.2h34.7c1.8,0,3.3,1.5,3.3,3.3v10.7c0,6.9,7.5,11.2,13.4,7.7l60.7-35
			C2806.6,1567,2806.6,1558.4,2800.6,1554.9"/>
	</g>
</g>
<path class="st12" d="M3543.8,1455.2c20.2,0,36.6-16.4,36.6-36.7c0-20.2-16.4-36.7-36.6-36.7c-20.2,0-36.7,16.4-36.7,36.7
	C3507.1,1438.8,3523.5,1455.2,3543.8,1455.2"/>
<g>
	<defs>
		<rect id="SVGID_00000128443467855114714760000005372364405861957795_" x="3165.3" y="1163.1" width="74.7" height="74.2"/>
	</defs>
	<clipPath id="SVGID_00000140011562146608723270000016466536233953087406_">
		<use xlink:href="#SVGID_00000128443467855114714760000005372364405861957795_"  style="overflow:visible;"/>
	</clipPath>
	<g style="clip-path:url(#SVGID_00000140011562146608723270000016466536233953087406_);">
		<path class="st12" d="M3202.2,1236.6c20.2,0,36.7-16.4,36.7-36.7c0-20.2-16.4-36.7-36.7-36.7c-20.2,0-36.7,16.4-36.7,36.7
			C3165.5,1220.2,3181.9,1236.6,3202.2,1236.6"/>
	</g>
</g>
<path class="st12" d="M2859.5,1309.2c20.2,0,36.7-16.4,36.7-36.7s-16.4-36.7-36.7-36.7c-20.2,0-36.7,16.4-36.7,36.7
	S2839.3,1309.2,2859.5,1309.2"/>
<path class="st12" d="M3202.2,1381.7c20.2,0,36.7-16.4,36.7-36.7c0-20.2-16.4-36.7-36.7-36.7c-20.2,0-36.7,16.4-36.7,36.7
	C3165.5,1365.3,3181.9,1381.7,3202.2,1381.7"/>
<path class="st12" d="M2859.5,1599.3c20.2,0,36.7-16.4,36.7-36.7c0-20.2-16.4-36.7-36.7-36.7c-20.2,0-36.7,16.4-36.7,36.7
	C2822.9,1582.9,2839.3,1599.3,2859.5,1599.3"/>
<path class="st12" d="M3202.2,1526.8c20.2,0,36.7-16.4,36.7-36.7c0-20.2-16.4-36.7-36.7-36.7c-20.2,0-36.7,16.4-36.7,36.7
	C3165.5,1510.4,3181.9,1526.8,3202.2,1526.8"/>
<g>
	<defs>
		<rect id="SVGID_00000150066637974376203490000006602641373568887218_" x="3165.3" y="1598.2" width="73.8" height="73.6"/>
	</defs>
	<clipPath id="SVGID_00000117639327163392928400000002958695004317506487_">
		<use xlink:href="#SVGID_00000150066637974376203490000006602641373568887218_"  style="overflow:visible;"/>
	</clipPath>
	<g style="clip-path:url(#SVGID_00000117639327163392928400000002958695004317506487_);">
		<path class="st12" d="M3202.2,1671.9c20.2,0,36.7-16.4,36.7-36.6c0-20.2-16.4-36.7-36.7-36.7c-20.2,0-36.7,16.4-36.7,36.7
			C3165.5,1655.5,3181.9,1671.9,3202.2,1671.9"/>
	</g>
</g>
<path class="st12" d="M3016.9,1383.1l-20.3,21.5l-81.5-86.2L3016.9,1383.1z M3032.2,1392.9l39,24.8l-38.9,24.7l-23.5-24.8
	L3032.2,1392.9z M2915,1516.9l81.6-86.4l20.4,21.6L2915,1516.9z M2984.3,1417.6l-94.4,99.9c8.7,5.9,15.6,14.1,19.7,23.9l119.8-76.1
	l41.4,43.8l-160.5,33.8c2.1,5.4,3.4,11.3,3.7,17.4l171.2-36.1l73.7,78.1c3.6-4.7,8-8.9,12.9-12.2l-66.3-70.1l46.1-9.7
	c-2.2-5.4-3.5-11.3-3.8-17.4l-56.6,11.9l-46.5-49.2l43.1-27.4l64.2,40.8c2.3-5.5,5.6-10.6,9.5-15l-57.1-36.3l57.2-36.4
	c-4-4.4-7.2-9.5-9.6-15l-64.3,40.8l-43.2-27.5l46.1-48.8l57,11.9c0.2-6.1,1.5-12,3.6-17.4l-46.3-9.7l66.7-70.6
	c-4.9-3.3-9.3-7.5-12.9-12.2l-74.2,78.6l-170.8-35.6c-0.4,6.1-1.7,11.9-4,17.4l160.4,33.5l-41,43.4l-119.7-76.1
	c-4.1,9.7-11,18-19.7,23.8L2984.3,1417.6"/>
<path class="st12" d="M3253,1470.7c2.1,5.4,3.3,11.3,3.6,17.4l236.5-49.8c-2.1-5.4-3.4-11.3-3.7-17.4L3253,1470.7"/>
<path class="st12" d="M2910.2,1582.5l237.6,50.3c0.3-6.1,1.6-12,3.7-17.4l-237.6-50.3C2913.6,1571.2,2912.3,1577.1,2910.2,1582.5"/>
<path class="st12" d="M3252.3,1614l250.9-159.2c-4-4.4-7.2-9.5-9.6-15l-250.9,159.2C3246.7,1603.4,3249.9,1608.4,3252.3,1614"/>
<path class="st12" d="M3151.5,1219.8c-2.1-5.4-3.4-11.3-3.7-17.4l-237.6,50.3c2.1,5.4,3.4,11.3,3.7,17.4L3151.5,1219.8"/>
<path class="st12" d="M3242.6,1236.4l251.1,160.7c2.4-5.5,5.6-10.6,9.6-15l-251.1-160.7C3249.8,1226.9,3246.6,1232,3242.6,1236.4"/>
<path class="st12" d="M3256.6,1347.6c-0.3,6.1-1.6,12-3.8,17.4l236.6,50.9c0.3-6.1,1.6-12,3.8-17.4L3256.6,1347.6"/>
<g>
	<g transform="translate(97.820855, 192.09274)">
		<g>
			<path class="st17" d="M88.2-45.8c-0.9,17.6,0.9,78.1-52.3,107.6c5.3,3.7,10.5,8.5,13.3,12.7C77.4,57.2,91.4,31.5,98.6,7.5
				c7.5,24.5,22.4,52,52.5,66.9c2.5-4.3,7.3-9.7,12.3-13.5c-49.7-23.3-56.4-80.8-57.5-99.2c0.1-2.8,0.3-5.5,0.4-7.6H88.2z"/>
		</g>
	</g>
</g>
<g>
	<g transform="translate(197.816997, 192.09274)">
		<g>
			<path class="st17" d="M141.3,50.4v-68.9h44.8V-35H79.5v16.5h43.6v68.9H72.3v16h121.2v-16H141.3z"/>
		</g>
	</g>
</g>
<g>
	<g transform="translate(297.813139, 192.09274)">
		<g>
			<path class="st17" d="M167.1,18.7V3.8h-21.9v-21.2h18.8v-14.7h-35.2c1.3-4.5,2.4-9.1,3.3-13.7L117-48.9
				c-2.7,15.2-7.7,30.5-14.9,40.1c3.6,2,9.9,6.5,12.8,9.2c3.3-4.9,6.4-11.1,9.1-17.9h5.3V3.8h-24.7v14.9h23.6
				c-2.1,15.5-8.3,32.1-25.6,44.5c3.3,2.4,9.2,8.7,11.3,12c12.8-9.3,20.7-21.9,25.2-34.9c6.5,8.1,14.1,18.1,18.5,25.1L168.3,52
				c-3.7-4.4-18.1-21.1-25.1-27.9c0.4-1.7,0.7-3.6,0.9-5.5H167.1z M186.1,47.2v-69.7h19.3v69.7H186.1z M170.7-37.4V71.8h15.3v-9.6
				h19.3v7.6h16.1V-37.4H170.7z"/>
		</g>
	</g>
</g>
<g>
	<g transform="translate(397.809294, 192.09274)">
		<g>
			<path class="st17" d="M243.4,11c12.3,0,16.4-4.9,18.1-22c-4.3-0.9-10.8-3.5-14-5.9c-0.5,11.6-1.5,13.6-5.7,13.6h-14.5
				c-5.1,0-5.9-0.5-5.9-5.3v-7.9C233-20,245.5-24.2,255.5-29l-10.1-11.5c-6.3,3.5-15.1,7.6-24,11.1v-19.1h-15.7v40.1
				c0,14.7,3.7,19.3,19.3,19.3H243.4z M159.5,38.6v-7.9h20v7.9H159.5z M179.5,12V19h-20V12H179.5z M195.1-1h-50.3v76.5h14.7V50.3h20
				v8.9c0,1.6-0.5,2-2.1,2c-1.7,0.1-7.1,0.3-11.7,0c2,3.7,4.3,9.9,5.1,14c8,0,14.1-0.1,18.7-2.7c4.4-2.3,5.7-6.1,5.7-13.1V-1z
				 M175.1-35c2.1,3.5,4.3,7.2,6.3,10.9l-17.7,0.8c3.3-7.1,6.9-15.1,10-22.8l-16.5-3.3c-2.3,8.1-6,18.4-9.7,26.8
				c-3.7,0.1-7.2,0.3-10.4,0.3l1.3,15.1c13.6-0.8,31.7-1.9,49.3-3.1c1.1,2.5,1.9,4.9,2.4,7.1l14.5-5.9c-2.5-8.7-9.6-21.3-16.1-30.9
				L175.1-35z M227.4,60.8c-5.2,0-6.1-0.7-6.1-5.3V44.8c12.1-3.7,25.3-8.5,35.6-14.1l-10.5-11.6c-6.4,4.3-15.6,8.7-25.1,12.5v-18
				h-15.6v41.9c0,14.7,3.9,19.2,19.5,19.2h18.9c12.8,0,16.8-5.2,18.5-24c-4.1-1.1-10.5-3.5-13.9-5.9c-0.7,13.5-1.6,16-6.1,16H227.4z
				"/>
		</g>
	</g>
</g>
<g>
	<g transform="translate(2014.501763, 653.442813)">
		<g>
			<path class="st17" d="M728.4,123.4h9.6c-0.9,16.3-4,24.4-26,28.9c2.7,2.8,6.4,8.1,7.5,11.7c26.8-6.5,32-18.9,33.2-40.7h7.2v19.7
				c0,12.3,2.7,16.1,14.9,16.1h10.9c9.1,0,12.7-3.6,14.1-17.6c-3.9-0.9-9.9-3.1-12.5-5.2c-0.4,8.8-0.9,10.1-3.2,10.1h-6.8
				c-2.5,0-2.9-0.5-2.9-3.7v-19.5h10v9.9h14.1v-23.1h-83.9v26.7h13.7V123.4z M714.2,119.9c-5.2-4.5-15.7-10.4-23.6-13.7l-9.2,11.6
				c8.1,3.9,18.3,10.3,23.1,14.9L714.2,119.9z M708.2,153.5c-5.2-4.1-16.1-8.9-24.3-11.6l-8,12.4c8.3,3.2,18.8,8.7,23.9,12.9
				L708.2,153.5z M701.4,176.2c-7.1,15.7-16,32.5-22.4,42.8l14,9.3c7.1-12.9,14.3-28.5,20.5-42.7L701.4,176.2z M798.6,187v-14.1
				h-35.2v-13.3h-15.6v13.3h-33.3V187h25.1c-7.9,11.2-19.7,20.9-32.5,26.1c3.2,2.9,7.7,8.5,10.1,12.1c11.7-6,22.4-15.6,30.7-27.2
				v30.8h15.6v-32.4c7.3,11.5,16.9,22,26.9,28.3c2.5-4,7.5-9.9,11.2-12.9c-10.8-5.2-21.7-14.8-29.1-24.8H798.6z"/>
		</g>
	</g>
</g>
<g>
	<g transform="translate(2114.497906, 653.442813)">
		<g>
			<path class="st17" d="M804.2,198.1v4.9h-40.8v-4.9H804.2z M763.4,216.5v-5.2h40.8v5.2H763.4z M748,229.4h15.3v-3.5h40.8v3.5h16
				v-40.9H748V229.4z M772.2,148.5c-0.7-2-2.1-4.5-4-6.8h29.2c-1.5,2.3-3.3,4.7-4.9,6.8H772.2z M809.4,162.4h-19.1v-5.1h19.1V162.4z
				 M809.4,175.8h-19.1v-5.2h19.1V175.8z M757.4,170.6h18.4v5.2h-18.4V170.6z M757.4,157.3h18.4v5.1h-18.4V157.3z M738.6,122.5H809
				v7.2h-70.4V122.5z M824.8,110.5h-102v39.1c0,21.3-1.1,51.1-14.3,71.3c3.9,1.6,10.9,5.6,14,8.1c14-21.7,16-56.3,16-79.5v-7.9h17.2
				l-2.4,0.8c1.6,1.7,3.1,3.9,4.3,6h-14.9v36h82.1v-36h-17.6c1.9-1.9,3.9-4.1,5.9-6.4l-1.6-0.4h13.3V110.5z"/>
		</g>
	</g>
</g>
<g>
	<g transform="translate(2214.494048, 653.442813)">
		<g>
			<path class="st17" d="M762.3,139.9h85.1v18.4H863v-32.4h-17.7c3.7-4.7,7.6-9.9,11.2-15.1l-17.2-5.2c-2.5,6.3-7.1,14-11.5,20.3
				h-20.1l6.4-2.5c-1.7-5.3-6.1-13.5-10.4-19.2l-14,5.1c3.2,5.1,6.5,11.5,8.4,16.7h-20.9l4.8-2.3c-2.1-5.2-7.5-12.3-12.1-17.5
				l-13.5,6c3.2,4.1,6.8,9.3,9.2,13.7h-18.1v32.4h14.9V139.9z M864.3,179.9h-50.1c10.8-6.3,21.2-14.7,28.7-22.8l-10-7.7l-3.5,0.8
				h-59.9v13.7h45.2c-3.2,2.7-6.8,5.2-10.3,7.3h-7.6v8.7h-51.2v14.7h51.2v17.3c0,1.9-0.7,2.4-3.5,2.4c-2.7,0.1-12.5,0.1-21.1-0.3
				c2.4,4.3,5.5,10.9,6.5,15.5c11.3,0,19.6-0.3,25.9-2.5c6.5-2.3,8.3-6.4,8.3-14.7v-17.7h51.3V179.9z"/>
		</g>
	</g>
</g>
<g>
	<g transform="translate(2314.490202, 653.442813)">
		<g>
			<path class="st17" d="M811.1,140.6c-12.8,4.4-25.9,8.9-34.5,11.6l5.5,12.9c9.5-3.9,20.8-8.5,31.5-13.2L811.1,140.6z M867.2,193.3
				h-57.1v-7.7h57.1V193.3z M810.2,212.9v-7.7h57.1v7.7H810.2z M832.4,161.8c0.8-1.7,1.1-4,1.1-6.9v-44.1H780V123h10.1l-6.7,8
				c6,3.2,13.5,8.4,16.9,12.1l7.9-10.1c-3.2-3.1-9.3-7.1-14.8-10h25.7v31.7c0,1.3-0.5,1.9-2,1.9c-1.5,0-6.7,0-11.2-0.1
				c1.6,3.1,3.5,7.7,4,11.2c8.1,0,14,0,18.1-1.7l0.4-0.1c-0.8,2.4-1.7,5.2-2.8,7.7h-31.3v56.1h15.7v-4.8h57.1v4.8h16.5v-56.1h-42.3
				c1.7-2.9,3.6-6.3,5.2-9.7L832.4,161.8z M893.8,110.8h-53.1V123h8.7l-6.3,7.9c5.6,3.1,12.9,7.9,16.7,11.6
				c-8.7,2.9-16.8,5.5-22.9,7.3l5.3,11.9c9.9-3.6,22.1-8.1,33.6-12.5l-2.4-11.3c-4.1,1.5-8.3,2.8-12.3,4.3l7.2-9.6
				c-3.2-2.8-9.3-6.7-14.8-9.5H879v31.3c0,1.5-0.5,1.9-2.3,2c-1.6,0-7.5,0-12.5-0.3c1.7,3.3,3.6,8.3,4.3,12c8.7,0.1,15.1,0,19.5-2
				c4.5-2,5.9-5.2,5.9-11.6V110.8z"/>
		</g>
	</g>
</g>
<g>
	<g transform="translate(1036.22071, 397.492768)">
		<g>
			<path class="st17" d="M453.8,99.4c-2,4.4-4.7,8.4-7.7,12.1c-1.1-3.6-2.1-7.7-3.1-12.1H453.8z M392.5,87.2
				c-3.2-5.6-9.6-15.9-12.4-20v-5.7h12.1V47.3c3.6,3.1,7.3,6.8,9.9,9.9c-2.7,4.3-5.5,8.3-8,11.7l-4.1,0.3l2.1,11.7
				c7.5-0.8,15.7-1.9,24.4-2.8c0.3,1.5,0.4,2.8,0.5,4l9.1-3.6c0.4,2.9,0.8,5.9,1.1,8.7H392.5z M411.5,61.4c0.8,1.9,1.5,3.9,2.1,6
				l-7.2,0.5c5.7-7.5,12-16.8,17.3-25.1c0.3,10.7,0.9,20.9,1.9,30.7c-1.1-4.7-3.1-10.4-5.2-14.9L411.5,61.4z M438.6,67
				c-0.5-6.7-0.9-13.5-1.1-20.7c3.9,3.3,7.9,7.3,10.7,10.8c-2.3,3.5-4.5,6.8-6.7,9.6L438.6,67z M440.9,87.2c-0.7-4-1.2-8.1-1.6-12.5
				l0.8,3.7c3.7-0.4,7.6-0.9,11.7-1.3l-6,5.2c2.1,1.5,4.4,3.2,6.4,4.9H440.9z M454.6,99.4h18.7V87.2h-10.1l2.5-2.3
				c-2.1-2.5-6.3-5.9-10.1-8.4l9.9-1.3c0.5,1.9,0.8,3.7,1.1,5.2l9.5-4c-0.8-5.2-3.9-13.5-6.9-19.7l-8.9,3.2c0.8,1.7,1.6,3.6,2.3,5.5
				l-8,0.5c5.9-7.9,12.3-17.6,17.6-26l-10.8-5.3c-1.9,3.9-4.3,8.4-6.8,12.8c-1.1-1.1-2.3-2.3-3.5-3.5c3.3-5.2,7.2-12.4,10.9-19.1
				l-11.9-4.5c-1.5,5.1-4,11.7-6.5,17.2l-2.1-1.6l-3.9,5.6c-0.1-7.1-0.1-14.3,0-21.7h-14c0,6.5,0.1,12.9,0.3,19.2l-8.9-4.4
				c-1.9,4-4.1,8.4-6.8,12.9c-0.9-1.1-2.1-2.3-3.3-3.5c3.2-5.3,7.1-12.7,10.8-19.1l-11.7-4.5c-1.5,4.9-4,11.6-6.5,17.2l-2.3-1.7
				l-5.9,8.7c0.9,0.8,2,1.6,2.9,2.5h-11.9V19.6h-14.1V47h-14.3v14.4h13.2c-3.1,15.9-9.3,34.4-16.3,44.9c2.1,3.6,5.2,9.3,6.7,13.5
				c4-6.4,7.6-15.3,10.7-25.1V144h14.1V85.3c2.7,5.9,5.3,12,6.7,16l5.3-7.9v6h8.3c-1.3,13.5-4.7,26.1-16.4,34
				c3.2,2.3,7.2,7.2,8.9,10.4c9.5-6.5,14.7-15.5,17.7-25.6c4.1,3.2,8,6.5,10.3,9.1l8.5-10.5c-3.5-3.6-10-8.4-15.9-12.3
				c0.3-1.6,0.5-3.3,0.7-5.1h15.1c1.6,8.5,3.6,16,6.1,22.4c-6.4,4.9-13.9,8.9-22.3,12c2.7,2.5,6.5,7.2,8.3,10.1
				c7.2-2.8,14-6.3,20.1-10.5c4.8,6.8,10.8,10.7,18.3,10.7c10.4,0,14.1-4,16.5-19.1c-3.1-1.5-7.3-4.1-10.3-7.2
				c-0.7,10.5-1.9,13.1-5.2,13.1s-6.3-2.1-8.9-6.1c6.1-6,11.2-12.9,15.1-20.7L454.6,99.4z"/>
		</g>
	</g>
</g>
<g>
	<g transform="translate(1136.216853, 397.492768)">
		<g>
			<path class="st17" d="M428.6,80.6c-1.9-3.1-10.8-14.4-14.1-18v-2.1H425V45.8h-10.5V19.6h-14.5v26.3h-14.4v14.7h14.4v1.9
				c-3.7,15.7-10.5,33.9-18.4,43.9c2.5,4.1,6.1,11.2,7.5,15.6c4-5.9,7.6-14.4,10.9-23.7v46h14.5V80.2c2.4,4.4,4.7,8.8,6,11.6
				L428.6,80.6z M484.5,27.6c3.7,4.8,7.9,11.6,9.5,15.9l10.9-6.1c-1.9-4.4-6.1-10.7-10.3-15.2L484.5,27.6z M493.1,65.7
				c-1.9,10.5-4.5,20.3-8.1,28.9c-1.1-10.7-1.9-23.3-2.4-36.9h23.1V43.4h-23.3c-0.1-7.7,0-15.7,0.1-23.7h-14.7
				c0,7.9,0.1,16,0.3,23.7h-39.2v14.3h39.6c0.8,21.7,2.4,41.9,5.6,57.1c-3.3,4.5-6.9,8.5-10.9,12.1v-30h5.6V83.3h-5.6V62.1h-12v21.2
				h-5.9V62.4h-11.9v20.9h-6.7v13.6h6.4c-0.8,12.5-3.6,25.5-12.5,36.1c3.2,1.7,8,5.3,10.3,7.9c10.3-12.7,13.3-28.7,14.1-44h6.1v31.3
				h10.4c-2.5,2-5.2,4-8.1,5.9c3.2,2,8.7,6.5,10.8,8.7c5.2-3.7,10-8,14.1-12.8c3.5,8.3,8,13.2,13.9,13.2c9.9,0,13.6-5.5,15.6-24.3
				c-3.3-1.6-7.9-4.8-10.7-8c-0.4,12.4-1.5,18.1-3.1,18.1c-2.1,0-4.1-4.7-5.7-12.5c8.3-13.5,14-29.7,17.9-48.9L493.1,65.7z"/>
		</g>
	</g>
</g>
<g>
	<g transform="translate(1236.212995, 397.492768)">
		<g>
			<path class="st17" d="M436.2,54.6h85.1V73h15.6V40.6h-17.7c3.7-4.7,7.6-9.9,11.2-15.1l-17.2-5.2c-2.5,6.3-7.1,14-11.5,20.3h-20.1
				l6.4-2.5c-1.7-5.3-6.1-13.5-10.4-19.2l-14,5.1c3.2,5.1,6.5,11.5,8.4,16.7H451l4.8-2.3c-2.1-5.2-7.5-12.3-12.1-17.5l-13.5,6
				c3.2,4.1,6.8,9.3,9.2,13.7h-18.1V73h14.9V54.6z M538.2,94.6h-50.1c10.8-6.3,21.2-14.7,28.7-22.8l-10-7.7l-3.5,0.8h-59.9v13.7
				h45.2c-3.2,2.7-6.8,5.2-10.3,7.3h-7.6v8.7h-51.2v14.7h51.2v17.3c0,1.9-0.7,2.4-3.5,2.4c-2.7,0.1-12.5,0.1-21.1-0.3
				c2.4,4.3,5.5,10.9,6.5,15.5c11.3,0,19.6-0.3,25.9-2.5c6.5-2.3,8.3-6.4,8.3-14.7v-17.7h51.3V94.6z"/>
		</g>
	</g>
</g>
<g>
	<g transform="translate(1336.209149, 397.492768)">
		<g>
			<path class="st17" d="M485,55.3c-12.8,4.4-25.9,8.9-34.5,11.6l5.5,12.9c9.5-3.9,20.8-8.5,31.5-13.2L485,55.3z M541.1,108h-57.1
				v-7.7h57.1V108z M484.1,127.6v-7.7h57.1v7.7H484.1z M506.3,76.5c0.8-1.7,1.1-4,1.1-6.9V25.4h-53.5v12.3h10.1l-6.7,8
				c6,3.2,13.5,8.4,16.9,12.1l7.9-10.1c-3.2-3.1-9.3-7.1-14.8-10h25.7v31.7c0,1.3-0.5,1.9-2,1.9c-1.5,0-6.7,0-11.2-0.1
				c1.6,3.1,3.5,7.7,4,11.2c8.1,0,14,0,18.1-1.7l0.4-0.1c-0.8,2.4-1.7,5.2-2.8,7.7h-31.3v56.1h15.7v-4.8h57.1v4.8h16.5V88.2h-42.3
				c1.7-2.9,3.6-6.3,5.2-9.7L506.3,76.5z M567.7,25.4h-53.1v12.3h8.7l-6.3,7.9c5.6,3.1,12.9,7.9,16.7,11.6
				c-8.7,2.9-16.8,5.5-22.9,7.3l5.3,11.9c9.9-3.6,22.1-8.1,33.6-12.5l-2.4-11.3c-4.1,1.5-8.3,2.8-12.3,4.3l7.2-9.6
				c-3.2-2.8-9.3-6.7-14.8-9.5h25.5V69c0,1.5-0.5,1.9-2.3,2c-1.6,0-7.5,0-12.5-0.3c1.7,3.3,3.6,8.3,4.3,12c8.7,0.1,15.1,0,19.5-2
				c4.5-2,5.9-5.2,5.9-11.6V25.4z"/>
		</g>
	</g>
</g>
<g>
	<g transform="translate(97.820855, 271.692759)">
		<g>
			<path class="st17" d="M60.9,34.5L50,66.3c-0.1,0.4,0,0.7,0.4,0.7h21.1c0.5,0,0.6-0.2,0.5-0.7L61.1,34.5
				C61.1,34.4,61.1,34.4,60.9,34.5C61,34.4,60.9,34.4,60.9,34.5z M47.6,73.1l-4.9,14.2c-0.8,2.2-2.4,3.3-4.7,3.3
				c-0.8,0-1.5-0.4-2-1.1c-0.5-0.7-0.6-1.5-0.3-2.3L56,31.9c0.4-1.1,1.1-1.9,2-2.6c0.9-0.7,2-1,3.1-1c1.1,0,2.2,0.3,3.1,1
				c1,0.7,1.7,1.5,2.1,2.6l20.1,55.3c0.3,0.9,0.2,1.6-0.3,2.4c-0.5,0.7-1.2,1.1-2.1,1.1c-1.1,0-2.1-0.3-3-1
				c-0.9-0.7-1.5-1.5-1.9-2.5l-4.8-14c-0.2-0.4-0.5-0.7-1-0.7H48.6C48.1,72.4,47.8,72.6,47.6,73.1z"/>
		</g>
	</g>
</g>
<g>
	<g transform="translate(140.570233, 271.692759)">
		<g>
			<path class="st17" d="M59.6,69.4v18c0,0.9-0.3,1.7-0.9,2.3c-0.6,0.6-1.4,0.9-2.3,0.9c-0.9,0-1.7-0.3-2.2-0.9
				c-0.6-0.6-0.9-1.4-0.9-2.3V49.3c0-0.9,0.3-1.6,0.9-2.2c0.6-0.6,1.3-0.9,2.2-0.9c0.9,0,1.6,0.3,2.2,0.9c0.6,0.6,0.9,1.3,0.9,2.2
				l0.1,6.3c0,0.1,0,0.1,0.1,0.1c0.1,0,0.1,0,0.1-0.1c4.4-6.1,10.6-9.5,18.5-10.2c0.7-0.1,1.4,0.2,1.9,0.7c0.5,0.5,0.8,1.1,0.8,1.9
				c0,0.7-0.2,1.4-0.7,1.9c-0.5,0.5-1.1,0.8-1.8,0.9c-5.6,0.5-10.1,2.5-13.5,5.9C61.3,60.1,59.6,64.3,59.6,69.4z"/>
		</g>
	</g>
</g>
<g>
	<g transform="translate(169.560449, 271.692759)">
		<g>
			<path class="st17" d="M70.6,77.5V53.7c0-0.5-0.3-0.7-0.8-0.7h-6.5c-0.8,0-1.4-0.2-1.9-0.7c-0.5-0.5-0.7-1.1-0.7-1.8
				c0-0.7,0.2-1.3,0.7-1.8c0.5-0.5,1.1-0.7,1.9-0.7h6.5c0.5,0,0.8-0.3,0.8-0.8V34.8c0-0.9,0.3-1.7,0.9-2.2c0.6-0.6,1.3-0.9,2.2-0.9
				c0.9,0,1.7,0.3,2.3,0.9c0.6,0.6,0.9,1.3,0.9,2.2v12.3c0,0.5,0.2,0.8,0.7,0.8h13.6c0.7,0,1.3,0.2,1.8,0.7c0.5,0.5,0.7,1.1,0.7,1.8
				c0,0.7-0.2,1.3-0.7,1.8C92.6,52.8,92,53,91.2,53H77.7c-0.5,0-0.7,0.2-0.7,0.7v22.6c0,4,0.5,6.6,1.6,8c1.1,1.3,3.1,2,6.1,2
				c1.8,0,3.5-0.2,5-0.6c0.6-0.2,1.2-0.1,1.9,0.2c0.6,0.3,1,0.8,1.1,1.4c0.3,1.7-0.4,2.8-2,3.2c-2.4,0.6-4.7,0.9-6.9,0.9
				c-4.8,0-8.2-1-10.2-3.1C71.6,86.2,70.6,82.6,70.6,77.5z"/>
		</g>
	</g>
</g>
<g>
	<g transform="translate(202.262442, 271.692759)">
		<g>
			<path class="st17" d="M83.8,29.9v2.7c0,0.9-0.3,1.7-0.9,2.4c-0.6,0.7-1.4,1-2.3,1c-0.9,0-1.7-0.3-2.3-1c-0.7-0.7-1-1.4-1-2.4
				v-2.7c0-0.9,0.3-1.7,1-2.4c0.7-0.7,1.4-1,2.3-1c0.9,0,1.7,0.3,2.3,1C83.5,28.2,83.8,29,83.8,29.9z M83.8,49.5v37.7
				c0,0.9-0.3,1.7-0.9,2.4c-0.6,0.7-1.4,1-2.3,1c-0.9,0-1.7-0.3-2.3-1c-0.7-0.7-1-1.4-1-2.4V49.5c0-0.9,0.3-1.7,1-2.4
				c0.7-0.7,1.4-1,2.3-1c0.9,0,1.7,0.3,2.3,1C83.5,47.8,83.8,48.6,83.8,49.5z"/>
		</g>
	</g>
</g>
<g>
	<g transform="translate(221.909234, 271.692759)">
		<g>
			<path class="st17" d="M90.3,87.4V53.7c0-0.5-0.2-0.7-0.8-0.7h-8.4c-0.7,0-1.3-0.2-1.8-0.7c-0.5-0.5-0.7-1.1-0.7-1.8
				c0-0.7,0.2-1.3,0.7-1.8c0.5-0.5,1.1-0.7,1.8-0.7h8.4c0.5,0,0.8-0.3,0.8-0.8v-4.9c0-9.8,4.7-14.8,14.2-14.8c2.1,0,3.9,0.2,5.6,0.6
				c0.7,0.2,1.2,0.6,1.5,1.2c0.3,0.7,0.4,1.3,0.2,2c-0.2,0.7-0.6,1.2-1.2,1.5c-0.6,0.3-1.3,0.4-2,0.2c-1.3-0.3-2.5-0.4-3.6-0.4
				c-3.1,0-5.2,0.7-6.5,2.2c-1.3,1.4-1.9,3.9-1.9,7.5v4.9c0,0.5,0.2,0.8,0.8,0.8h12c0.7,0,1.3,0.2,1.8,0.7c0.5,0.5,0.7,1.1,0.7,1.8
				c0,0.7-0.2,1.3-0.7,1.8c-0.5,0.5-1.1,0.7-1.8,0.7h-12c-0.5,0-0.8,0.2-0.8,0.7v33.7c0,0.9-0.3,1.7-0.9,2.3
				c-0.6,0.6-1.4,0.9-2.3,0.9c-0.9,0-1.7-0.3-2.3-0.9C90.6,89.1,90.3,88.3,90.3,87.4z"/>
		</g>
	</g>
</g>
<g>
	<g transform="translate(254.867208, 271.692759)">
		<g>
			<path class="st17" d="M101.3,29.9v2.7c0,0.9-0.3,1.7-0.9,2.4c-0.6,0.7-1.4,1-2.3,1c-0.9,0-1.7-0.3-2.3-1c-0.7-0.7-1-1.4-1-2.4
				v-2.7c0-0.9,0.3-1.7,1-2.4c0.7-0.7,1.4-1,2.3-1c0.9,0,1.7,0.3,2.3,1C101,28.2,101.3,29,101.3,29.9z M101.3,49.5v37.7
				c0,0.9-0.3,1.7-0.9,2.4c-0.6,0.7-1.4,1-2.3,1c-0.9,0-1.7-0.3-2.3-1c-0.7-0.7-1-1.4-1-2.4V49.5c0-0.9,0.3-1.7,1-2.4
				c0.7-0.7,1.4-1,2.3-1c0.9,0,1.7,0.3,2.3,1C101,47.8,101.3,48.6,101.3,49.5z"/>
		</g>
	</g>
</g>
<g>
	<g transform="translate(274.514, 271.692759)">
		<g>
			<path class="st17" d="M117.1,91.4c-6.6,0-11.9-2.1-16-6.3c-4.1-4.2-6.1-9.8-6.1-16.8c0-7.2,2-12.9,5.9-16.9
				c3.9-4.1,9.4-6.1,16.3-6.1c3.6,0,7.2,0.7,10.8,2c0.7,0.2,1.3,0.7,1.6,1.4c0.3,0.7,0.4,1.4,0.1,2.2c-0.2,0.7-0.7,1.2-1.3,1.5
				c-0.7,0.3-1.3,0.3-2,0c-2.9-1.2-5.9-1.8-9-1.8c-5,0-8.9,1.6-11.7,4.6c-2.8,3.1-4.2,7.5-4.2,13.2c0,5.5,1.5,9.8,4.4,13.1
				c2.9,3.2,6.8,4.9,11.5,4.9c3.1,0,6.1-0.6,9-1.8c0.6-0.3,1.3-0.3,2,0c0.7,0.2,1.2,0.7,1.4,1.4c0.3,0.7,0.3,1.5-0.1,2.2
				c-0.3,0.7-0.8,1.2-1.5,1.4C124.5,90.8,120.9,91.4,117.1,91.4z"/>
		</g>
	</g>
</g>
<g>
	<g transform="translate(307.343983, 271.692759)">
		<g>
			<path class="st17" d="M118.8,29.9v2.7c0,0.9-0.3,1.7-0.9,2.4c-0.6,0.7-1.4,1-2.3,1c-0.9,0-1.7-0.3-2.3-1c-0.7-0.7-1-1.4-1-2.4
				v-2.7c0-0.9,0.3-1.7,1-2.4c0.7-0.7,1.4-1,2.3-1c0.9,0,1.7,0.3,2.3,1C118.5,28.2,118.8,29,118.8,29.9z M118.8,49.5v37.7
				c0,0.9-0.3,1.7-0.9,2.4c-0.6,0.7-1.4,1-2.3,1c-0.9,0-1.7-0.3-2.3-1c-0.7-0.7-1-1.4-1-2.4V49.5c0-0.9,0.3-1.7,1-2.4
				c0.7-0.7,1.4-1,2.3-1c0.9,0,1.7,0.3,2.3,1C118.5,47.8,118.8,48.6,118.8,49.5z"/>
		</g>
	</g>
</g>
<g>
	<g transform="translate(326.990787, 271.692759)">
		<g>
			<path class="st17" d="M138.2,67.2c-6,0-10.6,1-13.9,3c-3.3,2-4.9,4.7-4.9,8.1c0,2.6,0.8,4.6,2.4,6c1.6,1.4,3.7,2.2,6.4,2.2
				c3.9,0,7.3-1.4,10.2-4.2c2.9-2.8,4.3-6.3,4.3-10.4v-4c0-0.5-0.3-0.8-0.8-0.8H138.2z M126.7,91.4c-4.1,0-7.4-1.2-9.8-3.5
				c-2.4-2.3-3.7-5.4-3.7-9.3c0-5,2.2-8.9,6.5-11.8c4.3-2.9,10.5-4.4,18.4-4.4h3.8c0.5,0,0.8-0.2,0.8-0.7c-0.1-4.2-0.9-7.2-2.5-8.8
				c-1.6-1.7-4.5-2.5-8.6-2.5c-4.2,0-8.4,0.9-12.6,2.7c-0.6,0.3-1.2,0.3-1.8,0c-0.6-0.3-1-0.8-1.1-1.4c-0.2-0.7-0.1-1.5,0.2-2.2
				c0.3-0.7,0.9-1.2,1.5-1.5c4.4-1.9,8.9-2.8,13.7-2.8c6.2,0,10.6,1.3,13.3,3.9c2.7,2.6,4,6.8,4,12.6v16.8c0,3,0.3,5.9,0.8,9
				c0.1,0.8-0.1,1.5-0.6,2.1c-0.5,0.6-1.1,0.9-1.9,0.9c-0.9,0-1.7-0.3-2.4-0.9c-0.7-0.6-1-1.3-1.1-2.1c-0.1-1.1-0.2-2.7-0.3-4.7
				c0-0.1,0-0.2-0.1-0.2c-0.1,0-0.2,0.1-0.2,0.2c-1.6,2.7-3.8,4.8-6.7,6.3C133.6,90.7,130.3,91.4,126.7,91.4z"/>
		</g>
	</g>
</g>
<g>
	<g transform="translate(361.676658, 271.692759)">
		<g>
			<path class="st17" d="M136.9,29.9v57.3c0,0.9-0.3,1.7-0.9,2.4c-0.6,0.7-1.4,1-2.3,1c-0.9,0-1.7-0.3-2.3-1c-0.7-0.7-1-1.4-1-2.4
				V29.9c0-0.9,0.3-1.7,1-2.4c0.7-0.7,1.4-1,2.3-1c0.9,0,1.7,0.3,2.3,1C136.6,28.2,136.9,29,136.9,29.9z"/>
		</g>
	</g>
</g>
<g>
	<g transform="translate(381.323438, 271.692759)">
	</g>
</g>
<g>
	<g transform="translate(399.882298, 271.692759)">
		<g>
			<path class="st17" d="M150.5,31.9v55c0,1-0.4,1.9-1.1,2.6c-0.7,0.7-1.6,1.1-2.6,1.1c-1,0-1.9-0.4-2.6-1.1
				c-0.7-0.7-1.1-1.6-1.1-2.6v-55c0-1,0.4-1.9,1.1-2.6s1.6-1.1,2.6-1.1c1,0,1.9,0.4,2.6,1.1C150.2,30,150.5,30.9,150.5,31.9z"/>
		</g>
	</g>
</g>
<g>
	<g transform="translate(420.105059, 271.692759)">
		<g>
			<path class="st17" d="M152.7,66.8v20.6c0,0.9-0.3,1.6-0.9,2.2c-0.6,0.6-1.3,0.9-2.2,0.9c-0.8,0-1.6-0.3-2.2-0.9s-0.9-1.4-0.9-2.2
				V49.2c0-0.8,0.3-1.5,0.9-2.1c0.6-0.6,1.3-0.9,2.1-0.9c0.8,0,1.5,0.3,2.1,0.9c0.6,0.6,0.9,1.3,0.9,2.1V54c0,0.1,0,0.1,0.1,0.1
				c0.1,0,0.2-0.1,0.2-0.2c1.7-2.7,3.8-4.8,6.5-6.3c2.7-1.5,5.5-2.3,8.5-2.3c5,0,8.7,1.6,11.1,4.7c2.4,3.1,3.6,8,3.6,14.7v22.8
				c0,0.8-0.3,1.6-0.9,2.2c-0.6,0.6-1.3,0.9-2.2,0.9c-0.8,0-1.6-0.3-2.2-0.9c-0.6-0.6-0.9-1.3-0.9-2.2V65.2c0-5.5-0.8-9.3-2.4-11.5
				c-1.6-2.1-4.3-3.2-8.2-3.2c-3.3,0-6.3,1.6-9.1,4.9C154,58.7,152.7,62.5,152.7,66.8z"/>
		</g>
	</g>
</g>
<g>
	<g transform="translate(456.454834, 271.692759)">
		<g>
			<path class="st17" d="M166.2,77.5V53.7c0-0.5-0.3-0.7-0.8-0.7H159c-0.8,0-1.4-0.2-1.9-0.7c-0.5-0.5-0.7-1.1-0.7-1.8
				c0-0.7,0.2-1.3,0.7-1.8c0.5-0.5,1.1-0.7,1.9-0.7h6.5c0.5,0,0.8-0.3,0.8-0.8V34.8c0-0.9,0.3-1.7,0.9-2.2c0.6-0.6,1.3-0.9,2.2-0.9
				c0.9,0,1.7,0.3,2.3,0.9c0.6,0.6,0.9,1.3,0.9,2.2v12.3c0,0.5,0.2,0.8,0.7,0.8h13.6c0.7,0,1.3,0.2,1.8,0.7c0.5,0.5,0.7,1.1,0.7,1.8
				c0,0.7-0.2,1.3-0.7,1.8c-0.5,0.5-1.1,0.7-1.8,0.7h-13.6c-0.5,0-0.7,0.2-0.7,0.7v22.6c0,4,0.5,6.6,1.6,8s3.1,2,6.1,2
				c1.8,0,3.5-0.2,5-0.6c0.6-0.2,1.2-0.1,1.9,0.2c0.6,0.3,1,0.8,1.1,1.4c0.3,1.7-0.4,2.8-2,3.2c-2.4,0.6-4.7,0.9-6.9,0.9
				c-4.8,0-8.2-1-10.2-3.1C167.2,86.2,166.2,82.6,166.2,77.5z"/>
		</g>
	</g>
</g>
<g>
	<g transform="translate(489.15685, 271.692759)">
		<g>
			<path class="st17" d="M186.9,50.4c-4.2,0-7.5,1.3-10,3.9c-2.5,2.6-3.9,6.2-4.1,10.9c0,0.5,0.2,0.7,0.7,0.7h25.9
				c0.5,0,0.7-0.2,0.7-0.7c-0.2-4.7-1.5-8.4-3.8-10.9C194.1,51.7,191,50.4,186.9,50.4z M187.8,91.4c-6.4,0-11.5-2.1-15.5-6.2
				c-3.9-4.2-5.9-9.8-5.9-16.8c0-7.2,1.8-12.8,5.5-16.9c3.7-4.1,8.7-6.1,15-6.1c5.8,0,10.4,1.8,13.7,5.3c3.4,3.5,5.2,8.6,5.6,15.3
				c0.1,1.4-0.4,2.5-1.4,3.5c-1,0.9-2.1,1.4-3.5,1.4h-27.8c-0.5,0-0.7,0.2-0.7,0.7c0.2,4.6,1.7,8.3,4.6,10.9c2.8,2.7,6.5,4,11,4
				c3.9,0,7.5-0.7,10.8-2.2c0.6-0.3,1.2-0.3,1.9,0c0.6,0.2,1,0.7,1.3,1.3c0.2,0.7,0.2,1.4-0.1,2.1c-0.3,0.7-0.8,1.2-1.5,1.4
				C196.9,90.6,192.6,91.4,187.8,91.4z"/>
		</g>
	</g>
</g>
<g>
	<g transform="translate(524.418657, 271.692759)">
		<g>
			<path class="st17" d="M191.2,29.9v57.3c0,0.9-0.3,1.7-0.9,2.4c-0.6,0.7-1.4,1-2.3,1c-0.9,0-1.7-0.3-2.3-1c-0.7-0.7-1-1.4-1-2.4
				V29.9c0-0.9,0.3-1.7,1-2.4c0.7-0.7,1.4-1,2.3-1c0.9,0,1.7,0.3,2.3,1C190.9,28.2,191.2,29,191.2,29.9z"/>
		</g>
	</g>
</g>
<g>
	<g transform="translate(544.06546, 271.692759)">
		<g>
			<path class="st17" d="M197.7,29.9v57.3c0,0.9-0.3,1.7-0.9,2.4c-0.6,0.7-1.4,1-2.3,1c-0.9,0-1.7-0.3-2.3-1c-0.7-0.7-1-1.4-1-2.4
				V29.9c0-0.9,0.3-1.7,1-2.4c0.7-0.7,1.4-1,2.3-1c0.9,0,1.7,0.3,2.3,1C197.4,28.2,197.7,29,197.7,29.9z"/>
		</g>
	</g>
</g>
<g>
	<g transform="translate(563.712264, 271.692759)">
		<g>
			<path class="st17" d="M204.3,29.9v2.7c0,0.9-0.3,1.7-0.9,2.4c-0.6,0.7-1.4,1-2.3,1c-0.9,0-1.7-0.3-2.3-1c-0.7-0.7-1-1.4-1-2.4
				v-2.7c0-0.9,0.3-1.7,1-2.4c0.7-0.7,1.4-1,2.3-1c0.9,0,1.7,0.3,2.3,1C204,28.2,204.3,29,204.3,29.9z M204.3,49.5v37.7
				c0,0.9-0.3,1.7-0.9,2.4c-0.6,0.7-1.4,1-2.3,1c-0.9,0-1.7-0.3-2.3-1c-0.7-0.7-1-1.4-1-2.4V49.5c0-0.9,0.3-1.7,1-2.4
				c0.7-0.7,1.4-1,2.3-1c0.9,0,1.7,0.3,2.3,1C204,47.8,204.3,48.6,204.3,49.5z"/>
		</g>
	</g>
</g>
<g>
	<g transform="translate(583.359067, 271.692759)">
		<g>
			<path class="st17" d="M217.3,50.5c-4,0-7.2,1.5-9.5,4.4c-2.3,2.9-3.4,7.2-3.4,12.7c0,5.3,1.2,9.5,3.5,12.5c2.4,3,5.5,4.6,9.4,4.6
				c3.9,0,7.1-1.5,9.6-4.4c2.5-3,3.8-7,3.8-12.2v-0.9c0-5.1-1.3-9.2-3.8-12.2C224.5,52,221.2,50.5,217.3,50.5z M216,89.7
				c-5.2,0-9.4-2-12.7-6c-3.3-4-4.9-9.4-4.9-16.2c0-7.1,1.6-12.6,4.7-16.4c3.1-3.8,7.5-5.8,13-5.8c6.6,0,11.5,2.7,14.7,8.2
				c0,0.1,0.1,0.1,0.2,0.1c0.1,0,0.1,0,0.1-0.1l0.1-4.4c0-0.8,0.3-1.5,0.9-2.1c0.6-0.6,1.3-0.9,2.1-0.9c0.8,0,1.5,0.3,2.1,0.9
				c0.6,0.6,0.9,1.3,0.9,2.1v37.7c0,15.5-6.9,23.3-20.8,23.3c-4.1,0-7.8-0.6-11.2-1.7c-0.7-0.3-1.3-0.8-1.7-1.4
				c-0.4-0.7-0.4-1.3-0.2-2.1c0.2-0.7,0.6-1.2,1.2-1.5c0.7-0.3,1.3-0.4,1.9-0.1c3.2,1.1,6.6,1.7,10,1.7c5,0,8.7-1.4,11-4.2
				c2.3-2.8,3.5-7.4,3.5-13.7v-5.4c0-0.1,0-0.1-0.1-0.1c-0.1,0-0.2,0.1-0.2,0.2C227.4,87.1,222.5,89.7,216,89.7z"/>
		</g>
	</g>
</g>
<g>
	<g transform="translate(620.028818, 271.692759)">
		<g>
			<path class="st17" d="M230.6,50.4c-4.2,0-7.5,1.3-10,3.9c-2.5,2.6-3.9,6.2-4.1,10.9c0,0.5,0.2,0.7,0.7,0.7h25.9
				c0.5,0,0.7-0.2,0.7-0.7c-0.2-4.7-1.5-8.4-3.8-10.9C237.8,51.7,234.6,50.4,230.6,50.4z M231.4,91.4c-6.4,0-11.5-2.1-15.5-6.2
				c-3.9-4.2-5.9-9.8-5.9-16.8c0-7.2,1.8-12.8,5.5-16.9c3.7-4.1,8.7-6.1,15-6.1c5.8,0,10.4,1.8,13.7,5.3c3.4,3.5,5.2,8.6,5.6,15.3
				c0.1,1.4-0.4,2.5-1.4,3.5c-1,0.9-2.1,1.4-3.5,1.4h-27.8c-0.5,0-0.7,0.2-0.7,0.7c0.2,4.6,1.7,8.3,4.6,10.9c2.8,2.7,6.5,4,11,4
				c3.9,0,7.5-0.7,10.8-2.2c0.6-0.3,1.2-0.3,1.9,0c0.6,0.2,1,0.7,1.3,1.3c0.2,0.7,0.2,1.4-0.1,2.1c-0.3,0.7-0.8,1.2-1.5,1.4
				C240.5,90.6,236.2,91.4,231.4,91.4z"/>
		</g>
	</g>
</g>
<g>
	<g transform="translate(655.290625, 271.692759)">
		<g>
			<path class="st17" d="M231.1,66.8v20.6c0,0.9-0.3,1.6-0.9,2.2c-0.6,0.6-1.3,0.9-2.2,0.9c-0.8,0-1.6-0.3-2.2-0.9s-0.9-1.4-0.9-2.2
				V49.2c0-0.8,0.3-1.5,0.9-2.1c0.6-0.6,1.3-0.9,2.1-0.9c0.8,0,1.5,0.3,2.1,0.9c0.6,0.6,0.9,1.3,0.9,2.1V54c0,0.1,0,0.1,0.1,0.1
				c0.1,0,0.2-0.1,0.2-0.2c1.7-2.7,3.8-4.8,6.5-6.3c2.7-1.5,5.5-2.3,8.5-2.3c5,0,8.7,1.6,11.1,4.7c2.4,3.1,3.6,8,3.6,14.7v22.8
				c0,0.8-0.3,1.6-0.9,2.2c-0.6,0.6-1.3,0.9-2.2,0.9c-0.8,0-1.6-0.3-2.2-0.9c-0.6-0.6-0.9-1.3-0.9-2.2V65.2c0-5.5-0.8-9.3-2.4-11.5
				c-1.6-2.1-4.3-3.2-8.2-3.2c-3.3,0-6.3,1.6-9.1,4.9C232.4,58.7,231.1,62.5,231.1,66.8z"/>
		</g>
	</g>
</g>
<g>
	<g transform="translate(691.640399, 271.692759)">
		<g>
			<path class="st17" d="M256.2,91.4c-6.6,0-11.9-2.1-16-6.3C236,81,234,75.4,234,68.4c0-7.2,2-12.9,5.9-16.9
				c3.9-4.1,9.4-6.1,16.3-6.1c3.6,0,7.2,0.7,10.8,2c0.7,0.2,1.3,0.7,1.6,1.4c0.3,0.7,0.4,1.4,0.1,2.2c-0.2,0.7-0.7,1.2-1.3,1.5
				c-0.7,0.3-1.3,0.3-2,0c-2.9-1.2-5.9-1.8-9-1.8c-5,0-8.9,1.6-11.7,4.6c-2.8,3.1-4.2,7.5-4.2,13.2c0,5.5,1.5,9.8,4.4,13.1
				c2.9,3.2,6.8,4.9,11.5,4.9c3.1,0,6.1-0.6,9-1.8c0.6-0.3,1.3-0.3,2,0c0.7,0.2,1.2,0.7,1.4,1.4c0.3,0.7,0.3,1.5-0.1,2.2
				c-0.3,0.7-0.8,1.2-1.5,1.4C263.6,90.8,259.9,91.4,256.2,91.4z"/>
		</g>
	</g>
</g>
<g>
	<g transform="translate(724.470383, 271.692759)">
		<g>
			<path class="st17" d="M265.4,50.4c-4.2,0-7.5,1.3-10,3.9c-2.5,2.6-3.9,6.2-4.1,10.9c0,0.5,0.2,0.7,0.7,0.7h25.9
				c0.5,0,0.7-0.2,0.7-0.7c-0.2-4.7-1.5-8.4-3.8-10.9C272.6,51.7,269.4,50.4,265.4,50.4z M266.2,91.4c-6.4,0-11.5-2.1-15.5-6.2
				c-3.9-4.2-5.9-9.8-5.9-16.8c0-7.2,1.8-12.8,5.5-16.9c3.7-4.1,8.7-6.1,15-6.1c5.8,0,10.4,1.8,13.7,5.3c3.4,3.5,5.2,8.6,5.6,15.3
				c0.1,1.4-0.4,2.5-1.4,3.5c-1,0.9-2.1,1.4-3.5,1.4H252c-0.5,0-0.7,0.2-0.7,0.7c0.2,4.6,1.7,8.3,4.6,10.9c2.8,2.7,6.5,4,11,4
				c3.9,0,7.5-0.7,10.8-2.2c0.6-0.3,1.2-0.3,1.9,0c0.6,0.2,1,0.7,1.3,1.3c0.2,0.7,0.2,1.4-0.1,2.1c-0.3,0.7-0.8,1.2-1.5,1.4
				C275.3,90.6,271,91.4,266.2,91.4z"/>
		</g>
	</g>
</g>
<g>
	<g transform="translate(2014.501763, 733.042838)">
		<g>
			<path class="st17" d="M685.6,188.4V238c0,0.5,0.3,0.7,0.8,0.9c2.2,0.4,4.7,0.6,7.5,0.6c17.2,0,25.9-9,25.9-27.1
				c0-8.4-2.2-14.8-6.6-19c-4.4-4.3-10.8-6.4-19.3-6.4c-2.8,0-5.3,0.2-7.5,0.6C685.8,187.6,685.6,187.9,685.6,188.4z M726.3,212.3
				c0,10.8-2.8,18.9-8.4,24.5c-5.6,5.6-13.6,8.4-24.1,8.4c-3.8,0-7.2-0.2-10.3-0.6c-1.4-0.2-2.5-0.8-3.4-1.8
				c-0.9-1.1-1.4-2.3-1.4-3.7v-51.7c0-1.4,0.4-2.7,1.3-3.7c0.9-1.1,2-1.7,3.5-1.8c3.1-0.4,6.6-0.6,10.3-0.6c10.4,0,18.4,2.7,24,8.1
				C723.5,194.6,726.3,202.3,726.3,212.3z"/>
		</g>
	</g>
</g>
<g>
	<g transform="translate(2058.083093, 733.042838)">
		<g>
			<path class="st17" d="M709.9,204.2c-4.2,0-7.5,1.3-10,3.9c-2.5,2.6-3.9,6.2-4.1,10.9c0,0.5,0.2,0.7,0.7,0.7h25.9
				c0.5,0,0.7-0.2,0.7-0.7c-0.2-4.7-1.5-8.4-3.8-10.9C717.1,205.4,714,204.2,709.9,204.2z M710.8,245.2c-6.4,0-11.5-2.1-15.5-6.2
				c-3.9-4.2-5.9-9.8-5.9-16.8c0-7.2,1.8-12.8,5.5-16.9c3.7-4.1,8.7-6.1,15-6.1c5.8,0,10.4,1.8,13.7,5.3c3.4,3.5,5.2,8.6,5.6,15.3
				c0.1,1.4-0.4,2.5-1.4,3.5c-1,0.9-2.1,1.4-3.5,1.4h-27.8c-0.5,0-0.7,0.2-0.7,0.7c0.2,4.6,1.7,8.3,4.6,10.9c2.8,2.7,6.5,4,11,4
				c3.9,0,7.5-0.7,10.8-2.2c0.6-0.3,1.2-0.3,1.9,0c0.6,0.2,1,0.7,1.3,1.3c0.2,0.7,0.2,1.4-0.1,2.1c-0.3,0.7-0.8,1.2-1.5,1.4
				C719.9,244.4,715.6,245.2,710.8,245.2z"/>
		</g>
	</g>
</g>
<g>
	<g transform="translate(2093.344923, 733.042838)">
		<g>
			<path class="st17" d="M721.7,204.2c-4.2,0-7.5,1.3-10,3.9c-2.5,2.6-3.9,6.2-4.1,10.9c0,0.5,0.2,0.7,0.7,0.7h25.9
				c0.5,0,0.7-0.2,0.7-0.7c-0.2-4.7-1.5-8.4-3.8-10.9C728.9,205.4,725.7,204.2,721.7,204.2z M722.5,245.2c-6.4,0-11.5-2.1-15.5-6.2
				c-3.9-4.2-5.9-9.8-5.9-16.8c0-7.2,1.8-12.8,5.5-16.9c3.7-4.1,8.7-6.1,15-6.1c5.8,0,10.4,1.8,13.7,5.3c3.4,3.5,5.2,8.6,5.6,15.3
				c0.1,1.4-0.4,2.5-1.4,3.5c-1,0.9-2.1,1.4-3.5,1.4h-27.8c-0.5,0-0.7,0.2-0.7,0.7c0.2,4.6,1.7,8.3,4.6,10.9c2.8,2.7,6.5,4,11,4
				c3.9,0,7.5-0.7,10.8-2.2c0.6-0.3,1.2-0.3,1.9,0c0.6,0.2,1,0.7,1.3,1.3c0.2,0.7,0.2,1.4-0.1,2.1c-0.3,0.7-0.8,1.2-1.5,1.4
				C731.6,244.4,727.3,245.2,722.5,245.2z"/>
		</g>
	</g>
</g>
<g>
	<g transform="translate(2128.606754, 733.042838)">
		<g>
			<path class="st17" d="M722.2,221.6v1.2c0,5.5,1.2,9.8,3.7,12.8c2.4,3,5.6,4.5,9.5,4.5c4,0,7.2-1.5,9.6-4.6
				c2.4-3.1,3.5-7.5,3.5-13.3c0-5.8-1.2-10.2-3.5-13.3c-2.3-3.1-5.5-4.6-9.7-4.6c-3.9,0-7.1,1.5-9.5,4.6
				C723.4,211.9,722.2,216.2,722.2,221.6z M722.2,237.5V260c0,0.8-0.3,1.6-0.9,2.2c-0.6,0.6-1.3,0.9-2.2,0.9c-0.8,0-1.6-0.3-2.2-0.9
				s-0.9-1.4-0.9-2.2v-57c0-0.8,0.3-1.5,0.9-2.1c0.6-0.6,1.3-0.9,2.1-0.9c0.8,0,1.5,0.3,2.1,0.9c0.6,0.6,0.9,1.3,0.9,2.1v4.4
				c0,0.1,0,0.1,0.1,0.1c0.1,0,0.2,0,0.2-0.1c3.1-5.5,7.9-8.3,14.4-8.3c5.6,0,9.9,2,13.1,5.9c3.2,3.9,4.8,9.6,4.8,17v0.2
				c0,7.3-1.6,12.9-4.9,16.9c-3.3,4-7.6,6-13,6c-6.4,0-11.1-2.6-14.3-7.7C722.4,237.5,722.4,237.4,722.2,237.5
				C722.2,237.4,722.2,237.5,722.2,237.5z"/>
		</g>
	</g>
</g>
<g>
	<g transform="translate(2165.276504, 733.042838)">
	</g>
</g>
<g>
	<g transform="translate(2183.835364, 733.042838)">
		<g>
			<path class="st17" d="M771.9,239.4c0.6,0.6,0.9,1.3,0.9,2.1c0,0.8-0.3,1.5-0.9,2c-0.6,0.6-1.2,0.9-2,0.9h-29.8
				c-1.3,0-2.5-0.5-3.4-1.4c-1-1-1.4-2.1-1.4-3.4v-53.9c0-1,0.4-1.8,1.1-2.5c0.7-0.7,1.6-1.1,2.5-1.1c1,0,1.8,0.4,2.5,1.1
				c0.7,0.7,1,1.6,1,2.5v52.1c0,0.5,0.3,0.8,0.8,0.8h26.8C770.6,238.5,771.3,238.8,771.9,239.4z"/>
		</g>
	</g>
</g>
<g>
	<g transform="translate(2221.27307, 733.042838)">
		<g>
			<path class="st17" d="M764.3,204.2c-4.2,0-7.5,1.3-10,3.9c-2.5,2.6-3.9,6.2-4.1,10.9c0,0.5,0.2,0.7,0.7,0.7h25.9
				c0.5,0,0.7-0.2,0.7-0.7c-0.2-4.7-1.5-8.4-3.8-10.9C771.5,205.4,768.4,204.2,764.3,204.2z M765.2,245.2c-6.4,0-11.5-2.1-15.5-6.2
				c-3.9-4.2-5.9-9.8-5.9-16.8c0-7.2,1.8-12.8,5.5-16.9c3.7-4.1,8.7-6.1,15-6.1c5.8,0,10.4,1.8,13.7,5.3c3.4,3.5,5.2,8.6,5.6,15.3
				c0.1,1.4-0.4,2.5-1.4,3.5c-1,0.9-2.1,1.4-3.5,1.4h-27.8c-0.5,0-0.7,0.2-0.7,0.7c0.2,4.6,1.7,8.3,4.6,10.9c2.8,2.7,6.5,4,11,4
				c3.9,0,7.5-0.7,10.8-2.2c0.6-0.3,1.2-0.3,1.9,0c0.6,0.2,1,0.7,1.3,1.3c0.2,0.7,0.2,1.4-0.1,2.1c-0.3,0.7-0.8,1.2-1.5,1.4
				C774.3,244.4,770,245.2,765.2,245.2z"/>
		</g>
	</g>
</g>
<g>
	<g transform="translate(2256.5349, 733.042838)">
		<g>
			<path class="st17" d="M781.4,221c-6,0-10.6,1-13.9,3c-3.3,2-4.9,4.7-4.9,8.1c0,2.6,0.8,4.6,2.4,6c1.6,1.4,3.7,2.2,6.4,2.2
				c3.9,0,7.3-1.4,10.2-4.2c2.9-2.8,4.3-6.3,4.3-10.4v-4c0-0.5-0.3-0.8-0.8-0.8H781.4z M769.9,245.2c-4.1,0-7.4-1.2-9.8-3.5
				c-2.4-2.3-3.7-5.4-3.7-9.3c0-5,2.2-8.9,6.5-11.8c4.3-2.9,10.5-4.4,18.4-4.4h3.8c0.5,0,0.8-0.2,0.8-0.7c-0.1-4.2-0.9-7.2-2.5-8.8
				c-1.6-1.7-4.5-2.5-8.6-2.5c-4.2,0-8.4,0.9-12.6,2.7c-0.6,0.3-1.2,0.3-1.8,0c-0.6-0.3-1-0.8-1.1-1.4c-0.2-0.7-0.1-1.5,0.2-2.2
				c0.3-0.7,0.9-1.2,1.5-1.5c4.4-1.9,8.9-2.8,13.7-2.8c6.2,0,10.6,1.3,13.3,3.9c2.7,2.6,4,6.8,4,12.6v16.8c0,3,0.3,5.9,0.8,9
				c0.1,0.8-0.1,1.5-0.6,2.1c-0.5,0.6-1.1,0.9-1.9,0.9c-0.9,0-1.7-0.3-2.4-0.9c-0.7-0.6-1-1.3-1.1-2.1c-0.1-1.1-0.2-2.7-0.3-4.7
				c0-0.1,0-0.2-0.1-0.2c-0.1,0-0.2,0.1-0.2,0.2c-1.6,2.7-3.8,4.8-6.7,6.3C776.7,244.5,773.5,245.2,769.9,245.2z"/>
		</g>
	</g>
</g>
<g>
	<g transform="translate(2291.220772, 733.042838)">
		<g>
			<path class="st17" d="M776.5,223.2v18c0,0.9-0.3,1.7-0.9,2.3c-0.6,0.6-1.4,0.9-2.3,0.9c-0.9,0-1.7-0.3-2.2-0.9
				c-0.6-0.6-0.9-1.4-0.9-2.3v-38.1c0-0.9,0.3-1.6,0.9-2.2c0.6-0.6,1.3-0.9,2.2-0.9c0.9,0,1.6,0.3,2.2,0.9c0.6,0.6,0.9,1.3,0.9,2.2
				l0.1,6.3c0,0.1,0,0.1,0.1,0.1c0.1,0,0.1,0,0.1-0.1c4.4-6.1,10.6-9.5,18.5-10.2c0.7-0.1,1.4,0.2,1.9,0.7c0.5,0.5,0.8,1.1,0.8,1.9
				c0,0.7-0.2,1.4-0.7,1.9c-0.5,0.5-1.1,0.8-1.8,0.9c-5.6,0.5-10.1,2.5-13.5,5.9C778.2,213.9,776.5,218.1,776.5,223.2z"/>
		</g>
	</g>
</g>
<g>
	<g transform="translate(2320.210989, 733.042838)">
		<g>
			<path class="st17" d="M786,220.6v20.6c0,0.9-0.3,1.6-0.9,2.2c-0.6,0.6-1.3,0.9-2.2,0.9c-0.8,0-1.6-0.3-2.2-0.9s-0.9-1.4-0.9-2.2
				V203c0-0.8,0.3-1.5,0.9-2.1c0.6-0.6,1.3-0.9,2.1-0.9c0.8,0,1.5,0.3,2.1,0.9c0.6,0.6,0.9,1.3,0.9,2.1v4.9c0,0.1,0,0.1,0.1,0.1
				c0.1,0,0.2-0.1,0.2-0.2c1.7-2.7,3.8-4.8,6.5-6.3c2.7-1.5,5.5-2.3,8.5-2.3c5,0,8.7,1.6,11.1,4.7c2.4,3.1,3.6,8,3.6,14.7v22.8
				c0,0.8-0.3,1.6-0.9,2.2c-0.6,0.6-1.3,0.9-2.2,0.9c-0.8,0-1.6-0.3-2.2-0.9c-0.6-0.6-0.9-1.3-0.9-2.2V219c0-5.5-0.8-9.3-2.4-11.5
				c-1.6-2.1-4.3-3.2-8.2-3.2c-3.3,0-6.3,1.6-9.1,4.9C787.4,212.5,786,216.3,786,220.6z"/>
		</g>
	</g>
</g>
<g>
	<g transform="translate(2356.560763, 733.042838)">
		<g>
			<path class="st17" d="M801.9,183.7v2.7c0,0.9-0.3,1.7-0.9,2.4c-0.6,0.7-1.4,1-2.3,1c-0.9,0-1.7-0.3-2.3-1c-0.7-0.7-1-1.4-1-2.4
				v-2.7c0-0.9,0.3-1.7,1-2.4c0.7-0.7,1.4-1,2.3-1c0.9,0,1.7,0.3,2.3,1C801.6,182,801.9,182.8,801.9,183.7z M801.9,203.3V241
				c0,0.9-0.3,1.7-0.9,2.4c-0.6,0.7-1.4,1-2.3,1c-0.9,0-1.7-0.3-2.3-1c-0.7-0.7-1-1.4-1-2.4v-37.7c0-0.9,0.3-1.7,1-2.4
				c0.7-0.7,1.4-1,2.3-1c0.9,0,1.7,0.3,2.3,1C801.6,201.6,801.9,202.4,801.9,203.3z"/>
		</g>
	</g>
</g>
<g>
	<g transform="translate(2376.207543, 733.042838)">
		<g>
			<path class="st17" d="M804.7,220.6v20.6c0,0.9-0.3,1.6-0.9,2.2c-0.6,0.6-1.3,0.9-2.2,0.9c-0.8,0-1.6-0.3-2.2-0.9
				s-0.9-1.4-0.9-2.2V203c0-0.8,0.3-1.5,0.9-2.1c0.6-0.6,1.3-0.9,2.1-0.9c0.8,0,1.5,0.3,2.1,0.9c0.6,0.6,0.9,1.3,0.9,2.1v4.9
				c0,0.1,0,0.1,0.1,0.1c0.1,0,0.2-0.1,0.2-0.2c1.7-2.7,3.8-4.8,6.5-6.3c2.7-1.5,5.5-2.3,8.5-2.3c5,0,8.7,1.6,11.1,4.7
				c2.4,3.1,3.6,8,3.6,14.7v22.8c0,0.8-0.3,1.6-0.9,2.2c-0.6,0.6-1.3,0.9-2.2,0.9c-0.8,0-1.6-0.3-2.2-0.9c-0.6-0.6-0.9-1.3-0.9-2.2
				V219c0-5.5-0.8-9.3-2.4-11.5c-1.6-2.1-4.3-3.2-8.2-3.2c-3.3,0-6.3,1.6-9.1,4.9C806.1,212.5,804.7,216.3,804.7,220.6z"/>
		</g>
	</g>
</g>
<g>
	<g transform="translate(2412.557317, 733.042838)">
		<g>
			<path class="st17" d="M827.1,204.2c-4,0-7.2,1.5-9.5,4.4c-2.3,2.9-3.4,7.2-3.4,12.7c0,5.3,1.2,9.5,3.5,12.5
				c2.4,3,5.5,4.6,9.4,4.6c3.9,0,7.1-1.5,9.6-4.4c2.5-3,3.8-7,3.8-12.2v-0.9c0-5.1-1.3-9.2-3.8-12.2
				C834.2,205.7,831,204.2,827.1,204.2z M825.7,243.5c-5.2,0-9.4-2-12.7-6c-3.3-4-4.9-9.4-4.9-16.2c0-7.1,1.6-12.6,4.7-16.4
				c3.1-3.8,7.5-5.8,13-5.8c6.6,0,11.5,2.7,14.7,8.2c0,0.1,0.1,0.1,0.2,0.1c0.1,0,0.1,0,0.1-0.1l0.1-4.4c0-0.8,0.3-1.5,0.9-2.1
				c0.6-0.6,1.3-0.9,2.1-0.9c0.8,0,1.5,0.3,2.1,0.9c0.6,0.6,0.9,1.3,0.9,2.1v37.7c0,15.5-6.9,23.3-20.8,23.3
				c-4.1,0-7.8-0.6-11.2-1.7c-0.7-0.3-1.3-0.8-1.7-1.4c-0.4-0.7-0.4-1.3-0.2-2.1c0.2-0.7,0.6-1.2,1.2-1.5c0.7-0.3,1.3-0.4,1.9-0.1
				c3.2,1.1,6.6,1.7,10,1.7c5,0,8.7-1.4,11-4.2c2.3-2.8,3.5-7.4,3.5-13.7v-5.4c0-0.1,0-0.1-0.1-0.1c-0.1,0-0.2,0.1-0.2,0.2
				C837.1,240.9,832.3,243.5,825.7,243.5z"/>
		</g>
	</g>
</g>
<g>
	<g transform="translate(1036.22071, 477.09282)">
		<g>
			<path class="st17" d="M359.2,108.3v47.4c0,0.9-0.3,1.7-1,2.4c-0.6,0.7-1.4,1-2.3,1c-0.9,0-1.7-0.3-2.3-1c-0.7-0.7-1-1.4-1-2.4
				v-55.5c0-1,0.4-1.8,1.1-2.5c0.7-0.7,1.5-1,2.4-1c2.3,0,4,1,5.2,3l20.4,34.5c0,0.1,0,0.1,0.1,0.1c0.1,0,0.2,0,0.2-0.1l20.2-34.4
				c1.2-2,3-3.1,5.5-3.1c1,0,1.8,0.4,2.5,1.1c0.7,0.7,1.1,1.6,1.1,2.5v55.3c0,0.9-0.3,1.7-1,2.4c-0.7,0.7-1.5,1-2.4,1
				c-0.9,0-1.7-0.3-2.4-1c-0.7-0.7-1-1.5-1-2.4v-47.4c0-0.1,0-0.1-0.1-0.1c-0.1,0-0.2,0-0.2,0.1l-17.6,29.5
				c-1.1,1.8-2.7,2.7-4.8,2.7c-2.1,0-3.7-0.9-4.8-2.7l-17.6-29.5C359.5,108.2,359.4,108.2,359.2,108.3
				C359.3,108.2,359.2,108.2,359.2,108.3z"/>
		</g>
	</g>
</g>
<g>
	<g transform="translate(1091.001353, 477.09282)">
		<g>
			<path class="st17" d="M392.9,135.7c-6,0-10.6,1-13.9,3c-3.3,2-4.9,4.7-4.9,8.1c0,2.6,0.8,4.6,2.4,6c1.6,1.4,3.7,2.2,6.4,2.2
				c3.9,0,7.3-1.4,10.2-4.2c2.9-2.8,4.3-6.3,4.3-10.4v-4c0-0.5-0.3-0.8-0.8-0.8H392.9z M381.4,159.9c-4.1,0-7.4-1.2-9.8-3.5
				c-2.4-2.3-3.7-5.4-3.7-9.3c0-5,2.2-8.9,6.5-11.8c4.3-2.9,10.5-4.4,18.4-4.4h3.8c0.5,0,0.8-0.2,0.8-0.7c-0.1-4.2-0.9-7.2-2.5-8.8
				c-1.6-1.7-4.5-2.5-8.6-2.5c-4.2,0-8.4,0.9-12.6,2.7c-0.6,0.3-1.2,0.3-1.8,0c-0.6-0.3-1-0.8-1.1-1.4c-0.2-0.7-0.1-1.5,0.2-2.2
				c0.3-0.7,0.9-1.2,1.5-1.5c4.4-1.9,8.9-2.8,13.7-2.8c6.2,0,10.6,1.3,13.3,3.9c2.7,2.6,4,6.8,4,12.6v16.8c0,3,0.3,5.9,0.8,9
				c0.1,0.8-0.1,1.5-0.6,2.1c-0.5,0.6-1.1,0.9-1.9,0.9c-0.9,0-1.7-0.3-2.4-0.9c-0.7-0.6-1-1.3-1.1-2.1c-0.1-1.1-0.2-2.7-0.3-4.7
				c0-0.1,0-0.2-0.1-0.2c-0.1,0-0.2,0.1-0.2,0.2c-1.6,2.7-3.8,4.8-6.7,6.3C388.2,159.1,385,159.9,381.4,159.9z"/>
		</g>
	</g>
</g>
<g>
	<g transform="translate(1125.687225, 477.09282)">
		<g>
			<path class="st17" d="M400.8,159.9c-6.6,0-11.9-2.1-16-6.3c-4.1-4.2-6.1-9.8-6.1-16.8c0-7.2,2-12.9,5.9-16.9
				c3.9-4.1,9.4-6.1,16.3-6.1c3.6,0,7.2,0.7,10.8,2c0.7,0.2,1.3,0.7,1.6,1.4c0.3,0.7,0.4,1.4,0.1,2.2c-0.2,0.7-0.7,1.2-1.3,1.5
				c-0.7,0.3-1.3,0.3-2,0c-2.9-1.2-5.9-1.8-9-1.8c-5,0-8.9,1.6-11.7,4.6c-2.8,3.1-4.2,7.5-4.2,13.2c0,5.5,1.5,9.8,4.4,13.1
				c2.9,3.2,6.8,4.9,11.5,4.9c3.1,0,6.1-0.6,9-1.8c0.6-0.3,1.3-0.3,2,0c0.7,0.2,1.2,0.7,1.4,1.4c0.3,0.7,0.3,1.5-0.1,2.2
				c-0.3,0.7-0.8,1.2-1.5,1.4C408.2,159.2,404.6,159.9,400.8,159.9z"/>
		</g>
	</g>
</g>
<g>
	<g transform="translate(1158.517208, 477.09282)">
		<g>
			<path class="st17" d="M399.2,135.3v20.6c0,0.9-0.3,1.6-0.9,2.2c-0.6,0.6-1.3,0.9-2.2,0.9c-0.8,0-1.6-0.3-2.2-0.9
				s-0.9-1.4-0.9-2.2V98.2c0-0.9,0.3-1.6,0.9-2.2s1.4-0.9,2.2-0.9c0.9,0,1.6,0.3,2.2,0.9c0.6,0.6,0.9,1.4,0.9,2.2v24
				c0,0.1,0,0.1,0.1,0.1c0.1,0,0.2,0,0.2-0.1c3.8-5.6,8.7-8.4,14.9-8.4c5,0,8.7,1.6,11.1,4.7c2.4,3.1,3.6,8,3.6,14.7V156
				c0,0.8-0.3,1.6-0.9,2.2c-0.6,0.6-1.3,0.9-2.2,0.9c-0.8,0-1.6-0.3-2.2-0.9c-0.6-0.6-0.9-1.3-0.9-2.2v-22.3c0-5.5-0.8-9.3-2.4-11.5
				c-1.6-2.1-4.3-3.2-8.2-3.2c-3.4,0-6.4,1.7-9.1,5C400.6,127.3,399.2,131.1,399.2,135.3z"/>
		</g>
	</g>
</g>
<g>
	<g transform="translate(1195.186959, 477.09282)">
		<g>
			<path class="st17" d="M414.8,98.4v2.7c0,0.9-0.3,1.7-0.9,2.4c-0.6,0.7-1.4,1-2.3,1c-0.9,0-1.7-0.3-2.3-1c-0.7-0.7-1-1.4-1-2.4
				v-2.7c0-0.9,0.3-1.7,1-2.4c0.7-0.7,1.4-1,2.3-1c0.9,0,1.7,0.3,2.3,1C414.5,96.7,414.8,97.4,414.8,98.4z M414.8,118v37.7
				c0,0.9-0.3,1.7-0.9,2.4c-0.6,0.7-1.4,1-2.3,1c-0.9,0-1.7-0.3-2.3-1c-0.7-0.7-1-1.4-1-2.4V118c0-0.9,0.3-1.7,1-2.4
				c0.7-0.7,1.4-1,2.3-1c0.9,0,1.7,0.3,2.3,1C414.5,116.3,414.8,117.1,414.8,118z"/>
		</g>
	</g>
</g>
<g>
	<g transform="translate(1214.83375, 477.09282)">
		<g>
			<path class="st17" d="M417.6,135.3v20.6c0,0.9-0.3,1.6-0.9,2.2c-0.6,0.6-1.3,0.9-2.2,0.9c-0.8,0-1.6-0.3-2.2-0.9
				s-0.9-1.4-0.9-2.2v-38.2c0-0.8,0.3-1.5,0.9-2.1c0.6-0.6,1.3-0.9,2.1-0.9c0.8,0,1.5,0.3,2.1,0.9c0.6,0.6,0.9,1.3,0.9,2.1v4.9
				c0,0.1,0,0.1,0.1,0.1c0.1,0,0.2-0.1,0.2-0.2c1.7-2.7,3.8-4.8,6.5-6.3c2.7-1.5,5.5-2.3,8.5-2.3c5,0,8.7,1.6,11.1,4.7
				c2.4,3.1,3.6,8,3.6,14.7V156c0,0.8-0.3,1.6-0.9,2.2c-0.6,0.6-1.3,0.9-2.2,0.9c-0.8,0-1.6-0.3-2.2-0.9c-0.6-0.6-0.9-1.3-0.9-2.2
				v-22.3c0-5.5-0.8-9.3-2.4-11.5c-1.6-2.1-4.3-3.2-8.2-3.2c-3.3,0-6.3,1.6-9.1,4.9C418.9,127.2,417.6,131,417.6,135.3z"/>
		</g>
	</g>
</g>
<g>
	<g transform="translate(1251.183536, 477.09282)">
		<g>
			<path class="st17" d="M441,118.8c-4.2,0-7.5,1.3-10,3.9c-2.5,2.6-3.9,6.2-4.1,10.9c0,0.5,0.2,0.7,0.7,0.7h25.9
				c0.5,0,0.7-0.2,0.7-0.7c-0.2-4.7-1.5-8.4-3.8-10.9C448.1,120.1,445,118.8,441,118.8z M441.8,159.9c-6.4,0-11.5-2.1-15.5-6.2
				c-3.9-4.2-5.9-9.8-5.9-16.8c0-7.2,1.8-12.8,5.5-16.9c3.7-4.1,8.7-6.1,15-6.1c5.8,0,10.4,1.8,13.7,5.3c3.4,3.5,5.2,8.6,5.6,15.3
				c0.1,1.4-0.4,2.5-1.4,3.5c-1,0.9-2.1,1.4-3.5,1.4h-27.8c-0.5,0-0.7,0.2-0.7,0.7c0.2,4.6,1.7,8.3,4.6,10.9c2.8,2.7,6.5,4,11,4
				c3.9,0,7.5-0.7,10.8-2.2c0.6-0.3,1.2-0.3,1.9,0c0.6,0.2,1,0.7,1.3,1.3c0.2,0.7,0.2,1.4-0.1,2.1c-0.3,0.7-0.8,1.2-1.5,1.4
				C450.9,159.1,446.6,159.9,441.8,159.9z"/>
		</g>
	</g>
</g>
<g>
	<g transform="translate(1286.445366, 477.09282)">
	</g>
</g>
<g>
	<g transform="translate(1305.004226, 477.09282)">
		<g>
			<path class="st17" d="M478.9,154.1c0.6,0.6,0.9,1.3,0.9,2.1c0,0.8-0.3,1.5-0.9,2c-0.6,0.6-1.2,0.9-2,0.9h-29.8
				c-1.3,0-2.5-0.5-3.4-1.4c-1-1-1.4-2.1-1.4-3.4v-53.9c0-1,0.4-1.8,1.1-2.5c0.7-0.7,1.6-1.1,2.5-1.1c1,0,1.8,0.4,2.5,1.1
				c0.7,0.7,1,1.6,1,2.5v52.1c0,0.5,0.3,0.8,0.8,0.8h26.8C477.7,153.2,478.4,153.5,478.9,154.1z"/>
		</g>
	</g>
</g>
<g>
	<g transform="translate(1342.441921, 477.09282)">
		<g>
			<path class="st17" d="M471.4,118.8c-4.2,0-7.5,1.3-10,3.9c-2.5,2.6-3.9,6.2-4.1,10.9c0,0.5,0.2,0.7,0.7,0.7h25.9
				c0.5,0,0.7-0.2,0.7-0.7c-0.2-4.7-1.5-8.4-3.8-10.9C478.6,120.1,475.4,118.8,471.4,118.8z M472.2,159.9c-6.4,0-11.5-2.1-15.5-6.2
				c-3.9-4.2-5.9-9.8-5.9-16.8c0-7.2,1.8-12.8,5.5-16.9c3.7-4.1,8.7-6.1,15-6.1c5.8,0,10.4,1.8,13.7,5.3c3.4,3.5,5.2,8.6,5.6,15.3
				c0.1,1.4-0.4,2.5-1.4,3.5c-1,0.9-2.1,1.4-3.5,1.4H458c-0.5,0-0.7,0.2-0.7,0.7c0.2,4.6,1.7,8.3,4.6,10.9c2.8,2.7,6.5,4,11,4
				c3.9,0,7.5-0.7,10.8-2.2c0.6-0.3,1.2-0.3,1.9,0c0.6,0.2,1,0.7,1.3,1.3c0.2,0.7,0.2,1.4-0.1,2.1c-0.3,0.7-0.8,1.2-1.5,1.4
				C481.3,159.1,477,159.9,472.2,159.9z"/>
		</g>
	</g>
</g>
<g>
	<g transform="translate(1377.703751, 477.09282)">
		<g>
			<path class="st17" d="M488.4,135.7c-6,0-10.6,1-13.9,3c-3.3,2-4.9,4.7-4.9,8.1c0,2.6,0.8,4.6,2.4,6c1.6,1.4,3.7,2.2,6.4,2.2
				c3.9,0,7.3-1.4,10.2-4.2c2.9-2.8,4.3-6.3,4.3-10.4v-4c0-0.5-0.3-0.8-0.8-0.8H488.4z M477,159.9c-4.1,0-7.4-1.2-9.8-3.5
				c-2.4-2.3-3.7-5.4-3.7-9.3c0-5,2.2-8.9,6.5-11.8c4.3-2.9,10.5-4.4,18.4-4.4h3.8c0.5,0,0.8-0.2,0.8-0.7c-0.1-4.2-0.9-7.2-2.5-8.8
				c-1.6-1.7-4.5-2.5-8.6-2.5c-4.2,0-8.4,0.9-12.6,2.7c-0.6,0.3-1.2,0.3-1.8,0c-0.6-0.3-1-0.8-1.1-1.4c-0.2-0.7-0.1-1.5,0.2-2.2
				c0.3-0.7,0.9-1.2,1.5-1.5c4.4-1.9,8.9-2.8,13.7-2.8c6.2,0,10.6,1.3,13.3,3.9c2.7,2.6,4,6.8,4,12.6v16.8c0,3,0.3,5.9,0.8,9
				c0.1,0.8-0.1,1.5-0.6,2.1c-0.5,0.6-1.1,0.9-1.9,0.9c-0.9,0-1.7-0.3-2.4-0.9c-0.7-0.6-1-1.3-1.1-2.1c-0.1-1.1-0.2-2.7-0.3-4.7
				c0-0.1,0-0.2-0.1-0.2c-0.1,0-0.2,0.1-0.2,0.2c-1.6,2.7-3.8,4.8-6.7,6.3C483.8,159.1,480.6,159.9,477,159.9z"/>
		</g>
	</g>
</g>
<g>
	<g transform="translate(1412.389623, 477.09282)">
		<g>
			<path class="st17" d="M483.6,137.9v18c0,0.9-0.3,1.7-0.9,2.3c-0.6,0.6-1.4,0.9-2.3,0.9c-0.9,0-1.7-0.3-2.2-0.9
				c-0.6-0.6-0.9-1.4-0.9-2.3v-38.1c0-0.9,0.3-1.6,0.9-2.2c0.6-0.6,1.3-0.9,2.2-0.9c0.9,0,1.6,0.3,2.2,0.9c0.6,0.6,0.9,1.3,0.9,2.2
				l0.1,6.3c0,0.1,0,0.1,0.1,0.1c0.1,0,0.1,0,0.1-0.1c4.4-6.1,10.6-9.5,18.5-10.2c0.7-0.1,1.4,0.2,1.9,0.7c0.5,0.5,0.8,1.1,0.8,1.9
				c0,0.7-0.2,1.4-0.7,1.9c-0.5,0.5-1.1,0.8-1.8,0.9c-5.6,0.5-10.1,2.5-13.5,5.9C485.3,128.6,483.6,132.8,483.6,137.9z"/>
		</g>
	</g>
</g>
<g>
	<g transform="translate(1441.379839, 477.09282)">
		<g>
			<path class="st17" d="M493.1,135.3v20.6c0,0.9-0.3,1.6-0.9,2.2c-0.6,0.6-1.3,0.9-2.2,0.9c-0.8,0-1.6-0.3-2.2-0.9
				s-0.9-1.4-0.9-2.2v-38.2c0-0.8,0.3-1.5,0.9-2.1c0.6-0.6,1.3-0.9,2.1-0.9c0.8,0,1.5,0.3,2.1,0.9c0.6,0.6,0.9,1.3,0.9,2.1v4.9
				c0,0.1,0,0.1,0.1,0.1c0.1,0,0.2-0.1,0.2-0.2c1.7-2.7,3.8-4.8,6.5-6.3c2.7-1.5,5.5-2.3,8.5-2.3c5,0,8.7,1.6,11.1,4.7
				c2.4,3.1,3.6,8,3.6,14.7V156c0,0.8-0.3,1.6-0.9,2.2c-0.6,0.6-1.3,0.9-2.2,0.9c-0.8,0-1.6-0.3-2.2-0.9c-0.6-0.6-0.9-1.3-0.9-2.2
				v-22.3c0-5.5-0.8-9.3-2.4-11.5c-1.6-2.1-4.3-3.2-8.2-3.2c-3.3,0-6.3,1.6-9.1,4.9C494.4,127.2,493.1,131,493.1,135.3z"/>
		</g>
	</g>
</g>
<g>
	<g transform="translate(1477.729614, 477.09282)">
		<g>
			<path class="st17" d="M509,98.4v2.7c0,0.9-0.3,1.7-0.9,2.4c-0.6,0.7-1.4,1-2.3,1c-0.9,0-1.7-0.3-2.3-1c-0.7-0.7-1-1.4-1-2.4v-2.7
				c0-0.9,0.3-1.7,1-2.4c0.7-0.7,1.4-1,2.3-1c0.9,0,1.7,0.3,2.3,1C508.6,96.7,509,97.4,509,98.4z M509,118v37.7
				c0,0.9-0.3,1.7-0.9,2.4c-0.6,0.7-1.4,1-2.3,1c-0.9,0-1.7-0.3-2.3-1c-0.7-0.7-1-1.4-1-2.4V118c0-0.9,0.3-1.7,1-2.4
				c0.7-0.7,1.4-1,2.3-1c0.9,0,1.7,0.3,2.3,1C508.6,116.3,509,117.1,509,118z"/>
		</g>
	</g>
</g>
<g>
	<g transform="translate(1497.376417, 477.09282)">
		<g>
			<path class="st17" d="M511.8,135.3v20.6c0,0.9-0.3,1.6-0.9,2.2c-0.6,0.6-1.3,0.9-2.2,0.9c-0.8,0-1.6-0.3-2.2-0.9
				s-0.9-1.4-0.9-2.2v-38.2c0-0.8,0.3-1.5,0.9-2.1c0.6-0.6,1.3-0.9,2.1-0.9c0.8,0,1.5,0.3,2.1,0.9c0.6,0.6,0.9,1.3,0.9,2.1v4.9
				c0,0.1,0,0.1,0.1,0.1c0.1,0,0.2-0.1,0.2-0.2c1.7-2.7,3.8-4.8,6.5-6.3c2.7-1.5,5.5-2.3,8.5-2.3c5,0,8.7,1.6,11.1,4.7
				c2.4,3.1,3.6,8,3.6,14.7V156c0,0.8-0.3,1.6-0.9,2.2c-0.6,0.6-1.3,0.9-2.2,0.9c-0.8,0-1.6-0.3-2.2-0.9c-0.6-0.6-0.9-1.3-0.9-2.2
				v-22.3c0-5.5-0.8-9.3-2.4-11.5c-1.6-2.1-4.3-3.2-8.2-3.2c-3.3,0-6.3,1.6-9.1,4.9C513.1,127.2,511.8,131,511.8,135.3z"/>
		</g>
	</g>
</g>
<g>
	<g transform="translate(1533.726192, 477.09282)">
		<g>
			<path class="st17" d="M534.1,118.9c-4,0-7.2,1.5-9.5,4.4c-2.3,2.9-3.4,7.2-3.4,12.7c0,5.3,1.2,9.5,3.5,12.5
				c2.4,3,5.5,4.6,9.4,4.6c3.9,0,7.1-1.5,9.6-4.4c2.5-3,3.8-7,3.8-12.2v-0.9c0-5.1-1.3-9.2-3.8-12.2
				C541.2,120.4,538,118.9,534.1,118.9z M532.7,158.2c-5.2,0-9.4-2-12.7-6c-3.3-4-4.9-9.4-4.9-16.2c0-7.1,1.6-12.6,4.7-16.4
				c3.1-3.8,7.5-5.8,13-5.8c6.6,0,11.5,2.7,14.7,8.2c0,0.1,0.1,0.1,0.2,0.1c0.1,0,0.1,0,0.1-0.1l0.1-4.4c0-0.8,0.3-1.5,0.9-2.1
				c0.6-0.6,1.3-0.9,2.1-0.9c0.8,0,1.5,0.3,2.1,0.9c0.6,0.6,0.9,1.3,0.9,2.1v37.7c0,15.5-6.9,23.3-20.8,23.3
				c-4.1,0-7.8-0.6-11.2-1.7c-0.7-0.3-1.3-0.8-1.7-1.4c-0.4-0.7-0.4-1.3-0.2-2.1c0.2-0.7,0.6-1.2,1.2-1.5c0.7-0.3,1.3-0.4,1.9-0.1
				c3.2,1.1,6.6,1.7,10,1.7c5,0,8.7-1.4,11-4.2c2.3-2.8,3.5-7.4,3.5-13.7v-5.4c0-0.1,0-0.1-0.1-0.1c-0.1,0-0.2,0.1-0.2,0.2
				C544.2,155.6,539.3,158.2,532.7,158.2z"/>
		</g>
	</g>
</g>
</svg>
