<svg xmlns="http://www.w3.org/2000/svg" viewBox="0 0 24 24" fill="#fff"><path d="M3.8 17.2h-3c-.5 0-.8.4-.8.8v3c0 .4.3.8.8.8h3c.4 0 .8-.3.8-.8v-3c-.1-.4-.4-.8-.8-.8zm0-15h-3c-.5 0-.8.4-.8.8v3c0 .4.3.8.8.8h3c.4 0 .8-.3.8-.8V3c-.1-.4-.4-.8-.8-.8zm0 7.6h-3c-.5 0-.8.3-.8.7v3c0 .4.3.8.8.8h3c.4 0 .8-.3.8-.8v-3c-.1-.4-.4-.7-.8-.7zM23.2 18h-15c-.4 0-.8.3-.8.8v1.5c0 .4.3.8.8.8h15c.4 0 .8-.3.8-.8v-1.5c0-.5-.3-.8-.8-.8zm0-15h-15c-.4 0-.7.3-.7.8v1.5c0 .4.3.7.7.7h15c.5 0 .8-.3.8-.8V3.8c0-.5-.3-.8-.8-.8zm0 7.5h-15c-.4 0-.8.3-.8.8v1.5c0 .4.3.8.8.8h15c.4 0 .8-.3.8-.8v-1.5c0-.5-.3-.8-.8-.8z"/></svg>